<?xml version="1.0" encoding="UTF-8"?>
<svg id="uuid-871e7ba2-70cc-4bf5-8931-a2b36320874c" xmlns="http://www.w3.org/2000/svg" xmlns:xlink="http://www.w3.org/1999/xlink" version="1.1" viewBox="0 0 1086.4 407.5">
  <!-- Generator: Adobe Illustrator 29.6.0, SVG Export Plug-In . SVG Version: 2.1.1 Build 180)  -->
  <defs>
    <style>
      .st0 {
        fill: #111;
      }

      .st1 {
        fill: #474747;
      }

      .st2 {
        fill: #8f8f8f;
      }

      .st3 {
        fill: #828282;
      }

      .st4 {
        fill: url(#linear-gradient2);
      }

      .st5 {
        fill: url(#linear-gradient1);
      }

      .st6 {
        fill: url(#linear-gradient3);
      }

      .st7 {
        fill: url(#linear-gradient6);
      }

      .st8 {
        fill: url(#linear-gradient7);
      }

      .st9 {
        fill: url(#linear-gradient5);
      }

      .st10 {
        fill: url(#linear-gradient4);
      }

      .st11 {
        fill: #232323;
      }

      .st12 {
        fill: #292929;
      }

      .st13 {
        fill: #777;
      }

      .st14 {
        fill: url(#radial-gradient);
      }

      .st15 {
        fill: #5f5f5f;
      }

      .st16 {
        fill: url(#linear-gradient);
      }

      .st17 {
        fill: #919191;
      }

      .st18 {
        fill: #bebebe;
      }

      .st19 {
        fill: #797979;
      }

      .st20 {
        fill: #212121;
      }

      .st21 {
        fill: #7d7d7d;
      }

      .st22 {
        fill: #646464;
      }

      .st23 {
        opacity: .6;
      }

      .st24 {
        fill: #acacac;
      }

      .st25 {
        fill: #1f1f1f;
      }

      .st26 {
        fill: #6b6b6b;
      }

      .st27 {
        fill: #afafaf;
      }

      .st28 {
        fill: #b9b9b9;
      }

      .st29 {
        fill: #b9b9b9;
      }

      .st30 {
        fill: #a8a8a8;
      }

      .st31 {
        fill: #191919;
      }

      .st32 {
        fill: #353535;
      }

      .st33 {
        fill: url(#linear-gradient8);
      }

      .st33, .st34 {
        isolation: isolate;
        opacity: .6;
      }

      .st34 {
        fill: url(#linear-gradient9);
      }

      .st35 {
        fill: #4b4b4b;
      }

      .st36 {
        fill: #404040;
      }

      .st37 {
        fill: #787878;
      }

      .st38 {
        fill: #535353;
      }

      .st39 {
        fill: #4c4c4c;
      }

      .st40 {
        fill: #343434;
      }
    </style>
    <linearGradient id="linear-gradient" x1="787" y1="431.4" x2="752.8" y2="175.5" gradientTransform="translate(0 410) scale(1 -1)" gradientUnits="userSpaceOnUse">
      <stop offset="0" stop-color="#000"/>
      <stop offset=".4" stop-color="#010101"/>
      <stop offset=".6" stop-color="#080808"/>
      <stop offset=".7" stop-color="#141414"/>
      <stop offset=".8" stop-color="#252525"/>
      <stop offset=".9" stop-color="#3b3b3b"/>
      <stop offset=".9" stop-color="#555"/>
      <stop offset="1" stop-color="#707070"/>
    </linearGradient>
    <linearGradient id="linear-gradient1" x1="730" y1="370.8" x2="719.7" y2="108.9" gradientTransform="translate(0 410) scale(1 -1)" gradientUnits="userSpaceOnUse">
      <stop offset="0" stop-color="#000"/>
      <stop offset=".4" stop-color="#010101"/>
      <stop offset=".6" stop-color="#080808"/>
      <stop offset=".7" stop-color="#141414"/>
      <stop offset=".8" stop-color="#252525"/>
      <stop offset=".9" stop-color="#3b3b3b"/>
      <stop offset=".9" stop-color="#555"/>
      <stop offset="1" stop-color="#707070"/>
    </linearGradient>
    <linearGradient id="linear-gradient2" x1="466" y1="316.5" x2="466" y2="81.9" gradientTransform="translate(1099.2) rotate(-180) scale(1 -1)" gradientUnits="userSpaceOnUse">
      <stop offset="0" stop-color="#fff"/>
      <stop offset=".6" stop-color="#fff" stop-opacity="0"/>
    </linearGradient>
    <linearGradient id="linear-gradient3" x1="408.5" y1="296.5" x2="408.5" y2="61.9" xlink:href="#linear-gradient2"/>
    <linearGradient id="linear-gradient4" x1="343.9" y1="269.9" x2="343.9" y2="35.3" xlink:href="#linear-gradient2"/>
    <linearGradient id="linear-gradient5" x1="395.5" y1="294.8" x2="395.5" y2="60.3" gradientTransform="matrix(1,0,0,1,0,0)" xlink:href="#linear-gradient2"/>
    <linearGradient id="linear-gradient6" x1="330.9" y1="268.2" x2="330.9" y2="33.7" gradientTransform="matrix(1,0,0,1,0,0)" xlink:href="#linear-gradient2"/>
    <linearGradient id="linear-gradient7" x1="453" y1="314.8" x2="453" y2="80.3" gradientTransform="matrix(1,0,0,1,0,0)" xlink:href="#linear-gradient2"/>
    <linearGradient id="linear-gradient8" x1="590.7" y1="155" x2="594.2" y2="90.5" gradientTransform="translate(0 410) scale(1 -1)" gradientUnits="userSpaceOnUse">
      <stop offset="0" stop-color="#fff"/>
      <stop offset="0" stop-color="#cfcfcf"/>
      <stop offset=".2" stop-color="#999"/>
      <stop offset=".2" stop-color="#6a6a6a"/>
      <stop offset=".3" stop-color="#434343"/>
      <stop offset=".4" stop-color="#262626"/>
      <stop offset=".5" stop-color="#111"/>
      <stop offset=".6" stop-color="#040404"/>
      <stop offset=".7" stop-color="#000"/>
    </linearGradient>
    <linearGradient id="linear-gradient9" x1="492.7" y1="149.8" x2="494.9" y2="108.8" gradientTransform="translate(0 410) scale(1 -1)" gradientUnits="userSpaceOnUse">
      <stop offset="0" stop-color="#fff"/>
      <stop offset="0" stop-color="#cfcfcf"/>
      <stop offset=".2" stop-color="#999"/>
      <stop offset=".3" stop-color="#6a6a6a"/>
      <stop offset=".4" stop-color="#434343"/>
      <stop offset=".5" stop-color="#262626"/>
      <stop offset=".6" stop-color="#111"/>
      <stop offset=".8" stop-color="#040404"/>
      <stop offset=".8" stop-color="#000"/>
    </linearGradient>
    <radialGradient id="radial-gradient" cx="994.9" cy="148.8" fx="994.9" fy="148.8" r="9.8" gradientTransform="translate(0 533.2) scale(1 -1.2)" gradientUnits="userSpaceOnUse">
      <stop offset=".5" stop-color="#ccc"/>
      <stop offset="1" stop-color="#000"/>
    </radialGradient>
  </defs>
  <path d="M498.4,110.5c-2.9-3.9-6.9-6.8-11.5-8.4l-.2,3.3-2.1-1.4c-4.3,1-8.9.9-13.2-.5l.5,3.7c-1.7-1.5-4.4-1.1-6.3.2s-3,3.3-4.1,5.3c0-3.2-2.2-6.3-5.2-7.4l-.2,2.9c-4.3-.3-8.7.9-12.4,3.3-2.8-5.4-10.5-7.5-15.7-4.4,0-2.7-1.3-5.4-3.3-7.2l-.8,4.7c-5.2-4.6-12.8-6.5-19.5-4.9-.7.9-.7,2.3,0,3.1-1.3-.9,0-3.4,1.4-2.9s.9,3.2-.6,3.1c-.4-.8-1.3-1.3-1.9-2.1s-.7-2,.2-2.4,1.2,1.6.3,1.3c-1.3-1.2-3.3-1.6-4.9-.9l-.2,4.8-4.2-2.1-.6,3c-4.9-1.5-10.3-2.4-15-.4s-8.2,7.5-6.3,12.3l-2.7-6.3c-1.2-1.2-3.8.2-3.4,1.8-.4-1.8-2.2-2.8-3.9-3.5-9.5-4.1-19.8-6.5-30.2-7,.1,1.3.2,2.5.4,3.8.9-2.7-.6-5.9-3.2-7-.7-.3-1.6-.4-2.2.1s-.2,1.8.5,1.6,0-1.6-.4-1c-3.4-.3-6.8.3-9.8,1.8-5.9-1.7-12.4-1.7-18.3.1,1.8-3.2-1-7.9-4.7-7.7,0,1.4,0,2.8,0,4.2-.1-2.3-1.7-4.4-3.8-5.3l-.2,3c-1.5-1.3-3.8-1.7-5.6-.9-.2-1.5-1.6-2.8-3.1-2.8v3.3c-2.1-1-4.1-2-6.3-1.7s-4,2.7-3.1,4.6l-3.3-1.4c.6,5,1.6,9.9,3.1,14.7-2.5-2.9-6.3-4.6-10.1-4.7-1,2.9-1.4,6-1.1,9.1-1-1-2.2-2.1-3.6-2.3s-3.1.7-3.1,2.1l-3-1.9,1.4,6c-3.6-1.6-8.3-.6-10.8,2.4l3.6,3.4c-7-1.9-7.2,3-8.3,1.2-2.6-4.2-5-2.6-7.5-2.6,0,0-2.7-1.3-2.6-10.1s-2.7,10.2-3,9.4c-3.8-2.1-6.7-4.8-12.2-4.7l2.5,3.7c-3.5-1.2-5.2,4.5-5.2,4.5-6-2.4-8.3.6-9.9,2.6,0,0-6.6-1.6-9,2.7-1.7-5.5-4.5-5.3-8.1-2.6l-1.3-4.5c-5.5,6.3-5.5,17.1-4,20.6s-10.6-11-33.5-3.7c15.4,0,25.1,4.6,25.3,9.4-7-1.2-14.2-.8-21,1,7.5,0,15.8.3,21.2,5.4-7.2-.8-14.6-.2-21.6,1.7,3.7-.4,7.6-.7,11.1.4s12.2-.1,12.4,3.6c-2-.9-4-.6-6-.9s-2.5.2-3.4,1-3.1,2.4-2.8,3l-.9-.7c-1.4-1.1-3.5-.7-4.4.8s-3.4-2.2-3.8,3c0,0-4.6-4.9-7.5,2.2l-3.2-.8c-2.3-.6-4.7.1-6.1,2s-1.6,4.1-.6,6.9c-2.2-.9-5.4-1.4-6.2,2.4-4.2-2.2-6.5,2.3-6,3.1-.7-2.6-8.6-4.6-9.7,2,0,0-2.2-3.3-6.8,1,0-1,0-1.9,0-2.9-.1-3.4-.5-8.5,1.2-11.4-3.1,2.6-4.8,6.8-4.5,10.8-.4-.5-.8-1.1-1.2-1.6-2.6-3.4-3.5-6.2-4.5-10.5l-.7,12.6c-1.8-2.2-4.3-3.9-7-5l4.9,8.8c-2.9-.3-5.8.3-8.3,1.8,3.5.4,6.2,4.2,5.4,7.7l-4.9-1c-.8,1.5-1.2,3.2-1.2,4.9l-4.2-.4-1.2,6.1c-.4-1.8-2.3-3.1-4.1-2.7s-3,2.4-2.6,4.2l-4.8-3.6v3.6c-1-3-5.8-3.1-7.7-.6s-1.5,6.1-.3,9c-.9-1.3-2.6-1.9-4.2-1.5-.8,1.2-.9,2.9-.2,4.2-1.3-1.3-3-2.3-4.8-2.6-.3,1.1.1,2.3,1,3-2.1-2.4-4.2-4.7-6.3-7.1-3.1,2.6-4.4,7.3-3,11.1-4.4.2-7.1,6.5-4.2,9.8-4.1-1.4-9,.6-11,4.4-3-3.2-9.6-.9-9.9,3.5-1.1-1.1-3.1-1.3-4.4-.4-11.2-1.3-22.7,12.6-18.8,23.2l-7.5,2.5-5.4,24.7,4.6-3.8c.7,6.8.7,13.7-.1,20.4,11.3-.1,22-5.2,32.1-10.3,14.1-6.9,28.2-13.9,41.7-21.9,38-22.7,71.1-54,112.2-70.4,28.9-11.5,60.3-15.1,90.1-24.2,10.7-3.3,21.3-7.3,30.2-14,6-4.5,11.3-10.3,18-13.6,4.4-2.2,9.3-3.4,14.2-4.5,18.9-4.3,37.8-8.6,56.6-13,5.9-1.3,11.9-2.7,17.9-1.7,10.5,1.7,18.4,10.2,27.8,15.1,19.1,10,42.6,4.5,62-4.8,7.8-3.7,15.7-8.4,20.1-15.8s-2.9-13.2-8.1-20.1Z"/>
  <path d="M590.9,107.4l2-1.7c.1,0,.2-.2.4-.2.2,0,.4,0,.6.1,2.1,1,4.3,1.8,6.5,2.3-1-.7-1.4-2.2-.8-3.3.8.6,1.7,1.2,2.5,1.9-.3-.4,0-1,.4-1.2s1,0,1.5,0c.9.2,1.8.4,2.7.6.6.2,1.5.6,1.3,1.2-.2.7-1.5.9-1.3,1.6,1.2-1.3,3-2,4.8-1.8.3,1.1,0,2.4-.8,3.2,1.6-.7,2.9-.7,4.5-1.3-.7.7.8,1.4,1.8,1.2,1.8-.4,3.6-.7,5.4-1.1.4.9.8,1.9,1.2,2.8,0-.7,0-1.4,0-2.1.6,0,1.2.5,1.4,1.1-.1-.6-.2-1.3-.3-1.9,1.3,0,2.5-.2,3.8-.3-.1.7,0,1.5.4,2.1-.1-2,1.9-3.9,3.9-3.7,1.2.9,2.2,1.8,3.2,3-1-1.4.2-3.7,1.9-3.9s3.4,1.3,3.7,3c.3-1.5,1.8-2.7,3.4-2.7s3,1.3,3.2,2.9c1.6-1.1,3.5-1.5,5.4-1.3,0,.7.2,1.4.3,2.1.7-2.7,5.1-3.3,6.5-.9-.9-4.8-3.7-9.2-7.5-12.1,2.7.7,5.3,2.3,7.2,4.4-1.6-3.6-2.2-7.6-1.9-11.6.5.5,1,1,1.5,1.5-.5-1.1-.7-2.2-.7-3.4.7.8,1.7,1.3,2.7,1.4-.3-1.7,0-3.4.5-5,.1.9.7,1.8,1.5,2.3.9-2.8,2.5-5.3,4.5-7.4.7,2,1.3,4,2,6-.4-.7.2-1.8,1-1.7,0,1.4,0,2.8,0,4.2l1.4-1.7-.2,7.5c.5-.6.9-1.2,1.4-1.8-.2,3.5-.9,7-2,10.4,1.5-1.9,3.3-3.5,5.3-4.6-1.6,1.8-2.9,3.9-3.7,6.2,1.5-1.3,3.2-2.2,5.1-2.7l.2,1.6,2.8-.8c-.6,1.4,1.3,2.9,2.5,2.1.2.7.4,1.3.6,2,6.4-.2,10.6,6.5,16.2,9.6,3.5,1.9,7.6,2.4,11.6,2.9,8.5,1,17.1,2,25.6,3,5.6.7,12.1,1,16.1-3-.2,1.6.8,3.3,2.3,4,.2-.6.3-1.2.5-1.9,1.4.6,2.7,1.5,3.8,2.6,3.8-.1,7.6-.2,11.4-.4.4,0,.9,0,1.2.3.4.3.4.9.4,1.4,0,2.3,0,4.7-.1,7,8.9-.5,16.2,4.8,22.7,11,2,2,4.1,4,5.6,6.4,1.4,2.2,2.4,5,4.9,5.9,1.5.6,3.1.3,4.6.2s3.3.2,4.3,1.4.2,3.6-1.3,3.5c1.2-.6,2.5-1.2,3.8-1s2.6,1.5,2.2,2.7c2.3,0,4.6,0,6.9,0,2.6,0,6.1,1.1,5.7,3.6-.7-1.5.9-3.3,2.6-3.4s3.2,1,4.6,2c.3-1.9,1.9-3.4,3.8-3.6s3.8,1.1,4.4,2.9c3.2,0,6.8.3,9,2.7s1.1,7.4-2.1,7.2c3.4.8,4.7,6,1.9,8.2,1.1.2,2-.7,2.5-1.7s1-2.1,2-2.5,2.5.7,1.9,1.6c.5-2.3,4.5-2.2,4.9.1,2.7-1.9,6.7-1.8,9.4.2-.2-4.3,2.8-8.5,6.9-9.7s8.9.5,11.2,4.1c-.1-2.2-.2-4.6,1.2-6.3s4.8-1.7,5.3.5c-1.1-1.2,1.1-3.2,2.2-2.1,2.6-4,5.5-7.8,8.8-11.3.7,1.7,1.5,3.5,2.2,5.2,0-2.1,1.2-4.2,3.1-5.1-.3-2.5-1.6-4.9-3.4-6.7,2.9.9,5.5,2.5,7.6,4.7-1.4-5.5-1.3-11.4.3-16.9,0,2.6.5,5.3,1.4,7.8,0-4,1-9.3,5-9.8-.1,1.8-.2,3.6-.4,5.4,1.7-2.5,5.2-3.5,8-2.3-3.2.8-5.9,3.2-7.1,6.2,2.1-.2,4.1-.4,6.2-.6-2.1,3.1-3.5,6.5-4.2,10.2,1.8-1.7,4.2-2.8,6.7-3-1.5,2.2-2,5.1-1.2,7.6,3.2.8,8.1-.5,10.5-2.7,2.1,3.5,5.3,6.4,9.2,7.8,2.7-1.1,6-.5,8.1,1.4,2.6-1,5.6-.4,7.7,1.3,3.3-2,8.2-.9,10.3,2.4-1.1-1.9-.3-4.7,1.7-5.8-1-1.6-1.2-3.7-.6-5.5,2.2,1.7,4,3.8,5.5,6.1-.1-2.1.1-4.2.7-6.3,1.7,1.5,3.4,3.1,5.1,4.6.4-1.5,2.4-2.2,3.7-1.3.2,1.3,0,2.6-.7,3.7,1.7-.4,3.4-.5,5.1-.3,0,1.3-1.4,2.3-2.6,1.9,2.1-.5,4.5,1.3,4.6,3.5-.9-.1-1.9,0-2.7.5,1.7-.4,3.5,0,4.9,1-1.2,2.2-2.4,4.3-3.7,6.5,1.5.2,3.1.3,4.6.5.8,2.1,1.7,4.1,2.5,6.2,1.1-.7,2.7-.4,3.5.6,1.4-1.8,4.3-.6,6.1.8,4.5,3.6,8.5,7.9,11.8,12.6,1,0,2.9,1.1,4,1.1l.3,3.5c2-2.3,6.1-2.3,8.1,0s1.5,6.3-1,8c1.6-.9,3.3-1.9,5.1-1.7s3.6,2,2.9,3.7c0-.8,0-1.5,0-2.3,2.7.3,4.5,3.6,3.3,6,2.1-1.4,5.9-1.2,6.2,1.3.3,2.7-4,4.3-3.8,7,1.4-1.1,3.8.4,3.8,2.3s-1.7,3.3-3.5,3.7-3.6,0-5.4-.4c1.7,2.2,1.3,5.7-.8,7.5,1.1-1.1,3-1.2,4.1-.1.4-1.4,1.4-2.6,2.8-3.1.5,1,1.1,2.1,1.6,3.1-.9-1.5,0-3.7,1.5-4.2s3.6.7,3.8,2.4c-.1-1.2,1-2.4,2.2-2.3s2.2,1.3,2,2.5c1-1.9,4.3-1,5,1s-.3,4.2-1.4,6c1.2-1.3,3.4-1.3,4.9-.4s2.2,2.8,2.2,4.6c0,2-1.2,4.1-3.2,4.5,2.5-.9,5.4,2.3,4.1,4.7-2.8.3-5.6.4-8.4.3,1.9,1.9,2.6,4.9,1.7,7.4-1.3,1.3-3.9-1-2.7-2.5,2.4-.1,2.8,2.7,3.3,5,1.2-1.2,2.4-2.3,3.6-3.5-.1,2.1-.2,4.3-.4,6.4l3-2.7c0,1.6-.7,3.1-1.8,4.3,2.2.9,4.4,1.9,6.6,2.8h-6.5c1.9,1.4,1.9,4.7,0,6.2,1.8,0,3.6,0,5.4,0-.2,1.5-.5,3-.7,4.5,1.3-.4,2.7-.8,4-1.1l.5,5.2c1.5-2.1,4.3.8,5.1,3.3.8,2.6,1.6,5.2,2.3,7.8-1.2.1-2.5.2-3.7.3,1.1,1.4,1.4,3.4.8,5.1-1.9.2-3.7-1.9-3.3-3.7.2,2.4.3,5.1-1.3,6.9s-5.6.9-5.3-1.5c-.4,4-5.1,6.4-9.1,5.9s-7.4-3-10.6-5.4c-25.2-18.9-51.8-36.3-80.7-48.7-34.8-14.9-72.9-22.5-110.7-20.4-14,.8-29,2.6-41-4.4-8.6-5.1-14.3-13.9-21.7-20.5-11.1-9.9-25.8-14.6-38.4-22.3-9.7-5.9-18.2-13.6-26.6-21.2-.6-.5-1.2-1.3-.9-2s1.7.2,1,.5c-19.6-9.2-41.6-17.9-62.8-22.7-8.8-2-17.8-3.6-26.7-5.2-20.7-3.5-41.5-6.6-61.8-11.7-4.3-1.1-8.7-2.3-12.7-4.3-1.6-.8-3.1-1.8-4-3.3-1.7-2.9-.2-6.8,2.4-8.9s8.5-1,11.1-3.1Z"/>
  <g>
    <rect class="st37" x="505.3" y="124.6" width="75.6" height="5.2"/>
    <rect class="st3" x="505.9" y="119.6" width="74.3" height="5"/>
    <rect class="st2" x="506.7" y="115.2" width="72.7" height="4.4"/>
    <rect class="st30" x="507.7" y="110.8" width="70.8" height="4.4"/>
    <rect class="st26" x="503.9" y="129.9" width="78.4" height="6.7"/>
    <rect class="st15" x="501.9" y="135.3" width="82.3" height="6.7"/>
    <rect class="st38" x="500" y="141.4" width="86.1" height="6.7"/>
    <rect class="st35" x="496" y="148.1" width="94.1" height="6.7"/>
  </g>
  <g>
    <path class="st16" d="M761.7,6.3c-.4,1-1,1.3-.6,2.6-.6,0-1.1-.9-2.2-.7,1.5,1,2.3,2.7,2.2,4.5-.8,0-1.6,0-2.3,0,1.7,1.9,2.7,4.2,3,6.7-1,.3-2.2.1-3.1-.4,1.6,1.1,3,2.6,4.2,4.2-1.6.2-3.3-.1-4.8-.8,2,1.1,3.3,3.4,3.2,5.6-1,0-1.9,0-2.8.1,1.6,1.3,2.5,3.3,2.5,5.3-.2-.8-1.6-1.8-3.1-1.4,2,.7,2.9,3,2.9,6.4-2.9,0-3.4-1.9-1.6-4.2-1.2.2-1.4.4-2,1.1-1-1.5.8-2.3-1.6-4,.6,2-.9,3.4-3.1-1-.3,1.3.6,2.6,1.5,3.6s2,2.1,1.9,3.5-1.9,2.5-2.8,1.5c1,2.4,3.8,2,5.6,2-2.2.4-2.9,1.4-3.2,2.7,3.2-2.7,6.6,1.4,6.6,1.4-2.9-.5-4.3-.6-6.4.5,2.5,1,5.3,0,8.3,4.7-3,0-5.2-1.7-9.1.2,3.2.8,4,1,5.8,3.4-3.5.5-4.3-.7-7.5,1.5,2.3-.3,4.7,1.3,5.7,3.4s1.6,2.9,1.7,5.2c-2.5-1.8-4.8-2.8-8-.5,6.1.4,9.6,6.7,10,10.3-3.9.3-5.4.5-8.8-2.9.6,3.8,2,8.3,5.6,11.3-6.5-.8-12.2-6-13.7-12.4-.9,3.6.2,7.2,1.2,10.8-3.2-1.6-5.8-4.3-7.3-7.6.5,2.3.9,4.6,1.4,6.9-2.4-.7-3.5-3.4-3.9-5.9s-.4-5.1-1.9-7.1c0,2.7.4,2.9-1.2,5.1-3.2-7-5-13.2-5.9-21.1-1.1,6.9-.5,14.1,1.8,20.8-1.4,0-2.8.2-4.3,1.4,4.2,0,6.6.2,7.8,3.3-1.8-.1-3.7,0-5.5.4,2.7.3,5,.4,5.8,2.9-1.5.3-3.4,1-4.4,2.8,5-1.4,7.1-1.4,7.6,2.7-2.2-.5-5.3,2.6-4.9,4.1,3.8-3.1,6.2-2.1,9.3.2-2.9,1.8-2.2,3.2-2.3,4.4,2.3-4.4,5.5-1.9,8-1.1-1.1.7-1.3,1.8-.5,3,1.3-2.8,6.3-1.4,9.3-.3-3.2.8-6.1,2.2-7.4,4,6.8-1.2,11.7-1.8,17.8,1.5-2.2-.7-5.8-2.3-9.3,1,2.8-.7,4.8-1.2,6.7.5-.4-.6-3.3.7-1.4,2.6-6.5,0-12.8-2-17.6,3.9,5.5-2.7,7.5-3,11.6-1.8,0,0-1,1.7.6,2.5-.5,1.6,2.5,2.4,2.5,2.4l-3.3,1.4c4.5-.9,5.1.9,5.1.9-1.5-.1-1.9,2.2-3.3,2.1,4,.8,8,2,11.8,3.6-2.6,1.2-5.3,2.5-7.9,3.7,3.8-1.2,7.9-2.3,11.7-1-2.8,2.5-6.4,4.1-10.1,4.4-1.1,0-2.7.5-2.5,1.6.4.1.8.2,1.2.3,0-.7,0-1.5,0-2.2-.3,2-1.6,5.9-2,7.9-1.4.3-2.4,1.5-2.9,2.8s-.5,2.7-.6,4.1l-1.8-.7c-4.3,2.9-8.7,5.9-13,8.8-.5.4-1.2.9-1,1.6.2.7,1,.8,1.6,1.1,1.3.6,2.1,2.2,1.8,3.6.3.1.7.1,1-.1-.3-1.6-.7-3.3-1-4.9-.9,3.8,3.7,11.9,6.1,14.9.3.4.8.9,1.4,1,.6,0,1.2-.3,1.7-.7,1.8-1.4,3.5-2.8,5.3-4.1-.3,1.7-.5,3.4-.8,5.2,4.2,2.3,9.5,2.1,13.6-.3l.4,3.5.6-7.3c6,3.5,12.7,5.9,19.6,7.1.3-2.8.4-5.6.2-8.4,1.1,1.7,2.5,3.2,4.4,3.7s4.3-.8,4.4-2.7c3.5-1.1,6.8-2.7,9.8-4.7,1.3-.9,2.8-2.4,2-3.8-1-1.7-3.9-.4-5.5-1.5.5-4.2,1.6-8.4,3.3-12.3-1.4,1.2-2.9,2.4-4.3,3.6-.8.7-2,1.5-3,.9-.5-.3-.7-.8-.9-1.3-1.2-3.5-.2-7.6,2.3-10.3-.5-.2-1.1-.4-1.6-.6-.7,1.5-1.4,3-2.1,4.4,2.1-8.4,2.7-17.2,1.7-25.8-1.5,2.8-3.1,5.7-4.6,8.5.7-5.4-.3-10.3,2.6-14.8-.9.3-4.9.8-4.6,1.7-.5-3.4-1.6-6.7-3.2-9.8.4,2.9,0,6-1.3,8.7-2.4-4.4,4.7-12.6.3-25.7.9,3.7-.7,7.8-3.8,9.9-.2-4-.3-8-.5-12-.8,2-4.5,1.3-4.6-.8-.1-2.2,2.3-2.5,1.6-6.2,0,.4-3.4,2.5-3.8-.6s-.4-2-.2-3c.2-1.3.5-2.8,1.5-3.7.7-.7,1.7-1.2,2.3-2,.9-1.3.5-3,0-4.5-.8-2.9-1.6-5.8-2.4-8.7.1,4.2-.4,9.5-4.4,11.1-.8-4.4-2.2-8.7-4.3-12.6.3,1.6-.1,3.3-1.1,4.5-.2-3.4-.3-6.8-.4-10.1-.8.9-1.6,1.7-2.3,2.6.3-2.8.4-5.5,0-8.3-.6.5-1.3,1.1-1.9,1.7,1.3-4.8,1.7-9.8,1.2-14.7-.3,1.9-.7,4-2.6,5-.6-5-1.1-12.2,1.9-14.7-.7.1-3.8,1.5-3.7,2.2-.5-4.6.9-5.8.4-10.4,0-.6-2.7-4.4-3.7-4.4,0,0,2.3,2.4.8,5.9Z"/>
    <path class="st5" d="M719.2,164.6c-2.2.6-4.6.7-6.9.4,2.1-1.3,4-2.8,5.7-4.6-1.8.5-3.5,1.5-4.8,3,1-1.7,1.7-3.5,2.3-5.4-1.8.8-3.4,2.2-4.4,3.9-.2.2-.3.5-.6.6-.6.2-1.1-.6-1.2-1.3-.2-1.1-.2-2.3-.2-3.4-.5,1.7-1.5,3.1-2.9,4.2-1.2-2.3-1.4-5.1-.5-7.5-.9,1.8-2.2,3.3-3.9,4.5-.9-2.5-.5-5.4.9-7.6-1.7.5-3.1,1.6-4,3.1-.1-2.4,1-4.9,3-6.4-1.7-.4-3.6-.1-5.1.8-.1-.9.7-1.7,1.3-2.4s1.1-1.9.3-2.5c-.3-.2-.6-.2-1-.3-1.2,0-2.5,0-3.7.2,1.1-1.4,2.9-2.2,4.7-2.2-2.9-.8-5.4-2.9-6.6-5.7,1.6.1,3.3-.5,4.4-1.7-2.1,0-4.1-1.4-4.8-3.4,2-.2,4.2-.3,6.2,0-2.2-2-4.8-3.5-7.5-4.4,2.5-.6,4.9,1.7,7.4,1.2-3.1-3.3-6.8-6.2-10.8-8.2,1,0,1.9.2,2.8.7-1.5-2.6-3.5-4.8-6-6.5-.3-.2-.6-.5-.5-.8.1-.3.5-.3.8-.2,1.3.2,2.6.1,3.8-.3-2-.5-3.8-1.6-5-3.2,1.4,0,2.4-.8,3.8-.9-1.2-1.5-2.8-2.5-4.4-3.5,1.6.8,3.5.9,5.2.3-1.4-1.5-2.8-2.9-4.4-4.3-1.1-1-2.3-2.1-2.4-3.5.8.3,1.2,1.6,2,1.7-.9-2.8-1.8-5.6-2.6-8.3.9,0,1.8,0,2.6,0-1.7-1.9-3.2-4.1-4.4-6.3,1.7,0,3.4.6,4.8,1.7-1.7-2.2-3.3-4.4-4.9-6.6h2.5c.4,1.4.8,2.9,1.2,4.3,0-1.4,0-2.9,0-4.3,1.6,2.5,2.7,5.4,3.1,8.3-.2-.7.9-1.2,1.5-.8s.8,1.3.9,2c.4,2.8.8,5.6,1.2,8.4-.2-1.4-.3-2.8-.5-4.2,1.7-.1,2.9,1.8,3.2,3.5s0,3.6.7,5.1c0-1.7.7-3.4,1.8-4.6,1.6,2.2,2.4,5,2.3,7.8-.4-1.8.3-3.8,1.8-5.1.3,2,.6,4.1,1,6.1-.2-1,.5-2.1,1.4-2.5.1,2.4.5,4.8,1,7.1.5-1.5,1.3-2.8,2.5-3.9-.4,2.5,0,5,1,7.3.9-1.2,1.2-2.8.9-4.2,1.3.7,2.2,2.1,3.3,3s3,1.5,4,.5c-2-1.5-4.1-3-6.2-4.3,1.4-.2,2.8-.4,4.2-.6.4,0,.8-.2.8-.6,0-.2-.1-.3-.2-.5-1.5-1.4-4.8-.4-5.3-2.3,2.2.3,4.5.1,6.5-.6-3.5.2-5.6-3.8-8.7-5.4,1.7,1.3,4.2,1.4,5.9.1-1.3-1.4-3.4-1.9-5.2-2.5s-3.8-1.7-4.4-3.5c1.8,1.6,4.7,1.9,6.8.8-3.1-.9-5.9-3-7.7-5.7,2.6.5,6.4,2.1,9,2.7l-7-2.1h4.8c0,0-3-3.6-3-3.6,1.5.6,3,1.2,4.5,1.9-.4-4.3-5.4-6.5-7.4-10.3,1.8.3,3.6.6,5.3.9-.8-1.7-2.4-2.9-4.2-3.4-.3,0-.6-.2-.8-.4-.5-.7.8-1.3,1.7-1.1s1.9.7,2.4,0c-1.8-2.2-3.6-4.5-5.4-6.7-.2-.3-.5-.7-.3-1.1.1-.2.3-.2.5-.3,1.6-.4,3.4,0,4.7,1.1.4.3.8.8,1.4.9s1.2-.4,1.1-.9c0-.2-.3-.4-.5-.5-2.5-1.9-4.3-4.6-5.1-7.6,0-.2,0-.3,0-.5,0-.7,1-.9,1.6-.6s1.1.8,1.7,1,1.5,0,1.6-.6c-2.4-1.6-4.2-4.1-5-6.9,1.5.4,3,.3,4.5,0-3.1-1.4-5.7-3.8-7.3-6.8,2.5.2,5.1.7,7.5,1.4-1.5-1.9-.2-3-.2-5.4,0-1,.4-2.5,1.4-2.2.5,3.5.9,7,1.4,10.5,1.5-2.3,3.5-4.3,5.8-5.8-1,4-1.5,8.2-1.5,12.3.8-1.5,2.1-2.7,3.6-3.4-.2,3.2-.3,6.3-.5,9.5,0,1.2-.2,2.5-.9,3.5.9-1.1,1.9-2.2,2.8-3.4,0,3.2-.9,6.4-2.3,9.4,1.3-2,4.1-3,6.4-2.2-.4,1.9-1.4,3.8-2.9,5.1,1.3-2,3.4-3.4,5.7-4-.4,2.4-1,4.7-1.8,6.9-.5,1.3-1.1,2.7-2.1,3.7s-2.4,1.8-3.8,1.6c1.9-.2,3.8.5,5.2,1.8-1.3.7-2.6,1.3-3.9,2,1.2,0,2.3-.1,3.5-.2.5,0,1.1,0,1.4.4.4.6-.1,1.3-.6,1.8-.7.7-1.5,1.4-2.2,2.2.7-.4,1.5-.9,2.3-.9,1.9,0,1.3,1.4,1.4,2.5.1,1.5.5,2.8.9,4.3,0,.3.2.6,0,.8-.1.2-.3.3-.5.4-1.7.8-3.4,1.6-5.1,2.5,1.6-.6,3.2-1.2,4.7-1.9-.4,2.3-.9,4.7-1.3,7.1,1.6-1.3,3.4-2.9,3.6-4.9,1.2,1.9,1,4.6-.4,6.4.5-.8,1.2-1.4,2-1.8,0,2.1,0,4.2,0,6.3,0,.7-.3,1.6-.9,1.5.5-1.4,2.1-4,2-5.5,2,1.8,3.3,4.4,3.4,7.1.6-1.7.8-3.5.7-5.3.3.9.7,1.8,1.2,2.6.9-1.6.5-3.6-.5-5.1s-2.4-2.6-3.9-3.7c2.8-1.3,6.5-.4,8.3,2.2-.7-2.1-2.2-3.9-4.1-5.1,1.4-.6,3,.3,3.8,1.5s.8,2.8.7,4.3-.3,3,0,4.4c.3-1.4,1.3-2.6,2.5-3.2-.2,2.9-1,5.7-2.3,8.3,1.4-.9,2.6-2.1,3.7-3.4-1.7,3.2-2.3,6.9-1.7,10.5,1.2-.8,2.3-1.8,3.2-3-.3,1-.7,2-1,3,1.4-.5,2.7-1.4,3.7-2.6-1.2-2.5-2.6-4.9-4.1-7.3,1.3,1.5,2.6,3.1,3.9,4.6.6.7,1.6,1.4,2.3.8.7-.6.3-2,1.1-2.4,0,2.1-.5,4.2-1.6,6.1.8-.8,2-1.1,3.1-.7.3.1.6.3.6.7,0,.3-.2.5-.5.6-1,.8-2,1.5-3,2.3,1.3-.5,2.9-.8,4.2-1.2-.3,1.8-.7,3.6-1,5.4,1.6-1.3,3.2-2.6,4.8-3.9,0,3.5,0,7,0,10.5.7-1.9,2.3-3.4,4.3-3.9.5,2.4,0,4.9-1.3,6.9-.4.5-.9,1.1-1.6,1,0-.4-.1-.8-.2-1.1,0,.6.7,1.8.2,2.1,3.2-1.5,5.7-4.6,6.6-8.1,1,1.5,1.8,3.2,2.2,5,.3-2.3.6-4.6,1-6.9,1.4,4.2,1.7,8.7.8,13,.9-3.2,2.5-6.3,4.6-8.8.2,3.3-1,6.7-3.3,9.1,1.5-2,4.3-3,6.8-2.2.6.3-.2,1.1-.8,1.3-1.8.4-3.6.9-5.4,1.4,1.8-.8,3.8-1.2,5.8-1.3-.6,1.8-2.7,2.8-4.6,3.2s-3.9.5-5.6,1.6c2.3.3,4.7.4,7,.4-1.6,1.5-4,1.6-6.1,1.9-6.1.8-11.8,3.3-17.4,5.8,1.4.6,3,.9,4.6.9-2.1.6-4.4.6-6.5-.2.3.9.6,1.8.9,2.7-1.7-.2-3.4-.4-5.1-.6,1.2,0,2.4.8,2.9,1.9-3-.2-5.9-.6-8.9-1.1.4-.2.7-.5,1.1-.7,1.3,1.6.2,4.5.2,6.6-1.9,0-3.9-.3-5.6-1,.5,1.2.8,2.4.8,3.7-1.8-.1-3.6-.9-4.9-2.1,0,1.1,0,2.2,0,3.3,0,.4-.1.9-.5.9-.2,0-.4-.1-.5-.3-1-1.1-2.1-2.1-3.1-3.2,0,.7,0,1.5-.3,2.1s-1.2,1.1-1.8.6c-.3-.2-.4-.4-.6-.7-.6-1.1-1-2.2-1.1-3.4,0,1.2,0,2.4-.1,3.7,0,.2,0,.5-.2.7-.4.2-.8-.3-.9-.7-.2-.8-.5-1.5-.4-2.3h0Z"/>
  </g>
  <path class="st31" d="M516.4,112.4c.4-1.6.1-3.6-1.2-4.6s-3.8-.4-3.9,1.2c-1.5-2.1-4.4-3.1-6.9-2.3,0,.6,0,1.2-.1,1.8-.1-1.4-.3-2.7-.4-4.1-.7-.5-1.8-.4-2.5.2s-.7,1.8-.1,2.5c.1-1.1-.9-2.1-2-2.3s-2.3.1-3.4.5c.8,1.9,1.6,3.9,2.4,5.8-3.2-.8-6.9-.2-9.6,1.8,1.9,2.2,4.4,3.9,7.2,4.9-2.2-.6-4.4-1.2-6.5-1.8-.3,1.8-.6,3.5-.9,5.3-3.1-2.6-7.8-.8-11.4,1.2-.3.2-.7.4-.8.7-.1.4.2.8.5,1.1,1.7,1.9,3.7,3.7,5.8,5.1-1.6-1.5-3.8-2.3-6-2.3,0,1.8,0,3.6,0,5.4-1.4.3-3-.4-3.7-1.6.2,1.7.9,3.3,2.1,4.6-2.5.7-5.9,1.6-8.3,2.3,1.6-1,2.6-2.9,2.5-4.7-1.1.2-2.3-.4-3.4-.6s-2.7.5-2.5,1.6c.7-1.1.1-2.8-1.1-3.4s-2.7-.3-3.7.5-1.7,2-2.1,3.3c-1.7-1.7-4.5-2.1-6.6-1.1s-3.4,3.6-3,5.9c-.7-1.2-2.2-1.8-3.6-2.2-1.5-.4-3.2-.7-4.6-.2s-2.7,2.2-2.2,3.7c.1-.9.4-.6-.5-1-1.3,1.4-2.3,3-3.1,4.7-.2-2.3-2.6-4.2-4.8-3.7s-3.8,3.1-3.1,5.2c.3-2.9-2-5.5-4.7-6.6s-5.7-.9-8.6-.7c-1.5.1-3.1.2-4.5.8.7-2.1,1.4-2.6,1.3-4.8s-1.3-4.5-3.4-5.3-4.8-.9-4.8,1.3c1.5-1.7.4-4.6-1.5-5.7s-4.4-1-6.6-.8c-1.1,0-2.4,1.4-1.4,1.8-1.8-2.8-6-3.6-8.7-1.7-3.2-1.5-7.4-.8-9.9,1.8-2.9-4.3-10-4.9-13.6-1.1,1.4-2.2.7-5.3-1.4-6.8s-5.3-1-6.9,1c-2.5-4.1-6.3-.5-6.3-.5,0,0-3.9-2.9-6-2.7-6.2.6-8,3.8-8,3.8,0,0-3.8.6-5.4,1.5-1.9,1-3.3,2.7-4,4.7-.1.4-.2.8,0,1.1s.9-.1.6-.4c-3,3.7-4.7,8.4-4.7,13.2,0,1.3.1,2.6.8,3.8.9,1.7,2.7,2.7,4.4,3.6,9,5,18,10,27,15,17.1,9.5,34.3,19,52,27.4,2.6,1.2,5.3,2.5,8.1,3.2,3.9,1,7.9,1,11.9,1.1,9,0,18,.1,27-.6,15.4-1.2,30.7-4.6,45-10.5,5.8-2.4,12-5.8,14-11.7-6.2-8.4-7.5-20.3-3.2-29.8.4,2.7.8,5.4,1.3,8.1.7-4.7,2-9.2,3.7-13.6.8,0,1.6-.2,2.4-.3.4-1.9-.2-3.9-1.5-5.3l4.6.5c1.8-2.8,1-7-1.8-8.8,2.1.6,4.1-2.2,2.9-4-.6-.4-1.3-.8-1.9-1.2,1.1-1.9,2.5-3.7,4-5.3.3-1.2.4,1.2-.8.9h0Z"/>
  <path class="st11" d="M992.5,343.4c-.9,3-1.2,6.2-.7,9.2,0,.4.2.8.5,1.1.6.4,1.5,0,2.2-.4,1.4-.9,2.7-1.9,3.9-3-.9,4.6-.6,9.6,2.1,13.6,2.7,4,8.2,6.6,13.3,5.2,0-.9.6-1.8,1.5-2.3.5,1.5-.4,3.2-1,4.8-1.6,4.3-.9,9.2,2,12.8,1,1.2,2.4,2.4,4.1,2.2.8,0,1.6-.5,2.2-.9,3.9-2.5,6-7,5.3-11.1,6.5-1.8,9.6-10.8,8.3-16.6,3,2.7,8.2,3.3,12.1,1.3,0,2.8.1,5.7.2,8.5,1.5-1.8,3.5-3.3,5.6-4.4.4,2.1.8,4.2,1.2,6.3l11.2-1.5c.3-1.2.5-2.3.8-3.5.7,2.4.8,4.9,0,7.4,5.4.8,11.1,0,16-2.3.8,1.9,6.9,4.4,9.1,3.9s3.9-2.5,3.7-4.5c5.9-.5,11.5-4.3,13.4-9.4s0-10.9-4.5-14.2c.9,1.8,4.6.7,5-1.3s-1.1-3.9-2.7-5.3c-4.2-3.9-9.3-6.9-14.9-9,4.1-3.6,1.8-10.8-3.8-11.8,2.6-2.8.6-7.3-2.9-9s-7.8-1.4-11.8-1.1c2.3-5.2.6-11-4-14.6-1.4-1-3.1-1.6-4.9-2.1-4.9-1.4-9.9-2.5-15-3.3,5,1,10.2,1.4,15.4,1.2,2,0,4.2-.2,5.9-1.3s2.5-3.4,1.2-4.7c-.7-.7-1.8-1-2.8-1.3-4.1-1-8.2-2.1-12.3-3.1,2.6-1.9,5.2-4.4,5-7.3-.2-2.9-5.2-4.9-7-2.4,1.2-3.3-3-9-6.4-10.5-3.6-1.6-8.2-1.8-11.8,0s-5.5,6.3-3.7,9.4c1.1-3.5,5.9-6,5.2-9.5-.4-2.1-2.9-3.5-5.3-3.7s-4.9.6-7.2,1.4c2.9-2.7,5.3-6.2,4.6-9.8-.7-3.5-6.1-6-9.2-3.5,2.1-2.6,1.8-6.4-.6-8.7-2.4-2.2-6.7-2.7-9.7-1,1.8-4.5-.5-11.4-4.6-14.2s-10.3-3-14.8-.4c-.5-2.2-1-4.4-1.6-6.5-4.6-.3-9.4.8-13.4,3,1.4-3.1-1.5-6.4-5-7.4s-7.3,0-10.9.7c1.7-1.5,1.5-4.1,0-5.7s-3.7-2.4-6-3.1c-4-1.2-8.2-2.1-12.5-1.5-3-1-12-5-15.2-4.6-3.3.3-6.6,2.5-6.8,5.4-.5-2.2-1-4.5-1.4-6.7-6.3-.1-14.3.7-16.7,5.9-1.6-3.6-6.3-5.9-10.7-5.2s-8.1,4.3-8.4,8.2c-5.1-.8-15.8-3.1-20.8-1.5-4.9,1.6-9.1,6.4-7.5,10.7-.4-3.3-.7-6.5-1.1-9.8-5.9-.8-12.4,1.8-15.7,6.4-2-3-7.5-3.2-10-.4s-.8,7.5,2.9,8.4c-2-2-4-4-6.7-5.2s-6.2-1.3-8.6.4-2.7,5.5-.2,6.9c0-3.7-3.1-7.2-7.1-8.1s-8.8,1-10.9,4.3c26.8,45.8,76.3,80.1,123.4,110.4,4.5,2.9,9.1,5.8,14.4,7.1,7.1,1.7,14.7.3,22.1.7,10.1.6,28.1,5,34.8,11.4h0Z"/>
  <path class="st11" d="M395.5,162.6c-.5-3.1-4.2-5.2-7.1-4.1.4.4,1.1-.3.8-.7-1.5-.6-3.2-.7-4.7-.2,1.3-1.4,2.3-3.4,2-5.3s-2.2-3.6-4.1-3.1c.4-1.7.7-3.4.4-5.2s-1.4-3.4-3-4-3.8.2-4.2,1.9c.5-1.1.7-2.3.6-3.4-2.2-1-4.9-1.1-7.1-.2,1.4-1.4.6-4-1-5.1s-3.7-1.3-5.7-1.4c1.5-.5,2.6-2.2,2.1-3.8s-2.7-2.2-3.9-1.2c2.3-1.8,2.4-5.1,2.1-8,0-.4,0-.8-.3-1.1-.4-.6-1.4-.7-2.1-.4s-1.1,1-1.6,1.7c-.2.4-.5.8-.5,1.2s.5.8.9.6c.3-1.1-1.3-1.8-2.4-1.9-2.5-.2-4.9-.3-7.4-.1.6,3.4,2.2,6.6,4.7,9.1,0-.8-.9-1.5-1.7-1.7s-1.6-.2-2.5,0c-.5,0-1.1.3-1,.8.6-1.1.6-2.6-.1-3.7s-2.1-1.7-3.4-1.6c1.2-.7,1.1-2.5.2-3.5s-2.3-1.4-3.6-1.6c-.5,0-1-.1-1.3.2-.1.2-.1.4-.2.7,0,1,0,2-.1,3-.1-1.1-.5-2.5-1.6-2.7-1-.2-1.9,1-1.9,2s.7,2,1.3,2.8c-2.7-1.1-5.8-1.1-8.5.2-.5.2-1.1.7-.9,1.3.1.3.4.5.6.6,1.8,1,3.8,1.5,5.9,1.6-.6.1-1.3.3-1.8.7s-.9,1.1-.6,1.7c.2,0,.5-.2.4-.5-1-3-6.2-2.7-9.1-1.4,1.7-.4,2.8-2.4,2.1-4s-2.7-2.4-4.2-1.6c.2-1.3.4-2.6-.1-3.8s-2.3-1.8-3.2-.9c-.1,1.4-.2,2.9-.4,4.3.1-1.9.2-3.9-.7-5.6s-3-2.9-4.8-2.1c0,1.1,0,2.3,0,3.4-.1-1.4-.4-2.7-.8-4-1.1-.4-2.6.4-2.8,1.6.4-.8,0-1.8-.7-2.3s-1.6-.6-2.5-.6c-.9,0-1.8,0-2.5.6s-1.1,1.6-.6,2.3c0-3-3.3-5.1-6.3-5.3-1.8-.1-3.6.2-5,1.3s-2.2,3.1-1.5,4.7c-.2-2-2.8-2.9-4.8-2.5-4.3.7-7.7,5-7.5,9.3-.7-1.4-2.4-2-4-1.9s-3,.8-4.4,1.5c-1.8.9-3.6,1.9-5.3,2.9-1.1.6-2.2,1.3-2.8,2.4s-.4,2.7.7,3.3c-1.1-1.9-3.5-2.4-5.7-2.8-1.4-.2-2.8-.4-4,.3s-1.9,2.5-.9,3.4c-1.3.2-3.2,3.3-3.1,4.7,0,.2,0,.4.2.5.2.1.4,0,.6,0,.9-.1,1.8.3,2.2,1.1-1.3-.7-3.1,0-3.6,1.4s.4,3.1,1.9,3.5c-1,0-2,.1-3,.2-.4,1-.3,2.2.2,3.1-.5-.6-1-1.2-1.6-1.5s-1.5-.4-2.1.1c-1,.9-.2,2.7-.6,4,.4-1.6-1.8-2.9-3.4-3.1s-3.2,1.3-3.2,3c0-.7,0-1.4,0-2.1,0-.2,0-.4-.1-.5s-.3-.1-.5-.1c-1.7,0-3.9.5-4.2,2.2,0-1.6,0-3.1,0-4.7-1.7-.2-3.6.3-4.9,1.5l.6-4.6c-.6.3-1.2-.3-1.6-.8s-1.2-1-1.7-.5c-.1.1-.2.3-.2.5-.3,1-.6,1.9-1,2.9-1-.6-3-.6-4.1-.6-.5,0-1,.1-1.2.5-.2.2-.2.6-.2.9,0,1.2,0,2.4-.1,3.6-.9-2-3.4-3.2-5.6-2.6-.2,0-.5.1-.6.3-.6.6-.1,1.7-.8,2.1-2-1-4.2-1.7-6.4-1.2s-4.1,2.7-3.6,4.8c-1.4,1.8-3.3,4.4-3.5,6.7-1-.5-2.1-1-3.2-.9s-2.3.9-2.3,2c0,.7.3,1.5-.2,1.9-.3.2-.6.2-1,.1-2-.2-4.1-.2-5.9.8s-3,3.2-2.3,5.1c-1.4-.5-3-.8-4.4-.4-2.1.6-3.5,2.6-4,4.8s-.2,4.3,0,6.5c-1.1,0-2-1.3-3.1-1-.9.2-1.3,1.4-.7,2.1-1-1.1-2.6-1.5-4-1.1-.7-1.1-3.8-3.2-5-2.7s-2.1,1.7-1.9,3c-1.5-.6-3.2-1.1-4.8-.6s-2.8,2.4-1.9,3.9c-3.2-.8-6.7,2.6-6,5.9-3.5-.9-7.5,1.9-7.8,5.5-3.6.4-6.6,4-6.3,7.6-3.2-.6-6.6,2.1-6.7,5.3-3.6,0-6.4,4.2-5.2,7.5-2.1,0-4.3,0-6.3.8s-3.7,2.5-3.9,4.6c-2.3-.6-5,.3-6.5,2.2-.3.4-.7,1-1.2,1-.5,0-.8-.3-1.2-.5-1.3-.8-3.2-.5-4.2.7-2.2-1.8-7.4,2-7.3,4.9-.5-1.1-2.1-1-2.9-.1s-.9,2.1-.8,3.3.1,2.4-.4,3.4c-5.4-.5-11,1-15.6,4-1.5-.8-3.5.3-4.3,1.8-.8,1.5-.7,3.4-.6,5.1-3.4,0-6.9.7-10.1,1.9-.6.2-1.3.5-1.6,1.2-.5,1,.3,2.1.2,3.2-.1,1.3-1.5,2.2-2.8,2.3s-2.6-.1-3.9,0c-1.9,0-3.7.9-5,2.2-1.1-2.6-3.2-5.1-6-5.5s-6,2.1-5.4,4.9c-4.8,0-9.5,3-11.5,7.4-.2.5-.5,1.2-1.1,1.4-.3.1-.7,0-1,.1-1.3.1-2.2,1.4-2.5,2.6s-.3,2.5-.6,3.8c-.7,3-4,3.4-6,5.8s-2.8,7.4-2.1,10.4c-2.4-1.1-5.3.9-6.2,3.3s-.4,5.2.1,7.8c.6,2.7-2.7,6-4.9,7.7-1.3,1.1-2.8,2-3.7,3.5s-1,3.5.2,4.7c.2.2.5.4.5.7,0,.4-.3,2.6-.6,2.9-3.1,2.4-5,3.9-6,7.7s3.7,8,3.5,11.8c0,.7-5.1,1-5.1,1.7,0,1.1-.1,2.1-.2,3.2-.2,3.5-.4,7,.4,10.3,1,4.3,3.6,8.2,7.2,10.8-1.4.1-2.6,1.3-3.1,2.7s-.4,2.8-.2,4.2c.4,2.7,1.5,5.4,3.3,7.4s4.7,3.2,7.4,2.8c1.4-1.2,3.9-2.4,5.3-3.6.4,2.1,2.2,4,4.4,4.3s4.5-.7,5.6-2.5c.1.6.8.9,1.4,1.1,3.2.8,6.5-.3,9.6-1.4,1.8-.6,3.6-1.2,5.4-1.8,2.5-.9,5-1.8,6.9-3.6s2.8-4.9,1.4-7.1c1.3-2.4,2.6-4.8,3.7-7.3.2,1.6,2.3,2.1,3.9,2.1,3.5,0,6.9-.7,10.2-1.9,1.7-.6,3.6-1.8,3.4-3.5-.1,1.2-.3,2.4-.4,3.5.8.1,1.6,0,2.4-.2-.1-.3-.7,0-.6.4s.6.4.9.5c4,.3,7.9-1.6,11.5-3.5,2.5-1.3,5.2-2.9,5.8-5.6,6.3-5.4,12.3-11.5,17.9-17.6,6.9-7.6,13.1-15.7,20.2-23.1,7.8-8.2,16.5-15.4,25.2-22.6,12.8-10.5,25.7-21,40-29.5,13.6-8,28.3-14.2,41-23.5,16.2-1.5,33,1.8,49.1,4.6,34.4,5.8,69.1,11,103.9,10,2.6,0,5.4-.2,7.6-1.6,2.7-1.6,4.1-4.7,5.7-7.4,6.2-10.5,17.6-18.9,18.3-31.1.2-4.4-1-8.7-2.2-12.9-2.9-9.8-7.6-19.4-9.2-29.5h0Z"/>
  <g>
    <path class="st11" d="M905.4,251.4c-.2-.2-.4-.2-.7-.2-1.3-.2-2.7-.3-4-.5,1.5.4,2.8-1.7,2.2-3.1-.5-1.3-2-2.1-3.4-2.4.8,0,1.5-.9,1.4-1.7,0-1-.9-1.7-1.8-2.2s-1.8-.7-2.7-1.1c1.3-.5,1.3-2.5.4-3.5s-2.4-1.3-3.8-1.5c0-1.3.2-2.6.2-3.9,0-.4,0-.7-.1-1-.2-.4-.6-.5-1-.7-1.3-.5-2.7-.8-4.1-.9-.3.8-.4,1.6-.3,2.5-1.2-2.2,2.4-4.8,1.5-7.1-.5-1.1-1.8-1.6-3-1.6,1.2-.2,1.6-1.9,1-2.9-.7-1-1.9-1.5-3-1.9.8-.6.6-2-.3-2.6s-2-.6-3-.5c1.4-1.3,3.1-2.4,4.4-3.8s2.2-3.4,1.9-5.3c-.4-1.9-2.5-3.5-4.3-2.7,1.2-.3,2.1-1.4,2.5-2.6.4-1.2.5-2.5.5-3.7,0-.7,0-1.4-.2-2.1-.7-1.6-2.9-1.8-4.7-1.7.3-1.2-.1-2.6-.9-3.6-1.2-1.4-2.9-2-4.6-2.5-.5-.1-1-.2-1.4,0-.2,0-.3.2-.4.4,0-.3,0-.6,0-.9-.4-.2-.9-.4-1.3-.4,0,.2,0,.5.2.7-.7-.7-1.6-.6-2.7-.9-1.2-.3-2.7.3-3.2,1.4l-6.3-.4-.2,1.9c-1.2-.5-2.6-1-3.8-.5-.8.4-1.2,1.5-.9,2.3-1.1-.9-2.7-1.3-4.1-1.1-1.8.3-3.3,1.7-3.9,3.4-.2-1.8-1.4-3.4-3.1-4s-3.7-.2-5,1c0-1.1.2-2.2.2-3.4s-.3-2.4-1.2-3-2.5-.2-2.7.9c.3-1.6-.3-3.7-2-4.1-1.4-.3-2.6.8-3,2.2-.1-1-.7-2-1.5-2.6-1.2-.9-2.9-1-4.2-.3,0-2.5-3.2-4.4-5.5-3.2.5-1,.2-2.3-.6-3.1s-1.9-1.3-3-1.6c-.5-.2-1.1-.3-1.6-.2-.5.1-1,.6-1,1.2-.3-1.4-2.5-1.8-3.5-.7-1,1-.9,2.8,0,4-.5-.7-1-1.4-1.8-1.6-.8-.2-1.8.3-1.8,1.1-.8-2.1-2.2-3.8-4.1-5-.4-.2-.9-.5-1.4-.4s-.8.7-.5,1.1c-3.5-2-8.2-1.6-11.4.8-.8-1-2.6-.8-3.5.2-.7.8-1,1.9-1.1,3.1,0-.2-.2-.3-.3-.4-1.6-2-4.7-1.4-7.2-1.1.2-.9.5-1.8,1-2.5-1.5-1-3.3-1.4-5.1-1.3.2-1.5-1.1-2.7-2.3-3.6-2-1.5-4.3-3-6.8-3,0-1.4-1.5-2.4-2.8-3-.9-.4-1.9-.8-2.8-.5-.5.1-1,.5-1.2,1-.2-.5-.5-1-1-1.3-.8-.6-1.7-.6-2.6-1h0c-1.2-.6-2.6-.9-4-.7-.7-1.2-2.2-1.9-3.6-1.6-.2.9-.4,1.9-.5,2.8-.1-1.3-1.4-2.5-2.8-2.4s-2.5,1.3-2.5,2.7c-.4-.8-1.5-1.2-2.3-.8s-1.2,1.4-.9,2.2c-.3-.9-.5-1.9-.8-2.8-.7.1-1.4.5-1.9,1-.2-1-1.2-1.9-2.3-1.7s-1.9,1.2-1.8,2.2c-.5-.9-1.9-1.2-2.8-.7-.4.3-.7.7-.8,1.2-.5-1.4-1.5-2.6-2.9-3-.2.4-.4.8-.6,1.3.4-1,.1-2.1-.6-2.9s-1.9-1-2.9-.6c.5-1.2-.6-2.8-2-2.8-1.3,0-2.4,1.6-1.9,2.8-1.5-1.8-3.6-3.8-5.9-3.3-2,.5-3,3.2-1.9,4.9-.6-.7-1.2-1.4-2.1-1.5-1-.2-2.3,1-1.7,1.9-.8-1-2.1-1.7-3.3-1.4s-2.2,1.7-1.5,2.8c-.4-1.2-1.7-2.1-3-2.3s-2.6,0-3.9.4c-.5.2-1.1.4-1.4.8-.2.2-.2.5-.1.8-.4-.5-1-.8-1.5-1.1-.4,1.6-.5,3.2-.3,4.8-.9-.4-2.1-1.1-3-.9s-1.7,1.4-1.2,2.2c-1.3-1-3-1.7-4.6-1.8,0,.6-.1,1.3-.2,1.9,0-1-.9-1.9-1.9-2.3s-2-.5-3.1-.6c-.7,0-1.5,0-2.1.2-.4.2-.7.6-.8,1-.2-1-1-2-2.1-2.3-1.1-.3-2.4.2-3.1,1.1.1-.4,0-.8-.2-1.2-.4-.5-1-.7-1.6-.8-2.3-.5-4.8.1-6.6,1.6.7-1.4.1-3.2-1.2-4s-3.2-.5-4.1.7c-1.7-.9-4-.9-5.7,0,.5-.6.2-1.6-.5-2.1-.6-.5-1.5-.5-2.3-.6-1.4-.1-3.3,0-3.8,1.3,0-.4-.4-.9-.8-.7s-.6.8-.2,1.1c1.5,12.8,4.8,25.7,10.3,37.4,1,2.1,2.1,4.3,4,5.7,1.3.9,2.8,1.4,4.3,1.8,6.5,1.9,13.1,3.4,19.8,4.4,3.6.6,6.3,3.2,9.5,5,12.5,6.8,25.1,13.7,37.7,20.5,8.4,4.6,16.9,9.2,26.2,11.6,13.5,3.5,27.8,2.2,41.5-.5,3.1-.6,6.3-1.3,9-3.1.4-.3.6-1.1.3-1.2,5.7-.6,11.8-.2,17.5-.6,3-.2,6-.3,9.1-.5,2.7-.1,5.4-.3,8.1-.2,1.4,0,2.7,0,4.1.1,0,.6.4,1.2,1,1.4-.5.4-1.2-.5-1.8-.4-.3,0-.5.2-.6.4-.7.9-1,2.1-.6,3.2.8,0,1.7.1,2.5.3-.8.6-1.9.6-2.6,1.3-.6.6-.6,1.7,0,2.4.6.6,1.7.7,2.4.2-.4.8-.6,1.6-.6,2.5,0,.2,0,.4.1.6.2.3.6.3,1,.4.7,0,1.5,0,2.2.1-2.2.8-3.5,2-5.1,3.8-.2.2-.4.5-.3.8.2.7,1.3.2,2,.5-.8.4-1.9-.1-2.8,0-1,.2-1.7,1.1-1.6,2.1,0,1,.8,1.8,1.7,2.1-1.1-.3-2.3-.7-3.5-.5s-2.2,1.3-2.1,2.5c.1.9,1.1,1.6,2,1.5.4,0,.8-.3,1.1-.5-.2.2-.4.4-.6.6-.3.3-.6.7-.8,1.1-.2.6,0,1.2.2,1.8.3,1,.7,2,1.6,2.5.2.1.4.2.7.2-.4.7-.7,1.5-.6,2.3,2,.9,4.4.7,6.3-.5,0,.7,1.1,1.6,1.8,1.6.2,0,.5,0,.7-.2-.2.6-.4,1.3-.4,2,0,.4,0,.8.3,1.1.5.6,1.5.4,2-.2.2-.3.4-.6.5-1,0,1,.8,2.1,1.8,2.3.6.2,1.4,0,1.8-.4.1-.1.2-.3.3-.4,0,.3.2.7.5.9.6.5,1.7.3,2.2-.3s.7-1.5.6-2.3c0-.5-.1-1-.4-1.4,1.3.7,3.2.4,3.9-.9,0,.5,0,1.1-.2,1.6.9.2,1.9.4,2.8.1.6-.2,1.1-.7,1.3-1.3,0,.1.2.3.3.3.4.3.9.3,1.3.3,1.2,0,2.4.2,3.7.3.7,0,1.4,0,2-.3.6-.4.8-1.3.6-2-.2-.4-.5-.8-.8-1.1.4,0,1,0,1.4-.4-.2.4-.2,1,0,1.4.3.7,1.1,1.1,1.8,1.3.8.2,1.7.1,2.3-.4,0,0,0,0,0,0,0,.6-.2,1.1-.2,1.7,1,.4,2.2.5,3.3.3-.9.4-1.5,1.7-.9,2.5.7,1,2.6.7,3-.4,0,1-.1,2-.2,3,1.9,1.2,4.8.2,5.4-2-.2.6-.1,1.2.2,1.7,1.4.2,3-.1,3.8-1.3.8-1.1.3-3.2-1-3.4,2-.2,3.5-2.3,3.2-4.2s-2.4-3.5-4.3-3.1c1.2-.7.8-2.8-.5-3.1,2.3-.5,3-3.4,3.3-5.7.1-.8.2-1.7-.2-2.5s-1.5-1.2-2.1-.7c.6-1.1-.5-2.7-1.8-2.5,0-.2,0-.3,0-.5,6.7,2.9,13.6,5.5,19.9,9.1.1-1.5.3-3.4.4-4.9,0-.3,0-.6-.2-.8Z"/>
    <path class="st31" d="M785.9,136.2c-.1-.9-.9-1.6-1.7-1.7,0-.9-.8-1.7-1.7-1.8-.3.2-.5.5-.8.7.5-.6.4-1.6-.2-2s-1.6-.4-2,.2c-.5-.7-1.5-.9-2.2-.5,1.4-1,2.3-2.8,2.2-4.6-.7-.4-1.5-.7-2.2-1.1-.7-1.2-2-2-3.4-2-.5,1.2-.4,2.7.3,3.8-.9,0-1.8.5-2.2,1.4s0,1.9.8,2.4c-1.7.4-3.2,1.1-4.6,2.1.8.8,1.6,1.7,2.3,2.5-2.2-.8-4.8.1-6.1,2,1.2.5,2.2,1.3,3,2.3-.8,0-1.7,0-2.5,0-.3,1-.2,2,.2,2.9,0-.3,0-.7,0-1-1.4-.9-2.9.8-4.5.4v1.3c0-.6-.5-1.2-1-1.5-.6-.4-1.5-.6-2.1-.2-.7.4-.9,1.4-.3,1.9-.4-.2-.5-.8-.8-1.2-.5-.9-2-1-2.7-.2s-.3,2.2.7,2.6c-.5.4-1.2-.5-1.8-.4-.3,0-.5.2-.6.4-.7.9-1,2.1-.6,3.2.8,0,1.7.1,2.5.3-.8.6-1.9.6-2.6,1.3-.6.6-.6,1.7,0,2.4s1.7.7,2.4.2c-.4.8-.6,1.6-.6,2.5,0,.2,0,.4.1.6.2.3.6.3,1,.4.7,0,1.5,0,2.2.1-2.2.8-3.5,2-5.1,3.8-.2.2-.4.5-.3.8.2.7,1.3.2,2,.5-.8.4-1.9-.1-2.8,0-1,.2-1.7,1.1-1.6,2.1s.8,1.8,1.7,2.1c-1.1-.4-2.3-.7-3.5-.5s-2.2,1.3-2.1,2.5c.1.9,1.1,1.6,2,1.5.5,0,.9-.3,1.2-.5.8-.5,1.6-.9,2.4-1.4-1.3.2-2.3,1.2-3.2,2.1-.3.3-.6.6-.8,1.1-.2.6,0,1.2.2,1.8.3,1,.7,2,1.6,2.5s2.3-.2,2.1-1.2c-1.3.7-2.2,2.2-2.1,3.6,2,.9,4.4.7,6.3-.5,0,.7,1.1,1.6,1.8,1.6s1.3-.6,1.3-1.3c-.6.9-1,2-1,3.1,0,.4,0,.8.3,1.1.5.6,1.5.4,2-.2s.6-1.4.7-2.2c-.7,1.3.1,3.2,1.6,3.6.6.2,1.4,0,1.8-.4s.7-1.2.3-1.8c-.1.8-.2,1.8.4,2.3.6.5,1.7.3,2.2-.3s.7-1.5.6-2.3c0-.8-.3-1.7-1-2,1.1,1.4,3.7,1.2,4.6-.4,0,.5,0,1.1-.2,1.6.9.2,1.9.4,2.8.1s1.6-1.3,1.2-2.2c-.3.4,0,.9.3,1.2s.9.3,1.3.3c1.2.1,2.4.2,3.7.3.7,0,1.4,0,2-.3.6-.4.8-1.3.6-2.1s-.9-1.3-1.5-1.6c.4.9,2.2.4,2.7-.5-.7.3-.9,1.3-.6,2s1.1,1.1,1.8,1.3c.8.2,1.7.1,2.3-.4s.9-1.5.4-2.2c-.2,1.2-.3,2.5-.5,3.8,1.2.5,2.6.6,3.9.2-1.2,0-2.2,1.6-1.4,2.6s2.6.7,3-.4c0,1-.1,2-.2,3,1.9,1.2,4.8.2,5.4-2-.2.6-.1,1.2.2,1.7,1.4.2,3-.1,3.8-1.3s.3-3.2-1-3.4c2-.2,3.5-2.3,3.2-4.2s-2.4-3.5-4.3-3.1c1.2-.7.8-2.9-.5-3.1,2.3-.5,3-3.4,3.3-5.7.1-.8.2-1.7-.2-2.5s-1.5-1.2-2.1-.7c.6-1.1-.5-2.7-1.8-2.5.4-1.4-1.4-2.9-2.7-2.2,1.1-.5,1.2-1.8.9-3s-1.5-2-2.7-1.8c.7.2,1.4-.4,1.7-1.1.3-.7.5-1.5.3-2.3s-.9-1.4-1.7-1.5c1-.9,1.6-2.4,1.2-3.7s-2.2-2-3.2-1.1c.2-.8-.2-1.7-.8-2.2s-1.5-.7-2.3-.9c-.5-.1-1.3,0-1.2.5.3-.5.5-1.2.2-1.7s-.9-.9-1.5-.8-.8.5-.5.9h0Z"/>
  </g>
  <g>
    <g>
      <g>
        <path class="st31" d="M582.5,138.6c6.6,8.7,14,17.1,23.5,22.6,15.2,8.9,33.6,9.5,51.1,11.5,9.8,1.1,19.6,2.7,29.4,2.2,9.8-.4,19.9-3.1,27.3-9.6,3.6-3.1,6.4-7,9.2-10.9,2-2.8,4-6.8,1.8-9.4-1-1.1-2.4-1.8-3.6-2.7-.2-.1-.4-.3-.6-.2s-.3.4,0,.5c.4-.4.2-1.1-.3-1.4s-1-.4-1.6-.5c-2-.2-4-.6-5.5-1.8-1.3-1-2.4-2.5-4-2.5,0-.4-.3-.6-.6-.8-2.7-1.5-5.7-2.2-8.8-2,0-.9,0-1.8,0-2.7-.7-.4-1.6-.4-2.3,0-.5-1.4-2.6-1.9-3.8-.9-1.4-1.1-3.2-1.8-5-1.8-.3.2-.5.6-.5,1-.3-.9-1.4-1.9-2.2-2.5s-2-.6-2.5.2c0-.8.7-1.5.8-2.3.1-.9-.5-1.8-1.2-2.2s-1.7-.6-2.6-.7-2.1,0-2.3.8c.2-1.3-1.3-2.2-2.6-2.4-.7-.2-1.5-.2-2.2,0s-1.2,1.1-.9,1.8c.3-1.1-.5-2.2-1.5-2.6s-2.2-.2-3.2.2c-1.2.6-2.4,1.8-2.1,3.1-.6-2.6-3.8-4.1-6.2-3-1,.5-1.8,1.7-1.2,2.6-.7-.9-1.8-1.6-2.9-1.6s-2.3,1-2.2,2.1c0,.5.2,1.2-.2,1.5-.3.2-.7.1-1,.1-1.5-.1-2.9,1-3.2,2.4.3-1.4-.5-2.7-1.5-3.6s-2.7-1.2-4-.7c-.5-.7,1-1.4.9-2.2,0-.2-.2-.4-.3-.6-1.1-1.4-2.7-3-4.4-2.3-1.2-1.6-3.7-2-5.5-1-.2-.9-1-1.6-2-1.9s-1.9-.2-2.8,0c-.7,0-1.5.3-1.6.9-1.5-1.5-4.5-.7-5,1.4,0-.6-.7-1.1-1.3-1s-1.1.5-1.2,1.1c-1.2-.9-3.4-1.4-4.9-1.5-.8,0-1.5,0-2.2.3s-1,1.3-.6,1.9c-.1-.7-1-.9-1.7-.9-.9,0-1.9,0-2.6.7s-.6,2,.3,2.2c-1,0-2,0-2.8.5s-.9,2,0,2.4c.7.3,1.6-.1,2.1.4-1.2.4-2.4,0-3.6.3s-2.3,1.8-1.4,2.6c-2.7-1.6-5.7-3.3-8.8-3.1,1.5.6,3.2.6,4.6,0,.2,0,.4-.2.5-.4.1-.3,0-.6-.3-.8-1.5-1.7-3.6-2.8-5.8-3.2.7-.3,1.3-.8,1.7-1.5.5-.8.6-1.9.1-2.7s-1.8-1.1-2.4-.4c1-.6,1.5-1.9,1.5-3.1s-.6-2.3-1.3-3.3c-.9-1.3-2.4-2.4-3.9-2,.4-.5.2-1.3-.3-1.8s-1.2-.6-1.8-.8c-.7-.2-1.4-.4-2.1-.2s-1.4.6-1.6,1.3c-.2.8.4,1.6.9,2.2-.5-.6-1.5,0-1.7.8s0,1.6-.2,2.4c-1-1.3-2.8-1.6-4.5-1.6-.3.7-.4,1.5-.2,2.2-.7-.6-1.8-.5-2.5,0-.5.3-.9.7-1,1.3s.2,1.2.8,1.3c.4,0,1.1-.1,1.2.3-1.5-.2-2.9,1.1-3,2.6,0,.2,0,.4.1.6.1.2.4.3.6.4.8.3,1.7.3,2.5,0-.9-.1-1.8.6-2,1.5s.5,1.8,1.4,2c-.7-.3-1.5.3-1.6,1.1s.6,1.4,1.3,1.7,1.5.2,2.2,0c-.8.8-1.5,2-.9,3,.5.8,1.5,1,2.4.9s1.8-.2,2.7,0v-1c-.2,4-.8,9.9,1.6,13.1h0Z"/>
        <g>
          <path class="st0" d="M678.8,139.6c1.3-4.9,5.7-13.6,19.6-16.8,0,0-19.6-2.2-24,19.2l2,.6c-.3.4-.4.6-.4.6l4.7.8c6.1-11.7,25.3-17.8,25.3-17.8-11.6-2.4-22.3,7.8-27.2,13.5h0Z"/>
          <path class="st0" d="M684.7,120.9c.9-.4,1.8-.8,2.8-1.1,0,0-.8,0-2,.2,2.5-2.9,4.5-4.8,4.5-4.8-3.8,1-6.9,3.2-9.5,5.9-1.3.5-2.8,1.1-4.2,1.9,3.1-6.8,6.8-11.9,6.8-11.9-3.7,1.9-6.5,4.9-8.7,8.3-1.4-5.6-4.2-9.3-4.2-9.3,1.8,5.1,2.4,9.5,2.2,13.2-.5,1.2-1,2.4-1.4,3.6-.9-6.8-3.4-14-9.4-18.3,0,0,6,12.2,6.3,23.5-.3.5-.5,1.1-.7,1.7.8-14.4-11.8-21-11.8-21,6,6.3,8,12.4,8.4,17.3-3.2-10.4-13.3-14.1-13.3-14.1,15.9,12.9,9.5,27.2,9.5,27.2l3.9.7c.2-.7.3-1.3.4-1.9l1.1.4c.1-.4.2-.7.4-1.1l2.4.4c0,1.1,0,1.8,0,1.8l1.7-.9c-.2.9-.3,1.4-.3,1.4l4.6-1.4c.5-8,6.3-16.4,10.8-21.8h0ZM674.9,127.7c.5-.6,1.2-1.2,1.8-1.8-.8,1.2-1.5,2.4-2.1,3.6.1-.6.2-1.2.3-1.8Z"/>
        </g>
      </g>
      <g>
        <g>
          <rect class="st13" x="460.9" y="143.3" width="3.5" height="36.2"/>
          <rect class="st13" x="407" y="170.6" width="3.5" height="36.2"/>
          <rect class="st13" x="355.5" y="194.1" width="3.5" height="36.2"/>
          <g>
            <path class="st13" d="M505.3,129.9h-3.2v-.4h-12.5l-1.2.4,1.2,2.4h12.5v.4h3.2c.8,0,1.4-.6,1.4-1.4s-.6-1.4-1.4-1.4h0Z"/>
            <path class="st13" d="M353.6,198.3l136-66-1.2-2.4-136,66c-.7.3-1,1.1-.6,1.8h0c.3.7,1.1,1,1.8.6Z"/>
          </g>
        </g>
        <g>
          <rect class="st13" x="622.9" y="143.3" width="3.5" height="36.2"/>
          <rect class="st13" x="676.8" y="170.6" width="3.5" height="36.2"/>
          <rect class="st13" x="728.3" y="194.1" width="3.5" height="36.2"/>
          <g>
            <path class="st13" d="M582.1,129.9h3.2v-.4h12.5l1.2.4-1.2,2.4h-12.5v.4h-3.2c-.8,0-1.4-.6-1.4-1.4s.7-1.4,1.4-1.4h0Z"/>
            <path class="st13" d="M733.7,198.3l-136-66,1.2-2.4,136,66c.7.3,1,1.1.6,1.8h0c-.3.7-1.1,1-1.8.6h0Z"/>
          </g>
        </g>
        <g>
          <g>
            <g>
              <rect class="st20" x="499.1" y="161.5" width="89.3" height="142.2"/>
              <path class="st36" d="M719.8,202.7c-1.7-1.4-3.6-2.6-5.6-3.5-15-6.9-94.7-43.5-105.1-49.1-11.5-6.2-9.9-14.4-9.9-14.4h-5.6v161.9h132v-87.3c0-2.4-3.2-5.5-5.8-7.6h0Z"/>
              <rect class="st1" x="499.7" y="292.9" width="88.3" height="4.7"/>
              <path class="st17" d="M593.5,125.8h-11v30.2h-79v-30.2h-10.9v169.5h27.6v-94.1c0-1.4.2-2.7.6-4.1,1.5-5.5,6.8-18.3,21.7-18.3h1c15,0,20.2,12.8,21.7,18.3.4,1.3.6,2.7.6,4.1v94.1h27.7V125.8h0Z"/>
              <path class="st18" d="M565.9,202.2c0-1.5-.2-3-.6-4.4-1.5-5.9-6.8-19.8-21.7-19.8h-1c-15,0-20.2,13.9-21.7,19.8-.4,1.4-.6,2.9-.6,4.4v93h1v-89.8c0-1.5.2-3,.6-4.4,1.5-5.9,5.8-17.8,20.7-17.8h1c15,0,20.2,11.9,21.7,17.8.3,1.1.5,2.2.5,3.3v-2h0Z"/>
              <g>
                <path class="st21" d="M741.5,197.4c.8,0,1.4.6,1.4,1.4s-.7,1.4-1.5,1.4h-11c0,0-1.2-2.5-1.2-2.5l1.2-.4h11q0,0,0,0Z"/>
                <path class="st21" d="M588.7,264.5h7.4s0-2.9,0-2.9h0c0-.5.2-1.1.8-1.3l132.5-62.5,1.2,2.4-131.5,62v2.3h.2c.8,0,1.5.7,1.5,1.5s-.7,1.5-1.5,1.5h-10.5c-.8,0-1.5-.7-1.5-1.5s.7-1.5,1.5-1.5h0Z"/>
              </g>
              <path class="st36" d="M366.4,202.7c1.7-1.4,3.6-2.6,5.6-3.5,15-6.9,94.6-43.5,105.1-49.1,11.5-6.2,9.9-14.4,9.9-14.4h5.6v161.9h-132v-87.3c0-2.4,3.2-5.5,5.8-7.6h0Z"/>
              <g>
                <path class="st21" d="M346.3,197.4c-.8,0-1.4.6-1.4,1.4s.6,1.4,1.5,1.4h11c0,0,1.1-2.5,1.1-2.5l-1.2-.4h-11Z"/>
                <path class="st21" d="M499.1,264.5h-7.4s0-2.9,0-2.9h0c0-.5-.2-1.1-.8-1.3l-132.5-62.5-1.1,2.4,131.5,62v2.3h-.2c-.8,0-1.5.7-1.5,1.5s.7,1.5,1.5,1.5h10.5c.8,0,1.5-.7,1.5-1.5s-.7-1.5-1.5-1.5h0Z"/>
              </g>
              <g class="st23">
                <g>
                  <polygon class="st4" points="579.5 146.1 635.1 291.7 687.1 146.1 579.5 146.1"/>
                  <polygon class="st6" points="637 126.1 692.6 271.7 744.6 126.1 637 126.1"/>
                  <polygon class="st10" points="701.6 99.5 757.2 245.1 809.1 99.5 701.6 99.5"/>
                </g>
                <g>
                  <polygon class="st9" points="449.3 124.4 393.6 270.1 341.7 124.4 449.3 124.4"/>
                  <polygon class="st7" points="384.7 97.8 329 243.5 277.1 97.8 384.7 97.8"/>
                  <polygon class="st8" points="506.8 144.4 451.1 290.1 399.2 144.4 506.8 144.4"/>
                </g>
              </g>
              <g>
                <rect class="st29" x="330.9" y="185.7" width="3.5" height="31.2"/>
                <rect class="st29" x="370.8" y="199.6" width="3.5" height="36.2"/>
                <rect class="st29" x="412.1" y="219.4" width="3.5" height="36.2"/>
                <rect class="st29" x="453" y="239.5" width="3.5" height="36.2"/>
                <rect class="st29" x="493.4" y="258.8" width="3.5" height="19"/>
                <g>
                  <path class="st29" d="M330,186.2h3.2v-.4h12.5l1.2.4-1.2,2.4h-12.5v.4h-3.2c-.8,0-1.4-.6-1.4-1.4s.6-1.4,1.4-1.4h0Z"/>
                  <path class="st29" d="M501.4,262.8l-155.7-74.1,1.2-2.4,155.7,74.1c.7.3,1,1.1.6,1.8h0c-.3.7-1.1,1-1.8.6Z"/>
                </g>
              </g>
              <g>
                <rect class="st29" x="752.7" y="185.7" width="3.5" height="31.2"/>
                <rect class="st29" x="712.8" y="199.6" width="3.5" height="36.2"/>
                <rect class="st29" x="671.5" y="219.4" width="3.5" height="36.2"/>
                <rect class="st29" x="630.6" y="239.5" width="3.5" height="36.2"/>
                <rect class="st29" x="590.2" y="258.8" width="3.5" height="19"/>
                <g>
                  <path class="st29" d="M757.1,186.2h-3.2v-.4h-12.5l-1.2.4,1.2,2.4h12.5v.4h3.2c.8,0,1.4-.6,1.4-1.4s-.7-1.4-1.4-1.4h0Z"/>
                  <path class="st29" d="M585.7,262.8l155.7-74.1-1.2-2.4-155.7,74.1c-.7.3-1,1.1-.6,1.8h0c.3.7,1.1,1,1.8.6Z"/>
                </g>
              </g>
              <g>
                <g>
                  <path class="st19" d="M291.9,197.5h12c1.2,0,2.4.2,3.6.5l5,1.4c.8.2,1.5.5,2.3.9l171.2,86.3v-12.6h16.8v49.1h-229.8v-122.1c0-1.9,1.5-3.4,3.4-3.4h15.5Z"/>
                  <path class="st19" d="M795.6,197.5h-11.4c-1.6,0-3.2.2-4.7.7l-4.2,1.2c-1,.3-2,.7-3,1.2l-170.8,86.1v-12.6h-17.8v49.1h230.8v-122.1c0-1.9-1.5-3.4-3.4-3.4h-15.5Z"/>
                </g>
                <polygon class="st33" points="589.7 280.2 597.4 280.2 597.4 278.3 588 278.3 588 305.4 589.7 305.4 589.7 280.2"/>
                <polygon class="st34" points="491.4 280.2 499.1 280.2 499.1 278.3 489.7 278.3 489.7 305.4 491.4 305.4 491.4 280.2"/>
              </g>
              <g>
                <g>
                  <rect class="st15" x="490.7" y="297.1" width="106.3" height="11.7"/>
                  <rect class="st27" x="489.7" y="295.5" width="108.6" height="1.7"/>
                </g>
                <g>
                  <rect class="st35" x="474.7" y="306.6" width="136.7" height="11.7"/>
                  <rect class="st27" x="473.3" y="306.6" width="139.8" height="1.7"/>
                </g>
                <g>
                  <rect class="st40" x="460.5" y="317.1" width="165.2" height="14.4"/>
                  <rect class="st27" x="458.8" y="317.1" width="168.6" height="1.7"/>
                </g>
              </g>
              <rect class="st22" x="501.7" y="153.7" width="82.9" height="6.5"/>
              <rect class="st18" x="501.6" y="160.2" width="82.9" height="1.5"/>
            </g>
            <g>
              <rect class="st24" x="480" y="268" width="3.5" height="38"/>
              <rect class="st24" x="417.2" y="277" width="3.5" height="27"/>
              <path class="st24" d="M412.8,276.4h25.5v.3l55.2-13.8v.3h12.8v3.1h-13.8v-.3l-54.3,13.5h0c0,0-25.5,0-25.5,0-.9,0-1.6-.7-1.6-1.6s.7-1.6,1.6-1.6h0Z"/>
            </g>
          </g>
          <path class="st12" d="M985.6,361.3c1.3.2,2.7.5,3.9-.2s1.7-2.5.6-3.3c.9.3,1.8-.5,2-1.4s-.1-1.8-.5-2.7c4.3.1,8.7.2,13-.5,2.3-.4,4.8-1.1,6.4-2.9.4-.5.8-1.1.6-1.7-.3-.6-1.2-.8-1.9-.8-1.4,0-2.7,0-4.1-.1-.6-5.8-3.4-11.3-7.6-15.2,2.8,0,6.2-2.1,6.4-4.9-2.1-1-4.3-2-6.4-3.1,1.5.5,3.3-.2,4-1.6-.8-.4-1.6-.8-2.5-1.2.9-1.9.3-4.3-1.3-5.6,1.9-.8,4-1.8,4.6-3.7s-1.8-4.4-3.3-3c2.5-.7,5-2.6,5.2-5.2s-3.3-5-5.2-3.2c.4-1.2.9-2.6.3-3.8s-2.8-1.3-3,0c-.4-3-2.8-5.7-5.8-6.5.9-.8.8-2.4,0-3.4s-1.8-1.6-2.9-2.1c-9.1-4.6-18.3-9.2-27.4-13.8-13.2-6.6-26.6-13.4-41.2-15.6-20.1-3.1-40.8,2.7-61-.4-1.3-.2-3.3.6-2.6,1.7-8.2-.9-16.3-.9-24.2,1.2-10.3,2.8-21,8.1-31.1,4.6-7-2.5-12.3-9-19.7-10.3-3-.5-6.2-.1-9.2-.8-4.5-1.1-8.3-4.6-12.9-5.4,0,.8,0,1.5,0,2.3-.1,7.2-7.8,12.7-14.1,16.2-2.8,1.5-5.9,2.4-9,3.2-14.8,4-29.9,8.1-45.2,7.7-4.5-.1-10,0-12.1,3.9-2.8-.2-5.2.9-7.9,1.8-4.1,1.5-8.2,2.9-12.3,4.4-1.4.5-2.7,1-4.2,1.2-1.6.3-3.2.3-4.8.5-5.8.8-11.1,4.1-16.9,5.2.2,3.2.9,6.1,2.7,8.8,38.9-2.7,78,2.5,116.7,7.7,17.8,2.4,35.5,4.8,53.3,7.1,62,8.3,118.9,33.8,180.4,45h0Z"/>
          <g>
            <rect class="st24" x="605.7" y="268.1" width="3.5" height="38"/>
            <rect class="st24" x="668.5" y="277.1" width="3.5" height="16"/>
            <path class="st24" d="M676.4,276.5h-25.5v.3l-55.2-13.8v.3h-12.8v3.1h13.8v-.3l54.3,13.5h0c0,0,25.5,0,25.5,0,.9,0,1.6-.7,1.6-1.6s-.7-1.6-1.6-1.6h0Z"/>
          </g>
          <g>
            <g>
              <path class="st14" d="M995,362.6l.2-1.4c0-.3,0-.5-.2-.8v2.1Z"/>
              <path class="st39" d="M624.3,300.4v30.9c0,2.3,1.9,4.3,4.2,4.3,205.7,2.9,457.1,58.8,457.1,71.4l.2,1.4v-38.7s-.2-.2-.2-.2c0-12.6-252.6-69.1-459.4-71.4-1.1,0-1.9,1-1.9,2.4h0Z"/>
              <path class="st39" d="M461.5,299.5c0-1.3-.9-2.4-1.9-2.4C252.8,299.5.1,355.9.1,368.6l-.2.2v38.7l.2-1.4c0-12.6,251.5-68.5,457.1-71.4,2.4,0,4.2-1.9,4.2-4.3v-30.9h0Z"/>
            </g>
            <g>
              <path class="st31" d="M676,299.5c2,3,5.5,3.8,8,2-2,4.2-2.5,9.8-1.2,14.7.4,1.6,1.1,3.2,2.3,4,2.4,1.6,4.8-1.2,7.3-2.5,2.8-1.5,6-.7,9-1.7s5.6-5.4,3.9-8.8c.2,1.3.4,2.6.7,3.8,4.8.3,9.6.6,14.4,1,2.5.2,5.3.3,7.3-1.6s2.6-6.6.4-8.5c3.2.2,6.5-1.4,8.8-4.4,6,3.1,13.2.9,17.3-5.3,1,3.1.7,6.9-.9,9.5,2.1.8,4.4,0,6-1.9-2.4,1.9-3.3,6.6-1.8,10s5,4.8,7.5,3.1c-1.2,3-.4,7.2,1.8,9.1s5.3,1.5,7-1.1c2.2,3.7,6,5.5,9.3,4.6,0-1.5,0-3,.2-4.4,5,3.1,11.5,0,13.6-6.4,2.8,4,8.5,3.2,10.3-1.6,4.2,3,9.1,3.9,13.6,2.5,0-1.3,0-2.6-.1-3.9,6.9.2,13.9.4,20.8.6,2.7,0,6.4-1.6,5.6-5,.1,2,.2,4,.3,6,4.1,1.1,8.3,2.2,12.4,3.4-2.7.2-5.2,3.3-4.9,6.9.4,3.6,4.5,5.7,6,2.9.6,4.6,5,6.5,8.5,6.5s7.4-.9,10.3,1.9c.1-3.8.2-7.6.4-11.4-.4,1.8,1,4,2.4,3.7-.2-2.8-.3-5.5-.5-8.3,3.5,2.7,10.2,10.8,12.1,6.3-1.3,4-2.6,8-4,12,5.2-.8,10.3-3.3,14.6-7.2-1.2,2.2-2.3,4.4-3.5,6.6,4.3,5.1,11.9,4.1,15-2.1-3.4,4.2-3.1,12.4.5,16.6s9.8,3.3,12.4-1.8c-.5,1.6-.3,3.6.6,5,1.9.8,4,1.7,5.8.8s2.8-4.5,1.3-6.2c3.1,6.5,11.8,5.2,13.4-2,0,1.8.2,3.5.3,5.3,4.4,3.4,10.3,3.1,14.3-.7-1.4,3-2.7,5.9-4.1,8.9,4,2.6,10,4.4,11.5-1,.4-1.3.3-2.7.3-4-.2-8.2-.4-16.4-.6-24.5-16.1-8.7-33.4-24.1-42.2-40.9-9.9-18.8-95.8-18.3-117.3-20-16.5-1.3-28.8-12.9-45.3-14.7-17.4-2-3.5,11.3-20.9,12.3-32.7,2-48.2,6.9-76.1,28.4,1.7-.4,5,1.9,6.2,3.6h0Z"/>
              <path class="st25" d="M421.4,306.9c2.4,1.4,8-4.3,10.6-5.6-2.1,1.9,2.4,5,4.5,3.1,0,2.3,2.7,4.4,5.7,4.3s5.5-2.4,5.3-4.7c-1.9,1.2-.4,4,2,4.2s4.7-1.5,5.3-3.4.2-3.9-.3-5.8c2.4,1.7,7.1-.5,6.3-3,.8.2,1.6.3,2.4.2,2.9-.3,3.1-4.5.3-5.3s-3.1-1-4.7-1.2c-3.2-.4-7.5,2.1-5.7,4.2-2.8-1-5.5-2-8.3-3-1,1.7.3,3.9,2.5,4.3-3.4,0-6.8.2-10.2.3.6-3.2-.1-6.5-2.2-9.2-1.3.7.3,2.8,1.7,2.1-1.5-3.7-12.2,2.8-12.7,6.7-3.3-1.3-7.8,0-9.2,2.8-1.1-2.4-6.4-7.6-5.9-5.1-2-5.1-11.7-.8-17.1,2.5-.6-3.7-6-6.4-10.6-5.2-1.4.4-2.9,1.5-2.3,2.5-.5-1.5-4-.3-3.1,1-.8-1.8-2.8-3.2-5.1-3.6,1.9-1.5,1.6-4.4-.6-5.5s-5.7-.2-6.7,1.8c2.4-3.2-2.4-6.6-6.5-8.3-4.1-1.7-8.2-3.4-12.3-5.1-3-1.2-8.1-1.7-8.5,1-.7-1.8-1.4-3.6-2-5.5-3.8.5-6.2,4.4-4.3,7-2.5-.5-1.1-4.3,1.4-3.6-.7-6.8-11-11.8-19.1-9.2-4.5-5.3-13-8.3-21.1-7.6l-.9,2.8c1.5-5.2-7.3-9.9-12.9-6.9-2.2-1.2-4.8-1.8-7.5-1.7-.5,1.3-.5,2.6-.3,3.9-2.5-1.7.5-5.7,3.6-4.7,1.9-1.8-.9-5-3.7-4.1-1.4-2.8-5.8-4.4-9.5-3.5-2.3-7.1-9.1-13.1-17.7-15.7-.3,1.2-.5,2.4-.8,3.6-1.7-.4-3.5-.3-5.1.2,0,3,0,6.1-.1,9.1-1.7-2.6-4.5-4.8-7.9-6.2l-.5,5.9c-2.1-2.9-3.6-6-4.3-9.3,1.9-.3,3.6-1.2,4.8-2.4-3.1-1.2-6.7-1.5-10-.9.9-3.1-4.1-6-7.6-4.4.6-2.2-1.7-4.2-4.4-4.8s-5.6,0-8.3.5c-1.9.4-4.4,1.6-3.4,3-1.2-.8-2.9-1-4.4-.6-.1,1.1-.2,2.3-.4,3.4-3-3.3-6.9-6.6-12-7.3s-11.3,2.5-10.7,6.5c-7.1-4.3-16.1-6.7-25.1-6.7-2.1,0-4.4.2-6.1,1.2s-2.4,3.2-.9,4.4c-2.9.2-5.9.3-8.8.5-.4,2-.4,4.1.1,6.1-4.2-.7-8.4-1.5-12.4-2.5-.8,5.5.5,11.1,3.6,15.9-3.9-1.3-8-1-10.4,1.8-1.4-1.2-3.5-1.8-5.5-1.6-.6,1.4-1.2,2.8-1.8,4.2-3.2-.5-6.5-1-9.7-.6s-6.5,1.9-7.7,4.3c-5.3-.4-10.8,3.1-11.4,7.3-5.8,1.6-9.9,6.4-9.5,11.1-1.8.8-2.7,2.7-1.8,4.2,2.6-.4,5.3-.2,7.8.5-4.2,1.4-9.2,3.9-8.2,7.4.6,1.8,2.8,3,5.1,3.3s4.6,0,6.9-.4c-2.2.9-4.5,2-5.6,3.8s-.3,4.4,2.1,4.9c.7.2,1.5.2,2.1.5s.7,1.2,0,1.4c-3.2-.4-4.6,1.9-7.5,3.1s-4.6,4.5-2.4,6.3c-4.9-4.2-14.3-4.5-19.8-.6.7-3.9-5.5-7.2-9.8-5.2-2.4,1.1-3.8,3.3-4.8,5.3-3.1,6.5-4.6,13.4-4.3,20.3-5.6,2.5-9.6,7.3-10,12.3-4.9.7-8.1,5.5-6,9.1-4.5,4-6.1,9.8-4.1,14.8,1,2.5,4.2,5.1,7.2,3.9-4.5-.2-9.6,0-12.5,2.7-1.4,1.3-2,3.1-2.4,4.8-1.3,5.4-1.2,11,.1,16.4-2-1.2-5.6.5-5.2,2.5,4.1,1.8,9.7,1.3,13.2-1.2-1.5.8-2.5,2.1-2.7,3.5,2.9,1.2,6.8,1,9.3-.7s3.7-4.6,2.8-7.1c3.6,2.5,11.3-.3,13.2-3.9-.5,1.2-.9,2.5-1.4,3.7,4.3.8,9.1-2.1,9.2-5.6,1.4,2,5.2,2.7,7.6,1.4,2.4-1.3,3-4.4,1.2-6.1,6.1-1.1,8.4-8.6,3.6-11.7,4.7,1.7,11-1.2,11.7-5.2.8,1.9,3.7,2.9,6.3,2.6s4.9-1.5,7-2.6c-.4,2.2,3.5,3.1,6.3,2.9,5.9-.5,11.7-2.1,16.7-4.6-1.1,1.6,2.2,2.7,4.5,2.6,4.7-.2,10.1-.7,13.1-3.6,4.2,1.8,9.9,1,13.2-1.9,7.6.2,15.3-1.4,21.9-4.6.9-.4,1.8-1,2-1.8s-.9-1.7-1.8-1.3c3.8,1.1,8,1.3,11.9.6.7-2.8-.7-5.7-3.4-7.5.3,1.1,2.5.7,3.1-.2s.5-2.2,1-3.2c2.3-4.3,13.1-.6,15.4-4.9,0,3.9,2.5,8.6,2.4,12.5,5.4-.3,10.7-2.5,14.1-5.8-2.2.3-2.8,2.8-1.3,4.1s3.9,1.5,6,1.3c3.2-.3,6.3-1.2,8.9-2.6-1.5.2-1.6,2.1-.4,2.8s2.8.7,4.3.6c3.5-.2,8.1-1.2,8.4-3.9-.9.4-.8,1.6,0,2.2s2,.6,3.1.7c3.2.2,6.5.3,9.5-.7s5.4-3.5,4.7-6c.4,1.6,3.1,1.7,5.1,1.5,2.6-.2,5.3-.5,7.6-1.6s3.8-3.4,3-5.3c-.9-2-3.8-2.8-6.4-3.4,6.7.1,13.6-1.6,20.1-3,6.5-1.4,12.7-4.6,15.6-9.3v3.5c8,2.1,17.9-2.2,20-8.7-.7,1.6,1.7,3.2,3.8,3s4-1.3,5.6-2.4c.6,2.3-.3,4.8-2.2,6.6,3.9.7,8.2-.7,10.5-3.3-2.3-.4-3.7,2.5-2.3,4s4.1,1.8,6.5,1.9c3.7.3,8.4,0,9.8-2.7-2.4.6-2.4,3.6-.5,4.8s4.7,1.1,7.2.8c1.9-.2,4.5-1.5,3.5-2.8-2.1,4.3,3.5,9.5,9.3,8.5,5.7-1,8.4-7.6,4.4-10.9,0,.9,1.1,1.6,2.1,2,3.6,1.5,8.5,1.6,11.7-.6s3.3-6.8-.3-8.4c-.4,1.1,1.1.7,2.3,1.2s2.8.5,4.2.5c3.7,0,7.8,0,10.4-2.1-.9,1.3-1.8,2.6-2.6,3.8-.3.4-.5.9-.2,1.2.2.3.7.3,1.1.4,2.6.3,5.2.5,7.7,0s4.7-2.4,4.7-4.4c-.1,1.5-.3,3-.4,4.6,0,.4,0,.8.2,1.1.3.4,1,.5,1.7.5,2.6.2,5.4.3,7.8-.6s4.2-3.3,3-5.1c-1.2.9-.6,2.6.7,3.3s3.1.7,4.7.7c2.2,0,4.4-.3,6.5-.5,2.1-.3,4.4-.7,6-1.8,13.7-9.6-4.2-10,1.1-4.6-2-.5-2.7.7-4.2,1.9h0Z"/>
            </g>
          </g>
        </g>
      </g>
    </g>
    <g>
      <rect class="st28" x="502.6" y="137.8" width="81.1" height="3.3"/>
      <rect class="st28" x="502.6" y="129.9" width="81.1" height="3.3"/>
    </g>
  </g>
  <path class="st31" d="M822.2,267.9c.2.2.4.2.7.2,1.3.2,2.7.3,4,.5-1.5-.4-2.8,1.7-2.2,3.1.5,1.3,2,2.1,3.4,2.4-.8,0-1.5.9-1.4,1.7,0,1,.9,1.7,1.8,2.2s1.8.7,2.7,1.1c-1.3.5-1.3,2.5-.4,3.5s2.4,1.3,3.8,1.5c0,1.3-.2,2.6-.2,3.9,0,.4,0,.7.1,1,.2.4.6.5,1,.7,1.3.5,2.7.8,4.1.9.3-.8.4-1.6.3-2.5,1.2,2.2-2.4,4.8-1.5,7.1.5,1.1,1.8,1.6,3,1.6-1.2.2-1.6,1.9-1,2.9.7,1,1.9,1.5,3,1.9-.8.6-.6,2,.3,2.6s2,.6,3,.5c-1.4,1.3-3.1,2.4-4.4,3.8s-2.2,3.4-1.9,5.3c.4,1.9,2.5,3.5,4.3,2.7-1.2.3-2.1,1.4-2.5,2.6-.4,1.2-.5,2.5-.5,3.7,0,.7,0,1.4.2,2.1.7,1.6,2.9,1.8,4.7,1.7-.3,1.2.1,2.6.9,3.6,1.2,1.4,2.9,2,4.6,2.5.5.1,1,.2,1.4,0,.2,0,.3-.2.4-.4,0,.3,0,.6,0,.9.4.2.9.4,1.3.4,0-.2,0-.5-.2-.7.7.7,1.6.6,2.7.9,1.2.3,2.7-.3,3.2-1.4l6.3.4.2-1.9c1.2.5,2.6,1,3.8.5.8-.4,1.2-1.5.9-2.3,1.1.9,2.7,1.3,4.1,1.1,1.8-.3,3.3-1.7,3.9-3.4.2,1.8,1.4,3.4,3.1,4s3.7.2,5-1c0,1.1-.2,2.3-.2,3.4s.3,2.4,1.2,3,2.5.2,2.7-.9c-.3,1.6.3,3.7,2,4.1,1.4.3,2.6-.8,3-2.2.1,1,.7,2,1.5,2.6,1.2.9,2.9,1,4.2.3,0,2.5,3.2,4.4,5.5,3.2-.5,1-.2,2.3.6,3.1s1.9,1.3,3,1.6c.5.2,1.1.3,1.6.2.5-.1,1-.6,1-1.2.3,1.4,2.5,1.8,3.5.7,1-1,.9-2.8,0-4,.5.7,1,1.4,1.8,1.6.8.2,1.8-.3,1.8-1.1.8,2.1,2.3,3.8,4.1,5,.4.2.9.5,1.4.4s.8-.7.5-1.1c3.5,2,8.2,1.6,11.4-.8.8,1,2.6.8,3.5-.2.7-.8,1-1.9,1.1-3.1,0,.2.2.3.3.4,1.6,2,4.7,1.4,7.2,1.1-.2.9-.5,1.8-1,2.5,1.5,1,3.3,1.4,5.1,1.3-.2,1.5,1.1,2.7,2.3,3.6,2,1.5,4.3,3,6.8,3,0,1.4,1.5,2.4,2.8,3,.9.4,1.9.8,2.8.5.5-.1,1-.5,1.2-1,.2.5.5,1,1,1.3.8.6,1.7.6,2.6,1h0c1.2.6,2.6.9,4,.7.7,1.2,2.2,1.9,3.6,1.6.2-.9.4-1.9.5-2.8.1,1.3,1.4,2.5,2.8,2.4s2.5-1.3,2.5-2.7c.4.8,1.5,1.2,2.3.8s1.2-1.4.9-2.2c.3.9.5,1.9.8,2.8.7-.1,1.4-.5,1.9-1,.2,1,1.2,1.9,2.3,1.7s1.9-1.2,1.8-2.2c.5.9,1.9,1.2,2.8.7.4-.3.7-.7.8-1.2.5,1.4,1.5,2.6,2.9,3,.2-.4.4-.8.6-1.3-.4,1-.1,2.1.6,2.9s1.9,1,2.9.6c-.5,1.3.6,2.8,2,2.8,1.3,0,2.4-1.6,1.9-2.8,1.5,1.8,3.6,3.8,5.9,3.3,2-.5,3-3.2,1.9-4.9.6.7,1.2,1.4,2.1,1.5,1,.2,2.3-1,1.7-1.9.8,1,2.1,1.7,3.3,1.4s2.2-1.7,1.5-2.8c.4,1.2,1.7,2.1,3,2.3s2.6,0,3.9-.4c.5-.2,1.1-.4,1.4-.8.2-.2.2-.5.1-.8.4.5,1,.8,1.5,1.1.4-1.6.5-3.2.3-4.8.9.4,2.1,1.1,3,.9s1.7-1.4,1.2-2.2c1.3,1,3,1.7,4.6,1.7,0-.6.1-1.3.2-1.9,0,1,.9,1.9,1.9,2.3s2,.5,3.1.6c.7,0,1.5,0,2.1-.2.4-.2.7-.6.8-1,.2,1,1,2,2.1,2.3,1.1.3,2.4-.2,3.1-1.1-.1.4,0,.8.2,1.2.4.5,1,.7,1.6.8,2.3.5,4.8-.1,6.6-1.6-.7,1.4-.1,3.2,1.2,4s3.2.5,4.1-.7c1.7.9,4,.9,5.7,0-.5.6-.2,1.6.5,2.1.6.5,1.5.5,2.3.6,1.4.1,3.3,0,3.8-1.3,0,.4.4.9.8.7s.6-.8.2-1.1c-1.5-12.8-4.8-25.7-10.3-37.4-1-2.1-2.1-4.3-4-5.7-1.3-.9-2.8-1.4-4.3-1.8-6.5-1.9-13.1-3.4-19.8-4.4-3.6-.6-6.3-3.2-9.5-5-12.5-6.8-25.1-13.7-37.7-20.5-8.4-4.6-16.9-9.2-26.2-11.6-13.5-3.5-27.8-2.2-41.5.5-3.1.6-6.3,1.3-9,3.1-.4.3-.6,1.1-.3,1.2-5.7.6-11.8.2-17.5.6-3,.2-6,.3-9.1.5-2.7.1-5.4.3-8.1.2-1.4,0-2.7,0-4.1-.1,0-.6-.4-1.2-1-1.4.5-.4,1.2.5,1.8.4.3,0,.5-.2.6-.4.7-.9,1-2.1.6-3.2-.8,0-1.7-.1-2.5-.3.8-.6,1.9-.6,2.6-1.3.6-.6.6-1.7,0-2.4-.6-.6-1.7-.7-2.4-.2.4-.8.6-1.6.6-2.5,0-.2,0-.4-.1-.6-.2-.3-.6-.3-1-.4-.7,0-1.5,0-2.2-.1,2.2-.8,3.5-2,5.1-3.8.2-.2.4-.5.3-.8-.2-.7-1.3-.2-2-.5.8-.4,1.9.1,2.8,0,1-.2,1.7-1.1,1.6-2.1,0-1-.8-1.8-1.7-2.1,1.1.3,2.3.7,3.5.5s2.2-1.3,2.1-2.5c-.1-.9-1.1-1.6-2-1.5-.4,0-.8.3-1.1.5.2-.2.4-.4.6-.6.3-.3.6-.7.8-1.1.2-.6,0-1.2-.2-1.7-.3-1-.7-2-1.6-2.5-.2-.1-.4-.2-.7-.2.4-.7.7-1.5.6-2.3-2-.9-4.4-.7-6.3.5,0-.7-1.1-1.6-1.8-1.6-.2,0-.5,0-.7.2.2-.6.4-1.3.4-2,0-.4,0-.8-.3-1.1-.5-.6-1.5-.4-2,.2-.2.3-.4.6-.5,1,0-1-.8-2.1-1.8-2.3-.6-.2-1.4,0-1.8.4-.1.1-.2.3-.3.4,0-.3-.2-.7-.5-.9-.6-.5-1.7-.3-2.2.3s-.7,1.5-.6,2.3c0,.5.1,1,.4,1.4-1.3-.7-3.2-.4-3.9.9,0-.5,0-1.1.2-1.6-.9-.2-1.9-.4-2.8-.1-.6.2-1.1.7-1.3,1.3,0-.1-.2-.3-.3-.3-.4-.3-.9-.3-1.3-.3-1.2,0-2.4-.2-3.7-.3-.7,0-1.4,0-2,.3-.6.4-.8,1.3-.6,2,.2.4.5.8.8,1.1-.4,0-1,0-1.4.4.2-.4.2-1,0-1.4-.3-.7-1.1-1.1-1.8-1.3-.8-.2-1.7-.1-2.3.4,0,0,0,0,0,0,0-.6.2-1.1.2-1.7-1-.4-2.2-.5-3.3-.3.9-.4,1.5-1.7.9-2.5-.7-1-2.6-.7-3,.4,0-1,.1-2,.2-3-1.9-1.2-4.8-.2-5.4,2,.2-.6.1-1.2-.2-1.7-1.4-.2-3,.1-3.8,1.3-.8,1.1-.3,3.2,1,3.4-2,.2-3.5,2.3-3.2,4.3s2.4,3.5,4.3,3.1c-1.2.7-.8,2.8.5,3.1-2.3.5-3,3.4-3.3,5.7-.1.8-.2,1.7.2,2.5s1.5,1.2,2.1.7c-.6,1.1.5,2.7,1.8,2.5,0,.2,0,.3,0,.5-6.7-2.9-13.6-5.5-19.9-9.1-.1,1.5-.3,3.4-.4,4.9,0,.3,0,.6.2.8Z"/>
  <path class="st32" d="M1011.7,337.3c2,.5,4.2.6,6.2.2-.3-2.7-.9-5.3-1.9-7.8-.6-1.6-1.4-3.3-2.7-4.4-.5-.4-1.2-.8-1.8-1,.8-.2,1.7-.4,2.5-.8.1-1.4,0-3.4-.3-4.8.2.2.5.2.7,0,.3-.3.3-.8.3-1.3-.5-6.7-4.4-13.1-10.1-16.6-.6-.3-1.2-.6-1.8-.6,0,0,0,0,0,0,.4-1.1.3-2.3-.2-3.4-.7-1.5-2.1-2.6-3.6-3.5-1.9-1.2-4-2.2-6.2-2.8-.7-.2-1.5-.2-2.1,0,1-2,.3-5-1.4-6.6-1.8-1.6-4.1-2.2-6.5-2.6-.8-5.6-2.9-10.8-6.2-11.8.4-2.1.2-4.7-1.2-5.7-1.9-2.4-5.4-2.7-7.5-.6-.2-1.8-1.1-3.5-2.4-4.4-.4.7-.8,1.3-1.1,2,.2-1.5-2.1-2.3-2.6-.9,1.2-4.5,1.5-11.5-3.2-13-1-.3-2.4-.3-2.7-1.5-.7.6-1.1,1.4-1.3,2.4-.4-3.3-4.5-7.4-6.1-3.2-.4-1.5-2.2-2.1-3.2-1.1-.4-7.2-4.1-13.9-9.6-17.1-.3-.3-.8-.4-1.2-.2.4-3.1-4.4-3.6-3.8.4,0-4.2-10.8-9.1-10.5-2.8-6-7-7.1-.9-8.2,5.8-1-1.1-.7-3.1-1.2-4.7-1-3.6-5.6-3.4-6.3.3-3,1-6.7-.9-9.8-.7s-6.8,3.3-5.7,6.8c-1.5-1.9-.4-6.7-3.3-7.1-2.6,0-1.9,5.9-4.4,6.8-5-3.4-11.4-6.2-17.1-4.4-1.8,1.2-1.8,4.5-3.6,5.7-1.8-6.1-10.7-8.1-11.4-.5-3-4.8-9.9-2.5-12.5,1.7.6-6.9-6.2-7.9-4.6-2.8-.8-3.8-10.6-4.9-10.4,0-.5-1.9-2.4-3.3-4-2.8,0-2-1.9-5-3.4-2.9-1,5.8-.1,12.2-1.3,17.9-2.9.3-6.1,2.1-6.1,6.1-1.6-1.8-3.4-3.4-5.3-4.7-.6,2.2-.8,4.4-.6,6.7-.6-.5-1.3-.9-2-1,0,2,0,3.9-.1,5.9-.7-.3-1.4-.6-2-.9.8,4.8-3,1.7-5.4,1.8,4.9-6.8-3.2-11.7-4.6-9-.2-3.1-6.7-3.5-6.2.1-.5-1.7-2.7-2.4-3.8-.9-.8-1.9-1.3-4-2.8-5.3-2.4-2.1-7.7-5.2-6.1,1-3.4-2.4-8-1.9-11,1.1-.2-1.3-.5-2.6-.7-3.9-1.6-.7-3.7.9-3.6,3-4.2-2.2-12-2.3-12.1,4.8-2.6-4.2-8.4-.6-7.1,4.3-4.4.3-8.6,3.3-10.7,7.8-.7-2.1-1.6-4.4-3.4-5.2-1.7-.7-3.9,1.2-3.4,3-1.4-3-5.6-1.4-5,2.2-3.4-2.4-10.5-2.4-9.8,3.9-3.5-4.9-10.2-5.9-14.7-2.3-2.9-4-5.4,1.9-4,5.6-1.6-3.5-6.6-2.2-8.2,1.2s-1,7.7-.3,11.6c-1.7-6.1-13-12.2-13.6-2.7-1.2-2.6-3.8-.2-5.1,1-2.5,1.5-8.3,3.5-5.9,7.9-2.8-3.1-6.5-1.5-9.4.5-1.6.3-5.4-.4-4.8,2.7-3.1-1.5-8.2-2.1-9.2,2.6-2.4-.6-7.9,1.3-6.2,4.9-2.7,1.6-6.7,2.1-8.2,5.5-.7,1.9.8,4.8,2.4,4-4.1,7.7,8.2,6.1,6.5-.4,2.2-1.1,3.6-4,3.4-6.8.4,2.9,3.4.9,3.7-1.2,2.7,2.2,7,.7,8.2-2.9,1.8.9,4.1.5,5.7-.9,0,.8-.3,1.6-.7,2.3,2,0,4-1,5.2-2.9-.2.8-.4,1.5-.7,2.3,2.7,1.2,5.9.8,8.4-1,2.3,4,8.4,5.2,11.5,2.1,1.3,1.3,3.7-1.1,3.8-2.8,0,.9,0,1.9,0,2.8,2.2-.8,4.5.3,6.8.2,2.3-.2,4.8-3,3.5-5.2,1.5.3,3.1-.8,3.7-2.4-1.4,8,15.7,6.6,12.6.9,1.1,1.1,3.2.9,3.9-.7l-.4,2.7c2.4-.8,10.1,2.3,8.5-2.7,1.9,1.4,4.4-1.7,3.6-3.9,1.9,3.5,5.2-.3,3.7-3.3,1.4,1,3.3,1.2,4.8.2-.4,2.1-1.3,4.1-2.5,5.7h6.5c-1.6,4.6,3.8,6.8,4.8,3.5,1,3.2,5.9,3.5,6.5-.8.5,5.5,7.8,4.3,7-1.1,2.5,1.4,7.6-2.2,6.1-4.9,4,2.6,8.3-3.5,3.6-6.3,3.3,1.2,9.2-4.7,5.3-7.2,2.9-.8,3.2-8.9.4-9.3,1-1,.6-3.3-.4-4.8,1.8-.8,4-2.3,5-2.6-1.8,1-3.1,3-3.4,5.2,3.2.3,6.5.2,9.7-.3-1.9.7-1.8,4.4-.1,5.8,1.5,1.3,3.5,1.2,5.4,1-.4.3-.5,1.1-.2,1.6,2.4,1.5,5.7.2,8.4.6-3.6,3.6-2.5,5.9,2.1,5.8-2.5.8-5.7,5.1-2.5,7.2-2-.6-4.1,1.4-4.2,3.8,2,0,3.9.1,5.9.1-2.2,4,3.7,3.7,5.9,3-.4,1-.9,1.9-1.3,2.9,3.3.2,21.6,10.7,18.8,1.3.6,2.6,3.9,1.7,6.1.8,3.4-.5,10-3.4,6.8-8.3,1.5-1.8,1.5-4.7.5-6.9.2,0,.3,0,.5-.1,3.2-1.3,3.3-6.5,5.8-8.8-.1,2.9,4,4.1,5.1,1.5,2.3,2.1,5.9,1.9,8-.5.2,2.6-.8,5.4-2.5,7,.6.5,1.4.7,2.1.5-1.9,1-2.8,5.3,0,5-1.6,1.4-2.8,3.4-3.4,5.5l3.3.5c-.9,4.7,4.6,7.8,7.2,4,1.4,3.8,8.3,3.8,9.4-.1-.3,1.4,1.5,2.4,2.6,1.6.9-.7,1.3-2,1.5-3.2-.5,6.1,14.2,11.5,12.4,3,.3.1.7.2.9-.2.3-.6.5-1.3.4-2.1,1.8,3.5,5.1,5.8,8.5,6.8,4.6.4,13.5,3.4,13.7-4.3,1.8,3.4,4.8-.8,7.7-5.8,1.1,3.4,2.4,6.8,3.7,10.1.4,1,.9,2.1,1.8,2.5,1.1.5,2.5-.1,3.2-1.2.7-1,1-2.3,1.2-3.6-.2,2.7,1.3,5.5,3.7,6.6s5.4.6,7.3-1.2c-.7,7.3,1,14.9,4.8,21.1,1.2,2,2.9,4,5.2,4.4,2.1.3,4.4-1.8,4-3.8,1.6,5.1,3.7,10,6.1,14.7.7,1.4,2.1,2.9,3.4,2.1.8-.5.9-1.5,1.2-2.4s1.1-1.9,1.9-1.5c-1.4,2.6-1.2,6,0,8.8,1.1,2.8,3.1,5.1,5.2,7.2,1.4,1.4,3.9,2.7,5,1-.8,2.2-1.5,4.5-2.3,6.8-.2.6-.4,1.2-.3,1.9,0,.6.4,1.2.8,1.7,1.2,1.8,2.5,3.6,4.4,4.3,1.8.6,4.3-.4,4.6-2.3-.4,4.5,1.3,9.2,4.5,12.2,1.4,1.3,3.8,2.2,5,.8.4-.5.6-1.2.7-1.9.5-2.4.8-4.8,1.2-7.1,2,3.6.1,8.7,2.6,12,2,2.7,5.9,2.8,9.2,2.7.6,0,1.2,0,1.6-.4,2.1-1.4-.8-5,.4-7.2.6,4.5,5.2,8,9.6,7.3.6-5.9,1.1-12.4-.2-18.2.2.5.4.9.6,1.4,1.5,1.4,4.1.2,4.9-1.7s.3-4.1-.2-6.1c-.6-2.3-1.2-4.8-2.9-6.4-.2-.2-.4-.3-.6-.5,1.1.4,2.2.5,3.3.5,3,0,6-1.1,8.7-2.4.3-2.9.5-5.9-.3-8.8-.6-2.1-2-4-3.8-5h0ZM999.3,349.5c.1.2.3.5.5.7-.2-.2-.3-.4-.5-.7Z"/>
  <path class="st32" d="M460.5,289.8c-.7-1.2-2.4-2-4-1.7,1.4-1.1.6-3.2-1-4-1.6-.8-3.7-.7-5.6-.6-2,.1-4.1.2-6.1.4-.1-.6-.2-1.2-.3-1.7-4.8-.6-9.9.6-13.6,3.2,0-.3-.1-.5-.2-.8-4.3,0-8.5,1.2-11.7,3.6-2-2.3-6.3-2.8-9-1.1-.4-1.4-1.8-2.6-3.4-2.9-1.7-.3-3.5.3-4.6,1.4-.1-1-.3-2.1-.9-3-.6-.9-1.9-1.5-3.1-1.3-.1-1.8-3-2.7-4.7-1.8.9-.9,1.3-2.3.7-3.4-.6-1.2-4.4-2.3-6.4-2.2,0,0,0,0,0-.1,0-1,0-2.1,0-3.1,0-.4,0-.7-.3-1-.3-.2-.7-.3-1.1-.3-3.9-.5-8-.3-11.8.4,0-.9,0-1.7,0-2.6,0-.3,0-.6-.2-.8-.2-.2-.6-.3-1-.3-1.5-.1-3.1-.2-4.6,0-.7,0-1.4.2-2,.5.3-1.3.3-2.5-.9-3.3-.4-.3-.9-.5-1.4-.6-2.3-.7-4.9-1-7.3-.8,0-1-.2-1.9-.7-2.9-1.4-2.8-5.1-4.5-8.7-4.9s-7.3.2-10.9.8c1.5-3-.7-6.6-4.2-8.1-3.5-1.5-7.7-1.2-11.4-.2,1.2-1.6-.1-3.9-2.1-4.7-2-.8-4.5-.6-6.7-.3-.4,0-.7,0-1.1,0,0,0,0,.2,0,.2-.3,0-.5.1-.8.2-.9-4-7.1-7.1-11.5-4.8-1.9-1.2-4.3-1.9-6.7-1.9-.5,1.2-.6,2.4-.4,3.7-2.2-1.7.7-5.4,3.4-4.4,1.8-1.6-.6-4.8-3.2-4.1-1.2-2.7-5.1-4.4-8.5-3.7-1.8-6.8-7.8-12.8-15.5-15.7-.3,1.1-.6,2.3-.8,3.4-1.5-.4-3.1-.4-4.7,0-.1,2.9-.3,5.8-.5,8.7-1.5-2.6-3.9-4.8-6.9-6.2l-.7,5.6c-1.8-2.8-3-5.9-3.5-9.1,1.7-.2,3.3-1,4.4-2.1-2.7-1.3-6-1.7-9.1-1.2.9-2.9-3.5-5.8-6.7-4.5.7-2-1.4-4.1-3.8-4.8-2.4-.6-5-.2-7.5.2-1.8.3-4.1,1.4-3.2,2.7-1.1-.8-2.6-1.1-4-.7-.1,1.1-.3,2.2-.4,3.3-2.6-3.3-6-6.5-10.6-7.4-4.6-.9-10.4,1.9-10,5.8-6.3-4.4-14.3-7-22.5-7.4-1.9,0-4,0-5.5.9-1.6.9-2.3,3-1,4.1-2.7,0-5.3,0-8,.1-.5,1.9-.5,3.9-.1,5.8-3.8-.8-7.5-1.8-11.2-2.9-.9,5.2,0,10.6,2.7,15.3-3.5-1.4-7.2-1.3-9.5,1.4-1.2-1.2-3.1-1.8-4.9-1.8l-1.8,4c-2.9-.6-5.8-1.2-8.8-.9-2.9.3-5.9,1.5-7.2,3.8-4.8-.6-9.8,2.5-10.6,6.5-5.3,1.3-9.2,5.7-9,10.3-1.7.6-2.5,2.5-1.8,3.9,2.4-.3,4.8,0,7.1.8-3.8,1.1-8.5,3.4-7.6,6.7.4,1.7,2.4,2.9,4.5,3.3,2.1.4,4.2.2,6.3,0-2.1.8-4.2,1.8-5.2,3.4-1,1.7-.4,4.1,1.7,4.8.6.2,1.4.2,1.9.6s.6,1.2,0,1.3c-2.9-.5-4.2,1.7-6.9,2.7-2.7,1-4.3,4.1-2.4,5.9-4.3-4.2-12.7-4.8-17.9-1.3.6-2.9-2.6-5.6-6-5.8-.3-1.4-.8-3-2.3-3.8-1.4-.7-3.7,0-3.7,1.3-.5-1.1-2.8-1.2-3.8-.2-1.1,1.1-.9,2.8-.5,4.2-.1-1.1-1.7-1.4-3-1.4-2,0-4.1-.1-6.1-.2-1.2,0-2.5,0-3.5.4-1,.5-1.7,1.7-1,2.5-1.5-1-3.5-.9-5.4-.7-1.2,0-2.3.2-3.4.6s-1.8,1.4-1.6,2.3c-6.1-1-12.7,3.3-13,8.4-1.3-2-4.9-2.3-7.2-1-2.3,1.3-3.3,3.6-3.6,5.9-.3,3.1,1.3,6.7,4.9,7.3-6.2,1.8-11.1,6.5-12.2,12-.2,1.2-.3,2.4.3,3.5.6,1.1,2,1.9,3.4,1.8-2.7.8-6.6-.9-8.3,1.1-.5.6-.6,1.5-.6,2.3,0,2,.7,4.5,3,4.9-3.9,0-6.6,3.7-6,6.9s3.6,5.7,6.6,7.8c-2.4-.5-3.7.8-5.7,2.1-1.1.7-2.3,1.5-2.6,2.6-.3,1.1.9,2.6,2.2,2.3-.7.2-1.4.3-2.1.5v4.6c1.3.5,2.7.6,4.1.3-1.3.8-2.1,2.2-2.3,3.5-.3,2,.5,4.1,2.5,5.3,1.9,1.2,5,1.1,6.5-.5-1.5,1.6-.9,4.3,1.3,5.3,2.2,1,5.3,0,6.2-1.9,1.1.5-.7,1.8-.4,2.9.1.4.6.7,1,.9,2.1,1.1,4.3,1.9,6.6,2.5,2.2.6,4.7.9,6.8,0s3.5-3,2.4-4.7c.7.6,1.9.6,2.8.2.9-.4,1.4-1.2,1.9-1.9,1.2-2.1,1.7-4.6,1.3-7,3.9,2.3,9.4,1.7,13.7,0,1.9-.8,3.8-1.9,4.9-3.5,1-1.6,1.1-3.7-.4-5,2.1-.2,4-1.7,4.3-3.4.4-1.7-.8-3.6-2.7-4.4,4.6,1.5,10.4-1,11.8-4.9,0,0-.1,0-.2-.1,1.3.2,2.8.1,4-.4,2.4-.9,4.1-2.7,5.4-4.6,1-1.4,2-2.9,2-4.6,0-1.6-1-3.4-2.9-3.9,1.3.2,2.2-1,2.6-2.1,1-2.3,2-4.5,2.9-6.8.1-.3.3-.7.1-1-.1-.3-.5-.4-.8-.6l-2.5-1.1c1.5.4,3.4-.5,4.1-1.8.4-.8.5-1.6.4-2.5,1.3-.2,2.6-.4,3.8-.9,5-1.8,8.6-6.1,9-10.6,0,0,.1,0,.2,0,.3,1.6.5,3.3.8,4.9,6.6-2.1,12.4-4,17.3-8.2-2,1.4-1.2,4.4,1,5.6,2.2,1.2,5.1,1.1,7.6.4,1.4-.4,2.7-.9,3.8-1.8,2.4-2.1,2.2-5.3,1.9-8.1.7,1.5,1.5,2.9,2.9,4,1.4,1.1,3.5,1.7,5.2,1,2.8-1.2,2.4-4.6,1.6-7.1,2.6,2.9,7.9,4.4,11.6,2.4,2.5-1.3,3.3-4.3,2.3-6.5.6,0,1.1-.2,1.7-.3.5,0,1-.2,1.6-.2,1.7,2.3,3.7,4.5,6.7,5.4,1.6.5,3.5.3,5-.3-.3,1.4.1,3,1.2,4.1,2,2.2,5.3,3.1,8.4,3.9,1.8.5,3.6.9,5.4.7,1.8-.2,5.3-.5,5.3-2,1.5,1.4,4.5,1.5,6,.2.3-2.1-.3-4.2-1.8-5.9,3.5.7,7.2-2.1,6.8-5,2.3.6,4.8,1.3,7.2.8,2.4-.6,4.3-2.9,3.1-4.7,1.9,1.3,4.3,2.2,6.7,1.9,2.4-.3,4.7-1.9,4.9-3.9.1-1.5-.6-3.5,1.1-4.1,1.3-.5,2.6.6,3.4,1.6,2.4,3,4.3,6.3,7.3,8.9,2.9,2.7,8.6,5.6,12.9,4.9.8,1,2.4,1.3,3.8,1.5,2.5.3,5.2.6,7.4-.4,2.2-1,3.2-3.9,1.2-5.2,4.6,1.5,10.5-1.8,10.4-5.9,3.4,1,4.6,5.3,8.1,5.5,1.9.1,3.6-1.2,4.3-2.7.2-.3.3-.7.4-1.1.9,2.5,3.5,4.8,6.5,6,2.9,1,7.3.6,7.7-1.9.9,3,1.7,6.1,3.8,8.7,2,2.6,5.5,4.7,9.2,4.5,4.7-.2,8.6-4.4,7.6-8.2,3,3.3,4,7.7,7,11,3,3.3,11.7,7.5,14.3,3.9,1.1,1.4,4,1,5.2-.4.6-.6.9-1.3,1.1-2.1.6.3,1.1.5,1.7.7,2.4.7,5.6,0,6.7-1.9-1.3,1.6-.2,4.1,2,4.9,2.2.7,4.9-.1,6.3-1.7,1.1-1.2,1.5-2.7,1.5-4.2.5,1.6,2,3,3.8,3.6,3.2,3.1,11.7-3.6,11-6.1,2,1.1,2.1,1.1,4.6,1.3,1.2,0,2.5,0,3.5-.5,0,.5,0,.9,0,1.3.4,2.3,1.5,4.8,3.9,6.1,2.4,1.3,5.6-2,6.3-4.3,4,.6,5.7,4.5,8.7,6.8.3.2.7.5,1.2.4.9,0,1.1-1.1,1-1.9l-.5-6.1c2.7,3.1,6.9,5.4,11.5,6.3.4,0,.9.1,1.3,0,.8-.3,1-1.2,1-1.9,0-1.3,0-2.7,0-4,.9.5.9,1.6,1.3,2.5.9,1.8,4,2,5.9,1,1.9-1,3-2.9,3.9-4.6-.3,1.6,0,3.9,1.9,4.1,2,.2,5.3-2.6,6.5-1.2.5.6,1.4.8,2.2.9,2.2.4,4.7.2,6.3-1.1.9-.7,1.4-1.8,1.3-2.8.4.5.8.9,1.3,1.3,1.2.9,3,1.3,4.4.6,2-1,1.6-3.5.6-5.2.8-.3,1.6-.6,2.3-.9h0Z"/>
</svg>