<?xml version="1.0" encoding="UTF-8"?>
<svg width="179px" height="37px" viewBox="0 0 179 37" version="1.1" xmlns="http://www.w3.org/2000/svg" xmlns:xlink="http://www.w3.org/1999/xlink">
    <!-- Generator: Sketch 61.2 (89653) - https://sketch.com -->
    <title>Group 44</title>
    <desc>Created with Sketch.</desc>
    <defs>
        <polygon id="path-1" points="0.9841 0.592 9.504 0.592 9.504 14.48 0.9841 14.48"></polygon>
        <polygon id="path-3" points="0 0.3345 30.4025 0.3345 30.4025 13.1145 0 13.1145"></polygon>
        <polygon id="path-5" points="2.827 1.989 0.96 1.698 4.577 5.082 4.869 0.881"></polygon>
        <polygon id="path-7" points="2.511 10.613 2.511 10.204 2.686 7.462 3.97 6.82 0.06 0.868"></polygon>
    </defs>
    <g id="Page-1" stroke="none" stroke-width="1" fill="none" fill-rule="evenodd">
        <g id="Header-v2---Dropdown-Option-1" transform="translate(-51.000000, -65.000000)">
            <g id="menu">
                <g id="Group-44" transform="translate(51.000000, 64.000000)">
                    <polygon id="Fill-1" fill="#231F20" points="57.0114 29.243 68.0404 29.243 68.0404 31.694 52.6354 31.694 63.6634 12.437 54.2104 12.437 54.2104 9.986 68.0404 9.986"></polygon>
                    <g id="Group-28" transform="translate(0.000000, 9.213700)">
                        <path d="M82.4538,16.1777 L72.1828,16.1777 C72.1828,17.4037 72.5918,18.4537 73.3498,19.3287 C74.1088,20.2037 75.0428,20.6707 76.2678,20.6707 C77.2018,20.6707 77.9608,20.4377 78.6018,20.0297 C79.1858,19.6207 79.7688,18.9207 80.2948,18.0447 L82.5128,19.2707 C81.8698,20.4377 80.9948,21.3127 79.8868,21.9547 C78.7768,22.5967 77.5528,22.9477 76.2678,22.9477 C74.2838,22.9477 72.6498,22.2467 71.4248,20.9057 C70.1998,19.5627 69.6158,17.8697 69.6158,15.8277 C69.6158,13.6687 70.1998,11.9177 71.3078,10.5757 C72.4168,9.2347 74.0508,8.5337 76.1508,8.5337 C78.1938,8.5337 79.7688,9.1757 80.8788,10.5177 C81.9288,11.8607 82.5128,13.5517 82.5128,15.7107 L82.5128,16.1777 L82.4538,16.1777 Z M72.3008,14.2517 L79.8278,14.2517 C79.6528,13.2017 79.2438,12.3847 78.6018,11.8017 C77.9608,11.2177 77.1428,10.8677 76.0938,10.8677 C75.1008,10.8677 74.2258,11.1597 73.5258,11.8017 C72.8838,12.4437 72.4748,13.2607 72.3008,14.2517 L72.3008,14.2517 Z" id="Fill-2" fill="#231F20"></path>
                        <path d="M87.9978,9.001 L87.9978,11.218 L88.0558,11.218 C88.4058,10.401 88.8728,9.759 89.5148,9.292 C90.1558,8.825 90.9148,8.592 91.7318,8.592 C92.4908,8.592 93.1908,8.825 93.8918,9.234 L92.7248,11.568 C92.3148,11.218 91.7908,11.043 91.1478,11.043 C90.5068,11.043 89.9228,11.16 89.4558,11.451 C88.9888,11.743 88.6978,12.152 88.4648,12.618 C88.2888,13.144 88.1138,13.61 88.0558,14.136 C87.9978,14.603 87.9388,15.186 87.9388,15.828 L87.9388,22.48 L85.3718,22.48 L85.3718,9.001 L87.9978,9.001 Z" id="Fill-4" fill="#231F20"></path>
                        <path d="M96.8083,10.6934 C98.2083,9.2924 99.9013,8.5914 101.9443,8.5914 C103.9863,8.5914 105.6783,9.2924 107.0793,10.6934 C108.4793,12.0924 109.1793,13.7864 109.1793,15.7694 C109.1793,17.8114 108.4793,19.5044 107.0793,20.8464 C105.6783,22.2474 103.9863,22.9474 101.9443,22.9474 C99.9013,22.9474 98.2083,22.2474 96.8083,20.8464 C95.4083,19.4464 94.7073,17.7544 94.7073,15.7694 C94.7073,13.7864 95.4083,12.0924 96.8083,10.6934 M105.2113,12.4434 C104.3363,11.5094 103.2273,11.0434 101.9443,11.0434 C100.6603,11.0434 99.6103,11.5094 98.6763,12.4434 C97.8003,13.3774 97.3333,14.4864 97.3333,15.7694 C97.3333,17.0534 97.8003,18.1624 98.6763,19.0954 C99.5513,20.0294 100.6603,20.4964 101.9443,20.4964 C103.2273,20.4964 104.2783,20.0294 105.2113,19.0954 C106.0863,18.1624 106.5533,17.0534 106.5533,15.7694 C106.5533,14.4864 106.0863,13.3774 105.2113,12.4434" id="Fill-6" fill="#231F20"></path>
                        <path d="M128.1442,1.7646 L128.1442,4.9156 C126.5692,3.5156 124.6432,2.7566 122.4252,2.7566 C120.0332,2.7566 117.9912,3.6316 116.3572,5.3826 C114.7232,7.1326 113.8482,9.2346 113.8482,11.6266 C113.8482,14.0186 114.6652,16.1196 116.2982,17.8116 C117.9322,19.5626 119.9752,20.4376 122.3682,20.4376 C124.5272,20.4376 126.5102,19.6786 128.1442,18.1616 L128.1442,21.3716 C126.3942,22.3636 124.5272,22.8886 122.4252,22.8886 C119.3322,22.8886 116.6492,21.7806 114.4312,19.6206 C112.2132,17.4616 111.1052,14.7776 111.1052,11.6846 C111.1052,8.4756 112.2132,5.7906 114.4902,3.5746 C116.7652,1.3566 119.4502,0.2466 122.6592,0.2466 C124.7602,0.3056 126.5692,0.8306 128.1442,1.7646" id="Fill-8" fill="#231F20"></path>
                        <path d="M144.3083,9.001 L144.3083,22.48 L141.7413,22.48 L141.7413,20.38 L141.6823,20.38 C140.5153,22.072 138.9983,22.947 137.0733,22.947 C135.0883,22.947 133.5133,22.247 132.3463,20.847 C131.1793,19.446 130.5953,17.695 130.5953,15.653 C130.5953,13.727 131.1793,12.093 132.3463,10.693 C133.5133,9.292 135.0303,8.592 136.9553,8.592 C138.8813,8.592 140.4563,9.467 141.6233,11.218 L141.6823,11.218 L141.6823,8.942 L144.3083,8.942 L144.3083,9.001 Z M137.4813,20.671 C138.8233,20.671 139.9323,20.204 140.6903,19.271 C141.4493,18.337 141.8583,17.17 141.8583,15.77 C141.8583,14.428 141.4493,13.261 140.6903,12.327 C139.8733,11.393 138.8233,10.926 137.4813,10.926 C136.1973,10.926 135.1473,11.393 134.3883,12.327 C133.6293,13.261 133.2213,14.428 133.2213,15.77 C133.2213,17.112 133.6293,18.279 134.3883,19.213 C135.1473,20.146 136.1973,20.671 137.4813,20.671 L137.4813,20.671 Z" id="Fill-10" fill="#231F20"></path>
                        <polygon id="Fill-12" fill="#231F20" points="150.6687 11.4512 150.6687 22.5392 148.1017 22.5392 148.1017 11.4512 146.7007 11.4512 146.7007 9.0582 148.1017 9.0582 148.1017 3.9242 150.6687 3.9242 150.6687 9.0582 153.1787 9.0582 153.1787 11.4512"></polygon>
                        <path d="M167.0085,16.1777 L156.7375,16.1777 C156.7375,17.4037 157.1465,18.4537 157.9045,19.3287 C158.6635,20.2037 159.5975,20.6707 160.8225,20.6707 C161.7565,20.6707 162.5145,20.4377 163.1565,20.0297 C163.7395,19.6207 164.3235,18.9207 164.8495,18.0447 L167.0085,19.2707 C166.3655,20.4377 165.4905,21.3127 164.3825,21.9547 C163.2735,22.5967 162.0475,22.9477 160.7645,22.9477 C158.7215,22.9477 157.1465,22.2467 155.9205,20.9057 C154.6955,19.5627 154.1125,17.8697 154.1125,15.8277 C154.1125,13.6687 154.6955,11.9177 155.8045,10.5757 C156.9125,9.2347 158.5465,8.5337 160.6475,8.5337 C162.6905,8.5337 164.2655,9.1757 165.3735,10.5177 C166.4245,11.8607 167.0085,13.5517 167.0085,15.7107 L167.0085,16.1777 Z M156.9125,14.2517 L164.4405,14.2517 C164.2655,13.2017 163.8575,12.3847 163.2145,11.8017 C162.5725,11.2177 161.7565,10.8677 160.7055,10.8677 C159.7135,10.8677 158.8385,11.1597 158.1385,11.8017 C157.4965,12.4437 157.0295,13.2607 156.9125,14.2517 L156.9125,14.2517 Z" id="Fill-14" fill="#231F20"></path>
                        <g id="Group-18" transform="translate(169.000000, 8.000000)">
                            <mask id="mask-2" fill="white">
                                <use xlink:href="#path-1"></use>
                            </mask>
                            <g id="Clip-17"></g>
                            <path d="M3.6101,1.001 L3.6101,3.218 L3.6691,3.218 C4.0181,2.401 4.4851,1.759 5.1281,1.292 C5.7691,0.825 6.5281,0.592 7.3441,0.592 C8.0451,0.592 8.8031,0.825 9.5041,1.234 L8.3371,3.568 C7.9281,3.218 7.4031,3.043 6.7611,3.043 C6.0611,3.043 5.5361,3.16 5.0691,3.451 C4.6021,3.743 4.3101,4.152 4.0771,4.618 C3.8431,5.144 3.7261,5.61 3.6691,6.136 C3.6101,6.603 3.5511,7.186 3.5511,7.828 L3.5511,14.48 L0.9841,14.48 L0.9841,1.001 L3.6101,1.001 Z" id="Fill-16" fill="#231F20" mask="url(#mask-2)"></path>
                        </g>
                        <g id="Group-21" transform="translate(0.000000, 11.000000)">
                            <mask id="mask-4" fill="white">
                                <use xlink:href="#path-3"></use>
                            </mask>
                            <g id="Clip-20"></g>
                            <polygon id="Fill-19" fill="#FF2B32" mask="url(#mask-4)" points="24.5085 8.2705 18.3815 1.9685 14.8215 0.6845 12.6045 0.3345 -0.0005 6.9285 28.4765 13.1145 30.4025 12.1225"></polygon>
                        </g>
                        <polygon id="Fill-22" fill="#FF2B32" points="46.0993 13.085 41.0803 13.144 32.6783 18.57 31.5693 27.44 33.6703 24.698 43.0653 15.42 44.3483 15.886 49.7763 20.263"></polygon>
                        <polygon id="Fill-24" fill="#EC1D24" points="30.5778 28.082 30.8688 23.881 28.8268 24.989 26.9598 24.698"></polygon>
                        <polygon id="Fill-26" fill="#EC1D24" points="30.5778 28.082 30.8688 23.881 28.8268 24.989 26.9598 24.698"></polygon>
                    </g>
                    <g id="Group-31" transform="translate(26.000000, 32.213700)">
                        <mask id="mask-6" fill="white">
                            <use xlink:href="#path-5"></use>
                        </mask>
                        <g id="Clip-30"></g>
                        <polygon id="Fill-29" fill="#FF2B32" mask="url(#mask-6)" points="-1.958 8 7.787 8 7.787 -2.037 -1.958 -2.037"></polygon>
                    </g>
                    <g id="Group-38" transform="translate(6.000000, 0.213700)">
                        <polygon id="Fill-32" fill="#FF2B32" points="13.4899 20.5684 0.9439 0.7864 9.4059 19.7514 13.1989 21.0924 19.3839 27.5114 24.8109 31.1304 21.4849 18.4094 17.3419 19.6344"></polygon>
                        <polygon id="Fill-34" fill="#EC1D24" points="25.5105 29.2041 25.6865 26.4621 26.9695 25.8201 23.0605 19.8681 25.5105 29.6131"></polygon>
                        <polygon id="Fill-36" fill="#EC1D24" points="25.5105 29.2041 25.6865 26.4621 26.9695 25.8201 23.0605 19.8681 25.5105 29.6131"></polygon>
                    </g>
                    <g id="Group-41" transform="translate(29.000000, 19.213700)">
                        <mask id="mask-8" fill="white">
                            <use xlink:href="#path-7"></use>
                        </mask>
                        <g id="Clip-40"></g>
                        <polygon id="Fill-39" fill="#EC1D24" mask="url(#mask-8)" points="-2.858 13.531 6.887 13.531 6.887 -2.05 -2.858 -2.05"></polygon>
                    </g>
                    <polygon id="Fill-42" fill="#FF2B32" points="28.4187 17.1639 34.0207 25.4499 40.9647 20.9569 43.1237 20.9569 51.4097 1.6999 27.1347 13.0789 24.6257 18.3899"></polygon>
                </g>
            </g>
        </g>
    </g>
</svg>