<?xml version="1.0" encoding="UTF-8"?>
<svg id="uuid-1ac51d59-6667-4e10-8464-0494f6497009" data-name="Layer 2" xmlns="http://www.w3.org/2000/svg" xmlns:xlink="http://www.w3.org/1999/xlink" viewBox="0 0 1131.03 407.5">
  <defs>
    <linearGradient id="uuid-d05caf29-fa48-40a3-a148-8070473024ec" x1="750.58" y1="12.4" x2="740.28" y2="-249.5" gradientTransform="translate(0 51.2) scale(1 -1)" gradientUnits="userSpaceOnUse">
      <stop offset="0" stop-color="#000"/>
      <stop offset=".4" stop-color="#010101"/>
      <stop offset=".6" stop-color="#080808"/>
      <stop offset=".7" stop-color="#141414"/>
      <stop offset=".8" stop-color="#252525"/>
      <stop offset=".9" stop-color="#3b3b3b"/>
      <stop offset=".9" stop-color="#555"/>
      <stop offset="1" stop-color="#707070"/>
    </linearGradient>
    <linearGradient id="uuid-7f931501-23c6-47ed-a286-952cec02028e" x1="-69.3" y1="674.1" x2="-69.3" y2="439.5" gradientTransform="translate(584.8 -358) rotate(-180) scale(1 -1)" gradientUnits="userSpaceOnUse">
      <stop offset="0" stop-color="#fff"/>
      <stop offset=".6" stop-color="#fff" stop-opacity="0"/>
    </linearGradient>
    <linearGradient id="uuid-bb79fcab-4637-4c46-a71f-6d8303406c81" x1="-126.8" y1="654.1" x2="-126.8" y2="419.5" xlink:href="#uuid-7f931501-23c6-47ed-a286-952cec02028e"/>
    <linearGradient id="uuid-8cd5b258-1dd3-4db3-b6f0-86657a43a976" x1="-191.35" y1="627.5" x2="-191.35" y2="392.9" xlink:href="#uuid-7f931501-23c6-47ed-a286-952cec02028e"/>
    <linearGradient id="uuid-140bfe23-1f1f-4e77-95de-01e63906b3b7" x1="416.3" y1="652.4" x2="416.3" y2="417.9" gradientTransform="translate(0 -358)" xlink:href="#uuid-7f931501-23c6-47ed-a286-952cec02028e"/>
    <linearGradient id="uuid-83d9c2fa-56c2-4f20-904b-54f7d63e3ec7" x1="351.7" y1="625.8" x2="351.7" y2="391.3" gradientTransform="translate(0 -358)" xlink:href="#uuid-7f931501-23c6-47ed-a286-952cec02028e"/>
    <linearGradient id="uuid-faa32086-1873-41e6-85dc-e6d459c55bb9" x1="473.8" y1="672.4" x2="473.8" y2="437.9" gradientTransform="translate(0 -358)" xlink:href="#uuid-7f931501-23c6-47ed-a286-952cec02028e"/>
    <linearGradient id="uuid-7ff935a1-6fb1-46d3-9f4a-d53d1af59945" x1="611.5" y1="-203.4" x2="615" y2="-267.9" gradientTransform="translate(0 51.2) scale(1 -1)" gradientUnits="userSpaceOnUse">
      <stop offset="0" stop-color="#fff"/>
      <stop offset="0" stop-color="#cfcfcf"/>
      <stop offset=".2" stop-color="#999"/>
      <stop offset=".2" stop-color="#6a6a6a"/>
      <stop offset=".3" stop-color="#434343"/>
      <stop offset=".4" stop-color="#262626"/>
      <stop offset=".5" stop-color="#111"/>
      <stop offset=".6" stop-color="#040404"/>
      <stop offset=".7" stop-color="#000"/>
    </linearGradient>
    <linearGradient id="uuid-8e6e4300-8237-43ee-b503-6a6c68a3cd85" x1="513.5" y1="-208.6" x2="515.7" y2="-249.6" gradientTransform="translate(0 51.2) scale(1 -1)" gradientUnits="userSpaceOnUse">
      <stop offset="0" stop-color="#fff"/>
      <stop offset="0" stop-color="#cfcfcf"/>
      <stop offset=".2" stop-color="#999"/>
      <stop offset=".3" stop-color="#6a6a6a"/>
      <stop offset=".4" stop-color="#434343"/>
      <stop offset=".5" stop-color="#262626"/>
      <stop offset=".6" stop-color="#111"/>
      <stop offset=".8" stop-color="#040404"/>
      <stop offset=".8" stop-color="#000"/>
    </linearGradient>
    <radialGradient id="uuid-e2b4cc29-bb05-419c-b1c9-2d619a06e8ec" cx="1016.3" cy="-149.57" fx="1016.3" fy="-149.57" r="9.8" gradientTransform="translate(0 174.32) scale(1 -1.2)" gradientUnits="userSpaceOnUse">
      <stop offset=".5" stop-color="#ccc"/>
      <stop offset="1" stop-color="#000"/>
    </radialGradient>
  </defs>
  <g id="uuid-3221474a-b772-48db-9774-8322cb7a0760" class="full-scene" data-name="uuid-871e7ba2-70cc-4bf5-8931-a2b36320874c">
    <path class="left-scene" d="M519.2,110.1c-2.9-3.9-6.9-6.8-11.5-8.4l-.2,3.3-2.1-1.4c-4.3,1-8.9.9-13.2-.5l.5,3.7c-1.7-1.5-4.4-1.1-6.3.2s-3,3.3-4.1,5.3c0-3.2-2.2-6.3-5.2-7.4l-.2,2.9c-4.3-.3-8.7.9-12.4,3.3-2.8-5.4-10.5-7.5-15.7-4.4,0-2.7-1.3-5.4-3.3-7.2l-.8,4.7c-5.2-4.6-12.8-6.5-19.5-4.9-.7.9-.7,2.3,0,3.1-1.3-.9,0-3.4,1.4-2.9s.9,3.2-.6,3.1c-.4-.8-1.3-1.3-1.9-2.1s-.7-2,.2-2.4,1.2,1.6.3,1.3c-1.3-1.2-3.3-1.6-4.9-.9l-.2,4.8-4.2-2.1-.6,3c-4.9-1.5-10.3-2.4-15-.4s-8.2,7.5-6.3,12.3l-2.7-6.3c-1.2-1.2-3.8.2-3.4,1.8-.4-1.8-2.2-2.8-3.9-3.5-9.5-4.1-19.8-6.5-30.2-7,.1,1.3.2,2.5.4,3.8.9-2.7-.6-5.9-3.2-7-.7-.3-1.6-.4-2.2,0s-.2,1.8.5,1.6,0-1.6-.4-1c-3.4-.3-6.8.3-9.8,1.8-5.9-1.7-12.4-1.7-18.3,0,1.8-3.2-1-7.9-4.7-7.7v4.2c-.1-2.3-1.7-4.4-3.8-5.3l-.2,3c-1.5-1.3-3.8-1.7-5.6-.9-.2-1.5-1.6-2.8-3.1-2.8v3.3c-2.1-1-4.1-2-6.3-1.7s-4,2.7-3.1,4.6l-3.3-1.4c.6,5,1.6,9.9,3.1,14.7-2.5-2.9-6.3-4.6-10.1-4.7-1,2.9-1.4,6-1.1,9.1-1-1-2.2-2.1-3.6-2.3s-3.1.7-3.1,2.1l-3-1.9,1.4,6c-3.6-1.6-8.3-.6-10.8,2.4l3.6,3.4c-7-1.9-7.2,3-8.3,1.2-2.6-4.2-5-2.6-7.5-2.6,0,0-2.7-1.3-2.6-10.1s-2.7,10.2-3,9.4c-3.8-2.1-6.7-4.8-12.2-4.7l2.5,3.7c-3.5-1.2-5.2,4.5-5.2,4.5-6-2.4-8.3.6-9.9,2.6,0,0-6.6-1.6-9,2.7-1.7-5.5-4.5-5.3-8.1-2.6l-1.3-4.5c-5.5,6.3-5.5,17.1-4,20.6s-10.6-11-33.5-3.7c15.4,0,25.1,4.6,25.3,9.4-7-1.2-14.2-.8-21,1,7.5,0,15.8.3,21.2,5.4-7.2-.8-14.6-.2-21.6,1.7,3.7-.4,7.6-.7,11.1.4s12.2-.1,12.4,3.6c-2-.9-4-.6-6-.9s-2.5.2-3.4,1-3.1,2.4-2.8,3l-.9-.7c-1.4-1.1-3.5-.7-4.4.8s-3.4-2.2-3.8,3c0,0-4.6-4.9-7.5,2.2l-3.2-.8c-2.3-.6-4.7.1-6.1,2s-1.6,4.1-.6,6.9c-2.2-.9-5.4-1.4-6.2,2.4-4.2-2.2-6.5,2.3-6,3.1-.7-2.6-8.6-4.6-9.7,2,0,0-2.2-3.3-6.8,1v-2.9c0-3.4-.5-8.5,1.2-11.4-3.1,2.6-4.8,6.8-4.5,10.8-.4-.5-.8-1.1-1.2-1.6-2.6-3.4-3.5-6.2-4.5-10.5l-.7,12.6c-1.8-2.2-4.3-3.9-7-5l4.9,8.8c-2.9-.3-5.8.3-8.3,1.8,3.5.4,6.2,4.2,5.4,7.7l-4.9-1c-.8,1.5-1.2,3.2-1.2,4.9l-4.2-.4-1.2,6.1c-.4-1.8-2.3-3.1-4.1-2.7s-3,2.4-2.6,4.2l-4.8-3.6v3.6c-1-3-5.8-3.1-7.7-.6s-1.5,6.1-.3,9c-.9-1.3-2.6-1.9-4.2-1.5-.8,1.2-.9,2.9-.2,4.2-1.3-1.3-3-2.3-4.8-2.6-.3,1.1,0,2.3,1,3-2.1-2.4-4.2-4.7-6.3-7.1-3.1,2.6-4.4,7.3-3,11.1-4.4.2-7.1,6.5-4.2,9.8-4.1-1.4-9,.6-11,4.4-3-3.2-9.6-.9-9.9,3.5-1.1-1.1-3.1-1.3-4.4-.4-11.2-1.3-22.7,12.6-18.8,23.2l-7.5,2.5-5.4,24.7,4.6-3.8c.7,6.8.7,13.7-.1,20.4,11.3-.1,22-5.2,32.1-10.3,14.1-6.9,28.2-13.9,41.7-21.9,38-22.7,71.1-54,112.2-70.4,28.9-11.5,60.3-15.1,90.1-24.2,10.7-3.3,21.3-7.3,30.2-14,6-4.5,11.3-10.3,18-13.6,4.4-2.2,9.3-3.4,14.2-4.5,18.9-4.3,37.8-8.6,56.6-13,5.9-1.3,11.9-2.7,17.9-1.7,10.5,1.7,18.4,10.2,27.8,15.1,19.1,10,42.6,4.5,62-4.8,7.8-3.7,15.7-8.4,20.1-15.8s-2.9-13.2-8.1-20.1v.5l-.1.2Z"/>
    <path class="right-scene" d="M611.7,107l2-1.7s.2-.2.4-.2h.6c2.1,1,4.3,1.8,6.5,2.3-1-.7-1.4-2.2-.8-3.3.8.6,1.7,1.2,2.5,1.9-.3-.4,0-1,.4-1.2s1,0,1.5,0c.9.2,1.8.4,2.7.6.6.2,1.5.6,1.3,1.2-.2.7-1.5.9-1.3,1.6,1.2-1.3,3-2,4.8-1.8.3,1.1,0,2.4-.8,3.2,1.6-.7,2.9-.7,4.5-1.3-.7.7.8,1.4,1.8,1.2,1.8-.4,3.6-.7,5.4-1.1.4.9.8,1.9,1.2,2.8v-2.1c.6,0,1.2.5,1.4,1.1,0-.6-.2-1.3-.3-1.9,1.3,0,2.5-.2,3.8-.3,0,.7,0,1.5.4,2.1,0-2,1.9-3.9,3.9-3.7,1.2.9,2.2,1.8,3.2,3-1-1.4.2-3.7,1.9-3.9s3.4,1.3,3.7,3c.3-1.5,1.8-2.7,3.4-2.7s3,1.3,3.2,2.9c1.6-1.1,3.5-1.5,5.4-1.3,0,.7.2,1.4.3,2.1.7-2.7,5.1-3.3,6.5-.9-.9-4.8-3.7-9.2-7.5-12.1,2.7.7,5.3,2.3,7.2,4.4-1.6-3.6-2.2-7.6-1.9-11.6l1.5,1.5c-.5-1.1-.7-2.2-.7-3.4.7.8,1.7,1.3,2.7,1.4-.3-1.7,0-3.4.5-5,0,.9.7,1.8,1.5,2.3.9-2.8,2.5-5.3,4.5-7.4.7,2,1.3,4,2,6-.4-.7.2-1.8,1-1.7v4.2l1.4-1.7-.2,7.5c.5-.6.9-1.2,1.4-1.8-.2,3.5-.9,7-2,10.4,1.5-1.9,3.3-3.5,5.3-4.6-1.6,1.8-2.9,3.9-3.7,6.2,1.5-1.3,3.2-2.2,5.1-2.7l.2,1.6,2.8-.8c-.6,1.4,1.3,2.9,2.5,2.1.2.7.4,1.3.6,2,6.4-.2,10.6,6.5,16.2,9.6,3.5,1.9,7.6,2.4,11.6,2.9,8.5,1,17.1,2,25.6,3,5.6.7,12.1,1,16.1-3-.2,1.6.8,3.3,2.3,4,.2-.6.3-1.2.5-1.9,1.4.6,2.7,1.5,3.8,2.6,3.8,0,7.6-.2,11.4-.4.4,0,.9,0,1.2.3.4.3.4.9.4,1.4v7c8.9-.5,16.2,4.8,22.7,11,2,2,4.1,4,5.6,6.4,1.4,2.2,2.4,5,4.9,5.9,1.5.6,3.1.3,4.6.2s3.3.2,4.3,1.4.2,3.6-1.3,3.5c1.2-.6,2.5-1.2,3.8-1s2.6,1.5,2.2,2.7h6.9c2.6,0,6.1,1.1,5.7,3.6-.7-1.5.9-3.3,2.6-3.4s3.2,1,4.6,2c.3-1.9,1.9-3.4,3.8-3.6s3.8,1.1,4.4,2.9c3.2,0,6.8.3,9,2.7s1.1,7.4-2.1,7.2c3.4.8,4.7,6,1.9,8.2,1.1.2,2-.7,2.5-1.7s1-2.1,2-2.5,2.5.7,1.9,1.6c.5-2.3,4.5-2.2,4.9.1,2.7-1.9,6.7-1.8,9.4.2-.2-4.3,2.8-8.5,6.9-9.7s8.9.5,11.2,4.1c0-2.2-.2-4.6,1.2-6.3s4.8-1.7,5.3.5c-1.1-1.2,1.1-3.2,2.2-2.1,2.6-4,5.5-7.8,8.8-11.3.7,1.7,1.5,3.5,2.2,5.2,0-2.1,1.2-4.2,3.1-5.1-.3-2.5-1.6-4.9-3.4-6.7,2.9.9,5.5,2.5,7.6,4.7-1.4-5.5-1.3-11.4.3-16.9,0,2.6.5,5.3,1.4,7.8,0-4,1-9.3,5-9.8,0,1.8-.2,3.6-.4,5.4,1.7-2.5,5.2-3.5,8-2.3-3.2.8-5.9,3.2-7.1,6.2,2.1-.2,4.1-.4,6.2-.6-2.1,3.1-3.5,6.5-4.2,10.2,1.8-1.7,4.2-2.8,6.7-3-1.5,2.2-2,5.1-1.2,7.6,3.2.8,8.1-.5,10.5-2.7,2.1,3.5,5.3,6.4,9.2,7.8,2.7-1.1,6-.5,8.1,1.4,2.6-1,5.6-.4,7.7,1.3,3.3-2,8.2-.9,10.3,2.4-1.1-1.9-.3-4.7,1.7-5.8-1-1.6-1.2-3.7-.6-5.5,2.2,1.7,4,3.8,5.5,6.1,0-2.1,0-4.2.7-6.3,1.7,1.5,3.4,3.1,5.1,4.6.4-1.5,2.4-2.2,3.7-1.3.2,1.3,0,2.6-.7,3.7,1.7-.4,3.4-.5,5.1-.3,0,1.3-1.4,2.3-2.6,1.9,2.1-.5,4.5,1.3,4.6,3.5-.9-.1-1.9,0-2.7.5,1.7-.4,3.5,0,4.9,1-1.2,2.2-2.4,4.3-3.7,6.5,1.5.2,3.1.3,4.6.5.8,2.1,1.7,4.1,2.5,6.2,1.1-.7,2.7-.4,3.5.6,1.4-1.8,4.3-.6,6.1.8,4.5,3.6,8.5,7.9,11.8,12.6,1,0,2.9,1.1,4,1.1l.3,3.5c2-2.3,6.1-2.3,8.1,0s1.5,6.3-1,8c1.6-.9,3.3-1.9,5.1-1.7s3.6,2,2.9,3.7v-2.3c2.7.3,4.5,3.6,3.3,6,2.1-1.4,5.9-1.2,6.2,1.3.3,2.7-4,4.3-3.8,7,1.4-1.1,3.8.4,3.8,2.3s-1.7,3.3-3.5,3.7-3.6,0-5.4-.4c1.7,2.2,1.3,5.7-.8,7.5,1.1-1.1,3-1.2,4.1-.1.4-1.4,1.4-2.6,2.8-3.1.5,1,1.1,2.1,1.6,3.1-.9-1.5,0-3.7,1.5-4.2s3.6.7,3.8,2.4c0-1.2,1-2.4,2.2-2.3s2.2,1.3,2,2.5c1-1.9,4.3-1,5,1s-.3,4.2-1.4,6c1.2-1.3,3.4-1.3,4.9-.4s2.2,2.8,2.2,4.6-1.2,4.1-3.2,4.5c2.5-.9,5.4,2.3,4.1,4.7-2.8.3-5.6.4-8.4.3,1.9,1.9,2.6,4.9,1.7,7.4-1.3,1.3-3.9-1-2.7-2.5,2.4-.1,2.8,2.7,3.3,5,1.2-1.2,2.4-2.3,3.6-3.5,0,2.1-.2,4.3-.4,6.4l3-2.7c0,1.6-.7,3.1-1.8,4.3,2.2.9,4.4,1.9,6.6,2.8h-6.5c1.9,1.4,1.9,4.7,0,6.2h5.4c-.2,1.5-.5,3-.7,4.5,1.3-.4,2.7-.8,4-1.1l.5,5.2c1.5-2.1,4.3.8,5.1,3.3.8,2.6,1.6,5.2,2.3,7.8-1.2.1-2.5.2-3.7.3,1.1,1.4,1.4,3.4.8,5.1-1.9.2-3.7-1.9-3.3-3.7.2,2.4.3,5.1-1.3,6.9s-5.6.9-5.3-1.5c-.4,4-5.1,6.4-9.1,5.9s-7.4-3-10.6-5.4c-25.2-18.9-51.8-36.3-80.7-48.7-34.8-14.9-72.9-22.5-110.7-20.4-14,.8-29,2.6-41-4.4-8.6-5.1-14.3-13.9-21.7-20.5-11.1-9.9-25.8-14.6-38.4-22.3-9.7-5.9-18.2-13.6-26.6-21.2-.6-.5-1.2-1.3-.9-2s1.7.2,1,.5c-19.6-9.2-41.6-17.9-62.8-22.7-8.8-2-17.8-3.6-26.7-5.2-20.7-3.5-41.5-6.6-61.8-11.7-4.3-1.1-8.7-2.3-12.7-4.3-1.6-.8-3.1-1.8-4-3.3-1.7-2.9-.2-6.8,2.4-8.9s8.5-1,11.1-3.1h0v.1Z" style="fill: #0c0c0c;"/>
    <g class="stairs-upper">
      <rect x="526.1" y="124.2" width="75.6" height="5.2" style="fill: #787878;"/>
      <rect x="526.7" y="119.2" width="74.3" height="5" style="fill: #828282;"/>
      <rect x="527.5" y="114.8" width="72.7" height="4.4" style="fill: #8f8f8f;"/>
      <rect x="528.5" y="110.4" width="70.8" height="4.4" style="fill: #a8a8a8;"/>
      <rect x="524.7" y="129.5" width="78.4" height="6.7" style="fill: #6b6b6b;"/>
      <rect x="522.7" y="134.9" width="82.3" height="6.7" style="fill: #5f5f5f;"/>
      <rect x="520.8" y="141" width="86.1" height="6.7" style="fill: #535353;"/>
      <rect x="516.8" y="147.7" width="94.1" height="6.7" style="fill: #4b4b4b;"/>
    </g>
    <g class="pines-right">
      <path d="M782.5,5.9c-.4,1-1,1.3-.6,2.6-.6,0-1.1-.9-2.2-.7,1.5,1,2.3,2.7,2.2,4.5h-2.3c1.7,1.9,2.7,4.2,3,6.7-1,.3-2.2.1-3.1-.4,1.6,1.1,3,2.6,4.2,4.2-1.6.2-3.3-.1-4.8-.8,2,1.1,3.3,3.4,3.2,5.6-1,0-1.9,0-2.8.1,1.6,1.3,2.5,3.3,2.5,5.3-.2-.8-1.6-1.8-3.1-1.4,2,.7,2.9,3,2.9,6.4-2.9,0-3.4-1.9-1.6-4.2-1.2.2-1.4.4-2,1.1-1-1.5.8-2.3-1.6-4,.6,2-.9,3.4-3.1-1-.3,1.3.6,2.6,1.5,3.6s2,2.1,1.9,3.5-1.9,2.5-2.8,1.5c1,2.4,3.8,2,5.6,2-2.2.4-2.9,1.4-3.2,2.7,3.2-2.7,6.6,1.4,6.6,1.4-2.9-.5-4.3-.6-6.4.5,2.5,1,5.3,0,8.3,4.7-3,0-5.2-1.7-9.1.2,3.2.8,4,1,5.8,3.4-3.5.5-4.3-.7-7.5,1.5,2.3-.3,4.7,1.3,5.7,3.4s1.6,2.9,1.7,5.2c-2.5-1.8-4.8-2.8-8-.5,6.1.4,9.6,6.7,10,10.3-3.9.3-5.4.5-8.8-2.9.6,3.8,2,8.3,5.6,11.3-6.5-.8-12.2-6-13.7-12.4-.9,3.6.2,7.2,1.2,10.8-3.2-1.6-5.8-4.3-7.3-7.6.5,2.3.9,4.6,1.4,6.9-2.4-.7-3.5-3.4-3.9-5.9s-.4-5.1-1.9-7.1c0,2.7.4,2.9-1.2,5.1-3.2-7-5-13.2-5.9-21.1-1.1,6.9-.5,14.1,1.8,20.8-1.4,0-2.8.2-4.3,1.4,4.2,0,6.6.2,7.8,3.3-1.8,0-3.7,0-5.5.4,2.7.3,5,.4,5.8,2.9-1.5.3-3.4,1-4.4,2.8,5-1.4,7.1-1.4,7.6,2.7-2.2-.5-5.3,2.6-4.9,4.1,3.8-3.1,6.2-2.1,9.3.2-2.9,1.8-2.2,3.2-2.3,4.4,2.3-4.4,5.5-1.9,8-1.1-1.1.7-1.3,1.8-.5,3,1.3-2.8,6.3-1.4,9.3-.3-3.2.8-6.1,2.2-7.4,4,6.8-1.2,11.7-1.8,17.8,1.5-2.2-.7-5.8-2.3-9.3,1,2.8-.7,4.8-1.2,6.7.5-.4-.6-3.3.7-1.4,2.6-6.5,0-12.8-2-17.6,3.9,5.5-2.7,7.5-3,11.6-1.8,0,0-1,1.7.6,2.5-.5,1.6,2.5,2.4,2.5,2.4l-3.3,1.4c4.5-.9,5.1.9,5.1.9-1.5,0-1.9,2.2-3.3,2.1,4,.8,8,2,11.8,3.6-2.6,1.2-5.3,2.5-7.9,3.7,3.8-1.2,7.9-2.3,11.7-1-2.8,2.5-6.4,4.1-10.1,4.4-1.1,0-2.7.5-2.5,1.6l1.2.3v-2.2c-.3,2-1.6,5.9-2,7.9-1.4.3-2.4,1.5-2.9,2.8s-.5,2.7-.6,4.1l-1.8-.7c-4.3,2.9-8.7,5.9-13,8.8-.5.4-1.2.9-1,1.6.2.7,1,.8,1.6,1.1,1.3.6,2.1,2.2,1.8,3.6.3.1.7.1,1-.1-.3-1.6-.7-3.3-1-4.9-.9,3.8,3.7,11.9,6.1,14.9.3.4.8.9,1.4,1,.6,0,1.2-.3,1.7-.7,1.8-1.4,3.5-2.8,5.3-4.1-.3,1.7-.5,3.4-.8,5.2,4.2,2.3,9.5,2.1,13.6-.3l.4,3.5.6-7.3c6,3.5,12.7,5.9,19.6,7.1.3-2.8.4-5.6.2-8.4,1.1,1.7,2.5,3.2,4.4,3.7s4.3-.8,4.4-2.7c3.5-1.1,6.8-2.7,9.8-4.7,1.3-.9,2.8-2.4,2-3.8-1-1.7-3.9-.4-5.5-1.5.5-4.2,1.6-8.4,3.3-12.3-1.4,1.2-2.9,2.4-4.3,3.6-.8.7-2,1.5-3,.9s-.7-.8-.9-1.3c-1.2-3.5-.2-7.6,2.3-10.3-.5-.2-1.1-.4-1.6-.6-.7,1.5-1.4,3-2.1,4.4,2.1-8.4,2.7-17.2,1.7-25.8-1.5,2.8-3.1,5.7-4.6,8.5.7-5.4-.3-10.3,2.6-14.8-.9.3-4.9.8-4.6,1.7-.5-3.4-1.6-6.7-3.2-9.8.4,2.9,0,6-1.3,8.7-2.4-4.4,4.7-12.6.3-25.7.9,3.7-.7,7.8-3.8,9.9-.2-4-.3-8-.5-12-.8,2-4.5,1.3-4.6-.8,0-2.2,2.3-2.5,1.6-6.2,0,.4-3.4,2.5-3.8-.6s-.4-2-.2-3c.2-1.3.5-2.8,1.5-3.7.7-.7,1.7-1.2,2.3-2,.9-1.3.5-3,0-4.5-.8-2.9-1.6-5.8-2.4-8.7,0,4.2-.4,9.5-4.4,11.1-.8-4.4-2.2-8.7-4.3-12.6.3,1.6,0,3.3-1.1,4.5-.2-3.4-.3-6.8-.4-10.1-.8.9-1.6,1.7-2.3,2.6.3-2.8.4-5.5,0-8.3-.6.5-1.3,1.1-1.9,1.7,1.3-4.8,1.7-9.8,1.2-14.7-.3,1.9-.7,4-2.6,5-.6-5-1.1-12.2,1.9-14.7-.7.1-3.8,1.5-3.7,2.2-.5-4.6.9-5.8.4-10.4,0-.6-2.7-4.4-3.7-4.4,0,0,2.3,2.4.8,5.9,0,0-.2,0-.2,0Z" style="fill: #090909;"/>
      <path d="M740,164.2c-2.2.6-4.6.7-6.9.4,2.1-1.3,4-2.8,5.7-4.6-1.8.5-3.5,1.5-4.8,3,1-1.7,1.7-3.5,2.3-5.4-1.8.8-3.4,2.2-4.4,3.9-.2.2-.3.5-.6.6-.6.2-1.1-.6-1.2-1.3-.2-1.1-.2-2.3-.2-3.4-.5,1.7-1.5,3.1-2.9,4.2-1.2-2.3-1.4-5.1-.5-7.5-.9,1.8-2.2,3.3-3.9,4.5-.9-2.5-.5-5.4.9-7.6-1.7.5-3.1,1.6-4,3.1,0-2.4,1-4.9,3-6.4-1.7-.4-3.6-.1-5.1.8,0-.9.7-1.7,1.3-2.4s1.1-1.9.3-2.5c-.3-.2-.6-.2-1-.3-1.2,0-2.5,0-3.7.2,1.1-1.4,2.9-2.2,4.7-2.2-2.9-.8-5.4-2.9-6.6-5.7,1.6.1,3.3-.5,4.4-1.7-2.1,0-4.1-1.4-4.8-3.4,2-.2,4.2-.3,6.2,0-2.2-2-4.8-3.5-7.5-4.4,2.5-.6,4.9,1.7,7.4,1.2-3.1-3.3-6.8-6.2-10.8-8.2,1,0,1.9.2,2.8.7-1.5-2.6-3.5-4.8-6-6.5-.3-.2-.6-.5-.5-.8s.5-.3.8-.2c1.3.2,2.6,0,3.8-.3-2-.5-3.8-1.6-5-3.2,1.4,0,2.4-.8,3.8-.9-1.2-1.5-2.8-2.5-4.4-3.5,1.6.8,3.5.9,5.2.3-1.4-1.5-2.8-2.9-4.4-4.3-1.1-1-2.3-2.1-2.4-3.5.8.3,1.2,1.6,2,1.7-.9-2.8-1.8-5.6-2.6-8.3h2.6c-1.7-1.9-3.2-4.1-4.4-6.3,1.7,0,3.4.6,4.8,1.7-1.7-2.2-3.3-4.4-4.9-6.6h2.5c.4,1.4.8,2.9,1.2,4.3v-4.3c1.6,2.5,2.7,5.4,3.1,8.3-.2-.7.9-1.2,1.5-.8s.8,1.3.9,2c.4,2.8.8,5.6,1.2,8.4-.2-1.4-.3-2.8-.5-4.2,1.7,0,2.9,1.8,3.2,3.5s0,3.6.7,5.1c0-1.7.7-3.4,1.8-4.6,1.6,2.2,2.4,5,2.3,7.8-.4-1.8.3-3.8,1.8-5.1.3,2,.6,4.1,1,6.1-.2-1,.5-2.1,1.4-2.5,0,2.4.5,4.8,1,7.1.5-1.5,1.3-2.8,2.5-3.9-.4,2.5,0,5,1,7.3.9-1.2,1.2-2.8.9-4.2,1.3.7,2.2,2.1,3.3,3s3,1.5,4,.5c-2-1.5-4.1-3-6.2-4.3,1.4-.2,2.8-.4,4.2-.6.4,0,.8-.2.8-.6s0-.3-.2-.5c-1.5-1.4-4.8-.4-5.3-2.3,2.2.3,4.5,0,6.5-.6-3.5.2-5.6-3.8-8.7-5.4,1.7,1.3,4.2,1.4,5.9,0-1.3-1.4-3.4-1.9-5.2-2.5s-3.8-1.7-4.4-3.5c1.8,1.6,4.7,1.9,6.8.8-3.1-.9-5.9-3-7.7-5.7,2.6.5,6.4,2.1,9,2.7l-7-2.1h4.8l-3-3.6c1.5.6,3,1.2,4.5,1.9-.4-4.3-5.4-6.5-7.4-10.3,1.8.3,3.6.6,5.3.9-.8-1.7-2.4-2.9-4.2-3.4-.3,0-.6-.2-.8-.4-.5-.7.8-1.3,1.7-1.1s1.9.7,2.4,0c-1.8-2.2-3.6-4.5-5.4-6.7-.2-.3-.5-.7-.3-1.1,0-.2.3-.2.5-.3,1.6-.4,3.4,0,4.7,1.1.4.3.8.8,1.4.9s1.2-.4,1.1-.9c0-.2-.3-.4-.5-.5-2.5-1.9-4.3-4.6-5.1-7.6v-.5c0-.7,1-.9,1.6-.6s1.1.8,1.7,1,1.5,0,1.6-.6c-2.4-1.6-4.2-4.1-5-6.9,1.5.4,3,.3,4.5,0-3.1-1.4-5.7-3.8-7.3-6.8,2.5.2,5.1.7,7.5,1.4-1.5-1.9-.2-3-.2-5.4s.4-2.5,1.4-2.2c.5,3.5.9,7,1.4,10.5,1.5-2.3,3.5-4.3,5.8-5.8-1,4-1.5,8.2-1.5,12.3.8-1.5,2.1-2.7,3.6-3.4-.2,3.2-.3,6.3-.5,9.5,0,1.2-.2,2.5-.9,3.5.9-1.1,1.9-2.2,2.8-3.4,0,3.2-.9,6.4-2.3,9.4,1.3-2,4.1-3,6.4-2.2-.4,1.9-1.4,3.8-2.9,5.1,1.3-2,3.4-3.4,5.7-4-.4,2.4-1,4.7-1.8,6.9-.5,1.3-1.1,2.7-2.1,3.7s-2.4,1.8-3.8,1.6c1.9-.2,3.8.5,5.2,1.8-1.3.7-2.6,1.3-3.9,2,1.2,0,2.3,0,3.5-.2.5,0,1.1,0,1.4.4.4.6,0,1.3-.6,1.8-.7.7-1.5,1.4-2.2,2.2.7-.4,1.5-.9,2.3-.9,1.9,0,1.3,1.4,1.4,2.5,0,1.5.5,2.8.9,4.3,0,.3.2.6,0,.8,0,.2-.3.3-.5.4-1.7.8-3.4,1.6-5.1,2.5,1.6-.6,3.2-1.2,4.7-1.9-.4,2.3-.9,4.7-1.3,7.1,1.6-1.3,3.4-2.9,3.6-4.9,1.2,1.9,1,4.6-.4,6.4.5-.8,1.2-1.4,2-1.8v6.3c0,.7-.3,1.6-.9,1.5.5-1.4,2.1-4,2-5.5,2,1.8,3.3,4.4,3.4,7.1.6-1.7.8-3.5.7-5.3.3.9.7,1.8,1.2,2.6.9-1.6.5-3.6-.5-5.1s-2.4-2.6-3.9-3.7c2.8-1.3,6.5-.4,8.3,2.2-.7-2.1-2.2-3.9-4.1-5.1,1.4-.6,3,.3,3.8,1.5s.8,2.8.7,4.3-.3,3,0,4.4c.3-1.4,1.3-2.6,2.5-3.2-.2,2.9-1,5.7-2.3,8.3,1.4-.9,2.6-2.1,3.7-3.4-1.7,3.2-2.3,6.9-1.7,10.5,1.2-.8,2.3-1.8,3.2-3-.3,1-.7,2-1,3,1.4-.5,2.7-1.4,3.7-2.6-1.2-2.5-2.6-4.9-4.1-7.3,1.3,1.5,2.6,3.1,3.9,4.6.6.7,1.6,1.4,2.3.8s.3-2,1.1-2.4c0,2.1-.5,4.2-1.6,6.1.8-.8,2-1.1,3.1-.7.3,0,.6.3.6.7s-.2.5-.5.6c-1,.8-2,1.5-3,2.3,1.3-.5,2.9-.8,4.2-1.2-.3,1.8-.7,3.6-1,5.4,1.6-1.3,3.2-2.6,4.8-3.9v10.5c.7-1.9,2.3-3.4,4.3-3.9.5,2.4,0,4.9-1.3,6.9-.4.5-.9,1.1-1.6,1,0-.4,0-.8-.2-1.1,0,.6.7,1.8.2,2.1,3.2-1.5,5.7-4.6,6.6-8.1,1,1.5,1.8,3.2,2.2,5,.3-2.3.6-4.6,1-6.9,1.4,4.2,1.7,8.7.8,13,.9-3.2,2.5-6.3,4.6-8.8.2,3.3-1,6.7-3.3,9.1,1.5-2,4.3-3,6.8-2.2.6.3-.2,1.1-.8,1.3-1.8.4-3.6.9-5.4,1.4,1.8-.8,3.8-1.2,5.8-1.3-.6,1.8-2.7,2.8-4.6,3.2s-3.9.5-5.6,1.6c2.3.3,4.7.4,7,.4-1.6,1.5-4,1.6-6.1,1.9-6.1.8-11.8,3.3-17.4,5.8,1.4.6,3,.9,4.6.9-2.1.6-4.4.6-6.5-.2.3.9.6,1.8.9,2.7-1.7-.2-3.4-.4-5.1-.6,1.2,0,2.4.8,2.9,1.9-3-.2-5.9-.6-8.9-1.1.4-.2.7-.5,1.1-.7,1.3,1.6.2,4.5.2,6.6-1.9,0-3.9-.3-5.6-1,.5,1.2.8,2.4.8,3.7-1.8-.1-3.6-.9-4.9-2.1v3.3c0,.4,0,.9-.5.9s-.4-.1-.5-.3c-1-1.1-2.1-2.1-3.1-3.2,0,.7,0,1.5-.3,2.1s-1.2,1.1-1.8.6c-.3-.2-.4-.4-.6-.7-.6-1.1-1-2.2-1.1-3.4v3.7c0,.2,0,.5-.2.7-.4.2-.8-.3-.9-.7-.2-.8-.5-1.5-.4-2.3h0l.2-.2-.1.1Z" style="fill: url(#uuid-d05caf29-fa48-40a3-a148-8070473024ec);"/>
    </g>
    <path class="bush1-left" d="M537.2,112c.4-1.6,0-3.6-1.2-4.6s-3.8-.4-3.9,1.2c-1.5-2.1-4.4-3.1-6.9-2.3,0,.6,0,1.2-.1,1.8-.1-1.4-.3-2.7-.4-4.1-.7-.5-1.8-.4-2.5.2s-.7,1.8-.1,2.5c.1-1.1-.9-2.1-2-2.3s-2.3,0-3.4.5c.8,1.9,1.6,3.9,2.4,5.8-3.2-.8-6.9-.2-9.6,1.8,1.9,2.2,4.4,3.9,7.2,4.9-2.2-.6-4.4-1.2-6.5-1.8-.3,1.8-.6,3.5-.9,5.3-3.1-2.6-7.8-.8-11.4,1.2-.3.2-.7.4-.8.7-.1.4.2.8.5,1.1,1.7,1.9,3.7,3.7,5.8,5.1-1.6-1.5-3.8-2.3-6-2.3v5.4c-1.4.3-3-.4-3.7-1.6.2,1.7.9,3.3,2.1,4.6-2.5.7-5.9,1.6-8.3,2.3,1.6-1,2.6-2.9,2.5-4.7-1.1.2-2.3-.4-3.4-.6s-2.7.5-2.5,1.6c.7-1.1.1-2.8-1.1-3.4s-2.7-.3-3.7.5-1.7,2-2.1,3.3c-1.7-1.7-4.5-2.1-6.6-1.1s-3.4,3.6-3,5.9c-.7-1.2-2.2-1.8-3.6-2.2-1.5-.4-3.2-.7-4.6-.2s-2.7,2.2-2.2,3.7c.1-.9.4-.6-.5-1-1.3,1.4-2.3,3-3.1,4.7-.2-2.3-2.6-4.2-4.8-3.7s-3.8,3.1-3.1,5.2c.3-2.9-2-5.5-4.7-6.6s-5.7-.9-8.6-.7c-1.5.1-3.1.2-4.5.8.7-2.1,1.4-2.6,1.3-4.8s-1.3-4.5-3.4-5.3-4.8-.9-4.8,1.3c1.5-1.7.4-4.6-1.5-5.7s-4.4-1-6.6-.8c-1.1,0-2.4,1.4-1.4,1.8-1.8-2.8-6-3.6-8.7-1.7-3.2-1.5-7.4-.8-9.9,1.8-2.9-4.3-10-4.9-13.6-1.1,1.4-2.2.7-5.3-1.4-6.8s-5.3-1-6.9,1c-2.5-4.1-6.3-.5-6.3-.5,0,0-3.9-2.9-6-2.7-6.2.6-8,3.8-8,3.8,0,0-3.8.6-5.4,1.5-1.9,1-3.3,2.7-4,4.7-.1.4-.2.8,0,1.1s.9,0,.6-.4c-3,3.7-4.7,8.4-4.7,13.2s.1,2.6.8,3.8c.9,1.7,2.7,2.7,4.4,3.6l27,15c17.1,9.5,34.3,19,52,27.4,2.6,1.2,5.3,2.5,8.1,3.2,3.9,1,7.9,1,11.9,1.1,9,0,18,.1,27-.6,15.4-1.2,30.7-4.6,45-10.5,5.8-2.4,12-5.8,14-11.7-6.2-8.4-7.5-20.3-3.2-29.8.4,2.7.8,5.4,1.3,8.1.7-4.7,2-9.2,3.7-13.6.8,0,1.6-.2,2.4-.3.4-1.9-.2-3.9-1.5-5.3l4.6.5c1.8-2.8,1-7-1.8-8.8,2.1.6,4.1-2.2,2.9-4-.6-.4-1.3-.8-1.9-1.2,1.1-1.9,2.5-3.7,4-5.3.3-1.2.4,1.2-.8.9h0v.2h.1Z" style="fill: #191919;"/>
    <path class="bush2-left" d="M416.3,162.2c-.5-3.1-4.2-5.2-7.1-4.1.4.4,1.1-.3.8-.7-1.5-.6-3.2-.7-4.7-.2,1.3-1.4,2.3-3.4,2-5.3s-2.2-3.6-4.1-3.1c.4-1.7.7-3.4.4-5.2s-1.4-3.4-3-4-3.8.2-4.2,1.9c.5-1.1.7-2.3.6-3.4-2.2-1-4.9-1.1-7.1-.2,1.4-1.4.6-4-1-5.1s-3.7-1.3-5.7-1.4c1.5-.5,2.6-2.2,2.1-3.8s-2.7-2.2-3.9-1.2c2.3-1.8,2.4-5.1,2.1-8,0-.4,0-.8-.3-1.1-.4-.6-1.4-.7-2.1-.4s-1.1,1-1.6,1.7c-.2.4-.5.8-.5,1.2s.5.8.9.6c.3-1.1-1.3-1.8-2.4-1.9-2.5-.2-4.9-.3-7.4,0,.6,3.4,2.2,6.6,4.7,9.1,0-.8-.9-1.5-1.7-1.7s-1.6-.2-2.5,0c-.5,0-1.1.3-1,.8.6-1.1.6-2.6-.1-3.7s-2.1-1.7-3.4-1.6c1.2-.7,1.1-2.5.2-3.5s-2.3-1.4-3.6-1.6c-.5,0-1,0-1.3.2-.1.2-.1.4-.2.7,0,1,0,2-.1,3-.1-1.1-.5-2.5-1.6-2.7-1-.2-1.9,1-1.9,2s.7,2,1.3,2.8c-2.7-1.1-5.8-1.1-8.5.2-.5.2-1.1.7-.9,1.3s.4.5.6.6c1.8,1,3.8,1.5,5.9,1.6-.6,0-1.3.3-1.8.7s-.9,1.1-.6,1.7c.2,0,.5-.2.4-.5-1-3-6.2-2.7-9.1-1.4,1.7-.4,2.8-2.4,2.1-4s-2.7-2.4-4.2-1.6c.2-1.3.4-2.6-.1-3.8s-2.3-1.8-3.2-.9c-.1,1.4-.2,2.9-.4,4.3.1-1.9.2-3.9-.7-5.6s-3-2.9-4.8-2.1v3.4c-.1-1.4-.4-2.7-.8-4-1.1-.4-2.6.4-2.8,1.6.4-.8,0-1.8-.7-2.3s-1.6-.6-2.5-.6-1.8,0-2.5.6-1.1,1.6-.6,2.3c0-3-3.3-5.1-6.3-5.3-1.8,0-3.6.2-5,1.3s-2.2,3.1-1.5,4.7c-.2-2-2.8-2.9-4.8-2.5-4.3.7-7.7,5-7.5,9.3-.7-1.4-2.4-2-4-1.9s-3,.8-4.4,1.5c-1.8.9-3.6,1.9-5.3,2.9-1.1.6-2.2,1.3-2.8,2.4s-.4,2.7.7,3.3c-1.1-1.9-3.5-2.4-5.7-2.8-1.4-.2-2.8-.4-4,.3-1.2.7-1.9,2.5-.9,3.4-1.3.2-3.2,3.3-3.1,4.7,0,.2,0,.4.2.5s.4,0,.6,0c.9-.1,1.8.3,2.2,1.1-1.3-.7-3.1,0-3.6,1.4s.4,3.1,1.9,3.5c-1,0-2,.1-3,.2-.4,1-.3,2.2.2,3.1-.5-.6-1-1.2-1.6-1.5s-1.5-.4-2.1.1c-1,.9-.2,2.7-.6,4,.4-1.6-1.8-2.9-3.4-3.1s-3.2,1.3-3.2,3v-2.1c0-.2,0-.4-.1-.5s-.3-.1-.5-.1c-1.7,0-3.9.5-4.2,2.2v-4.7c-1.7-.2-3.6.3-4.9,1.5l.6-4.6c-.6.3-1.2-.3-1.6-.8s-1.2-1-1.7-.5-.2.3-.2.5c-.3,1-.6,1.9-1,2.9-1-.6-3-.6-4.1-.6s-1,.1-1.2.5c-.2.2-.2.6-.2.9,0,1.2,0,2.4-.1,3.6-.9-2-3.4-3.2-5.6-2.6-.2,0-.5.1-.6.3-.6.6-.1,1.7-.8,2.1-2-1-4.2-1.7-6.4-1.2s-4.1,2.7-3.6,4.8c-1.4,1.8-3.3,4.4-3.5,6.7-1-.5-2.1-1-3.2-.9s-2.3.9-2.3,2,.3,1.5-.2,1.9c-.3.2-.6.2-1,.1-2-.2-4.1-.2-5.9.8s-3,3.2-2.3,5.1c-1.4-.5-3-.8-4.4-.4-2.1.6-3.5,2.6-4,4.8s-.2,4.3,0,6.5c-1.1,0-2-1.3-3.1-1-.9.2-1.3,1.4-.7,2.1-1-1.1-2.6-1.5-4-1.1-.7-1.1-3.8-3.2-5-2.7s-2.1,1.7-1.9,3c-1.5-.6-3.2-1.1-4.8-.6s-2.8,2.4-1.9,3.9c-3.2-.8-6.7,2.6-6,5.9-3.5-.9-7.5,1.9-7.8,5.5-3.6.4-6.6,4-6.3,7.6-3.2-.6-6.6,2.1-6.7,5.3-3.6,0-6.4,4.2-5.2,7.5-2.1,0-4.3,0-6.3.8s-3.7,2.5-3.9,4.6c-2.3-.6-5,.3-6.5,2.2-.3.4-.7,1-1.2,1s-.8-.3-1.2-.5c-1.3-.8-3.2-.5-4.2.7-2.2-1.8-7.4,2-7.3,4.9-.5-1.1-2.1-1-2.9-.1s-.9,2.1-.8,3.3,0,2.4-.4,3.4c-5.4-.5-11,1-15.6,4-1.5-.8-3.5.3-4.3,1.8s-.7,3.4-.6,5.1c-3.4,0-6.9.7-10.1,1.9-.6.2-1.3.5-1.6,1.2-.5,1,.3,2.1.2,3.2,0,1.3-1.5,2.2-2.8,2.3s-2.6-.1-3.9,0c-1.9,0-3.7.9-5,2.2-1.1-2.6-3.2-5.1-6-5.5s-6,2.1-5.4,4.9c-4.8,0-9.5,3-11.5,7.4-.2.5-.5,1.2-1.1,1.4-.3.1-.7,0-1,.1-1.3.1-2.2,1.4-2.5,2.6s-.3,2.5-.6,3.8c-.7,3-4,3.4-6,5.8s-2.8,7.4-2.1,10.4c-2.4-1.1-5.3.9-6.2,3.3s-.4,5.2.1,7.8c.6,2.7-2.7,6-4.9,7.7-1.3,1.1-2.8,2-3.7,3.5s-1,3.5.2,4.7c.2.2.5.4.5.7s-.3,2.6-.6,2.9c-3.1,2.4-5,3.9-6,7.7s3.7,8,3.5,11.8c0,.7-5.1,1-5.1,1.7,0,1.1-.1,2.1-.2,3.2-.2,3.5-.4,7,.4,10.3,1,4.3,3.6,8.2,7.2,10.8-1.4.1-2.6,1.3-3.1,2.7s-.4,2.8-.2,4.2c.4,2.7,1.5,5.4,3.3,7.4s4.7,3.2,7.4,2.8c1.4-1.2,3.9-2.4,5.3-3.6.4,2.1,2.2,4,4.4,4.3s4.5-.7,5.6-2.5c.1.6.8.9,1.4,1.1,3.2.8,6.5-.3,9.6-1.4,1.8-.6,3.6-1.2,5.4-1.8,2.5-.9,5-1.8,6.9-3.6s2.8-4.9,1.4-7.1c1.3-2.4,2.6-4.8,3.7-7.3.2,1.6,2.3,2.1,3.9,2.1,3.5,0,6.9-.7,10.2-1.9,1.7-.6,3.6-1.8,3.4-3.5,0,1.2-.3,2.4-.4,3.5.8.1,1.6,0,2.4-.2,0-.3-.7,0-.6.4s.6.4.9.5c4,.3,7.9-1.6,11.5-3.5,2.5-1.3,5.2-2.9,5.8-5.6,6.3-5.4,12.3-11.5,17.9-17.6,6.9-7.6,13.1-15.7,20.2-23.1,7.8-8.2,16.5-15.4,25.2-22.6,12.8-10.5,25.7-21,40-29.5,13.6-8,28.3-14.2,41-23.5,16.2-1.5,33,1.8,49.1,4.6,34.4,5.8,69.1,11,103.9,10,2.6,0,5.4-.2,7.6-1.6,2.7-1.6,4.1-4.7,5.7-7.4,6.2-10.5,17.6-18.9,18.3-31.1.2-4.4-1-8.7-2.2-12.9-2.9-9.8-7.6-19.4-9.2-29.5h0l-.3-.5v-.1Z" style="fill: #232323;"/>
    <g>
      <path class="bush2-right" d="M926.2,251c-.2-.2-.4-.2-.7-.2-1.3-.2-2.7-.3-4-.5,1.5.4,2.8-1.7,2.2-3.1-.5-1.3-2-2.1-3.4-2.4.8,0,1.5-.9,1.4-1.7,0-1-.9-1.7-1.8-2.2s-1.8-.7-2.7-1.1c1.3-.5,1.3-2.5.4-3.5s-2.4-1.3-3.8-1.5c0-1.3.2-2.6.2-3.9s0-.7,0-1c-.2-.4-.6-.5-1-.7-1.3-.5-2.7-.8-4.1-.9-.3.8-.4,1.6-.3,2.5-1.2-2.2,2.4-4.8,1.5-7.1-.5-1.1-1.8-1.6-3-1.6,1.2-.2,1.6-1.9,1-2.9-.7-1-1.9-1.5-3-1.9.8-.6.6-2-.3-2.6s-2-.6-3-.5c1.4-1.3,3.1-2.4,4.4-3.8s2.2-3.4,1.9-5.3c-.4-1.9-2.5-3.5-4.3-2.7,1.2-.3,2.1-1.4,2.5-2.6.4-1.2.5-2.5.5-3.7s0-1.4-.2-2.1c-.7-1.6-2.9-1.8-4.7-1.7.3-1.2,0-2.6-.9-3.6-1.2-1.4-2.9-2-4.6-2.5-.5-.1-1-.2-1.4,0-.2,0-.3.2-.4.4v-.9c-.4-.2-.9-.4-1.3-.4,0,.2,0,.5.2.7-.7-.7-1.6-.6-2.7-.9-1.2-.3-2.7.3-3.2,1.4l-6.3-.4-.2,1.9c-1.2-.5-2.6-1-3.8-.5-.8.4-1.2,1.5-.9,2.3-1.1-.9-2.7-1.3-4.1-1.1-1.8.3-3.3,1.7-3.9,3.4-.2-1.8-1.4-3.4-3.1-4s-3.7-.2-5,1c0-1.1.2-2.2.2-3.4s-.3-2.4-1.2-3-2.5-.2-2.7.9c.3-1.6-.3-3.7-2-4.1-1.4-.3-2.6.8-3,2.2,0-1-.7-2-1.5-2.6-1.2-.9-2.9-1-4.2-.3,0-2.5-3.2-4.4-5.5-3.2.5-1,.2-2.3-.6-3.1s-1.9-1.3-3-1.6c-.5-.2-1.1-.3-1.6-.2s-1,.6-1,1.2c-.3-1.4-2.5-1.8-3.5-.7-1,1-.9,2.8,0,4-.5-.7-1-1.4-1.8-1.6-.8-.2-1.8.3-1.8,1.1-.8-2.1-2.2-3.8-4.1-5-.4-.2-.9-.5-1.4-.4s-.8.7-.5,1.1c-3.5-2-8.2-1.6-11.4.8-.8-1-2.6-.8-3.5.2-.7.8-1,1.9-1.1,3.1,0-.2-.2-.3-.3-.4-1.6-2-4.7-1.4-7.2-1.1.2-.9.5-1.8,1-2.5-1.5-1-3.3-1.4-5.1-1.3.2-1.5-1.1-2.7-2.3-3.6-2-1.5-4.3-3-6.8-3,0-1.4-1.5-2.4-2.8-3-.9-.4-1.9-.8-2.8-.5-.5.1-1,.5-1.2,1-.2-.5-.5-1-1-1.3-.8-.6-1.7-.6-2.6-1h0c-1.2-.6-2.6-.9-4-.7-.7-1.2-2.2-1.9-3.6-1.6-.2.9-.4,1.9-.5,2.8,0-1.3-1.4-2.5-2.8-2.4s-2.5,1.3-2.5,2.7c-.4-.8-1.5-1.2-2.3-.8s-1.2,1.4-.9,2.2c-.3-.9-.5-1.9-.8-2.8-.7.1-1.4.5-1.9,1-.2-1-1.2-1.9-2.3-1.7s-1.9,1.2-1.8,2.2c-.5-.9-1.9-1.2-2.8-.7-.4.3-.7.7-.8,1.2-.5-1.4-1.5-2.6-2.9-3-.2.4-.4.8-.6,1.3.4-1,0-2.1-.6-2.9s-1.9-1-2.9-.6c.5-1.2-.6-2.8-2-2.8s-2.4,1.6-1.9,2.8c-1.5-1.8-3.6-3.8-5.9-3.3-2,.5-3,3.2-1.9,4.9-.6-.7-1.2-1.4-2.1-1.5-1-.2-2.3,1-1.7,1.9-.8-1-2.1-1.7-3.3-1.4s-2.2,1.7-1.5,2.8c-.4-1.2-1.7-2.1-3-2.3s-2.6,0-3.9.4c-.5.2-1.1.4-1.4.8-.2.2-.2.5,0,.8-.4-.5-1-.8-1.5-1.1-.4,1.6-.5,3.2-.3,4.8-.9-.4-2.1-1.1-3-.9s-1.7,1.4-1.2,2.2c-1.3-1-3-1.7-4.6-1.8,0,.6,0,1.3-.2,1.9,0-1-.9-1.9-1.9-2.3s-2-.5-3.1-.6c-.7,0-1.5,0-2.1.2-.4.2-.7.6-.8,1-.2-1-1-2-2.1-2.3s-2.4.2-3.1,1.1c0-.4,0-.8-.2-1.2-.4-.5-1-.7-1.6-.8-2.3-.5-4.8.1-6.6,1.6.7-1.4,0-3.2-1.2-4s-3.2-.5-4.1.7c-1.7-.9-4-.9-5.7,0,.5-.6.2-1.6-.5-2.1-.6-.5-1.5-.5-2.3-.6-1.4-.1-3.3,0-3.8,1.3,0-.4-.4-.9-.8-.7s-.6.8-.2,1.1c1.5,12.8,4.8,25.7,10.3,37.4,1,2.1,2.1,4.3,4,5.7,1.3.9,2.8,1.4,4.3,1.8,6.5,1.9,13.1,3.4,19.8,4.4,3.6.6,6.3,3.2,9.5,5,12.5,6.8,25.1,13.7,37.7,20.5,8.4,4.6,16.9,9.2,26.2,11.6,13.5,3.5,27.8,2.2,41.5-.5,3.1-.6,6.3-1.3,9-3.1.4-.3.6-1.1.3-1.2,5.7-.6,11.8-.2,17.5-.6,3-.2,6-.3,9.1-.5,2.7-.1,5.4-.3,8.1-.2,1.4,0,2.7,0,4.1.1,0,.6.4,1.2,1,1.4-.5.4-1.2-.5-1.8-.4-.3,0-.5.2-.6.4-.7.9-1,2.1-.6,3.2.8,0,1.7.1,2.5.3-.8.6-1.9.6-2.6,1.3-.6.6-.6,1.7,0,2.4.6.6,1.7.7,2.4.2-.4.8-.6,1.6-.6,2.5s0,.4,0,.6c.2.3.6.3,1,.4.7,0,1.5,0,2.2.1-2.2.8-3.5,2-5.1,3.8-.2.2-.4.5-.3.8.2.7,1.3.2,2,.5-.8.4-1.9-.1-2.8,0-1,.2-1.7,1.1-1.6,2.1,0,1,.8,1.8,1.7,2.1-1.1-.3-2.3-.7-3.5-.5s-2.2,1.3-2.1,2.5c0,.9,1.1,1.6,2,1.5.4,0,.8-.3,1.1-.5-.2.2-.4.4-.6.6-.3.3-.6.7-.8,1.1-.2.6,0,1.2.2,1.8.3,1,.7,2,1.6,2.5.2.1.4.2.7.2-.4.7-.7,1.5-.6,2.3,2,.9,4.4.7,6.3-.5,0,.7,1.1,1.6,1.8,1.6s.5,0,.7-.2c-.2.6-.4,1.3-.4,2s0,.8.3,1.1c.5.6,1.5.4,2-.2.2-.3.4-.6.5-1,0,1,.8,2.1,1.8,2.3.6.2,1.4,0,1.8-.4,0-.1.2-.3.3-.4,0,.3.2.7.5.9.6.5,1.7.3,2.2-.3s.7-1.5.6-2.3c0-.5,0-1-.4-1.4,1.3.7,3.2.4,3.9-.9,0,.5,0,1.1-.2,1.6.9.2,1.9.4,2.8.1.6-.2,1.1-.7,1.3-1.3,0,.1.2.3.3.3.4.3.9.3,1.3.3,1.2,0,2.4.2,3.7.3.7,0,1.4,0,2-.3.6-.4.8-1.3.6-2-.2-.4-.5-.8-.8-1.1.4,0,1,0,1.4-.4-.2.4-.2,1,0,1.4.3.7,1.1,1.1,1.8,1.3.8.2,1.7.1,2.3-.4h0c0,.6-.2,1.1-.2,1.7,1,.4,2.2.5,3.3.3-.9.4-1.5,1.7-.9,2.5.7,1,2.6.7,3-.4,0,1,0,2-.2,3,1.9,1.2,4.8.2,5.4-2-.2.6,0,1.2.2,1.7,1.4.2,3-.1,3.8-1.3.8-1.1.3-3.2-1-3.4,2-.2,3.5-2.3,3.2-4.2s-2.4-3.5-4.3-3.1c1.2-.7.8-2.8-.5-3.1,2.3-.5,3-3.4,3.3-5.7,0-.8.2-1.7-.2-2.5s-1.5-1.2-2.1-.7c.6-1.1-.5-2.7-1.8-2.5v-.5c6.7,2.9,13.6,5.5,19.9,9.1,0-1.5.3-3.4.4-4.9,0-.3,0-.6-.2-.8v-.5h0Z" style="fill: #232323;"/>
      <path class="bush3-right" d="M806.7,135.8c0-.9-.9-1.6-1.7-1.7,0-.9-.8-1.7-1.7-1.8-.3.2-.5.5-.8.7.5-.6.4-1.6-.2-2s-1.6-.4-2,.2c-.5-.7-1.5-.9-2.2-.5,1.4-1,2.3-2.8,2.2-4.6-.7-.4-1.5-.7-2.2-1.1-.7-1.2-2-2-3.4-2-.5,1.2-.4,2.7.3,3.8-.9,0-1.8.5-2.2,1.4s0,1.9.8,2.4c-1.7.4-3.2,1.1-4.6,2.1.8.8,1.6,1.7,2.3,2.5-2.2-.8-4.8.1-6.1,2,1.2.5,2.2,1.3,3,2.3h-2.5c-.3,1-.2,2,.2,2.9v-1c-1.4-.9-2.9.8-4.5.4v1.3c0-.6-.5-1.2-1-1.5-.6-.4-1.5-.6-2.1-.2-.7.4-.9,1.4-.3,1.9-.4-.2-.5-.8-.8-1.2-.5-.9-2-1-2.7-.2s-.3,2.2.7,2.6c-.5.4-1.2-.5-1.8-.4-.3,0-.5.2-.6.4-.7.9-1,2.1-.6,3.2.8,0,1.7.1,2.5.3-.8.6-1.9.6-2.6,1.3-.6.6-.6,1.7,0,2.4s1.7.7,2.4.2c-.4.8-.6,1.6-.6,2.5s0,.4,0,.6c.2.3.6.3,1,.4.7,0,1.5,0,2.2.1-2.2.8-3.5,2-5.1,3.8-.2.2-.4.5-.3.8.2.7,1.3.2,2,.5-.8.4-1.9-.1-2.8,0-1,.2-1.7,1.1-1.6,2.1s.8,1.8,1.7,2.1c-1.1-.4-2.3-.7-3.5-.5s-2.2,1.3-2.1,2.5c0,.9,1.1,1.6,2,1.5.5,0,.9-.3,1.2-.5.8-.5,1.6-.9,2.4-1.4-1.3.2-2.3,1.2-3.2,2.1-.3.3-.6.6-.8,1.1-.2.6,0,1.2.2,1.8.3,1,.7,2,1.6,2.5s2.3-.2,2.1-1.2c-1.3.7-2.2,2.2-2.1,3.6,2,.9,4.4.7,6.3-.5,0,.7,1.1,1.6,1.8,1.6s1.3-.6,1.3-1.3c-.6.9-1,2-1,3.1s0,.8.3,1.1c.5.6,1.5.4,2-.2s.6-1.4.7-2.2c-.7,1.3,0,3.2,1.6,3.6.6.2,1.4,0,1.8-.4s.7-1.2.3-1.8c0,.8-.2,1.8.4,2.3.6.5,1.7.3,2.2-.3s.7-1.5.6-2.3c0-.8-.3-1.7-1-2,1.1,1.4,3.7,1.2,4.6-.4,0,.5,0,1.1-.2,1.6.9.2,1.9.4,2.8.1s1.6-1.3,1.2-2.2c-.3.4,0,.9.3,1.2s.9.3,1.3.3c1.2.1,2.4.2,3.7.3.7,0,1.4,0,2-.3.6-.4.8-1.3.6-2.1s-.9-1.3-1.5-1.6c.4.9,2.2.4,2.7-.5-.7.3-.9,1.3-.6,2s1.1,1.1,1.8,1.3c.8.2,1.7.1,2.3-.4s.9-1.5.4-2.2c-.2,1.2-.3,2.5-.5,3.8,1.2.5,2.6.6,3.9.2-1.2,0-2.2,1.6-1.4,2.6s2.6.7,3-.4c0,1,0,2-.2,3,1.9,1.2,4.8.2,5.4-2-.2.6,0,1.2.2,1.7,1.4.2,3-.1,3.8-1.3s.3-3.2-1-3.4c2-.2,3.5-2.3,3.2-4.2s-2.4-3.5-4.3-3.1c1.2-.7.8-2.9-.5-3.1,2.3-.5,3-3.4,3.3-5.7,0-.8.2-1.7-.2-2.5s-1.5-1.2-2.1-.7c.6-1.1-.5-2.7-1.8-2.5.4-1.4-1.4-2.9-2.7-2.2,1.1-.5,1.2-1.8.9-3s-1.5-2-2.7-1.8c.7.2,1.4-.4,1.7-1.1.3-.7.5-1.5.3-2.3s-.9-1.4-1.7-1.5c1-.9,1.6-2.4,1.2-3.7s-2.2-2-3.2-1.1c.2-.8-.2-1.7-.8-2.2s-1.5-.7-2.3-.9c-.5-.1-1.3,0-1.2.5.3-.5.5-1.2.2-1.7s-.9-.9-1.5-.8-.8.5-.5.9h0l.6.2h.1Z" style="fill: #0f0f0f;"/>
    </g>
    <path d="M843,267.5c.2.2.4.2.7.2,1.3.2,2.7.3,4,.5-1.5-.4-2.8,1.7-2.2,3.1.5,1.3,2,2.1,3.4,2.4-.8,0-1.5.9-1.4,1.7,0,1,.9,1.7,1.8,2.2s1.8.7,2.7,1.1c-1.3.5-1.3,2.5-.4,3.5s2.4,1.3,3.8,1.5c0,1.3-.2,2.6-.2,3.9s0,.7,0,1c.2.4.6.5,1,.7,1.3.5,2.7.8,4.1.9.3-.8.4-1.6.3-2.5,1.2,2.2-2.4,4.8-1.5,7.1.5,1.1,1.8,1.6,3,1.6-1.2.2-1.6,1.9-1,2.9.7,1,1.9,1.5,3,1.9-.8.6-.6,2,.3,2.6s2,.6,3,.5c-1.4,1.3-3.1,2.4-4.4,3.8s-2.2,3.4-1.9,5.3c.4,1.9,2.5,3.5,4.3,2.7-1.2.3-2.1,1.4-2.5,2.6s-.5,2.5-.5,3.7,0,1.4.2,2.1c.7,1.6,2.9,1.8,4.7,1.7-.3,1.2,0,2.6.9,3.6,1.2,1.4,2.9,2,4.6,2.5.5.1,1,.2,1.4,0,.2,0,.3-.2.4-.4v.9c.4.2.9.4,1.3.4,0-.2,0-.5-.2-.7.7.7,1.6.6,2.7.9,1.2.3,2.7-.3,3.2-1.4l6.3.4.2-1.9c1.2.5,2.6,1,3.8.5.8-.4,1.2-1.5.9-2.3,1.1.9,2.7,1.3,4.1,1.1,1.8-.3,3.3-1.7,3.9-3.4.2,1.8,1.4,3.4,3.1,4s3.7.2,5-1c0,1.1-.2,2.3-.2,3.4s.3,2.4,1.2,3,2.5.2,2.7-.9c-.3,1.6.3,3.7,2,4.1,1.4.3,2.6-.8,3-2.2,0,1,.7,2,1.5,2.6,1.2.9,2.9,1,4.2.3,0,2.5,3.2,4.4,5.5,3.2-.5,1-.2,2.3.6,3.1s1.9,1.3,3,1.6c.5.2,1.1.3,1.6.2.5-.1,1-.6,1-1.2.3,1.4,2.5,1.8,3.5.7,1-1,.9-2.8,0-4,.5.7,1,1.4,1.8,1.6s1.8-.3,1.8-1.1c.8,2.1,2.3,3.8,4.1,5,.4.2.9.5,1.4.4s.8-.7.5-1.1c3.5,2,8.2,1.6,11.4-.8.8,1,2.6.8,3.5-.2.7-.8,1-1.9,1.1-3.1,0,.2.2.3.3.4,1.6,2,4.7,1.4,7.2,1.1-.2.9-.5,1.8-1,2.5,1.5,1,3.3,1.4,5.1,1.3-.2,1.5,1.1,2.7,2.3,3.6,2,1.5,4.3,3,6.8,3,0,1.4,1.5,2.4,2.8,3,.9.4,1.9.8,2.8.5.5-.1,1-.5,1.2-1,.2.5.5,1,1,1.3.8.6,1.7.6,2.6,1h0c1.2.6,2.6.9,4,.7.7,1.2,2.2,1.9,3.6,1.6.2-.9.4-1.9.5-2.8,0,1.3,1.4,2.5,2.8,2.4s2.5-1.3,2.5-2.7c.4.8,1.5,1.2,2.3.8s1.2-1.4.9-2.2c.3.9.5,1.9.8,2.8.7-.1,1.4-.5,1.9-1,.2,1,1.2,1.9,2.3,1.7s1.9-1.2,1.8-2.2c.5.9,1.9,1.2,2.8.7.4-.3.7-.7.8-1.2.5,1.4,1.5,2.6,2.9,3,.2-.4.4-.8.6-1.3-.4,1,0,2.1.6,2.9s1.9,1,2.9.6c-.5,1.3.6,2.8,2,2.8s2.4-1.6,1.9-2.8c1.5,1.8,3.6,3.8,5.9,3.3,2-.5,3-3.2,1.9-4.9.6.7,1.2,1.4,2.1,1.5,1,.2,2.3-1,1.7-1.9.8,1,2.1,1.7,3.3,1.4s2.2-1.7,1.5-2.8c.4,1.2,1.7,2.1,3,2.3s2.6,0,3.9-.4c.5-.2,1.1-.4,1.4-.8.2-.2.2-.5,0-.8.4.5,1,.8,1.5,1.1.4-1.6.5-3.2.3-4.8.9.4,2.1,1.1,3,.9s1.7-1.4,1.2-2.2c1.3,1,3,1.7,4.6,1.7,0-.6,0-1.3.2-1.9,0,1,.9,1.9,1.9,2.3s2,.5,3.1.6c.7,0,1.5,0,2.1-.2.4-.2.7-.6.8-1,.2,1,1,2,2.1,2.3s2.4-.2,3.1-1.1c0,.4,0,.8.2,1.2.4.5,1,.7,1.6.8,2.3.5,4.8-.1,6.6-1.6-.7,1.4,0,3.2,1.2,4s3.2.5,4.1-.7c1.7.9,4,.9,5.7,0-.5.6-.2,1.6.5,2.1.6.5,1.5.5,2.3.6,1.4.1,3.3,0,3.8-1.3,0,.4.4.9.8.7s.6-.8.2-1.1c-1.5-12.8-4.8-25.7-10.3-37.4-1-2.1-2.1-4.3-4-5.7-1.3-.9-2.8-1.4-4.3-1.8-6.5-1.9-13.1-3.4-19.8-4.4-3.6-.6-6.3-3.2-9.5-5-12.5-6.8-25.1-13.7-37.7-20.5-8.4-4.6-16.9-9.2-26.2-11.6-13.5-3.5-27.8-2.2-41.5.5-3.1.6-6.3,1.3-9,3.1-.4.3-.6,1.1-.3,1.2-5.7.6-11.8.2-17.5.6-3,.2-6,.3-9.1.5-2.7.1-5.4.3-8.1.2-1.4,0-2.7,0-4.1-.1,0-.6-.4-1.2-1-1.4.5-.4,1.2.5,1.8.4.3,0,.5-.2.6-.4.7-.9,1-2.1.6-3.2-.8,0-1.7-.1-2.5-.3.8-.6,1.9-.6,2.6-1.3.6-.6.6-1.7,0-2.4-.6-.6-1.7-.7-2.4-.2.4-.8.6-1.6.6-2.5s0-.4,0-.6c-.2-.3-.6-.3-1-.4-.7,0-1.5,0-2.2-.1,2.2-.8,3.5-2,5.1-3.8.2-.2.4-.5.3-.8-.2-.7-1.3-.2-2-.5.8-.4,1.9.1,2.8,0,1-.2,1.7-1.1,1.6-2.1,0-1-.8-1.8-1.7-2.1,1.1.3,2.3.7,3.5.5s2.2-1.3,2.1-2.5c0-.9-1.1-1.6-2-1.5-.4,0-.8.3-1.1.5.2-.2.4-.4.6-.6.3-.3.6-.7.8-1.1.2-.6,0-1.2-.2-1.7-.3-1-.7-2-1.6-2.5-.2-.1-.4-.2-.7-.2.4-.7.7-1.5.6-2.3-2-.9-4.4-.7-6.3.5,0-.7-1.1-1.6-1.8-1.6s-.5,0-.7.2c.2-.6.4-1.3.4-2s0-.8-.3-1.1c-.5-.6-1.5-.4-2,.2-.2.3-.4.6-.5,1,0-1-.8-2.1-1.8-2.3-.6-.2-1.4,0-1.8.4,0,.1-.2.3-.3.4,0-.3-.2-.7-.5-.9-.6-.5-1.7-.3-2.2.3s-.7,1.5-.6,2.3c0,.5,0,1,.4,1.4-1.3-.7-3.2-.4-3.9.9,0-.5,0-1.1.2-1.6-.9-.2-1.9-.4-2.8-.1-.6.2-1.1.7-1.3,1.3,0-.1-.2-.3-.3-.3-.4-.3-.9-.3-1.3-.3-1.2,0-2.4-.2-3.7-.3-.7,0-1.4,0-2,.3-.6.4-.8,1.3-.6,2,.2.4.5.8.8,1.1-.4,0-1,0-1.4.4.2-.4.2-1,0-1.4-.3-.7-1.1-1.1-1.8-1.3-.8-.2-1.7-.1-2.3.4h0c0-.6.2-1.1.2-1.7-1-.4-2.2-.5-3.3-.3.9-.4,1.5-1.7.9-2.5-.7-1-2.6-.7-3,.4,0-1,0-2,.2-3-1.9-1.2-4.8-.2-5.4,2,.2-.6,0-1.2-.2-1.7-1.4-.2-3,.1-3.8,1.3-.8,1.1-.3,3.2,1,3.4-2,.2-3.5,2.3-3.2,4.3s2.4,3.5,4.3,3.1c-1.2.7-.8,2.8.5,3.1-2.3.5-3,3.4-3.3,5.7,0,.8-.2,1.7.2,2.5s1.5,1.2,2.1.7c-.6,1.1.5,2.7,1.8,2.5v.5c-6.7-2.9-13.6-5.5-19.9-9.1,0,1.5-.3,3.4-.4,4.9,0,.3,0,.6.2.8v.4h0Z" style="fill: #191919;"/>
    <g>
      <g>
        <g>
          <path class="bush1-right" d="M603.3,138.2c6.6,8.7,14,17.1,23.5,22.6,15.2,8.9,33.6,9.5,51.1,11.5,9.8,1.1,19.6,2.7,29.4,2.2,9.8-.4,19.9-3.1,27.3-9.6,3.6-3.1,6.4-7,9.2-10.9,2-2.8,4-6.8,1.8-9.4-1-1.1-2.4-1.8-3.6-2.7-.2-.1-.4-.3-.6-.2s-.3.4,0,.5c.4-.4.2-1.1-.3-1.4s-1-.4-1.6-.5c-2-.2-4-.6-5.5-1.8-1.3-1-2.4-2.5-4-2.5,0-.4-.3-.6-.6-.8-2.7-1.5-5.7-2.2-8.8-2v-2.7c-.7-.4-1.6-.4-2.3,0-.5-1.4-2.6-1.9-3.8-.9-1.4-1.1-3.2-1.8-5-1.8-.3.2-.5.6-.5,1-.3-.9-1.4-1.9-2.2-2.5s-2-.6-2.5.2c0-.8.7-1.5.8-2.3,0-.9-.5-1.8-1.2-2.2s-1.7-.6-2.6-.7-2.1,0-2.3.8c.2-1.3-1.3-2.2-2.6-2.4-.7-.2-1.5-.2-2.2,0s-1.2,1.1-.9,1.8c.3-1.1-.5-2.2-1.5-2.6s-2.2-.2-3.2.2c-1.2.6-2.4,1.8-2.1,3.1-.6-2.6-3.8-4.1-6.2-3-1,.5-1.8,1.7-1.2,2.6-.7-.9-1.8-1.6-2.9-1.6s-2.3,1-2.2,2.1c0,.5.2,1.2-.2,1.5-.3.2-.7,0-1,0-1.5,0-2.9,1-3.2,2.4.3-1.4-.5-2.7-1.5-3.6s-2.7-1.2-4-.7c-.5-.7,1-1.4.9-2.2,0-.2-.2-.4-.3-.6-1.1-1.4-2.7-3-4.4-2.3-1.2-1.6-3.7-2-5.5-1-.2-.9-1-1.6-2-1.9s-1.9-.2-2.8,0c-.7,0-1.5.3-1.6.9-1.5-1.5-4.5-.7-5,1.4,0-.6-.7-1.1-1.3-1s-1.1.5-1.2,1.1c-1.2-.9-3.4-1.4-4.9-1.5-.8,0-1.5,0-2.2.3s-1,1.3-.6,1.9c0-.7-1-.9-1.7-.9s-1.9,0-2.6.7-.6,2,.3,2.2c-1,0-2,0-2.8.5s-.9,2,0,2.4c.7.3,1.6,0,2.1.4-1.2.4-2.4,0-3.6.3s-2.3,1.8-1.4,2.6c-2.7-1.6-5.7-3.3-8.8-3.1,1.5.6,3.2.6,4.6,0,.2,0,.4-.2.5-.4,0-.3,0-.6-.3-.8-1.5-1.7-3.6-2.8-5.8-3.2.7-.3,1.3-.8,1.7-1.5.5-.8.6-1.9,0-2.7s-1.8-1.1-2.4-.4c1-.6,1.5-1.9,1.5-3.1s-.6-2.3-1.3-3.3c-.9-1.3-2.4-2.4-3.9-2,.4-.5.2-1.3-.3-1.8s-1.2-.6-1.8-.8c-.7-.2-1.4-.4-2.1-.2s-1.4.6-1.6,1.3c-.2.8.4,1.6.9,2.2-.5-.6-1.5,0-1.7.8s0,1.6-.2,2.4c-1-1.3-2.8-1.6-4.5-1.6-.3.7-.4,1.5-.2,2.2-.7-.6-1.8-.5-2.5,0-.5.3-.9.7-1,1.3s.2,1.2.8,1.3c.4,0,1.1,0,1.2.3-1.5-.2-2.9,1.1-3,2.6v.6c0,.2.4.3.6.4.8.3,1.7.3,2.5,0-.9,0-1.8.6-2,1.5s.5,1.8,1.4,2c-.7-.3-1.5.3-1.6,1.1s.6,1.4,1.3,1.7,1.5.2,2.2,0c-.8.8-1.5,2-.9,3,.5.8,1.5,1,2.4.9s1.8-.2,2.7,0v-1c-.2,4-.8,9.9,1.6,13.1h-.4l.2.2Z" style="fill: #191919;"/>
          <g class="spikybush-right">
            <path d="M699.6,139.2c1.3-4.9,5.7-13.6,19.6-16.8,0,0-19.6-2.2-24,19.2l2,.6c-.3.4-.4.6-.4.6l4.7.8c6.1-11.7,25.3-17.8,25.3-17.8-11.6-2.4-22.3,7.8-27.2,13.5h0v-.1Z" style="fill: #111;"/>
            <path d="M705.5,120.5c.9-.4,1.8-.8,2.8-1.1,0,0-.8,0-2,.2,2.5-2.9,4.5-4.8,4.5-4.8-3.8,1-6.9,3.2-9.5,5.9-1.3.5-2.8,1.1-4.2,1.9,3.1-6.8,6.8-11.9,6.8-11.9-3.7,1.9-6.5,4.9-8.7,8.3-1.4-5.6-4.2-9.3-4.2-9.3,1.8,5.1,2.4,9.5,2.2,13.2-.5,1.2-1,2.4-1.4,3.6-.9-6.8-3.4-14-9.4-18.3,0,0,6,12.2,6.3,23.5-.3.5-.5,1.1-.7,1.7.8-14.4-11.8-21-11.8-21,6,6.3,8,12.4,8.4,17.3-3.2-10.4-13.3-14.1-13.3-14.1,15.9,12.9,9.5,27.2,9.5,27.2l3.9.7c.2-.7.3-1.3.4-1.9l1.1.4c0-.4.2-.7.4-1.1l2.4.4v1.8l1.7-.9c-.2.9-.3,1.4-.3,1.4l4.6-1.4c.5-8,6.3-16.4,10.8-21.8h-.3v.1ZM695.7,127.3c.5-.6,1.2-1.2,1.8-1.8-.8,1.2-1.5,2.4-2.1,3.6,0-.6.2-1.2.3-1.8Z" style="fill: #111;"/>
          </g>
        </g>
        <g>
          <g class="toprailing-left">
            <rect x="481.7" y="142.9" width="3.5" height="36.2" style="fill: #777;"/>
            <rect x="427.8" y="170.2" width="3.5" height="36.2" style="fill: #777;"/>
            <rect x="376.3" y="193.7" width="3.5" height="36.2" style="fill: #777;"/>
            <g>
              <path d="M526.1,129.5h-3.2v-.4h-12.5l-1.2.4,1.2,2.4h12.5v.4h3.2c.8,0,1.4-.6,1.4-1.4s-.6-1.4-1.4-1.4h0Z" style="fill: #777;"/>
              <path d="M374.4,197.9l136-66-1.2-2.4-136,66c-.7.3-1,1.1-.6,1.8h0c.3.7,1.1,1,1.8.6h0Z" style="fill: #777;"/>
            </g>
          </g>
          <g class="toprailing-right">
            <rect x="643.7" y="142.9" width="3.5" height="36.2" style="fill: #777;"/>
            <rect x="697.6" y="170.2" width="3.5" height="36.2" style="fill: #777;"/>
            <rect x="749.1" y="193.7" width="3.5" height="36.2" style="fill: #777;"/>
            <g>
              <path d="M602.9,129.5h3.2v-.4h12.5l1.2.4-1.2,2.4h-12.5v.4h-3.2c-.8,0-1.4-.6-1.4-1.4s.7-1.4,1.4-1.4h0Z" style="fill: #777;"/>
              <path d="M754.5,197.9l-136-66,1.2-2.4,136,66c.7.3,1,1.1.6,1.8h0c-.3.7-1.1,1-1.8.6h0Z" style="fill: #777;"/>
            </g>
          </g>
          <g>
            <g>
              <g>
                <rect class="niche-background" x="519.9" y="161.1" width="89.3" height="142.2" style="fill: #212121;"/>
                <path class="topstairs-right" d="M740.6,202.3c-1.7-1.4-3.6-2.6-5.6-3.5-15-6.9-94.7-43.5-105.1-49.1-11.5-6.2-9.9-14.4-9.9-14.4h-5.6v161.9h132v-87.3c0-2.4-3.2-5.5-5.8-7.6h0Z" style="fill: #404040;"/>
                <rect class="niche-floor" x="520.5" y="292.5" width="88.3" height="4.7" style="fill: #474747;"/>
                <path class="niche-facade" d="M614.3,125.4h-11v30.2h-79v-30.2h-10.9v169.5h27.6v-94.1c0-1.4.2-2.7.6-4.1,1.5-5.5,6.8-18.3,21.7-18.3h1c15,0,20.2,12.8,21.7,18.3.4,1.3.6,2.7.6,4.1v94.1h27.7V125.4h0Z" style="fill: #919191;"/>
                <path class="niche-entryway" d="M586.7,201.8c0-1.5-.2-3-.6-4.4-1.5-5.9-6.8-19.8-21.7-19.8h-1c-15,0-20.2,13.9-21.7,19.8-.4,1.4-.6,2.9-.6,4.4v93h1v-89.8c0-1.5.2-3,.6-4.4,1.5-5.9,5.8-17.8,20.7-17.8h1c15,0,20.2,11.9,21.7,17.8.3,1.1.5,2.2.5,3.3v-2h0l.1-.1Z" style="fill: #bebebe;"/>
                <g class="bottomrailing1-right">
                  <path d="M762.3,197c.8,0,1.4.6,1.4,1.4s-.7,1.4-1.5,1.4h-11l-1.2-2.5,1.2-.4h11l.1.1Z" style="fill: #7d7d7d;"/>
                  <path d="M609.5,264.1h7.4v-2.9h0c0-.5.2-1.1.8-1.3l132.5-62.5,1.2,2.4-131.5,62v2.3h.2c.8,0,1.5.7,1.5,1.5s-.7,1.5-1.5,1.5h-10.5c-.8,0-1.5-.7-1.5-1.5s.7-1.5,1.5-1.5h-.1Z" style="fill: #7d7d7d;"/>
                </g>
                <path class="topstairs-left" d="M387.2,202.3c1.7-1.4,3.6-2.6,5.6-3.5,15-6.9,94.6-43.5,105.1-49.1,11.5-6.2,9.9-14.4,9.9-14.4h5.6v161.9h-132v-87.3c0-2.4,3.2-5.5,5.8-7.6h0Z" style="fill: #404040;"/>
                <g class="bottomrailing1-left">
                  <path d="M367.1,197c-.8,0-1.4.6-1.4,1.4s.6,1.4,1.5,1.4h11l1.1-2.5-1.2-.4h-11v.1Z" style="fill: #7d7d7d;"/>
                  <path d="M519.9,264.1h-7.4v-2.9h0c0-.5-.2-1.1-.8-1.3l-132.5-62.5-1.1,2.4,131.5,62v2.3h-.2c-.8,0-1.5.7-1.5,1.5s.7,1.5,1.5,1.5h10.5c.8,0,1.5-.7,1.5-1.5s-.7-1.5-1.5-1.5h0Z" style="fill: #7d7d7d;"/>
                </g>
                <g class="spotlights" style="opacity: .6;">
                  <g>
                    <polygon points="600.3 145.7 655.9 291.3 707.9 145.7 600.3 145.7" style="fill: url(#uuid-7f931501-23c6-47ed-a286-952cec02028e);"/>
                    <polygon points="657.8 125.7 713.4 271.3 765.4 125.7 657.8 125.7" style="fill: url(#uuid-bb79fcab-4637-4c46-a71f-6d8303406c81);"/>
                    <polygon points="722.4 99.1 778 244.7 829.9 99.1 722.4 99.1" style="fill: url(#uuid-8cd5b258-1dd3-4db3-b6f0-86657a43a976);"/>
                  </g>
                  <g>
                    <polygon points="470.1 124 414.4 269.7 362.5 124 470.1 124" style="fill: url(#uuid-140bfe23-1f1f-4e77-95de-01e63906b3b7);"/>
                    <polygon points="405.5 97.4 349.8 243.1 297.9 97.4 405.5 97.4" style="fill: url(#uuid-83d9c2fa-56c2-4f20-904b-54f7d63e3ec7);"/>
                    <polygon points="527.6 144 471.9 289.7 420 144 527.6 144" style="fill: url(#uuid-faa32086-1873-41e6-85dc-e6d459c55bb9);"/>
                  </g>
                </g>
                <g class="bottomrailing2-left">
                  <rect x="351.7" y="185.3" width="3.5" height="31.2" style="fill: #b9b9b9;"/>
                  <rect x="391.6" y="199.2" width="3.5" height="36.2" style="fill: #b9b9b9;"/>
                  <rect x="432.9" y="219" width="3.5" height="36.2" style="fill: #b9b9b9;"/>
                  <rect x="473.8" y="239.1" width="3.5" height="36.2" style="fill: #b9b9b9;"/>
                  <rect x="514.2" y="258.4" width="3.5" height="19" style="fill: #b9b9b9;"/>
                  <g>
                    <path d="M350.8,185.8h3.2v-.4h12.5l1.2.4-1.2,2.4h-12.5v.4h-3.2c-.8,0-1.4-.6-1.4-1.4s.6-1.4,1.4-1.4h0Z" style="fill: #b9b9b9;"/>
                    <path d="M522.2,262.4l-155.7-74.1,1.2-2.4,155.7,74.1c.7.3,1,1.1.6,1.8h0c-.3.7-1.1,1-1.8.6h0Z" style="fill: #b9b9b9;"/>
                  </g>
                </g>
                <g class="bottomrailing2-right">
                  <rect x="773.5" y="185.3" width="3.5" height="31.2" style="fill: #b9b9b9;"/>
                  <rect x="733.6" y="199.2" width="3.5" height="36.2" style="fill: #b9b9b9;"/>
                  <rect x="692.3" y="219" width="3.5" height="36.2" style="fill: #b9b9b9;"/>
                  <rect x="651.4" y="239.1" width="3.5" height="36.2" style="fill: #b9b9b9;"/>
                  <rect x="611" y="258.4" width="3.5" height="19" style="fill: #b9b9b9;"/>
                  <g>
                    <path d="M777.9,185.8h-3.2v-.4h-12.5l-1.2.4,1.2,2.4h12.5v.4h3.2c.8,0,1.4-.6,1.4-1.4s-.7-1.4-1.4-1.4h0Z" style="fill: #b9b9b9;"/>
                    <path d="M606.5,262.4l155.7-74.1-1.2-2.4-155.7,74.1c-.7.3-1,1.1-.6,1.8h0c.3.7,1.1,1,1.8.6Z" style="fill: #b9b9b9;"/>
                  </g>
                </g>
                <g>
                  <g>
                    <path class="bottomstairs-left" d="M312.7,197.1h12c1.2,0,2.4.2,3.6.5l5,1.4c.8.2,1.5.5,2.3.9l171.2,86.3v-12.6h16.8v49.1h-229.8v-122.1c0-1.9,1.5-3.4,3.4-3.4h15.5v-.1Z" style="fill: #797979;"/>
                    <path class="bottomstairs-right" d="M816.4,197.1h-11.4c-1.6,0-3.2.2-4.7.7l-4.2,1.2c-1,.3-2,.7-3,1.2l-170.8,86.1v-12.6h-17.8v49.1h230.8v-122.1c0-1.9-1.5-3.4-3.4-3.4h-15.5v-.2h0Z" style="fill: #797979;"/>
                  </g>
                  <polygon class="indention-right" points="610.5 279.8 618.2 279.8 618.2 277.9 608.8 277.9 608.8 305 610.5 305 610.5 279.8" style="fill: url(#uuid-7ff935a1-6fb1-46d3-9f4a-d53d1af59945); isolation: isolate; opacity: .6;"/>
                  <polygon class="indention-left" points="512.2 279.8 519.9 279.8 519.9 277.9 510.5 277.9 510.5 305 512.2 305 512.2 279.8" style="fill: url(#uuid-8e6e4300-8237-43ee-b503-6a6c68a3cd85); isolation: isolate; opacity: .6;"/>
                </g>
                <g class="bottommost-stairs">
                  <g>
                    <rect x="511.5" y="296.7" width="106.3" height="11.7" style="fill: #5f5f5f;"/>
                    <rect x="510.5" y="295.1" width="108.6" height="1.7" style="fill: #afafaf;"/>
                  </g>
                  <g>
                    <rect x="495.5" y="306.2" width="136.7" height="11.7" style="fill: #4b4b4b;"/>
                    <rect x="494.1" y="306.2" width="139.8" height="1.7" style="fill: #afafaf;"/>
                  </g>
                  <g>
                    <rect x="481.3" y="316.7" width="165.2" height="14.4" style="fill: #343434;"/>
                    <rect x="479.6" y="316.7" width="168.6" height="1.7" style="fill: #afafaf;"/>
                  </g>
                </g>
                <rect class="ledge" x="522.5" y="153.3" width="82.9" height="6.5" style="fill: #646464;"/>
                <rect class="ledge2" x="522.4" y="159.8" width="82.9" height="1.5" style="fill: #bebebe;"/>
              </g>
              <g class="bottomrail3-left">
                <rect x="500.8" y="267.6" width="3.5" height="38" style="fill: #acacac;"/>
                <rect x="438" y="276.6" width="3.5" height="27" style="fill: #acacac;"/>
                <path d="M433.6,276h25.5v.3l55.2-13.8v.3h12.8v3.1h-13.8v-.3l-54.3,13.5h-25.5c-.9,0-1.6-.7-1.6-1.6s.7-1.6,1.6-1.6h0l.1.1Z" style="fill: #acacac;"/>
              </g>
            </g>
            <path class="bottombush1-right" d="M1006.4,360.9c1.3.2,2.7.5,3.9-.2s1.7-2.5.6-3.3c.9.3,1.8-.5,2-1.4s0-1.8-.5-2.7c4.3.1,8.7.2,13-.5,2.3-.4,4.8-1.1,6.4-2.9.4-.5.8-1.1.6-1.7-.3-.6-1.2-.8-1.9-.8-1.4,0-2.7,0-4.1-.1-.6-5.8-3.4-11.3-7.6-15.2,2.8,0,6.2-2.1,6.4-4.9-2.1-1-4.3-2-6.4-3.1,1.5.5,3.3-.2,4-1.6-.8-.4-1.6-.8-2.5-1.2.9-1.9.3-4.3-1.3-5.6,1.9-.8,4-1.8,4.6-3.7s-1.8-4.4-3.3-3c2.5-.7,5-2.6,5.2-5.2s-3.3-5-5.2-3.2c.4-1.2.9-2.6.3-3.8s-2.8-1.3-3,0c-.4-3-2.8-5.7-5.8-6.5.9-.8.8-2.4,0-3.4s-1.8-1.6-2.9-2.1c-9.1-4.6-18.3-9.2-27.4-13.8-13.2-6.6-26.6-13.4-41.2-15.6-20.1-3.1-40.8,2.7-61-.4-1.3-.2-3.3.6-2.6,1.7-8.2-.9-16.3-.9-24.2,1.2-10.3,2.8-21,8.1-31.1,4.6-7-2.5-12.3-9-19.7-10.3-3-.5-6.2-.1-9.2-.8-4.5-1.1-8.3-4.6-12.9-5.4v2.3c0,7.2-7.8,12.7-14.1,16.2-2.8,1.5-5.9,2.4-9,3.2-14.8,4-29.9,8.1-45.2,7.7-4.5-.1-10,0-12.1,3.9-2.8-.2-5.2.9-7.9,1.8-4.1,1.5-8.2,2.9-12.3,4.4-1.4.5-2.7,1-4.2,1.2-1.6.3-3.2.3-4.8.5-5.8.8-11.1,4.1-16.9,5.2.2,3.2.9,6.1,2.7,8.8,38.9-2.7,78,2.5,116.7,7.7,17.8,2.4,35.5,4.8,53.3,7.1,62,8.3,118.9,33.8,180.4,45h.2v-.1Z" style="fill: #292929;"/>
            <g class="bottomrail3-right">
              <rect x="626.5" y="267.7" width="3.5" height="38" style="fill: #acacac;"/>
              <rect x="689.3" y="276.7" width="3.5" height="16" style="fill: #acacac;"/>
              <path d="M697.2,276.1h-25.5v.3l-55.2-13.8v.3h-12.8v3.1h13.8v-.3l54.3,13.5h25.5c.9,0,1.6-.7,1.6-1.6s-.7-1.6-1.6-1.6h0l-.1.1Z" style="fill: #acacac;"/>
            </g>
          </g>
        </g>
      </g>
      <g class="handrail-top">
        <rect x="523.4" y="137.4" width="81.1" height="3.3" style="fill: #b9b9b9;"/>
        <rect x="523.4" y="129.5" width="81.1" height="3.3" style="fill: #b9b9b9;"/>
      </g>
    </g>
    <g>
      <g class="bottom-walls">
        <path d="M1016.4,361.7l.2-1.4c0-.3,0-.5-.2-.8v2.1h0v.1Z" style="fill: url(#uuid-e2b4cc29-bb05-419c-b1c9-2d619a06e8ec);"/>
        <path d="M645.7,299.5v30.9c0,2.3,1.9,4.3,4.2,4.3,205.7,2.9,457.1,58.8,457.1,71.4l.2,1.4v-38.7l-.2-.2c0-12.6-252.6-69.1-459.4-71.4-1.1,0-1.9,1-1.9,2.4h0v-.1Z" style="fill: #4c4c4c;"/>
        <path d="M482.9,298.6c0-1.3-.9-2.4-1.9-2.4-206.8,2.4-459.5,58.8-459.5,71.5l-.2.2v38.7l.2-1.4c0-12.6,251.5-68.5,457.1-71.4,2.4,0,4.2-1.9,4.2-4.3v-30.9h.1Z" style="fill: #4c4c4c;"/>
      </g>
      <g>
        <path class="bottombush1-left" d="M442.8,306c2.4,1.4,8-4.3,10.6-5.6-2.1,1.9,2.4,5,4.5,3.1,0,2.3,2.7,4.4,5.7,4.3s5.5-2.4,5.3-4.7c-1.9,1.2-.4,4,2,4.2s4.7-1.5,5.3-3.4.2-3.9-.3-5.8c2.4,1.7,7.1-.5,6.3-3,.8.2,1.6.3,2.4.2,2.9-.3,3.1-4.5.3-5.3s-3.1-1-4.7-1.2c-3.2-.4-7.5,2.1-5.7,4.2-2.8-1-5.5-2-8.3-3-1,1.7.3,3.9,2.5,4.3-3.4,0-6.8.2-10.2.3.6-3.2-.1-6.5-2.2-9.2-1.3.7.3,2.8,1.7,2.1-1.5-3.7-12.2,2.8-12.7,6.7-3.3-1.3-7.8,0-9.2,2.8-1.1-2.4-6.4-7.6-5.9-5.1-2-5.1-11.7-.8-17.1,2.5-.6-3.7-6-6.4-10.6-5.2-1.4.4-2.9,1.5-2.3,2.5-.5-1.5-4-.3-3.1,1-.8-1.8-2.8-3.2-5.1-3.6,1.9-1.5,1.6-4.4-.6-5.5s-5.7-.2-6.7,1.8c2.4-3.2-2.4-6.6-6.5-8.3-4.1-1.7-8.2-3.4-12.3-5.1-3-1.2-8.1-1.7-8.5,1-.7-1.8-1.4-3.6-2-5.5-3.8.5-6.2,4.4-4.3,7-2.5-.5-1.1-4.3,1.4-3.6-.7-6.8-11-11.8-19.1-9.2-4.5-5.3-13-8.3-21.1-7.6l-.9,2.8c1.5-5.2-7.3-9.9-12.9-6.9-2.2-1.2-4.8-1.8-7.5-1.7-.5,1.3-.5,2.6-.3,3.9-2.5-1.7.5-5.7,3.6-4.7,1.9-1.8-.9-5-3.7-4.1-1.4-2.8-5.8-4.4-9.5-3.5-2.3-7.1-9.1-13.1-17.7-15.7-.3,1.2-.5,2.4-.8,3.6-1.7-.4-3.5-.3-5.1.2,0,3,0,6.1-.1,9.1-1.7-2.6-4.5-4.8-7.9-6.2l-.5,5.9c-2.1-2.9-3.6-6-4.3-9.3,1.9-.3,3.6-1.2,4.8-2.4-3.1-1.2-6.7-1.5-10-.9.9-3.1-4.1-6-7.6-4.4.6-2.2-1.7-4.2-4.4-4.8s-5.6,0-8.3.5c-1.9.4-4.4,1.6-3.4,3-1.2-.8-2.9-1-4.4-.6-.1,1.1-.2,2.3-.4,3.4-3-3.3-6.9-6.6-12-7.3s-11.3,2.5-10.7,6.5c-7.1-4.3-16.1-6.7-25.1-6.7s-4.4.2-6.1,1.2-2.4,3.2-.9,4.4c-2.9.2-5.9.3-8.8.5-.4,2-.4,4.1,0,6.1-4.2-.7-8.4-1.5-12.4-2.5-.8,5.5.5,11.1,3.6,15.9-3.9-1.3-8-1-10.4,1.8-1.4-1.2-3.5-1.8-5.5-1.6-.6,1.4-1.2,2.8-1.8,4.2-3.2-.5-6.5-1-9.7-.6s-6.5,1.9-7.7,4.3c-5.3-.4-10.8,3.1-11.4,7.3-5.8,1.6-9.9,6.4-9.5,11.1-1.8.8-2.7,2.7-1.8,4.2,2.6-.4,5.3-.2,7.8.5-4.2,1.4-9.2,3.9-8.2,7.4.6,1.8,2.8,3,5.1,3.3s4.6,0,6.9-.4c-2.2.9-4.5,2-5.6,3.8s-.3,4.4,2.1,4.9c.7.2,1.5.2,2.1.5s.7,1.2,0,1.4c-3.2-.4-4.6,1.9-7.5,3.1s-4.6,4.5-2.4,6.3c-4.9-4.2-14.3-4.5-19.8-.6.7-3.9-5.5-7.2-9.8-5.2-2.4,1.1-3.8,3.3-4.8,5.3-3.1,6.5-4.6,13.4-4.3,20.3-5.6,2.5-9.6,7.3-10,12.3-4.9.7-8.1,5.5-6,9.1-4.5,4-6.1,9.8-4.1,14.8s4.2,5.1,7.2,3.9c-4.5-.2-9.6,0-12.5,2.7-1.4,1.3-2,3.1-2.4,4.8-1.3,5.4-1.2,11,0,16.4-2-1.2-5.6.5-5.2,2.5,4.1,1.8,9.7,1.3,13.2-1.2-1.5.8-2.5,2.1-2.7,3.5,2.9,1.2,6.8,1,9.3-.7s3.7-4.6,2.8-7.1c3.6,2.5,11.3-.3,13.2-3.9-.5,1.2-.9,2.5-1.4,3.7,4.3.8,9.1-2.1,9.2-5.6,1.4,2,5.2,2.7,7.6,1.4,2.4-1.3,3-4.4,1.2-6.1,6.1-1.1,8.4-8.6,3.6-11.7,4.7,1.7,11-1.2,11.7-5.2.8,1.9,3.7,2.9,6.3,2.6,2.6-.3,4.9-1.5,7-2.6-.4,2.2,3.5,3.1,6.3,2.9,5.9-.5,11.7-2.1,16.7-4.6-1.1,1.6,2.2,2.7,4.5,2.6,4.7-.2,10.1-.7,13.1-3.6,4.2,1.8,9.9,1,13.2-1.9,7.6.2,15.3-1.4,21.9-4.6.9-.4,1.8-1,2-1.8s-.9-1.7-1.8-1.3c3.8,1.1,8,1.3,11.9.6.7-2.8-.7-5.7-3.4-7.5.3,1.1,2.5.7,3.1-.2s.5-2.2,1-3.2c2.3-4.3,13.1-.6,15.4-4.9,0,3.9,2.5,8.6,2.4,12.5,5.4-.3,10.7-2.5,14.1-5.8-2.2.3-2.8,2.8-1.3,4.1s3.9,1.5,6,1.3c3.2-.3,6.3-1.2,8.9-2.6-1.5.2-1.6,2.1-.4,2.8s2.8.7,4.3.6c3.5-.2,8.1-1.2,8.4-3.9-.9.4-.8,1.6,0,2.2s2,.6,3.1.7c3.2.2,6.5.3,9.5-.7s5.4-3.5,4.7-6c.4,1.6,3.1,1.7,5.1,1.5,2.6-.2,5.3-.5,7.6-1.6s3.8-3.4,3-5.3c-.9-2-3.8-2.8-6.4-3.4,6.7.1,13.6-1.6,20.1-3s12.7-4.6,15.6-9.3v3.5c8,2.1,17.9-2.2,20-8.7-.7,1.6,1.7,3.2,3.8,3s4-1.3,5.6-2.4c.6,2.3-.3,4.8-2.2,6.6,3.9.7,8.2-.7,10.5-3.3-2.3-.4-3.7,2.5-2.3,4s4.1,1.8,6.5,1.9c3.7.3,8.4,0,9.8-2.7-2.4.6-2.4,3.6-.5,4.8s4.7,1.1,7.2.8c1.9-.2,4.5-1.5,3.5-2.8-2.1,4.3,3.5,9.5,9.3,8.5,5.7-1,8.4-7.6,4.4-10.9,0,.9,1.1,1.6,2.1,2,3.6,1.5,8.5,1.6,11.7-.6s3.3-6.8-.3-8.4c-.4,1.1,1.1.7,2.3,1.2s2.8.5,4.2.5c3.7,0,7.8,0,10.4-2.1-.9,1.3-1.8,2.6-2.6,3.8-.3.4-.5.9-.2,1.2.2.3.7.3,1.1.4,2.6.3,5.2.5,7.7,0s4.7-2.4,4.7-4.4c-.1,1.5-.3,3-.4,4.6,0,.4,0,.8.2,1.1.3.4,1,.5,1.7.5,2.6.2,5.4.3,7.8-.6s4.2-3.3,3-5.1c-1.2.9-.6,2.6.7,3.3s3.1.7,4.7.7,4.4-.3,6.5-.5c2.1-.3,4.4-.7,6-1.8,13.7-9.6-4.2-10,1.1-4.6-2-.5-2.7.7-4.2,1.9h0l-.2-.3h.2Z" style="fill: #1f1f1f;"/>
        <path class="bottombush2-right" d="M697.4,298.6c2,3,5.5,3.8,8,2-2,4.2-2.5,9.8-1.2,14.7.4,1.6,1.1,3.2,2.3,4,2.4,1.6,4.8-1.2,7.3-2.5,2.8-1.5,6-.7,9-1.7s5.6-5.4,3.9-8.8c.2,1.3.4,2.6.7,3.8,4.8.3,9.6.6,14.4,1,2.5.2,5.3.3,7.3-1.6s2.6-6.6.4-8.5c3.2.2,6.5-1.4,8.8-4.4,6,3.1,13.2.9,17.3-5.3,1,3.1.7,6.9-.9,9.5,2.1.8,4.4,0,6-1.9-2.4,1.9-3.3,6.6-1.8,10s5,4.8,7.5,3.1c-1.2,3-.4,7.2,1.8,9.1s5.3,1.5,7-1.1c2.2,3.7,6,5.5,9.3,4.6,0-1.5,0-3,.2-4.4,5,3.1,11.5,0,13.6-6.4,2.8,4,8.5,3.2,10.3-1.6,4.2,3,9.1,3.9,13.6,2.5v-3.9c6.9.2,13.9.4,20.8.6,2.7,0,6.4-1.6,5.6-5,0,2,.2,4,.3,6,4.1,1.1,8.3,2.2,12.4,3.4-2.7.2-5.2,3.3-4.9,6.9.4,3.6,4.5,5.7,6,2.9.6,4.6,5,6.5,8.5,6.5s7.4-.9,10.3,1.9c0-3.8.2-7.6.4-11.4-.4,1.8,1,4,2.4,3.7-.2-2.8-.3-5.5-.5-8.3,3.5,2.7,10.2,10.8,12.1,6.3-1.3,4-2.6,8-4,12,5.2-.8,10.3-3.3,14.6-7.2-1.2,2.2-2.3,4.4-3.5,6.6,4.3,5.1,11.9,4.1,15-2.1-3.4,4.2-3.1,12.4.5,16.6s9.8,3.3,12.4-1.8c-.5,1.6-.3,3.6.6,5,1.9.8,4,1.7,5.8.8s2.8-4.5,1.3-6.2c3.1,6.5,11.8,5.2,13.4-2,0,1.8.2,3.5.3,5.3,4.4,3.4,10.3,3.1,14.3-.7-1.4,3-2.7,5.9-4.1,8.9,4,2.6,10,4.4,11.5-1,.4-1.3.3-2.7.3-4-.2-8.2-.4-16.4-.6-24.5-16.1-8.7-33.4-24.1-42.2-40.9-9.9-18.8-95.8-18.3-117.3-20-16.5-1.3-28.8-12.9-45.3-14.7-17.4-2-3.5,11.3-20.9,12.3-32.7,2-48.2,6.9-76.1,28.4,1.7-.4,5,1.9,6.2,3.6h-.3l-.1-.1Z" style="fill: #191919;"/>
      </g>
    </g>
    <path class="bottombush3-right" d="M1013.3,343c-.9,3-1.2,6.2-.7,9.2,0,.4.2.8.5,1.1.6.4,1.5,0,2.2-.4,1.4-.9,2.7-1.9,3.9-3-.9,4.6-.6,9.6,2.1,13.6,2.7,4,8.2,6.6,13.3,5.2,0-.9.6-1.8,1.5-2.3.5,1.5-.4,3.2-1,4.8-1.6,4.3-.9,9.2,2,12.8,1,1.2,2.4,2.4,4.1,2.2.8,0,1.6-.5,2.2-.9,3.9-2.5,6-7,5.3-11.1,6.5-1.8,9.6-10.8,8.3-16.6,3,2.7,8.2,3.3,12.1,1.3,0,2.8,0,5.7.2,8.5,1.5-1.8,3.5-3.3,5.6-4.4.4,2.1.8,4.2,1.2,6.3l11.2-1.5c.3-1.2.5-2.3.8-3.5.7,2.4.8,4.9,0,7.4,5.4.8,11.1,0,16-2.3.8,1.9,6.9,4.4,9.1,3.9s3.9-2.5,3.7-4.5c5.9-.5,11.5-4.3,13.4-9.4s0-10.9-4.5-14.2c.9,1.8,4.6.7,5-1.3s-1.1-3.9-2.7-5.3c-4.2-3.9-9.3-6.9-14.9-9,4.1-3.6,1.8-10.8-3.8-11.8,2.6-2.8.6-7.3-2.9-9s-7.8-1.4-11.8-1.1c2.3-5.2.6-11-4-14.6-1.4-1-3.1-1.6-4.9-2.1-4.9-1.4-9.9-2.5-15-3.3,5,1,10.2,1.4,15.4,1.2,2,0,4.2-.2,5.9-1.3s2.5-3.4,1.2-4.7c-.7-.7-1.8-1-2.8-1.3-4.1-1-8.2-2.1-12.3-3.1,2.6-1.9,5.2-4.4,5-7.3s-5.2-4.9-7-2.4c1.2-3.3-3-9-6.4-10.5-3.6-1.6-8.2-1.8-11.8,0s-5.5,6.3-3.7,9.4c1.1-3.5,5.9-6,5.2-9.5-.4-2.1-2.9-3.5-5.3-3.7s-4.9.6-7.2,1.4c2.9-2.7,5.3-6.2,4.6-9.8-.7-3.5-6.1-6-9.2-3.5,2.1-2.6,1.8-6.4-.6-8.7-2.4-2.2-6.7-2.7-9.7-1,1.8-4.5-.5-11.4-4.6-14.2s-10.3-3-14.8-.4c-.5-2.2-1-4.4-1.6-6.5-4.6-.3-9.4.8-13.4,3,1.4-3.1-1.5-6.4-5-7.4s-7.3,0-10.9.7c1.7-1.5,1.5-4.1,0-5.7s-3.7-2.4-6-3.1c-4-1.2-8.2-2.1-12.5-1.5-3-1-12-5-15.2-4.6-3.3.3-6.6,2.5-6.8,5.4-.5-2.2-1-4.5-1.4-6.7-6.3-.1-14.3.7-16.7,5.9-1.6-3.6-6.3-5.9-10.7-5.2s-8.1,4.3-8.4,8.2c-5.1-.8-15.8-3.1-20.8-1.5-4.9,1.6-9.1,6.4-7.5,10.7-.4-3.3-.7-6.5-1.1-9.8-5.9-.8-12.4,1.8-15.7,6.4-2-3-7.5-3.2-10-.4s-.8,7.5,2.9,8.4c-2-2-4-4-6.7-5.2s-11.2-1-8.6.4c2.9,1.6,2.6,5.4-.2,6.9,0-3.7,10.5,4.5,6.5,3.6s.1.6-2,3.9c26.8,45.8,54.4,22.9,101.5,53.2,4.5,2.9,16.5,38,21.8,39.3,7.1,1.7,6.6,14,14,14.4,10.1.6,28.1,5,34.8,11.4h0l.2.5h.1Z" style="fill: #232323;"/>
    <path class="bottombush4-right" d="M1032.5,336.9c2,.5,4.2.6,6.2.2-.3-2.7-.9-5.3-1.9-7.8-.6-1.6-1.4-3.3-2.7-4.4-.5-.4-1.2-.8-1.8-1,.8-.2,1.7-.4,2.5-.8,0-1.4,0-3.4-.3-4.8.2.2.5.2.7,0,.3-.3.3-.8.3-1.3-.5-6.7-4.4-13.1-10.1-16.6-.6-.3-1.2-.6-1.8-.6h0c.4-1.1.3-2.3-.2-3.4-.7-1.5-2.1-2.6-3.6-3.5-1.9-1.2-4-2.2-6.2-2.8-.7-.2-1.5-.2-2.1,0,1-2,.3-5-1.4-6.6-1.8-1.6-4.1-2.2-6.5-2.6-.8-5.6-2.9-10.8-6.2-11.8.4-2.1.2-4.7-1.2-5.7-1.9-2.4-5.4-2.7-7.5-.6-.2-1.8-1.1-3.5-2.4-4.4-.4.7-.8,1.3-1.1,2,.2-1.5-2.1-2.3-2.6-.9,1.2-4.5,1.5-11.5-3.2-13-1-.3-2.4-.3-2.7-1.5-.7.6-1.1,1.4-1.3,2.4-.4-3.3-4.5-7.4-6.1-3.2-.4-1.5-2.2-2.1-3.2-1.1-.4-7.2-4.1-13.9-9.6-17.1-.3-.3-.8-.4-1.2-.2.4-3.1-4.4-3.6-3.8.4,0-4.2-10.8-9.1-10.5-2.8-6-7-7.1-.9-8.2,5.8-1-1.1-.7-3.1-1.2-4.7-1-3.6-5.6-3.4-6.3.3-3,1-6.7-.9-9.8-.7s-6.8,3.3-5.7,6.8c-1.5-1.9-.4-6.7-3.3-7.1-2.6,0-1.9,5.9-4.4,6.8-5-3.4-11.4-6.2-17.1-4.4-1.8,1.2-1.8,4.5-3.6,5.7-1.8-6.1-10.7-8.1-11.4-.5-3-4.8-9.9-2.5-12.5,1.7.6-6.9-6.2-7.9-4.6-2.8-.8-3.8-10.6-4.9-10.4,0-.5-1.9-2.4-3.3-4-2.8,0-2-1.9-5-3.4-2.9-1,5.8,0,12.2-1.3,17.9-2.9.3-6.1,2.1-6.1,6.1-1.6-1.8-3.4-3.4-5.3-4.7-.6,2.2-.8,4.4-.6,6.7-.6-.5-1.3-.9-2-1v5.9c-.7-.3-1.4-.6-2-.9.8,4.8-3,1.7-5.4,1.8,4.9-6.8-3.2-11.7-4.6-9-.2-3.1-6.7-3.5-6.2.1-.5-1.7-2.7-2.4-3.8-.9-.8-1.9-1.3-4-2.8-5.3-2.4-2.1-7.7-5.2-6.1,1-3.4-2.4-8-1.9-11,1.1-.2-1.3-.5-2.6-.7-3.9-1.6-.7-3.7.9-3.6,3-4.2-2.2-12-2.3-12.1,4.8-2.6-4.2-8.4-.6-7.1,4.3-4.4.3-8.6,3.3-10.7,7.8-.7-2.1-1.6-4.4-3.4-5.2-1.7-.7-3.9,1.2-3.4,3-1.4-3-5.6-1.4-5,2.2-3.4-2.4-10.5-2.4-9.8,3.9-3.5-4.9-10.2-5.9-14.7-2.3-2.9-4-5.4,1.9-4,5.6-1.6-3.5-6.6-2.2-8.2,1.2s-1,7.7-.3,11.6c-1.7-6.1-13-12.2-13.6-2.7-1.2-2.6-3.8-.2-5.1,1-2.5,1.5-8.3,3.5-5.9,7.9-2.8-3.1-6.5-1.5-9.4.5-1.6.3-5.4-.4-4.8,2.7-3.1-1.5-8.2-2.1-9.2,2.6-2.4-.6-7.9,1.3-6.2,4.9-2.7,1.6-6.7,2.1-8.2,5.5-.7,1.9.8,4.8,2.4,4-4.1,7.7,8.2,6.1,6.5-.4,2.2-1.1,3.6-4,3.4-6.8.4,2.9,3.4.9,3.7-1.2,2.7,2.2,7,.7,8.2-2.9,1.8.9,4.1.5,5.7-.9,0,.8-.3,1.6-.7,2.3,2,0,4-1,5.2-2.9-.2.8-.4,1.5-.7,2.3,2.7,1.2,5.9.8,8.4-1,2.3,4,8.4,5.2,11.5,2.1,1.3,1.3,3.7-1.1,3.8-2.8v2.8c2.2-.8,4.5.3,6.8.2,2.3-.2,4.8-3,3.5-5.2,1.5.3,3.1-.8,3.7-2.4-1.4,8,15.7,6.6,12.6.9,1.1,1.1,3.2.9,3.9-.7l-.4,2.7c2.4-.8,10.1,2.3,8.5-2.7,1.9,1.4,4.4-1.7,3.6-3.9,1.9,3.5,5.2-.3,3.7-3.3,1.4,1,3.3,1.2,4.8.2-.4,2.1-1.3,4.1-2.5,5.7h6.5c-1.6,4.6,3.8,6.8,4.8,3.5,1,3.2,5.9,3.5,6.5-.8.5,5.5,7.8,4.3,7-1.1,2.5,1.4,7.6-2.2,6.1-4.9,4,2.6,8.3-3.5,3.6-6.3,3.3,1.2,9.2-4.7,5.3-7.2,2.9-.8,3.2-8.9.4-9.3,1-1,.6-3.3-.4-4.8,1.8-.8,4-2.3,5-2.6-1.8,1-3.1,3-3.4,5.2,3.2.3,6.5.2,9.7-.3-1.9.7-1.8,4.4,0,5.8,1.5,1.3,3.5,1.2,5.4,1-.4.3-.5,1.1-.2,1.6,2.4,1.5,5.7.2,8.4.6-3.6,3.6-2.5,5.9,2.1,5.8-2.5.8-5.7,5.1-2.5,7.2-2-.6-4.1,1.4-4.2,3.8,2,0,3.9.1,5.9.1-2.2,4,3.7,3.7,5.9,3-.4,1-.9,1.9-1.3,2.9,3.3.2,21.6,10.7,18.8,1.3.6,2.6,3.9,1.7,6.1.8,3.4-.5,10-3.4,6.8-8.3,1.5-1.8,1.5-4.7.5-6.9.2,0,.3,0,.5-.1,3.2-1.3,3.3-6.5,5.8-8.8,0,2.9,4,4.1,5.1,1.5,2.3,2.1,5.9,1.9,8-.5.2,2.6-.8,5.4-2.5,7,.6.5,1.4.7,2.1.5-1.9,1-2.8,5.3,0,5-1.6,1.4-2.8,3.4-3.4,5.5l3.3.5c-.9,4.7,4.6,7.8,7.2,4,1.4,3.8,8.3,3.8,9.4-.1-.3,1.4,1.5,2.4,2.6,1.6.9-.7,1.3-2,1.5-3.2-.5,6.1,14.2,11.5,12.4,3,.3.1.7.2.9-.2.3-.6.5-1.3.4-2.1,1.8,3.5,5.1,5.8,8.5,6.8,4.6.4,13.5,3.4,13.7-4.3,1.8,3.4,4.8-.8,7.7-5.8,1.1,3.4,2.4,6.8,3.7,10.1.4,1,.9,2.1,1.8,2.5,1.1.5,2.5-.1,3.2-1.2.7-1,1-2.3,1.2-3.6-.2,2.7,1.3,5.5,3.7,6.6s5.4.6,7.3-1.2c-.7,7.3,1,14.9,4.8,21.1,1.2,2,2.9,4,5.2,4.4,2.1.3,4.4-1.8,4-3.8,1.6,5.1,3.7,10,6.1,14.7.7,1.4,2.1,2.9,3.4,2.1.8-.5.9-1.5,1.2-2.4s1.1-1.9,1.9-1.5c-1.4,2.6-1.2,6,0,8.8,1.1,2.8,3.1,5.1,5.2,7.2,1.4,1.4,3.9,2.7,5,1-.8,2.2-1.5,4.5-2.3,6.8-.2.6-.4,1.2-.3,1.9,0,.6.4,1.2.8,1.7,1.2,1.8,2.5,3.6,4.4,4.3,1.8.6,4.3-.4,4.6-2.3-.4,4.5,1.3,9.2,4.5,12.2,1.4,1.3,3.8,2.2,5,.8.4-.5.6-1.2.7-1.9.5-2.4.8-4.8,1.2-7.1,2,3.6,0,8.7,2.6,12,2,2.7,5.9,2.8,9.2,2.7.6,0,1.2,0,1.6-.4,2.1-1.4-.8-5,.4-7.2.6,4.5,5.2,8,9.6,7.3.6-5.9,1.1-12.4-.2-18.2.2.5.4.9.6,1.4,1.5,1.4,4.1.2,4.9-1.7s.3-4.1-.2-6.1c-.6-2.3-1.2-4.8-2.9-6.4-.2-.2-.4-.3-.6-.5,1.1.4,2.2.5,3.3.5,3,0,6-1.1,8.7-2.4.3-2.9.5-5.9-.3-8.8-.6-2.1-2-4-3.8-5h0l-.6.2h-.2ZM1020.1,349.1c0,.2.3.5.5.7-.2-.2-.3-.4-.5-.7Z" style="fill: #353535;"/>
    <path class="bottombush2-left" d="M481.3,289.4c-.7-1.2-2.4-2-4-1.7,1.4-1.1.6-3.2-1-4s-3.7-.7-5.6-.6c-2,.1-4.1.2-6.1.4-.1-.6-.2-1.2-.3-1.7-4.8-.6-9.9.6-13.6,3.2,0-.3-.1-.5-.2-.8-4.3,0-8.5,1.2-11.7,3.6-2-2.3-6.3-2.8-9-1.1-.4-1.4-1.8-2.6-3.4-2.9-1.7-.3-3.5.3-4.6,1.4-.1-1-.3-2.1-.9-3s-1.9-1.5-3.1-1.3c-.1-1.8-3-2.7-4.7-1.8.9-.9,1.3-2.3.7-3.4-.6-1.2-4.4-2.3-6.4-2.2h0v-3.2c0-.4,0-.7-.3-1-.3-.2-.7-.3-1.1-.3-3.9-.5-8-.3-11.8.4v-2.6c0-.3,0-.6-.2-.8-.2-.2-.6-.3-1-.3-1.5-.1-3.1-.2-4.6,0-.7,0-1.4.2-2,.5.3-1.3.3-2.5-.9-3.3-.4-.3-.9-.5-1.4-.6-2.3-.7-4.9-1-7.3-.8,0-1-.2-1.9-.7-2.9-1.4-2.8-5.1-4.5-8.7-4.9s-7.3.2-10.9.8c1.5-3-.7-6.6-4.2-8.1s-7.7-1.2-11.4-.2c1.2-1.6-.1-3.9-2.1-4.7s-4.5-.6-6.7-.3h-1.1v.2c-.3,0-.5.1-.8.2-.9-4-7.1-7.1-11.5-4.8-1.9-1.2-4.3-1.9-6.7-1.9-.5,1.2-.6,2.4-.4,3.7-2.2-1.7.7-5.4,3.4-4.4,1.8-1.6-.6-4.8-3.2-4.1-1.2-2.7-5.1-4.4-8.5-3.7-1.8-6.8-7.8-12.8-15.5-15.7-.3,1.1-.6,2.3-.8,3.4-1.5-.4-3.1-.4-4.7,0-.1,2.9-.3,5.8-.5,8.7-1.5-2.6-3.9-4.8-6.9-6.2l-.7,5.6c-1.8-2.8-3-5.9-3.5-9.1,1.7-.2,3.3-1,4.4-2.1-2.7-1.3-6-1.7-9.1-1.2.9-2.9-3.5-5.8-6.7-4.5.7-2-1.4-4.1-3.8-4.8-2.4-.6-5-.2-7.5.2-1.8.3-4.1,1.4-3.2,2.7-1.1-.8-2.6-1.1-4-.7-.1,1.1-.3,2.2-.4,3.3-2.6-3.3-6-6.5-10.6-7.4s-10.4,1.9-10,5.8c-6.3-4.4-14.3-7-22.5-7.4-1.9,0-4,0-5.5.9-1.6.9-2.3,3-1,4.1-2.7,0-5.3,0-8,.1-.5,1.9-.5,3.9-.1,5.8-3.8-.8-7.5-1.8-11.2-2.9-.9,5.2,0,10.6,2.7,15.3-3.5-1.4-7.2-1.3-9.5,1.4-1.2-1.2-3.1-1.8-4.9-1.8l-1.8,4c-2.9-.6-5.8-1.2-8.8-.9-2.9.3-5.9,1.5-7.2,3.8-4.8-.6-9.8,2.5-10.6,6.5-5.3,1.3-9.2,5.7-9,10.3-1.7.6-2.5,2.5-1.8,3.9,2.4-.3,4.8,0,7.1.8-3.8,1.1-8.5,3.4-7.6,6.7.4,1.7,2.4,2.9,4.5,3.3s4.2.2,6.3,0c-2.1.8-4.2,1.8-5.2,3.4-1,1.7-.4,4.1,1.7,4.8.6.2,1.4.2,1.9.6s.6,1.2,0,1.3c-2.9-.5-4.2,1.7-6.9,2.7-2.7,1-4.3,4.1-2.4,5.9-4.3-4.2-12.7-4.8-17.9-1.3.6-2.9-2.6-5.6-6-5.8-.3-1.4-.8-3-2.3-3.8-1.4-.7-3.7,0-3.7,1.3-.5-1.1-2.8-1.2-3.8-.2-1.1,1.1-.9,2.8-.5,4.2,0-1.1-1.7-1.4-3-1.4-2,0-4.1-.1-6.1-.2-1.2,0-2.5,0-3.5.4-1,.5-1.7,1.7-1,2.5-1.5-1-3.5-.9-5.4-.7-1.2,0-2.3.2-3.4.6s-1.8,1.4-1.6,2.3c-6.1-1-12.7,3.3-13,8.4-1.3-2-4.9-2.3-7.2-1-2.3,1.3-3.3,3.6-3.6,5.9-.3,3.1,1.3,6.7,4.9,7.3-6.2,1.8-11.1,6.5-12.2,12-.2,1.2-.3,2.4.3,3.5s2,1.9,3.4,1.8c-2.7.8-6.6-.9-8.3,1.1-.5.6-.6,1.5-.6,2.3,0,2,.7,4.5,3,4.9-3.9,0-6.6,3.7-6,6.9s3.6,5.7,6.6,7.8c-2.4-.5-3.7.8-5.7,2.1-1.1.7-2.3,1.5-2.6,2.6-.3,1.1.9,2.6,2.2,2.3-.7.2-1.4.3-2.1.5v4.6c1.3.5,2.7.6,4.1.3-1.3.8-2.1,2.2-2.3,3.5-.3,2,.5,4.1,2.5,5.3,1.9,1.2,5,1.1,6.5-.5-1.5,1.6-.9,4.3,1.3,5.3s5.3,0,6.2-1.9c1.1.5-.7,1.8-.4,2.9.1.4.6.7,1,.9,2.1,1.1,4.3,1.9,6.6,2.5,2.2.6,4.7.9,6.8,0s3.5-3,2.4-4.7c.7.6,1.9.6,2.8.2.9-.4,1.4-1.2,1.9-1.9,1.2-2.1,1.7-4.6,1.3-7,3.9,2.3,9.4,1.7,13.7,0,1.9-.8,3.8-1.9,4.9-3.5,1-1.6,1.1-3.7-.4-5,2.1-.2,4-1.7,4.3-3.4.4-1.7-.8-3.6-2.7-4.4,4.6,1.5,10.4-1,11.8-4.9l-.2-.1c1.3.2,2.8.1,4-.4,2.4-.9,4.1-2.7,5.4-4.6,1-1.4,2-2.9,2-4.6s-1-3.4-2.9-3.9c1.3.2,2.2-1,2.6-2.1,1-2.3,2-4.5,2.9-6.8,0-.3.3-.7,0-1,0-.3-.5-.4-.8-.6l-2.5-1.1c1.5.4,3.4-.5,4.1-1.8.4-.8.5-1.6.4-2.5,1.3-.2,2.6-.4,3.8-.9,5-1.8,8.6-6.1,9-10.6h.2c.3,1.6.5,3.3.8,4.9,6.6-2.1,12.4-4,17.3-8.2-2,1.4-1.2,4.4,1,5.6s5.1,1.1,7.6.4c1.4-.4,2.7-.9,3.8-1.8,2.4-2.1,2.2-5.3,1.9-8.1.7,1.5,1.5,2.9,2.9,4s3.5,1.7,5.2,1c2.8-1.2,2.4-4.6,1.6-7.1,2.6,2.9,7.9,4.4,11.6,2.4,2.5-1.3,3.3-4.3,2.3-6.5.6,0,1.1-.2,1.7-.3.5,0,1-.2,1.6-.2,1.7,2.3,3.7,4.5,6.7,5.4,1.6.5,3.5.3,5-.3-.3,1.4.1,3,1.2,4.1,2,2.2,5.3,3.1,8.4,3.9,1.8.5,3.6.9,5.4.7,1.8-.2,5.3-.5,5.3-2,1.5,1.4,4.5,1.5,6,.2.3-2.1-.3-4.2-1.8-5.9,3.5.7,7.2-2.1,6.8-5,2.3.6,4.8,1.3,7.2.8,2.4-.6,4.3-2.9,3.1-4.7,1.9,1.3,4.3,2.2,6.7,1.9,2.4-.3,4.7-1.9,4.9-3.9.1-1.5-.6-3.5,1.1-4.1,1.3-.5,2.6.6,3.4,1.6,2.4,3,4.3,6.3,7.3,8.9,2.9,2.7,8.6,5.6,12.9,4.9.8,1,2.4,1.3,3.8,1.5,2.5.3,5.2.6,7.4-.4s3.2-3.9,1.2-5.2c4.6,1.5,10.5-1.8,10.4-5.9,3.4,1,4.6,5.3,8.1,5.5,1.9.1,3.6-1.2,4.3-2.7.2-.3.3-.7.4-1.1.9,2.5,3.5,4.8,6.5,6,2.9,1,7.3.6,7.7-1.9.9,3,1.7,6.1,3.8,8.7,2,2.6,5.5,4.7,9.2,4.5,4.7-.2,8.6-4.4,7.6-8.2,3,3.3,4,7.7,7,11s11.7,7.5,14.3,3.9c1.1,1.4,4,1,5.2-.4.6-.6.9-1.3,1.1-2.1.6.3,1.1.5,1.7.7,2.4.7,5.6,0,6.7-1.9-1.3,1.6-.2,4.1,2,4.9,2.2.7,4.9-.1,6.3-1.7,1.1-1.2,1.5-2.7,1.5-4.2.5,1.6,2,3,3.8,3.6,3.2,3.1,11.7-3.6,11-6.1,2,1.1,2.1,1.1,4.6,1.3,1.2,0,2.5,0,3.5-.5v1.3c.4,2.3,1.5,4.8,3.9,6.1,2.4,1.3,5.6-2,6.3-4.3,4,.6,5.7,4.5,8.7,6.8.3.2.7.5,1.2.4.9,0,1.1-1.1,1-1.9l-.5-6.1c2.7,3.1,6.9,5.4,11.5,6.3.4,0,.9.1,1.3,0,.8-.3,1-1.2,1-1.9v-4c.9.5.9,1.6,1.3,2.5.9,1.8,4,2,5.9,1s3-2.9,3.9-4.6c-.3,1.6,0,3.9,1.9,4.1,2,.2,5.3-2.6,6.5-1.2.5.6,1.4.8,2.2.9,2.2.4,4.7.2,6.3-1.1.9-.7,1.4-1.8,1.3-2.8.4.5.8.9,1.3,1.3,1.2.9,3,1.3,4.4.6,2-1,1.6-3.5.6-5.2.8-.3,1.6-.6,2.3-.9h0l-.3-.4h.1Z" style="fill: #353535;"/>
  </g>
</svg>