<?xml version="1.0" encoding="UTF-8"?>
<svg id="uuid-cb035f65-e9a1-4ba3-bb88-f2cc5980b3c2" xmlns="http://www.w3.org/2000/svg" xmlns:xlink="http://www.w3.org/1999/xlink" version="1.1" viewBox="0 0 1086.4 407.5">
  <defs>
    <style>
      .st0 { fill: #556B2F; }  /* Dark Olive Green */
      .st1 { fill: #556B2F; }  /* Dark Olive Green */
      .st2 { fill: #556B2F; }  /* Dark Olive Green */
      .st3 { fill: #556B2F; }  /* Dark Olive Green */
      .st4 { fill: #228B22; }  /* Forest Green */
      .st5 { fill: #228B22; }  /* Forest Green */
      .st6 { fill: #228B22; }  /* Forest Green */
      .st7 { fill: #228B22; }  /* Forest Green */
      .st8 { fill: #32CD32; }  /* Lime Green */
      .st9 { fill: #90EE90; }  /* Light Green */
      .st10 { fill: #8FBC8F; } /* Dark Sea Green */
      .st11 { fill: #2F4F2F; } /* Dark Sea Green */
      .st12 { fill: #2F4F2F; } /* Dark Sea Green */
      .st13 { fill: #2F4F2F; } /* Dark Sea Green */
      .st14 { fill: #2F4F2F; } /* Dark Sea Green */
      .st15 { fill: #2F4F2F; } /* Dark Sea Green */
      .st16 { fill: #2F4F2F; } /* Dark Sea Green */
      .st17 { fill: #2F4F2F; } /* Dark Sea Green */
      .st18 { fill: #2F4F2F; } /* Dark Sea Green */
      .st19 { fill: #2F4F2F; } /* Dark Sea Green */
      .st20 { fill: #2F4F2F; } /* Dark Sea Green */
      .st21 { fill: #228B22; } /* Forest Green */
      .st22 { fill: #228B22; } /* Forest Green */
      .st23 { fill: #556B2F; } /* Dark Olive Green */
      .st24 { fill: #556B2F; } /* Dark Olive Green */
      .st25 { fill: #556B2F; } /* Dark Olive Green */
      .st26 { fill: #556B2F; } /* Dark Olive Green */
      .st27 { fill: #32CD32; } /* Lime Green */
      .st28 { fill: #32CD32; } /* Lime Green */
      .st29 { fill: #32CD32; } /* Lime Green */
      .st30 { fill: #32CD32; } /* Lime Green */
      .st31 { fill: #32CD32; } /* Lime Green */
      .st32 { fill: #228B22; } /* Forest Green */
      .st33 { fill: #2F4F2F; } /* Dark Sea Green */
      .st34 { fill: #2F4F2F; } /* Dark Sea Green */
      .st35 { fill: #228B22; } /* Forest Green */
      .st36 { fill: #228B22; } /* Forest Green */
      .st37 { fill: #2F4F2F; } /* Dark Sea Green */
      .st38 { fill: #2F4F2F; } /* Dark Sea Green */
      .st39 { fill: #228B22; } /* Forest Green */
      .st40 { fill: #228B22; } /* Forest Green */
      .st41 { fill: #8FBC8F; } /* Dark Sea Green */
      .st42 { fill: #e8f5e8; } /* Light Background */
      .st43 { fill: #228B22; } /* Forest Green */
      .st44 { fill: #32CD32; opacity: .6; } /* Lime Green with opacity */
      .st45 { fill: #32CD32; opacity: .6; } /* Lime Green with opacity */
      .st46 { fill: #32CD32; } /* Lime Green */
      .st47 { fill: #FFD700; } /* Gold */
      .st48 { fill: #FFD700; } /* Gold */
      .st49 { fill: #FFD700; } /* Gold */
      .st50 { fill: #FFD700; } /* Gold */
      .st51 { fill: #FFD700; } /* Gold */
      .st52 { fill: #FFD700; } /* Gold */
      .st53 { fill: #8a8a8a; } /* Gray */
      .st54 { fill: #b9b9b9; } /* Light Gray */
    </style>
  </defs>
  <g>
    <path class="st0" d="m556.4,88.7c0,3.1-5.4,5.6-12,5.6s-12-2.5-12-5.6,5.4-5.6,12-5.6,12,2.5,12,5.6Z"/>
    <path class="st1" d="m556.4,93.2c0,3.1-5.4,5.6-12,5.6s-12-2.5-12-5.6,5.4-5.6,12-5.6,12,2.5,12,5.6Z"/>
    <path class="st2" d="m556.4,96.7c0,3.1-5.4,5.6-12,5.6s-12-2.5-12-5.6,5.4-5.6,12-5.6,12,2.5,12,5.6Z"/>
    <path class="st3" d="m556.4,100.5c0,3.1-5.4,5.6-12,5.6s-12-2.5-12-5.6,5.4-5.6,12-5.6,12,2.5,12,5.6Z"/>
    <path class="st8" d="m556.4,109.9c0,3.1-5.4,5.6-12,5.6s-12-2.5-12-5.6,5.4-5.6,12-5.6,12,2.5,12,5.6Z"/>
    <path class="st7" d="m556.4,105.4c0,3.1-5.4,5.6-12,5.6s-12-2.5-12-5.6,5.4-5.6,12-5.6,12,2.5,12,5.6Z"/>
    <path class="st6" d="m556.4,114.5c0,3.1-5.4,5.6-12,5.6s-12-2.5-12-5.6,5.4-5.6,12-5.6,12,2.5,12,5.6Z"/>
    <path class="st5" d="m556.4,118.4c0,3.1-5.4,5.6-12,5.6s-12-2.5-12-5.6,5.4-5.6,12-5.6,12,2.5,12,5.6Z"/>
    <path class="st4" d="m556.4,127.8c0,3.1-5.4,5.6-12,5.6s-12-2.5-12-5.6,5.4-5.6,12-5.6,12,2.5,12,5.6Z"/>
    <path class="st2" d="m556.4,133.2c0,3.1-5.4,5.6-12,5.6s-12-2.5-12-5.6,5.4-5.6,12-5.6,12,2.5,12,5.6Z"/>
    <path class="st29" d="m556.4,136.9c0,3.1-5.4,5.6-12,5.6s-12-2.5-12-5.6,5.4-5.6,12-5.6,12,2.5,12,5.6Z"/>
    <path class="st28" d="m556.4,141.4c0,3.1-5.4,5.6-12,5.6s-12-2.5-12-5.6,5.4-5.6,12-5.6,12,2.5,12,5.6Z"/>
    <path class="st31" d="m556.4,145.2c0,3.1-5.4,5.6-12,5.6s-12-2.5-12-5.6,5.4-5.6,12-5.6,12,2.5,12,5.6Z"/>
    <path class="st25" d="m556.4,132.7c0,5-5.4,9.1-12,9.1s-12-4.1-12-9.1,5.4-9.1,12-9.1,12,4.1,12,9.1Z"/>
    <path class="st24" d="m556.4,138.1c0,5-5.4,9.1-12,9.1s-12-4.1-12-9.1,5.4-9.1,12-9.1,12,4.1,12,9.1Z"/>
    <path class="st31" d="m556.4,144.2c0,5-5.4,9.1-12,9.1s-12-4.1-12-9.1,5.4-9.1,12-9.1,12,4.1,12,9.1Z"/>
    <path class="st26" d="m556.4,151c0,5-5.4,9.1-12,9.1s-12-4.1-12-9.1,5.4-9.1,12-9.1,12,4.1,12,9.1Z"/>
    <path class="st27" d="m720.8,407.5c14.1,0,25.5-4.3,25.5-9.5s-11.4-9.5-25.5-9.5-25.5,4.3-25.5,9.5,11.4,9.5,25.5,9.5Z"/>
    <path class="st30" d="m695.8,267.5c.9,1.8,1.7,22.5,1.7,46.2s-.9,43-1.9,43-1.9-19.3-1.9-43,.9-44.5,1.9-46.2h.2Z"/>
    <path class="st23" d="m542.5,328.4c-22.9-5.4-45.8-10.5-67.7-18.3-21.9-7.8-42.8-18.2-58.4-34.3s-26.9-37.1-26.4-59.8c.3-11.4,2.9-22.6,7.2-33.2,8.6-21.1,22.9-39.2,37.5-56.7,14.6-17.5,29.5-34.4,39.2-54.5,4.9-10.1,8.2-20.8,11.5-31.5,3.3-10.7,6.6-21.4,12.5-30.8,2.9-4.7,6.6-9,11.2-12.1s10.2-4.9,15.9-4.5c2.8.2,5.6,1,8.1,2.3,5,2.6,8.9,7.2,11.7,12.4,5.6,10.4,7.6,22.3,9.6,33.9,3.9,23.3,7.8,46.7,15.4,68.8,7.6,22.1,19.1,42.8,35.8,58.4,16.7,15.6,38.6,26.1,52.8,43.5,7.1,8.7,12.2,18.6,15.1,29.2,2.9,10.6,3.6,21.6,2.5,32.4-.6,5.4-1.6,10.7-3.2,15.8-1.6,5.1-3.8,10.1-6.7,14.6-2.9,4.5-6.5,8.6-10.8,11.9-4.3,3.3-9.3,5.9-14.7,7.3-10.8,2.8-22.2,1.1-33.1-.6-21.8-3.4-43.3-7.9-65.2-11.9Z"/>
    <path class="st32" d="m669.4,246.6c1.5.5,2.7,11.2,2.7,23.9s-1.2,23-2.7,23-2.7-10.4-2.7-23,1.2-23.4,2.7-23.9Z"/>
    <path class="st39" d="m715.3,295.1c.9,1.8,1.7,22.5,1.7,46.2s-.9,43-1.9,43-1.9-19.3-1.9-43,.9-44.5,1.9-46.2h.2Z"/>
    <path class="st40" d="m729.5,334.8c.9,1.8,1.7,22.5,1.7,46.2s-.9,43-1.9,43-1.9-19.3-1.9-43,.9-44.5,1.9-46.2h.2Z"/>
    <path class="st37" d="m765.5,244.6c.6.9.9,15.4.9,32.5s-.4,30.9-.9,30.9-.9-13.8-.9-30.9.4-31.6.9-32.5Z"/>
    <path class="st38" d="m726.4,233.3c.6.9.9,15.4.9,32.5s-.4,30.9-.9,30.9-.9-13.8-.9-30.9.4-31.6.9-32.5Z"/>
    <path class="st35" d="m484.5,295.1c-1.1,1.6-2.1,20.3-2.1,41.7s1,38.8,2.2,38.8,2.2-17.4,2.2-38.8-1-40.1-2.2-41.7h-.1Z"/>
    <path class="st36" d="m388.5,234.7c-1.1,1.6-2.1,20.3-2.1,41.7s1,38.8,2.2,38.8,2.2-17.4,2.2-38.8-1-40.1-2.2-41.7h-.1Z"/>
    <path class="st33" d="m969.1,227c1.5.5,2.7,11.2,2.7,23.9s-1.2,23-2.7,23-2.7-10.4-2.7-23,1.2-23.4,2.7-23.9Z"/>
    <path class="st34" d="m783.8,190.3c1.1,1.6,2.1,20.3,2.1,41.7s-1,38.8-2.2,38.8-2.2-17.4-2.2-38.8,1-40.1,2.2-41.7h.1Z"/>
    <g>
      <path class="st41" d="m543.5,171c-129.2,0-248.3,42.8-248.3,95.8s119.1,95.8,248.3,95.8,248.3-42.8,248.3-95.8-119.1-95.8-248.3-95.8Z"/>
      <path class="st42" d="m1086.4,407.5v-28.7c0-11.4-4.6-22.2-12.8-30.1-8.2-7.9-19.4-12.3-31.2-12.3H43.9c-11.8,0-23,4.4-31.2,12.3-8.2,7.9-12.8,18.7-12.8,30.1v28.7h1086.4Z"/>
    </g>
    <path class="st43" d="m538.2,178.9c5.7,0,10.3-2.3,10.3-5.1s-4.6-5.1-10.3-5.1-10.3,2.3-10.3,5.1,4.6,5.1,10.3,5.1Z"/>
    <path class="st44" d="m600.8,251.9c0,12.3-10,22.3-22.3,22.3s-22.3-10-22.3-22.3,10-22.3,22.3-22.3,22.3,10,22.3,22.3Z"/>
    <path class="st45" d="m532.3,297.5c0,12.3-10,22.3-22.3,22.3s-22.3-10-22.3-22.3,10-22.3,22.3-22.3,22.3,10,22.3,22.3Z"/>
    <path class="st46" d="m553.2,210.4c5.7,0,10.3-2.3,10.3-5.1s-4.6-5.1-10.3-5.1-10.3,2.3-10.3,5.1,4.6,5.1,10.3,5.1Z"/>
    <path class="st47" d="m543.5,185.1c0,57.4-46.5,103.9-103.9,103.9s-103.9-46.5-103.9-103.9,46.5-103.9,103.9-103.9,103.9,46.5,103.9,103.9Z"/>
    <circle class="st48" cx="439.6" cy="185.1" r="103.9"/>
    <circle class="st49" cx="647.4" cy="185.2" r="103.9"/>
    <circle class="st50" cx="543.5" cy="185.1" r="103.9"/>
    <circle class="st51" cx="647.4" cy="185.2" r="103.9"/>
    <circle class="st52" cx="647.4" cy="185.2" r="103.9"/>
    <path class="st9" d="m532.8,302.4c5.7,0,10.3-4.6,10.3-10.3s-4.6-10.3-10.3-10.3-10.3,4.6-10.3,10.3,4.6,10.3,10.3,10.3Z"/>
    <path class="st10" d="m549.4,345.6c5.7,0,10.3-4.6,10.3-10.3s-4.6-10.3-10.3-10.3-10.3,4.6-10.3,10.3,4.6,10.3,10.3,10.3Z"/>
  </g>
</svg> 