<?xml version="1.0" encoding="UTF-8"?>
<svg id="uuid-cb035f65-e9a1-4ba3-bb88-f2cc5980b3c2" xmlns="http://www.w3.org/2000/svg" xmlns:xlink="http://www.w3.org/1999/xlink" version="1.1" viewBox="0 0 1086.4 407.5">
  <!-- Generator: Adobe Illustrator 29.6.0, SVG Export Plug-In . SVG Version: 2.1.1 Build 180)  -->
  <defs>
    <style>
      .st0 {
        fill: url(#linear-gradient2);
      }

      .st1 {
        fill: url(#linear-gradient1);
      }

      .st2 {
        fill: url(#linear-gradient9);
      }

      .st3 {
        fill: url(#linear-gradient3);
      }

      .st4 {
        fill: url(#linear-gradient6);
      }

      .st5 {
        fill: url(#linear-gradient8);
      }

      .st6 {
        fill: url(#linear-gradient7);
      }

      .st7 {
        fill: url(#linear-gradient5);
      }

      .st8 {
        fill: url(#linear-gradient4);
      }

      .st9 {
        fill: #bfdbfe;
      }

      .st10 {
        fill: #eff6ff;
      }

      .st11 {
        fill: url(#linear-gradient38);
      }

      .st12 {
        fill: url(#linear-gradient32);
      }

      .st13 {
        fill: url(#linear-gradient39);
      }

      .st14 {
        fill: url(#linear-gradient34);
      }

      .st15 {
        fill: url(#linear-gradient37);
      }

      .st16 {
        fill: url(#linear-gradient35);
      }

      .st17 {
        fill: url(#linear-gradient33);
      }

      .st18 {
        fill: url(#linear-gradient36);
      }

      .st19 {
        fill: url(#linear-gradient40);
      }

      .st20 {
        fill: url(#linear-gradient41);
      }

      .st21 {
        fill: url(#linear-gradient28);
      }

      .st22 {
        fill: url(#linear-gradient29);
      }

      .st23 {
        fill: url(#linear-gradient18);
      }

      .st24 {
        fill: url(#linear-gradient13);
      }

      .st25 {
        fill: url(#linear-gradient12);
      }

      .st26 {
        fill: url(#linear-gradient15);
      }

      .st27 {
        fill: url(#linear-gradient16);
      }

      .st28 {
        fill: url(#linear-gradient11);
      }

      .st29 {
        fill: url(#linear-gradient10);
      }

      .st30 {
        fill: url(#linear-gradient17);
      }

      .st31 {
        fill: url(#linear-gradient14);
      }

      .st32 {
        fill: url(#linear-gradient19);
      }

      .st33 {
        fill: url(#linear-gradient23);
      }

      .st34 {
        fill: url(#linear-gradient22);
      }

      .st35 {
        fill: url(#linear-gradient24);
      }

      .st36 {
        fill: url(#linear-gradient25);
      }

      .st37 {
        fill: url(#linear-gradient21);
      }

      .st38 {
        fill: url(#linear-gradient20);
      }

      .st39 {
        fill: url(#linear-gradient27);
      }

      .st40 {
        fill: url(#linear-gradient26);
      }

      .st41 {
        fill: url(#radial-gradient);
      }

      .st42 {
        fill: url(#linear-gradient);
      }

      .st43 {
        fill: #bfdbfe;
      }

      .st44 {
        fill: url(#linear-gradient31);
      }

      .st44, .st45 {
        isolation: isolate;
        opacity: .6;
      }

      .st45 {
        fill: url(#linear-gradient30);
      }

      .st46 {
        fill: #bfdbfe;
      }

      .st47 {
        fill: url(#radial-gradient1);
      }

      .st48 {
        fill: url(#radial-gradient6);
      }

      .st49 {
        fill: url(#radial-gradient3);
      }

      .st50 {
        fill: url(#radial-gradient2);
      }

      .st51 {
        fill: url(#radial-gradient5);
      }

      .st52 {
        fill: url(#radial-gradient4);
      }

      .st53 {
        fill: #8a8a8a;
      }

      .st54 {
        fill: #b9b9b9;
      }
    </style>
    <linearGradient id="linear-gradient" x1="544.2" y1="313.2" x2="544.2" y2="303.4" gradientTransform="translate(0 410) scale(1 -1)" gradientUnits="userSpaceOnUse">
      <stop offset="0" stop-color="#eff6ff"/>
      <stop offset="0.4" stop-color="#bfdbfe"/>
      <stop offset="0.75" stop-color="#bfdbfe"/>
      <stop offset="0.9" stop-color="#eff6ff"/>
    </linearGradient>
    <linearGradient id="linear-gradient1" x1="544.2" y1="317.7" x2="544.2" y2="308.3" gradientTransform="translate(0 410) scale(1 -1)" gradientUnits="userSpaceOnUse">
      <stop offset="0" stop-color="#eff6ff"/>
      <stop offset="0.4" stop-color="#bfdbfe"/>
      <stop offset="0.75" stop-color="#bfdbfe"/>
      <stop offset="0.9" stop-color="#eff6ff"/>
    </linearGradient>
    <linearGradient id="linear-gradient2" x1="544.2" y1="321.5" x2="544.2" y2="313.3" gradientTransform="translate(0 410) scale(1 -1)" gradientUnits="userSpaceOnUse">
      <stop offset="0" stop-color="#eff6ff"/>
      <stop offset="0.4" stop-color="#bfdbfe"/>
      <stop offset="0.75" stop-color="#bfdbfe"/>
      <stop offset="0.9" stop-color="#eff6ff"/>
    </linearGradient>
    <linearGradient id="linear-gradient3" x1="544.2" y1="325.5" x2="544.2" y2="317.2" gradientTransform="translate(0 410) scale(1 -1)" gradientUnits="userSpaceOnUse">
      <stop offset="0" stop-color="#eff6ff"/>
      <stop offset="0.4" stop-color="#bfdbfe"/>
      <stop offset="0.75" stop-color="#bfdbfe"/>
      <stop offset="0.9" stop-color="#eff6ff"/>
    </linearGradient>
    <linearGradient id="linear-gradient4" y1="300.1" y2="290.3" xlink:href="#linear-gradient"/>
    <linearGradient id="linear-gradient5" y1="304.6" y2="295.2" xlink:href="#linear-gradient1"/>
    <linearGradient id="linear-gradient6" y1="308.5" y2="300.2" xlink:href="#linear-gradient2"/>
    <linearGradient id="linear-gradient7" y1="312.4" y2="304.1" xlink:href="#linear-gradient3"/>
    <linearGradient id="linear-gradient8" y1="282.3" y2="271.3" xlink:href="#linear-gradient"/>
    <linearGradient id="linear-gradient9" x1="544.2" y1="287.3" x2="544.2" y2="276.8" xlink:href="#linear-gradient1"/>
    <linearGradient id="linear-gradient10" y1="291.7" y2="282.4" xlink:href="#linear-gradient2"/>
    <linearGradient id="linear-gradient11" x1="544.2" y1="296.1" x2="544.2" y2="286.8" xlink:href="#linear-gradient3"/>
    <linearGradient id="linear-gradient12" x1="544.2" y1="277.3" x2="544.2" y2="263.1" gradientTransform="translate(0 410) scale(1 -1)" gradientUnits="userSpaceOnUse">
      <stop offset="0" stop-color="#eff6ff"/>
      <stop offset="0.4" stop-color="#bfdbfe"/>
      <stop offset="0.75" stop-color="#bfdbfe"/>
      <stop offset="0.9" stop-color="#eff6ff"/>
    </linearGradient>
    <linearGradient id="linear-gradient13" x1="544.2" y1="271.9" x2="544.2" y2="257.7" gradientTransform="translate(0 410) scale(1 -1)" gradientUnits="userSpaceOnUse">
      <stop offset="0" stop-color="#eff6ff"/>
      <stop offset="0.4" stop-color="#bfdbfe"/>
      <stop offset="0.75" stop-color="#bfdbfe"/>
      <stop offset="0.9" stop-color="#eff6ff"/>
    </linearGradient>
    <linearGradient id="linear-gradient14" x1="544.2" y1="265.8" x2="544.2" y2="251.6" gradientTransform="translate(0 410) scale(1 -1)" gradientUnits="userSpaceOnUse">
      <stop offset="0" stop-color="#eff6ff"/>
      <stop offset="0.4" stop-color="#bfdbfe"/>
      <stop offset="0.75" stop-color="#bfdbfe"/>
      <stop offset="0.9" stop-color="#eff6ff"/>
    </linearGradient>
    <linearGradient id="linear-gradient15" x1="544.2" y1="259" x2="544.2" y2="244.9" gradientTransform="translate(0 410) scale(1 -1)" gradientUnits="userSpaceOnUse">
      <stop offset="0" stop-color="#eff6ff"/>
      <stop offset="0.4" stop-color="#bfdbfe"/>
      <stop offset="0.75" stop-color="#bfdbfe"/>
      <stop offset="0.9" stop-color="#eff6ff"/>
    </linearGradient>
    <linearGradient id="linear-gradient16" x1="787.1" y1="432" x2="752.7" y2="175.3" gradientTransform="translate(0 410) scale(1 -1)" gradientUnits="userSpaceOnUse">
      <stop offset="0" stop-color="#eff6ff"/>
      <stop offset="0.5" stop-color="#eff6ff"/>
      <stop offset="0.75" stop-color="#bfdbfe"/>
      <stop offset="0.85" stop-color="#eff6ff"/>
      <stop offset="0.9" stop-color="#bfdbfe"/>
      <stop offset="0.95" stop-color="#eff6ff"/>
      <stop offset="0.95" stop-color="#eff6ff"/>
      <stop offset="1" stop-color="#eff6ff"/>
    </linearGradient>
    <linearGradient id="linear-gradient17" x1="730" y1="370.8" x2="719.7" y2="108.9" gradientTransform="translate(0 410) scale(1 -1)" gradientUnits="userSpaceOnUse">
      <stop offset="0" stop-color="#eff6ff"/>
      <stop offset="0.5" stop-color="#eff6ff"/>
      <stop offset="0.75" stop-color="#bfdbfe"/>
      <stop offset="0.85" stop-color="#eff6ff"/>
      <stop offset="0.9" stop-color="#bfdbfe"/>
      <stop offset="0.95" stop-color="#eff6ff"/>
      <stop offset="0.95" stop-color="#eff6ff"/>
      <stop offset="1" stop-color="#eff6ff"/>
    </linearGradient>
    <linearGradient id="linear-gradient18" x1="659.2" y1="354" x2="635.8" y2="181.1" gradientTransform="translate(0 410) scale(1 -1)" gradientUnits="userSpaceOnUse">
      <stop offset="0.5" stop-color="#eff6ff"/>
      <stop offset="0.65" stop-color="#bfdbfe"/>
      <stop offset="0.9" stop-color="#bfdbfe"/>
      <stop offset="1" stop-color="#eff6ff"/>
    </linearGradient>
    <linearGradient id="linear-gradient19" x1="705" y1="346.8" x2="689.1" y2="266.5" gradientTransform="translate(-67 303.8) rotate(10.2) scale(1 -1)" gradientUnits="userSpaceOnUse">
      <stop offset="0" stop-color="#eff6ff"/>
      <stop offset="0" stop-color="#6f6f6f"/>
      <stop offset="0.15" stop-color="#474747"/>
      <stop offset="0.25" stop-color="#eff6ff"/>
      <stop offset="0.5" stop-color="#bfdbfe"/>
      <stop offset="0.65" stop-color="#eff6ff"/>
      <stop offset="0.75" stop-color="#eff6ff"/>
    </linearGradient>
    <linearGradient id="linear-gradient20" x1="680.5" y1="352" x2="664.5" y2="271.4" gradientTransform="translate(-67 303.8) rotate(10.2) scale(1 -1)" gradientUnits="userSpaceOnUse">
      <stop offset="0" stop-color="#eff6ff"/>
      <stop offset="0" stop-color="#6f6f6f"/>
      <stop offset="0.15" stop-color="#474747"/>
      <stop offset="0.25" stop-color="#eff6ff"/>
      <stop offset="0.5" stop-color="#bfdbfe"/>
      <stop offset="0.65" stop-color="#eff6ff"/>
      <stop offset="0.75" stop-color="#eff6ff"/>
    </linearGradient>
    <linearGradient id="linear-gradient21" x1="810.3" y1="389.8" x2="785.9" y2="198.2" gradientTransform="translate(-26.4 367.7) rotate(4) scale(1 -1)" gradientUnits="userSpaceOnUse">
      <stop offset="0" stop-color="#eff6ff"/>
      <stop offset="0.15" stop-color="#535353"/>
      <stop offset="0.4" stop-color="#3b82f6"/>
      <stop offset="0.5" stop-color="#1d1d1d"/>
      <stop offset="0.75" stop-color="#bfdbfe"/>
      <stop offset="0.9" stop-color="#030303"/>
      <stop offset="1" stop-color="#eff6ff"/>
    </linearGradient>
    <linearGradient id="linear-gradient22" x1="750.9" y1="395.2" x2="735.3" y2="135.9" gradientTransform="translate(-26.4 367.7) rotate(4) scale(1 -1)" gradientUnits="userSpaceOnUse">
      <stop offset="0.5" stop-color="#eff6ff"/>
      <stop offset="0.65" stop-color="#eff6ff"/>
      <stop offset="0.75" stop-color="#bfdbfe"/>
      <stop offset="0.85" stop-color="#eff6ff"/>
      <stop offset="0.9" stop-color="#474747"/>
      <stop offset="0.95" stop-color="#6f6f6f"/>
      <stop offset="0.95" stop-color="#eff6ff"/>
    </linearGradient>
    <linearGradient id="linear-gradient23" x1="837.2" y1="103" x2="1086.4" y2="103" gradientTransform="translate(137.9 813.9) rotate(-25.5) scale(1 -1)" gradientUnits="userSpaceOnUse">
      <stop offset="0" stop-color="#eff6ff"/>
      <stop offset="0.15" stop-color="#535353"/>
      <stop offset="0.4" stop-color="#3b82f6"/>
      <stop offset="0.5" stop-color="#1d1d1d"/>
      <stop offset="0.75" stop-color="#bfdbfe"/>
      <stop offset="0.9" stop-color="#030303"/>
      <stop offset="1" stop-color="#eff6ff"/>
    </linearGradient>
    <linearGradient id="linear-gradient24" x1="416.3" y1="348.7" x2="410.1" y2="179.2" gradientTransform="translate(0 410) scale(1 -1)" gradientUnits="userSpaceOnUse">
      <stop offset="0.5" stop-color="#eff6ff"/>
      <stop offset="0.65" stop-color="#030303"/>
      <stop offset="0.85" stop-color="#bfdbfe"/>
      <stop offset="0.9" stop-color="#eff6ff"/>
      <stop offset="0.95" stop-color="#bfdbfe"/>
      <stop offset="0.95" stop-color="#eff6ff"/>
    </linearGradient>
    <linearGradient id="linear-gradient25" x1="72.1" y1="43" x2="478.7" y2="318.7" gradientTransform="translate(-19 378.3) rotate(8.2) scale(1 -1)" gradientUnits="userSpaceOnUse">
      <stop offset="0.5" stop-color="#eff6ff"/>
      <stop offset="0.65" stop-color="#030303"/>
      <stop offset="0.85" stop-color="#bfdbfe"/>
      <stop offset="0.9" stop-color="#eff6ff"/>
      <stop offset="0.95" stop-color="#bfdbfe"/>
      <stop offset="0.95" stop-color="#eff6ff"/>
    </linearGradient>
    <radialGradient id="radial-gradient" cx="544.7" cy="239.1" fx="463.2" fy="239.1" r="249" gradientTransform="translate(0 410) scale(1 -1)" gradientUnits="userSpaceOnUse">
      <stop offset="0.15" stop-color="#eff6ff"/>
      <stop offset="0.5" stop-color="#bfdbfe"/>
      <stop offset="0.65" stop-color="#93c5fd"/>
      <stop offset="0.65" stop-color="#60a5fa"/>
      <stop offset="0.75" stop-color="#3b82f6"/>
      <stop offset="0.85" stop-color="#eff6ff"/>
    </radialGradient>
    <radialGradient id="radial-gradient1" cx="543.5" cy="224.9" fx="543.5" fy="224.9" r="204.3" gradientTransform="translate(0 410) scale(1 -1)" gradientUnits="userSpaceOnUse">
      <stop offset="0.25" stop-color="#eff6ff"/>
      <stop offset="1" stop-color="#fbbf24"/>
    </radialGradient>
    <radialGradient id="radial-gradient2" cx="499.6" cy="224.9" fx="499.6" fy="224.9" r="204.3" gradientTransform="translate(1042.2 410) rotate(-180)" gradientUnits="userSpaceOnUse">
      <stop offset="0.25" stop-color="#eff6ff"/>
      <stop offset="1" stop-color="#fbbf24"/>
    </radialGradient>
    <linearGradient id="linear-gradient26" x1="543.8" y1="127.2" x2="543.8" y2="107.6" gradientTransform="translate(0 410) scale(1 -1)" gradientUnits="userSpaceOnUse">
      <stop offset="0.15" stop-color="#eff6ff"/>
      <stop offset="0.25" stop-color="#bfdbfe"/>
      <stop offset="0.4" stop-color="#eff6ff"/>
      <stop offset="0.5" stop-color="#bfdbfe"/>
      <stop offset="0.75" stop-color="#747474"/>
      <stop offset="0.9" stop-color="#b4b4b4"/>
      <stop offset="0.95" stop-color="#fbbf24"/>
      <stop offset="1" stop-color="#f6f6f6"/>
    </linearGradient>
    <radialGradient id="radial-gradient3" cx="543.6" cy="219.3" fx="476.7" fy="219.3" r="204.3" gradientTransform="translate(0 398) scale(1 -1)" gradientUnits="userSpaceOnUse">
      <stop offset="0" stop-color="#fbbf24"/>
      <stop offset="0" stop-color="#f6f6f6"/>
      <stop offset="0.95" stop-color="#eff6ff"/>
    </radialGradient>
    <linearGradient id="linear-gradient27" x1="543.1" y1="113.6" x2="543.1" y2="351.9" gradientTransform="translate(0 410) scale(1 -1)" gradientUnits="userSpaceOnUse">
      <stop offset="0" stop-color="#fbbf24"/>
      <stop offset="1" stop-color="#eff6ff"/>
    </linearGradient>
    <linearGradient id="linear-gradient28" x1="699.2" y1="497" x2="699.2" y2="-107.8" gradientTransform="translate(0 410) scale(1 -1)" gradientUnits="userSpaceOnUse">
      <stop offset="0.5" stop-color="#fbbf24"/>
      <stop offset="0.65" stop-color="#93c5fd"/>
      <stop offset="0.75" stop-color="#3b82f6"/>
      <stop offset="0.75" stop-color="#eff6ff"/>
    </linearGradient>
    <linearGradient id="linear-gradient29" x1="384.2" y1="505.3" x2="389.8" y2="-98" gradientTransform="translate(0 410) scale(1 -1)" gradientUnits="userSpaceOnUse">
      <stop offset="0.5" stop-color="#fbbf24"/>
      <stop offset="0.85" stop-color="#eff6ff"/>
    </linearGradient>
    <linearGradient id="linear-gradient30" x1="590.7" y1="155" x2="594.2" y2="90.5" gradientTransform="translate(0 410) scale(1 -1)" gradientUnits="userSpaceOnUse">
      <stop offset="0" stop-color="#fbbf24"/>
      <stop offset="0" stop-color="#eff6ff"/>
      <stop offset="0.25" stop-color="#bfdbfe"/>
      <stop offset="0.25" stop-color="#93c5fd"/>
      <stop offset="0.4" stop-color="#60a5fa"/>
      <stop offset="0.5" stop-color="#3b82f6"/>
      <stop offset="0.65" stop-color="#3b82f6"/>
      <stop offset="0.75" stop-color="#eff6ff"/>
      <stop offset="0.85" stop-color="#eff6ff"/>
    </linearGradient>
    <linearGradient id="linear-gradient31" x1="492.7" y1="149.8" x2="494.9" y2="108.8" gradientTransform="translate(0 410) scale(1 -1)" gradientUnits="userSpaceOnUse">
      <stop offset="0" stop-color="#fbbf24"/>
      <stop offset="0" stop-color="#eff6ff"/>
      <stop offset="0.25" stop-color="#bfdbfe"/>
      <stop offset="0.4" stop-color="#93c5fd"/>
      <stop offset="0.5" stop-color="#60a5fa"/>
      <stop offset="0.65" stop-color="#3b82f6"/>
      <stop offset="0.75" stop-color="#3b82f6"/>
      <stop offset="0.9" stop-color="#eff6ff"/>
      <stop offset="0.9" stop-color="#eff6ff"/>
    </linearGradient>
    <linearGradient id="linear-gradient32" x1="543.9" y1="128.4" x2="543.6" y2="73.7" gradientTransform="translate(0 410) scale(1 -1)" gradientUnits="userSpaceOnUse">
      <stop offset="0" stop-color="#eff6ff"/>
      <stop offset="0.95" stop-color="#fbbf24"/>
    </linearGradient>
    <linearGradient id="linear-gradient33" x1="544" y1="118.1" x2="544" y2="111.2" gradientTransform="translate(0 410) scale(1 -1)" gradientUnits="userSpaceOnUse">
      <stop offset="0.15" stop-color="#eff6ff"/>
      <stop offset="0.25" stop-color="#bfdbfe"/>
      <stop offset="0.4" stop-color="#eff6ff"/>
      <stop offset="0.5" stop-color="#bfdbfe"/>
      <stop offset="0.75" stop-color="#747474"/>
      <stop offset="0.9" stop-color="#b4b4b4"/>
      <stop offset="0.95" stop-color="#fbbf24"/>
      <stop offset="1" stop-color="#f6f6f6"/>
    </linearGradient>
    <linearGradient id="linear-gradient34" x1="543.2" y1="119.2" x2="542.9" y2="63.7" gradientTransform="translate(0 410) scale(1 -1)" gradientUnits="userSpaceOnUse">
      <stop offset="0" stop-color="#eff6ff"/>
      <stop offset="0.95" stop-color="#fbbf24"/>
    </linearGradient>
    <linearGradient id="linear-gradient35" x1="543.2" y1="107" x2="543.2" y2="100" gradientTransform="translate(0 410) scale(1 -1)" gradientUnits="userSpaceOnUse">
      <stop offset="0.15" stop-color="#eff6ff"/>
      <stop offset="0.25" stop-color="#bfdbfe"/>
      <stop offset="0.4" stop-color="#eff6ff"/>
      <stop offset="0.5" stop-color="#bfdbfe"/>
      <stop offset="0.75" stop-color="#747474"/>
      <stop offset="0.9" stop-color="#b4b4b4"/>
      <stop offset="0.95" stop-color="#fbbf24"/>
      <stop offset="1" stop-color="#f6f6f6"/>
    </linearGradient>
    <linearGradient id="linear-gradient36" x1="543.3" y1="112.5" x2="542.9" y2="43.9" gradientTransform="translate(0 410) scale(1 -1)" gradientUnits="userSpaceOnUse">
      <stop offset="0" stop-color="#eff6ff"/>
      <stop offset="0.95" stop-color="#fbbf24"/>
    </linearGradient>
    <linearGradient id="linear-gradient37" x1="543.1" y1="96.5" x2="543.1" y2="89.5" gradientTransform="translate(0 410) scale(1 -1)" gradientUnits="userSpaceOnUse">
      <stop offset="0.15" stop-color="#eff6ff"/>
      <stop offset="0.25" stop-color="#bfdbfe"/>
      <stop offset="0.4" stop-color="#eff6ff"/>
      <stop offset="0.5" stop-color="#bfdbfe"/>
      <stop offset="0.75" stop-color="#747474"/>
      <stop offset="0.9" stop-color="#b4b4b4"/>
      <stop offset="0.95" stop-color="#fbbf24"/>
      <stop offset="1" stop-color="#f6f6f6"/>
    </linearGradient>
    <radialGradient id="radial-gradient4" cx="374.5" cy="257.6" fx="428.3" fy="257.6" r="226.6" gradientTransform="translate(-269.9 102.9) rotate(83.6) scale(1.2 -2.1) skewX(.7)" gradientUnits="userSpaceOnUse">
      <stop offset="0.4" stop-color="#f2f2f2"/>
      <stop offset="0.4" stop-color="#e8e8e8"/>
      <stop offset="0.5" stop-color="#d0d0d0"/>
      <stop offset="0.75" stop-color="#a8a8a8"/>
      <stop offset="0.85" stop-color="#717171"/>
      <stop offset="0.95" stop-color="#2b2b2b"/>
      <stop offset="1" stop-color="#eff6ff"/>
    </radialGradient>
    <radialGradient id="radial-gradient5" cx="466.7" cy="49.6" fx="466.7" fy="49.6" r="200" gradientTransform="translate(854.2 937.9) rotate(-80) scale(1 -2.4) skewX(-8.7)" gradientUnits="userSpaceOnUse">
      <stop offset="0.15" stop-color="#f2f2f2"/>
      <stop offset="0.9" stop-color="#eff6ff"/>
    </radialGradient>
    <radialGradient id="radial-gradient6" cx="994.9" cy="148.8" fx="994.9" fy="148.8" r="9.8" gradientTransform="translate(0 533.2) scale(1 -1.2)" gradientUnits="userSpaceOnUse">
      <stop offset="0.65" stop-color="#ccc"/>
      <stop offset="1" stop-color="#eff6ff"/>
    </radialGradient>
    <linearGradient id="linear-gradient38" x1="783.5" y1="-55.6" x2="803.6" y2="274.1" gradientTransform="translate(35.9 452.3) rotate(-3.6) scale(1 -1)" gradientUnits="userSpaceOnUse">
      <stop offset="0.5" stop-color="#eff6ff"/>
      <stop offset="1" stop-color="#212121"/>
    </linearGradient>
    <linearGradient id="linear-gradient39" x1="521.5" y1="295.7" x2="895.4" y2="80.4" gradientTransform="translate(0 410) scale(1 -1)" gradientUnits="userSpaceOnUse">
      <stop offset="0" stop-color="#eff6ff"/>
      <stop offset="0.4" stop-color="#444"/>
      <stop offset="0.75" stop-color="#1f1f1f"/>
      <stop offset="0.9" stop-color="#bfdbfe"/>
      <stop offset="1" stop-color="#eff6ff"/>
    </linearGradient>
    <linearGradient id="linear-gradient40" x1="242.6" y1="258.4" x2="304.3" y2="-79.8" gradientTransform="translate(0 410) scale(1 -1)" gradientUnits="userSpaceOnUse">
      <stop offset="0.5" stop-color="#eff6ff"/>
      <stop offset="0.65" stop-color="#090909"/>
      <stop offset="0.85" stop-color="#3b82f6"/>
      <stop offset="0.95" stop-color="#eff6ff"/>
    </linearGradient>
    <linearGradient id="linear-gradient41" x1="198.2" y1="-21.7" x2="344.3" y2="272.3" gradientTransform="translate(0 410) scale(1 -1)" gradientUnits="userSpaceOnUse">
      <stop offset="0.25" stop-color="#eff6ff"/>
      <stop offset="0.5" stop-color="#030303"/>
      <stop offset="0.65" stop-color="#bfdbfe"/>
      <stop offset="0.85" stop-color="#eff6ff"/>
      <stop offset="0.9" stop-color="#bfdbfe"/>
      <stop offset="0.95" stop-color="#eff6ff"/>
    </linearGradient>
  </defs>
  <g>
    <g>
      <rect class="st42" x="510.5" y="97.3" width="67.3" height="4.7"/>
      <rect class="st1" x="511.1" y="92.9" width="66.2" height="4.5"/>
      <rect class="st0" x="511.8" y="88.9" width="64.7" height="3.9"/>
      <rect class="st3" x="512.6" y="85" width="63.1" height="3.9"/>
    </g>
    <g>
      <rect class="st8" x="510.5" y="110.4" width="67.3" height="4.7"/>
      <rect class="st7" x="511.1" y="106" width="66.2" height="4.5"/>
      <rect class="st4" x="511.8" y="102" width="64.7" height="3.9"/>
      <rect class="st6" x="512.6" y="98.1" width="63.1" height="3.9"/>
    </g>
    <g>
      <rect class="st5" x="506.4" y="128.3" width="75.5" height="5.2"/>
      <rect class="st2" x="507" y="123.3" width="74.3" height="5"/>
      <rect class="st29" x="507.8" y="118.9" width="72.7" height="4.4"/>
      <rect class="st28" x="508.8" y="114.5" width="70.8" height="4.4"/>
      <rect class="st25" x="505" y="133.6" width="78.4" height="6.7"/>
      <rect class="st24" x="503" y="139" width="82.3" height="6.7"/>
      <rect class="st31" x="501.1" y="145.1" width="86.1" height="6.7"/>
      <rect class="st26" x="497.1" y="151.8" width="94.1" height="6.7"/>
    </g>
    <g>
      <g>
        <path class="st27" d="M761.5,2.5c-.5,2.1-.6,4.2-.5,6.4-.8.3-1.7,0-2.2-.7,1.5,1,2.3,2.7,2.2,4.5-.8,0-1.6,0-2.3,0,1.7,1.9,2.7,4.2,3,6.7-1,.3-2.2.1-3.1-.4,1.6,1.1,3,2.6,4.2,4.2-1.6.2-3.3-.1-4.8-.8,2,1.1,3.3,3.4,3.2,5.6-1,0-1.9,0-2.8.1,1.6,1.3,2.5,3.3,2.5,5.3-1.5,0-3.1-.3-4.4-1.1,3,1.6,5,4.8,5,8.2-2.9,0-4.6-4.3-2.4-6.2-.5.7-1.1,1.4-1.6,2.1-1-1.5-1.7-3.2-2-5,.2,1.3,0,2.6-.3,3.8-.5-1.8-1.5-3.4-2.8-4.7-.3,1.3.6,2.6,1.5,3.6s2,2.1,1.9,3.5-1.9,2.5-2.8,1.5c1.8,0,3.5,0,5.3,0-.9,1.2-1.9,2.5-2.8,3.7,2.1-.4,4.2-.8,6.2-1.2-1.7.6-3.1,2.1-3.7,3.8,2.5,1,4.6,2.8,5.9,5.1-3,0-6.1.1-9.1.2,3.2.3,6.4,1.4,9.2,3-3.5.5-7,.6-10.5.3,2.3-.3,4.5,1.4,5.6,3.5s1.2,4.5,1.3,6.9c-2.5-1.8-5-3.7-7.5-5.5,2,1.7,3.2,4.2,3.3,6.8,3.6.1,5.8,4.8,6.2,8.4-3.9.3-7.9,0-11.7-1,3.7,2.1,6.7,5.5,8.4,9.5-6.5-.8-12.2-6-13.7-12.4-.9,3.6.2,7.2,1.2,10.8-3.2-1.6-5.8-4.3-7.3-7.6.5,2.3.9,4.6,1.4,6.9-2.4-.7-3.5-3.4-3.9-5.9s-.4-5.1-1.9-7.1c0,2.7-1,5.4-2.6,7.6-2.1-7.8-3.6-15.7-4.5-23.6-1.1,6.9-.5,14.1,1.8,20.8-1.4,0-2.9,0-4.3,0,3.2-.4,6.6,1.6,7.8,4.7-1.8-.1-3.7,0-5.5.4,2.7.3,5.1,2.3,5.9,4.9-1.5.3-3,.6-4.5.9,4-1.1,8.6,1.9,9.1,6-2.2-.5-4.5-.2-6.4.8,4.8-.7,9.9.5,13.8,3.4-2.3.6-4.5,1.1-6.8,1.7,3.3-1.8,7.4-2,10.9-.7-1.1.7-2.3,1.4-3.4,2.2,2.9-1.3,6.3-1.4,9.3-.3-3.2.8-6.4,1.5-9.6,2.3,6.8-1.2,13.9,0,19.9,3.2-3.8,1.2-7.8,1.7-11.7,1.5,3.3-.8,6.9,0,9.6,2-.4-.6-.7-.9-1.4-1.3-.3.8-1.1,1.4-1.9,1.4.5.4,1,.9,1.6,1.3-6.5,0-13,0-19.5,0,4.4.7,8.9,1.2,13.4,1.3.4,1.7-.5,3.7.4,5.3.4.7,1.1,1.2,1.8,1.7,1.2.8,2.5,1.7,3.7,2.6-1.5-.1-2.9-.2-4.3-.4,4,.8,8,2,11.8,3.6-2.6,1.2-5.3,2.5-7.9,3.7,3.8-1.2,7.9-2.3,11.7-1-2.8,2.5-6.4,4.1-10.1,4.4-1.1,0-2.7.5-2.5,1.6.4.1.8.2,1.2.3,0-.7,0-1.5,0-2.2-.3,2-1.6,5.9-2,7.9-1.4.3-2.4,1.5-2.9,2.8s-.5,2.7-.6,4.1l-1.8-.7c-4.3,2.9-8.7,5.9-13,8.8-.5.4-1.2.9-1,1.6.2.7,1,.8,1.6,1.1,1.3.6,2.1,2.2,1.8,3.6.3.1.7.1,1-.1-.3-1.6-.7-3.3-1-4.9-.9,3.8,3.7,11.9,6.1,14.9.3.4.8.9,1.4,1,.6,0,1.2-.3,1.7-.7,1.8-1.4,3.5-2.8,5.3-4.1-.3,1.7-.5,3.4-.8,5.2,4.2,2.3,9.5,2.1,13.6-.3l.4,3.5.6-7.3c6,3.5,12.7,5.9,19.6,7.1.3-2.8.4-5.6.2-8.4,1.1,1.7,2.5,3.2,4.4,3.7s4.3-.8,4.4-2.7c3.5-1.1,6.8-2.7,9.8-4.7,1.3-.9,2.8-2.4,2-3.8-1-1.7-3.9-.4-5.5-1.5.5-4.2,1.6-8.4,3.3-12.3-1.4,1.2-2.9,2.4-4.3,3.6-.8.7-2,1.5-3,.9-.5-.3-.7-.8-.9-1.3-1.2-3.5-.2-7.6,2.3-10.3-.5-.2-1.1-.4-1.6-.6-.7,1.5-1.4,3-2.1,4.4,2.1-8.4,2.7-17.2,1.7-25.8-1.5,2.8-3.1,5.7-4.6,8.5.2-5.1,0-10.2-.8-15.3-.9.3-1.5,1.4-1.2,2.3-.5-3.4-1.6-6.7-3.2-9.8.4,2.9,0,6-1.3,8.7-2.4-4.4,1.3-9.7,1.4-14.8,0-3.7-1.9-7.4-1.1-11,.9,3.7-.7,7.8-3.8,9.9-.2-4-.3-8-.5-12-.8,2-4.5,1.3-4.6-.8-.1-2.2,2.7-4.3,1.6-6.2,0,.4,0,.9,0,1.3,0,1-3.3-1.1-3.9-1.9s-.4-2-.2-3c.2-1.3.5-2.8,1.5-3.7.7-.7,1.7-1.2,2.3-2,.9-1.3.5-3,0-4.5-.8-2.9-1.6-5.8-2.4-8.7.1,4.2-.4,9.5-4.4,11.1-.8-4.4-2.2-8.7-4.3-12.6.3,1.6-.1,3.3-1.1,4.5-.2-3.4-.3-6.8-.4-10.1-.8.9-1.6,1.7-2.3,2.6.3-2.8.4-5.5,0-8.3-.6.5-1.3,1.1-1.9,1.7,1.3-4.8,1.7-9.8,1.2-14.7-.8,1.6-1.7,3.3-2.6,5-.2-4.7-.5-9.4-.7-14-.7.1-1.2.8-1.1,1.5-.5-4.6-.9-9.2-1.4-13.8,0-.6-.2-1.3-.8-1.4s-.9,2.6-.4,2.5h0Z"/>
        <path class="st30" d="M719.2,164.6c-2.2.6-4.6.7-6.9.4,2.1-1.3,4-2.8,5.7-4.6-1.8.5-3.5,1.5-4.8,3,1-1.7,1.7-3.5,2.3-5.4-1.8.8-3.4,2.2-4.4,3.9-.2.2-.3.5-.6.6-.6.2-1.1-.6-1.2-1.3-.2-1.1-.2-2.3-.2-3.4-.5,1.7-1.5,3.1-2.9,4.2-1.2-2.3-1.4-5.1-.5-7.5-.9,1.8-2.2,3.3-3.9,4.5-.9-2.5-.5-5.4.9-7.6-1.7.5-3.1,1.6-4,3.1-.1-2.4,1-4.9,3-6.4-1.7-.4-3.6-.1-5.1.8-.1-.9.7-1.7,1.3-2.4s1.1-1.9.3-2.5c-.3-.2-.6-.2-1-.3-1.2,0-2.5,0-3.7.2,1.1-1.4,2.9-2.2,4.7-2.2-2.9-.8-5.4-2.9-6.6-5.7,1.6.1,3.3-.5,4.4-1.7-2.1,0-4.1-1.4-4.8-3.4,2-.2,4.2-.3,6.2,0-2.2-2-4.8-3.5-7.5-4.4,2.5-.6,4.9,1.7,7.4,1.2-3.1-3.3-6.8-6.2-10.8-8.2,1,0,1.9.2,2.8.7-1.5-2.6-3.5-4.8-6-6.5-.3-.2-.6-.5-.5-.8.1-.3.5-.3.8-.2,1.3.2,2.6.1,3.8-.3-2-.5-3.8-1.6-5-3.2,1.4,0,2.4-.8,3.8-.9-1.2-1.5-2.8-2.5-4.4-3.5,1.6.8,3.5.9,5.2.3-1.4-1.5-2.8-2.9-4.4-4.3-1.1-1-2.3-2.1-2.4-3.5.8.3,1.2,1.6,2,1.7-.9-2.8-1.8-5.6-2.6-8.3.9,0,1.8,0,2.6,0-1.7-1.9-3.2-4.1-4.4-6.3,1.7,0,3.4.6,4.8,1.7-1.7-2.2-3.3-4.4-4.9-6.6h2.5c.4,1.4.8,2.9,1.2,4.3,0-1.4,0-2.9,0-4.3,1.6,2.5,2.7,5.4,3.1,8.3-.2-.7.9-1.2,1.5-.8s.8,1.3.9,2c.4,2.8.8,5.6,1.2,8.4-.2-1.4-.3-2.8-.5-4.2,1.7-.1,2.9,1.8,3.2,3.5s0,3.6.7,5.1c0-1.7.7-3.4,1.8-4.6,1.6,2.2,2.4,5,2.3,7.8-.4-1.8.3-3.8,1.8-5.1.3,2,.6,4.1,1,6.1-.2-1,.5-2.1,1.4-2.5.1,2.4.5,4.8,1,7.1.5-1.5,1.3-2.8,2.5-3.9-.4,2.5,0,5,1,7.3.9-1.2,1.2-2.8.9-4.2,1.3.7,2.2,2.1,3.3,3s3,1.5,4,.5c-2-1.5-4.1-3-6.2-4.3,1.4-.2,2.8-.4,4.2-.6.4,0,.8-.2.8-.6,0-.2-.1-.3-.2-.5-1.5-1.4-4.8-.4-5.3-2.3,2.2.3,4.5.1,6.5-.6-3.5.2-5.6-3.8-8.7-5.4,1.7,1.3,4.2,1.4,5.9.1-1.3-1.4-3.4-1.9-5.2-2.5s-3.8-1.7-4.4-3.5c1.8,1.6,4.7,1.9,6.8.8-3.1-.9-5.9-3-7.7-5.7,2.6.5,6.4,2.1,9,2.7l-7-2.1h4.8c0,0-3-3.6-3-3.6,1.5.6,3,1.2,4.5,1.9-.4-4.3-5.4-6.5-7.4-10.3,1.8.3,3.6.6,5.3.9-.8-1.7-2.4-2.9-4.2-3.4-.3,0-.6-.2-.8-.4-.5-.7.8-1.3,1.7-1.1s1.9.7,2.4,0c-1.8-2.2-3.6-4.5-5.4-6.7-.2-.3-.5-.7-.3-1.1.1-.2.3-.2.5-.3,1.6-.4,3.4,0,4.7,1.1.4.3.8.8,1.4.9s1.2-.4,1.1-.9c0-.2-.3-.4-.5-.5-2.5-1.9-4.3-4.6-5.1-7.6,0-.2,0-.3,0-.5,0-.7,1-.9,1.6-.6s1.1.8,1.7,1,1.5,0,1.6-.6c-2.4-1.6-4.2-4.1-5-6.9,1.5.4,3,.3,4.5,0-3.1-1.4-5.7-3.8-7.3-6.8,2.5.2,5.1.7,7.5,1.4-1.5-1.9-.2-3-.2-5.4,0-1,.4-2.5,1.4-2.2.5,3.5.9,7,1.4,10.5,1.5-2.3,3.5-4.3,5.8-5.8-1,4-1.5,8.2-1.5,12.3.8-1.5,2.1-2.7,3.6-3.4-.2,3.2-.3,6.3-.5,9.5,0,1.2-.2,2.5-.9,3.5.9-1.1,1.9-2.2,2.8-3.4,0,3.2-.9,6.4-2.3,9.4,1.3-2,4.1-3,6.4-2.2-.4,1.9-1.4,3.8-2.9,5.1,1.3-2,3.4-3.4,5.7-4-.4,2.4-1,4.7-1.8,6.9-.5,1.3-1.1,2.7-2.1,3.7s-2.4,1.8-3.8,1.6c1.9-.2,3.8.5,5.2,1.8-1.3.7-2.6,1.3-3.9,2,1.2,0,2.3-.1,3.5-.2.5,0,1.1,0,1.4.4.4.6-.1,1.3-.6,1.8-.7.7-1.5,1.4-2.2,2.2.7-.4,1.5-.9,2.3-.9,1.9,0,1.3,1.4,1.4,2.5.1,1.5.5,2.8.9,4.3,0,.3.2.6,0,.8-.1.2-.3.3-.5.4-1.7.8-3.4,1.6-5.1,2.5,1.6-.6,3.2-1.2,4.7-1.9-.4,2.3-.9,4.7-1.3,7.1,1.6-1.3,3.4-2.9,3.6-4.9,1.2,1.9,1,4.6-.4,6.4.5-.8,1.2-1.4,2-1.8,0,2.1,0,4.2,0,6.3,0,.7-.3,1.6-.9,1.5.5-1.4,2.1-4,2-5.5,2,1.8,3.3,4.4,3.4,7.1.6-1.7.8-3.5.7-5.3.3.9.7,1.8,1.2,2.6.9-1.6.5-3.6-.5-5.1s-2.4-2.6-3.9-3.7c2.8-1.3,6.5-.4,8.3,2.2-.7-2.1-2.2-3.9-4.1-5.1,1.4-.6,3,.3,3.8,1.5s.8,2.8.7,4.3-.3,3,0,4.4c.3-1.4,1.3-2.6,2.5-3.2-.2,2.9-1,5.7-2.3,8.3,1.4-.9,2.6-2.1,3.7-3.4-1.7,3.2-2.3,6.9-1.7,10.5,1.2-.8,2.3-1.8,3.2-3-.3,1-.7,2-1,3,1.4-.5,2.7-1.4,3.7-2.6-1.2-2.5-2.6-4.9-4.1-7.3,1.3,1.5,2.6,3.1,3.9,4.6.6.7,1.6,1.4,2.3.8.7-.6.3-2,1.1-2.4,0,2.1-.5,4.2-1.6,6.1.8-.8,2-1.1,3.1-.7.3.1.6.3.6.7,0,.3-.2.5-.5.6-1,.8-2,1.5-3,2.3,1.3-.5,2.9-.8,4.2-1.2-.3,1.8-.7,3.6-1,5.4,1.6-1.3,3.2-2.6,4.8-3.9,0,3.5,0,7,0,10.5.7-1.9,2.3-3.4,4.3-3.9.5,2.4,0,4.9-1.3,6.9-.4.5-.9,1.1-1.6,1,0-.4-.1-.8-.2-1.1,0,.6.7,1.8.2,2.1,3.2-1.5,5.7-4.6,6.6-8.1,1,1.5,1.8,3.2,2.2,5,.3-2.3.6-4.6,1-6.9,1.4,4.2,1.7,8.7.8,13,.9-3.2,2.5-6.3,4.6-8.8.2,3.3-1,6.7-3.3,9.1,1.5-2,4.3-3,6.8-2.2.6.3-.2,1.1-.8,1.3-1.8.4-3.6.9-5.4,1.4,1.8-.8,3.8-1.2,5.8-1.3-.6,1.8-2.7,2.8-4.6,3.2s-3.9.5-5.6,1.6c2.3.3,4.7.4,7,.4-1.6,1.5-4,1.6-6.1,1.9-6.1.8-11.8,3.3-17.4,5.8,1.4.6,3,.9,4.6.9-2.1.6-4.4.6-6.5-.2.3.9.6,1.8.9,2.7-1.7-.2-3.4-.4-5.1-.6,1.2,0,2.4.8,2.9,1.9-3-.2-5.9-.6-8.9-1.1.4-.2.7-.5,1.1-.7,1.3,1.6.2,4.5.2,6.6-1.9,0-3.9-.3-5.6-1,.5,1.2.8,2.4.8,3.7-1.8-.1-3.6-.9-4.9-2.1,0,1.1,0,2.2,0,3.3,0,.4-.1.9-.5.9-.2,0-.4-.1-.5-.3-1-1.1-2.1-2.1-3.1-3.2,0,.7,0,1.5-.3,2.1s-1.2,1.1-1.8.6c-.3-.2-.4-.4-.6-.7-.6-1.1-1-2.2-1.1-3.4,0,1.2,0,2.4-.1,3.7,0,.2,0,.5-.2.7-.4.2-.8-.3-.9-.7-.2-.8-.5-1.5-.4-2.3h0Z"/>
      </g>
      <g>
        <g>
          <path class="st23" d="M582.5,138.6c6.6,8.7,14,17.1,23.5,22.6,15.2,8.9,33.6,9.5,51.1,11.5,9.8,1.1,19.6,2.7,29.4,2.2,9.8-.4,19.9-3.1,27.3-9.6,3.6-3.1,6.4-7,9.2-10.9,2-2.8,4-6.8,1.8-9.4-1-1.1-2.4-1.8-3.6-2.7-.2-.1-.4-.3-.6-.2s-.3.4,0,.5c.4-.4.2-1.1-.3-1.4s-1-.4-1.6-.5c-2-.2-4-.6-5.5-1.8-1.3-1-2.4-2.5-4-2.5,0-.4-.3-.6-.6-.8-2.7-1.5-5.7-2.2-8.8-2,0-.9,0-1.8,0-2.7-.7-.4-1.6-.4-2.3,0-.5-1.4-2.6-1.9-3.8-.9-1.4-1.1-3.2-1.8-5-1.8-.3.2-.5.6-.5,1-.3-.9-1.4-1.9-2.2-2.5s-2-.6-2.5.2c0-.8.7-1.5.8-2.3.1-.9-.5-1.8-1.2-2.2s-1.7-.6-2.6-.7-2.1,0-2.3.8c.2-1.3-1.3-2.2-2.6-2.4-.7-.2-1.5-.2-2.2,0s-1.2,1.1-.9,1.8c.3-1.1-.5-2.2-1.5-2.6s-2.2-.2-3.2.2c-1.2.6-2.4,1.8-2.1,3.1-.6-2.6-3.8-4.1-6.2-3-1,.5-1.8,1.7-1.2,2.6-.7-.9-1.8-1.6-2.9-1.6s-2.3,1-2.2,2.1c0,.5.2,1.2-.2,1.5-.3.2-.7.1-1,.1-1.5-.1-2.9,1-3.2,2.4.3-1.4-.5-2.7-1.5-3.6s-2.7-1.2-4-.7c-.5-.7,1-1.4.9-2.2,0-.2-.2-.4-.3-.6-1.1-1.4-2.7-3-4.4-2.3-1.2-1.6-3.7-2-5.5-1-.2-.9-1-1.6-2-1.9s-1.9-.2-2.8,0c-.7,0-1.5.3-1.6.9-1.5-1.5-4.5-.7-5,1.4,0-.6-.7-1.1-1.3-1s-1.1.5-1.2,1.1c-1.2-.9-3.4-1.4-4.9-1.5-.8,0-1.5,0-2.2.3s-1,1.3-.6,1.9c-.1-.7-1-.9-1.7-.9-.9,0-1.9,0-2.6.7s-.6,2,.3,2.2c-1,0-2,0-2.8.5s-.9,2,0,2.4c.7.3,1.6-.1,2.1.4-1.2.4-2.4,0-3.6.3s-2.3,1.8-1.4,2.6c-2.7-1.6-5.7-3.3-8.8-3.1,1.5.6,3.2.6,4.6,0,.2,0,.4-.2.5-.4.1-.3,0-.6-.3-.8-1.5-1.7-3.6-2.8-5.8-3.2.7-.3,1.3-.8,1.7-1.5.5-.8.6-1.9.1-2.7s-1.8-1.1-2.4-.4c1-.6,1.5-1.9,1.5-3.1s-.6-2.3-1.3-3.3c-.9-1.3-2.4-2.4-3.9-2,.4-.5.2-1.3-.3-1.8s-1.2-.6-1.8-.8c-.7-.2-1.4-.4-2.1-.2s-1.4.6-1.6,1.3c-.2.8.4,1.6.9,2.2-.5-.6-1.5,0-1.7.8s0,1.6-.2,2.4c-1-1.3-2.8-1.6-4.5-1.6-.3.7-.4,1.5-.2,2.2-.7-.6-1.8-.5-2.5,0-.5.3-.9.7-1,1.3s.2,1.2.8,1.3c.4,0,1.1-.1,1.2.3-1.5-.2-2.9,1.1-3,2.6,0,.2,0,.4.1.6.1.2.4.3.6.4.8.3,1.7.3,2.5,0-.9-.1-1.8.6-2,1.5s.5,1.8,1.4,2c-.7-.3-1.5.3-1.6,1.1s.6,1.4,1.3,1.7,1.5.2,2.2,0c-.8.8-1.5,2-.9,3,.5.8,1.5,1,2.4.9s1.8-.2,2.7,0v-1c-.2,4-.8,9.9,1.6,13.1h0Z"/>
          <g>
            <g>
              <path class="st32" d="M663.2,127.7c1.3-4.9,5.7-13.6,19.6-16.8,0,0-19.6-2.2-24,19.2l2,.6c-.3.4-.4.6-.4.6l4.7.8c6.1-11.7,25.3-17.8,25.3-17.8-11.6-2.4-22.3,7.8-27.2,13.5h0Z"/>
              <path class="st38" d="M669.2,109c.9-.4,1.8-.8,2.8-1.1,0,0-.8,0-2,.2,2.5-2.9,4.5-4.8,4.5-4.8-3.8,1-6.9,3.2-9.5,5.9-1.3.5-2.8,1.1-4.2,1.9,3.1-6.8,6.8-11.9,6.8-11.9-3.7,1.9-6.5,4.9-8.7,8.3-1.4-5.6-4.2-9.3-4.2-9.3,1.8,5.1,2.4,9.5,2.2,13.2-.5,1.2-1,2.4-1.4,3.6-.9-6.8-3.4-14-9.4-18.3,0,0,6,12.2,6.3,23.5-.3.5-.5,1.1-.7,1.7.8-14.4-11.8-21-11.8-21,6,6.3,8,12.4,8.4,17.3-3.2-10.4-13.3-14.1-13.3-14.1,15.9,12.9,9.5,27.2,9.5,27.2l3.9.7c.2-.7.3-1.3.4-1.9l1.1.4c.1-.4.2-.7.4-1.1l2.4.4c0,1.1,0,1.8,0,1.8l1.7-.9c-.2.9-.3,1.4-.3,1.4l4.6-1.4c.5-8,6.3-16.4,10.8-21.8h0ZM659.3,115.8c.5-.6,1.2-1.2,1.8-1.8-.8,1.2-1.5,2.4-2.1,3.6.1-.6.2-1.2.3-1.8Z"/>
            </g>
            <g>
              <path class="st37" d="M748.7,146.3c-1.6-.7-3.5-1-5.3-.8-.9-1.6-2.9-2.5-4.8-2.1-.2,1.2-.5,2.5-.7,3.7-.2-1.8-1.9-3.3-3.7-3.2s-3.3,1.8-3.3,3.6c-.5-1-2-1.6-3-1.1s-1.7,1.9-1.2,3c-.4-1.2-.7-2.5-1.1-3.7-.9.2-1.8.7-2.5,1.4-.2-1.4-1.6-2.5-3-2.3s-2.5,1.6-2.4,2.9c-.7-1.2-2.5-1.6-3.6-.9s-1.6,2.5-.8,3.7c0-2.6-1.7-5.3-4.2-6.1-.3.6-.5,1.1-.8,1.7.5-1.3.1-2.8-.8-3.8s-2.5-1.3-3.8-.8c.6-1.7-.8-3.7-2.6-3.7s-3.1,2.1-2.5,3.8c-2-2.4-4.7-5.1-7.8-4.4-2.9.7-4.2,5-2,7.2-.8-1.1-1.8-2.3-3.2-2.6s-3,1.3-2.3,2.5c-1.1-1.3-2.7-2.2-4.4-1.9s-2.9,2.3-2.1,3.8c-.6-1.7-2.2-2.8-3.9-3.1s-3.5,0-5.2.5c-.7.2-1.5.5-1.9,1.1s-.2,1.7.5,1.9c-.7-1-1.6-1.8-2.7-2.3-.5,2.1-.6,4.2-.3,6.3-1.2-.5-2.8-1.5-4-1.2s-2.3,1.9-1.5,3c-1.8-1.4-3.9-2.2-6.1-2.3,0,.8-.2,1.7-.2,2.6-.1-1.4-1.2-2.5-2.5-3.1s-2.7-.7-4.1-.8c-1,0-2-.1-2.8.3s-1.4,1.6-1,2.4c.2-1.8-1.1-3.6-2.9-4.1s-3.8.4-4.6,2c.6-.5.6-1.5,0-2.1s-1.3-.9-2.1-1.1c-3-.7-6.3.1-8.7,2.1.9-1.8.2-4.2-1.5-5.3s-4.2-.7-5.5.9c-2.3-1.2-5.3-1.2-7.6,0,.7-.8.2-2.1-.7-2.8s-2-.7-3-.8c-1.9-.2-4.4,0-5,1.8.1-.6-.5-1.2-1.1-1s-.8,1-.3,1.4c1.9,17,6.4,34.1,13.7,49.6,1.3,2.8,2.8,5.7,5.3,7.5,1.7,1.2,3.7,1.9,5.7,2.5,8.6,2.5,17.4,4.5,26.3,5.9,4.7.7,8.3,4.3,12.6,6.6,16.6,9.1,33.3,18.1,50,27.2,11.1,6,22.4,12.1,34.7,15.3,17.9,4.6,36.9,2.9,55-.7,4.2-.8,8.4-1.8,12-4.1.7-.4.8-1.9.1-1.6,7.6-.9,15.8-.3,23.4-.8,4-.3,8-.4,12-.6,3.6-.2,7.2-.3,10.8-.3,12.8.1,25.6,2.8,38.2.8,1.8,2.5,3.9,4.6,6.4,6.3,14.2,9.6,31.4,13.8,46.2,22.4.1-2,.4-4.5.5-6.5,0-.4,0-.8-.2-1-.2-.2-.6-.3-.9-.3-1.8-.2-3.5-.4-5.3-.6,2,.5,3.7-2.2,2.9-4.2s-3-2.9-5-3.2c1.2.5,2.5-.8,2.4-2.1s-1.2-2.3-2.3-2.9-2.4-.9-3.6-1.5c1.7-.6,1.8-3.3.5-4.6s-3.2-1.7-5-2c.1-1.7.2-3.5.3-5.2,0-.5,0-1-.2-1.4-.3-.5-.8-.7-1.4-.9-1.8-.6-3.6-1-5.5-1.2-.4,1-.5,2.2-.4,3.3-1.6-3,3.2-6.4,2-9.5-.6-1.5-2.4-2.1-4-2.1,1.6-.2,2.2-2.5,1.3-3.9s-2.5-2-4-2.6c1.1-.8.8-2.7-.4-3.4s-2.6-.8-3.9-.7c1.9-1.7,4.1-3.2,5.8-5.1s3-4.5,2.5-7-3.3-4.6-5.7-3.6c1.6-.5,2.8-1.9,3.3-3.5s.6-3.3.7-4.9c0-.9,0-1.9-.3-2.8-1-2.4-4.3-2.4-6.9-2.2,0,.5-.1,1.1-.2,1.6,1.6-1.8,1.1-4.7-.4-6.4s-3.9-2.7-6.1-3.3c-.6-.2-1.3-.3-1.9,0s-1,1-.6,1.6c0-.7,0-1.5,0-2.2-.5-.3-1.1-.5-1.7-.5,0,.5.2,1,.6,1.4-.8-1.5-2.3-1.2-3.9-1.6s-3.6.3-4.2,1.9l-8.3-.5-.3,2.5c-1.6-.7-3.4-1.4-5-.7s-1.9,3.6-.2,4c-1.5-1.9-4.1-2.8-6.5-2.3s-4.4,2.3-5.2,4.6c-.3-2.3-1.9-4.5-4.1-5.3s-4.8-.3-6.6,1.3c-.1-1.5.2-3,.3-4.5s-.4-3.1-1.6-4-3.4-.3-3.5,1.2c.3-2.2-.5-4.9-2.6-5.4-2.4-.6-4.5,2.3-4,4.8.5-1.9-.3-4.1-1.9-5.3s-3.9-1.4-5.6-.4c0-3.3-4.3-5.8-7.2-4.3.7-1.3.2-3.1-.8-4.2s-2.5-1.7-3.9-2.2c-.7-.2-1.4-.4-2.2-.3s-1.4.8-1.3,1.6c-.4-1.9-3.3-2.4-4.6-1s-1.2,3.8,0,5.3c-.7-.9-1.4-1.8-2.4-2.1s-2.5.4-2.4,1.5c-1-2.7-3-5.1-5.5-6.6-.5-.3-1.2-.6-1.8-.5s-1.1.9-.7,1.4c-4.7-2.6-10.9-2.2-15.2,1-1.1-1.4-3.4-1-4.6.3s-1.4,3.2-1.5,4.9c0,.7.4,1.6,1,1.3-.2-1-.7-2-1.4-2.8-2.2-2.7-6.2-1.9-9.6-1.5.2-1.2.7-2.3,1.3-3.3-2-1.3-4.4-1.9-6.8-1.7.3-2-1.5-3.6-3.1-4.7-2.7-1.9-5.7-4-9-4,0-1.9-2-3.2-3.7-4-1.2-.5-2.5-1-3.7-.7s-2.3,1.8-1.6,2.9c.5-1.2-.2-2.6-1.3-3.4s-2.2-.8-3.4-1.3h0Z"/>
              <path class="st34" d="M744.4,122.4c-.1-.9-.9-1.6-1.7-1.7,0-.9-.8-1.7-1.7-1.8-.3.2-.5.5-.8.7.5-.6.4-1.6-.2-2s-1.6-.4-2,.2c-.5-.7-1.5-.9-2.2-.5,1.4-1,2.3-2.8,2.2-4.6-.7-.4-1.5-.7-2.2-1.1-.7-1.2-2-2-3.4-2-.5,1.2-.4,2.7.3,3.8-.9,0-1.8.5-2.2,1.4s0,1.9.8,2.4c-1.7.4-3.2,1.1-4.6,2.1.8.8,1.6,1.7,2.3,2.5-2.2-.8-4.8.1-6.1,2,1.2.5,2.2,1.3,3,2.3-.8,0-1.7,0-2.5,0-.3,1-.2,2,.2,2.9,0-.3,0-.7,0-1-1.4-.9-2.9.8-4.5.4v1.3c0-.6-.5-1.2-1-1.5-.6-.4-1.5-.6-2.1-.2-.7.4-.9,1.4-.3,1.9-.4-.2-.5-.8-.8-1.2-.5-.9-2-1-2.7-.2s-.3,2.2.7,2.6c-.5.4-1.2-.5-1.8-.4-.3,0-.5.2-.6.4-.7.9-1,2.1-.6,3.2.8,0,1.7.1,2.5.3-.8.6-1.9.6-2.6,1.3-.6.6-.6,1.7,0,2.4s1.7.7,2.4.2c-.4.8-.6,1.6-.6,2.5,0,.2,0,.4.1.6.2.3.6.3,1,.4.7,0,1.5,0,2.2.1-2.2.8-3.5,2-5.1,3.8-.2.2-.4.5-.3.8.2.7,1.3.2,2,.5-.8.4-1.9-.1-2.8,0-1,.2-1.7,1.1-1.6,2.1s.8,1.8,1.7,2.1c-1.1-.4-2.3-.7-3.5-.5s-2.2,1.3-2.1,2.5c.1.9,1.1,1.6,2,1.5.5,0,.9-.3,1.2-.5.8-.5,1.6-.9,2.4-1.4-1.3.2-2.3,1.2-3.2,2.1-.3.3-.6.6-.8,1.1-.2.6,0,1.2.2,1.8.3,1,.7,2,1.6,2.5s2.3-.2,2.1-1.2c-1.3.7-2.2,2.2-2.1,3.6,2,.9,4.4.7,6.3-.5,0,.7,1.1,1.6,1.8,1.6s1.3-.6,1.3-1.3c-.6.9-1,2-1,3.1,0,.4,0,.8.3,1.1.5.6,1.5.4,2-.2s.6-1.4.7-2.2c-.7,1.3.1,3.2,1.6,3.6.6.2,1.4,0,1.8-.4s.7-1.2.3-1.8c-.1.8-.2,1.8.4,2.3.6.5,1.7.3,2.2-.3s.7-1.5.6-2.3c0-.8-.3-1.7-1-2,1.1,1.4,3.7,1.2,4.6-.4,0,.5,0,1.1-.2,1.6.9.2,1.9.4,2.8.1s1.6-1.3,1.2-2.2c-.3.4,0,.9.3,1.2s.9.3,1.3.3c1.2.1,2.4.2,3.7.3.7,0,1.4,0,2-.3.6-.4.8-1.3.6-2.1s-.9-1.3-1.5-1.6c.4.9,2.2.4,2.7-.5-.7.3-.9,1.3-.6,2s1.1,1.1,1.8,1.3c.8.2,1.7.1,2.3-.4s.9-1.5.4-2.2c-.2,1.2-.3,2.5-.5,3.8,1.2.5,2.6.6,3.9.2-1.2,0-2.2,1.6-1.4,2.6s2.6.7,3-.4c0,1-.1,2-.2,3,1.9,1.2,4.8.2,5.4-2-.2.6-.1,1.2.2,1.7,1.4.2,3-.1,3.8-1.3s.3-3.2-1-3.4c2-.2,3.5-2.3,3.2-4.2s-2.4-3.5-4.3-3.1c1.2-.7.8-2.9-.5-3.1,2.3-.5,3-3.4,3.3-5.7.1-.8.2-1.7-.2-2.5s-1.5-1.2-2.1-.7c.6-1.1-.5-2.7-1.8-2.5.4-1.4-1.4-2.9-2.7-2.2,1.1-.5,1.2-1.8.9-3s-1.5-2-2.7-1.8c.7.2,1.4-.4,1.7-1.1.3-.7.5-1.5.3-2.3s-.9-1.4-1.7-1.5c1-.9,1.6-2.4,1.2-3.7s-2.2-2-3.2-1.1c.2-.8-.2-1.7-.8-2.2s-1.5-.7-2.3-.9c-.5-.1-1.3,0-1.2.5.3-.5.5-1.2.2-1.7s-.9-.9-1.5-.8-.8.5-.5.9h0Z"/>
            </g>
          </g>
          <path class="st33" d="M1008.7,346.3c.2,3,.9,5.9,2.3,8.6.2.3.4.7.7.8.6.2,1.3-.4,1.7-.9.8-1.2,1.6-2.4,2.2-3.7.8,4.4,2.5,8.9,5.9,11.9s8.8,3.9,12.5,1.4c-.3-.8-.1-1.8.5-2.5.9,1.3.7,3,.7,4.6,0,4.3,2.2,8.6,5.6,11.2,1.2.9,2.7,1.6,4,1,.6-.3,1.1-.8,1.5-1.4,2.4-3.2,2.7-7.9.9-11.4,4.7-3.3,4.4-12.2,1.6-17.2,3.3,1.7,7.7.9,10.2-1.8.9,2.6,1.9,5.2,2.8,7.8.7-2,1.8-3.8,3.2-5.4,1,1.8,2,3.7,2.9,5.5l8.7-4.1c-.2-1.1-.3-2.3-.4-3.4,1.3,2,2.2,4.3,2.4,6.7,4.6-.6,9-2.8,12.3-6.1,1.2,1.5,7,2.3,8.6,1.3s2.4-3.3,1.6-5.1c4.7-1.9,8-6.8,8-11.9,0-5.1-3.4-10-8.1-11.8,1.3,1.5,4-.5,3.7-2.4s-2.1-3.3-3.8-4.2c-4.6-2.5-9.7-4-14.9-4.5,2.2-4.3-1.9-10.3-6.8-9.8,1.3-3.2-1.8-6.8-5.1-7.4s-6.8.7-10,2c.2-5.3-3-10.2-7.8-12.3-1.4-.6-3-.7-4.6-.7-4.4,0-8.9.2-13.3.7,4.4-.4,8.8-1.3,12.9-2.7,1.6-.6,3.4-1.3,4.4-2.7s1-3.7-.5-4.6c-.8-.5-1.8-.5-2.7-.5-3.7,0-7.3.2-11,.2,1.6-2.4,2.9-5.3,1.8-7.9-1.1-2.6-5.7-3.2-6.4-.4,0-3.3-5.2-7.4-8.5-7.9-3.5-.5-7.3.4-9.6,3-2.3,2.6-2.5,7.1,0,9.5-.2-3.4,2.9-7,1.3-10-1-1.8-3.5-2.5-5.5-2s-3.8,1.8-5.5,3.1c1.5-3.2,2.4-7,.7-10.1-1.7-3-6.8-4-8.6-.9.9-2.9-.5-6.3-3.2-7.8s-6.3-.8-8.2,1.6c0-4.5-4-10.3-8.2-11.8-4.2-1.5-9.4-.1-12.2,3.3-1.1-1.9-2.2-3.7-3.3-5.6-3.9.9-7.5,3-10,6.1.2-3.1-3.2-5.5-6.3-5.5-3.1,0-6,1.7-8.6,3.4.9-1.8-.1-4.1-1.8-5.2s-3.8-1.3-5.8-1.3c-3.6-.1-7.4.1-10.7,1.7-2.8-.2-11.3-1.5-13.9-.4s-4.6,4-3.9,6.7c-1.1-1.9-2.2-3.9-3.3-5.8-5.2,1.5-11.4,4.2-11.7,9.6-2.5-2.9-7-3.8-10.3-2s-5.2,5.9-4.3,9.6c-4.4.6-13.9,1.2-17.4,3.9-3.5,2.7-5.4,8.1-2.8,11.7-1.3-2.9-2.6-5.8-3.9-8.7-5.1.7-9.6,4.7-10.8,9.7-2.5-2.2-7.1-1-8.3,2.1s1.7,7,5,6.9c-2.2-1.3-4.5-2.7-7-3s-5.4.4-6.9,2.5-.5,5.7,2,6.3c-1.2-3.4-4.8-5.8-8.4-5.6s-6.9,3.1-7.6,6.6c36.2,35.1,87.2,53.9,135.1,69.8,4.5,1.5,9.2,3,14,2.9,6.3-.2,12.1-3.4,18.2-4.9,8.4-2,24.5-2.5,32,1.7h0Z"/>
        </g>
        <g>
          <path class="st35" d="M513.4,112.8c.4-1.6.1-3.6-1.2-4.6s-3.8-.4-3.9,1.2c-1.5-2.1-4.4-3.1-6.9-2.3,0,.6,0,1.2-.1,1.8-.1-1.4-.3-2.7-.4-4.1-.7-.5-1.8-.4-2.5.2s-.7,1.8-.1,2.5c.1-1.1-.9-2.1-2-2.3s-2.3.1-3.4.5c.8,1.9,1.6,3.9,2.4,5.8-3.2-.8-6.9-.2-9.6,1.8,1.9,2.2,4.4,3.9,7.2,4.9-2.2-.6-4.4-1.2-6.5-1.8-.3,1.8-.6,3.5-.9,5.3-3.1-2.6-7.8-.8-11.4,1.2-.3.2-.7.4-.8.7-.1.4.2.8.5,1.1,1.7,1.9,3.7,3.7,5.8,5.1-1.6-1.5-3.8-2.3-6-2.3,0,1.8,0,3.6,0,5.4-1.4.3-3-.4-3.7-1.6.2,1.7.9,3.3,2.1,4.6-2.5.7-5.9,1.6-8.3,2.3,1.6-1,2.6-2.9,2.5-4.7-1.1.2-2.3-.4-3.4-.6s-2.7.5-2.5,1.6c.7-1.1.1-2.8-1.1-3.4s-2.7-.3-3.7.5-1.7,2-2.1,3.3c-1.7-1.7-4.5-2.1-6.6-1.1s-3.4,3.6-3,5.9c-.7-1.2-2.2-1.8-3.6-2.2-1.5-.4-3.2-.7-4.6-.2s-2.7,2.2-2.2,3.7c.1-.9.4-.6-.5-1-1.3,1.4-2.3,3-3.1,4.7-.2-2.3-2.6-4.2-4.8-3.7s-3.8,3.1-3.1,5.2c.3-2.9-2-5.5-4.7-6.6s-5.7-.9-8.6-.7c-1.5.1-3.1.2-4.5.8.7-2.1,1.4-2.6,1.3-4.8s-1.3-4.5-3.4-5.3-4.8-.9-4.8,1.3c1.5-1.7.4-4.6-1.5-5.7s-4.4-1-6.6-.8c-1.1,0-2.4,1.4-1.4,1.8-1.8-2.8-6-3.6-8.7-1.7-3.2-1.5-7.4-.8-9.9,1.8-2.9-4.3-10-4.9-13.6-1.1,1.4-2.2.7-5.3-1.4-6.8s-5.3-1-6.9,1c-2.5-4.1-6.3-.5-6.3-.5,0,0-3.9-2.9-6-2.7-6.2.6-8,3.8-8,3.8,0,0-3.8.6-5.4,1.5-1.9,1-3.3,2.7-4,4.7-.1.4-.2.8,0,1.1s.9-.1.6-.4c-3,3.7-4.7,8.4-4.7,13.2,0,1.3.1,2.6.8,3.8.9,1.7,2.7,2.7,4.4,3.6,9,5,18,10,27,15,17.1,9.5,34.3,19,52,27.4,2.6,1.2,5.3,2.5,8.1,3.2,3.9,1,7.9,1,11.9,1.1,9,0,18,.1,27-.6,15.4-1.2,30.7-4.6,45-10.5,5.8-2.4,12-5.8,14-11.7-6.2-8.4-7.5-20.3-3.2-29.8.4,2.7.8,5.4,1.3,8.1.7-4.7,2-9.2,3.7-13.6.8,0,1.6-.2,2.4-.3.4-1.9-.2-3.9-1.5-5.3l4.6.5c1.8-2.8,1-7-1.8-8.8,2.1.6,4.1-2.2,2.9-4-.6-.4-1.3-.8-1.9-1.2,1.1-1.9,2.5-3.7,4-5.3.3-1.2.4,1.2-.8.9h0Z"/>
          <path class="st36" d="M422.9,209.2c0-3.1-3.4-5.8-6.5-5.1.3.4,1.2-.2.8-.6-1.4-.8-3.1-1.1-4.6-.9,1.5-1.2,2.7-3,2.7-4.9s-1.7-3.9-3.6-3.7c.6-1.6,1.2-3.3,1.1-5.1s-.9-3.5-2.4-4.4-3.8-.3-4.4,1.3c.6-1,1-2.2,1.1-3.3-2.1-1.3-4.7-1.8-7-1.2,1.5-1.2,1.1-3.9-.3-5.2s-3.5-1.8-5.4-2.2c1.6-.2,2.9-1.8,2.6-3.4s-2.3-2.6-3.7-1.7c2.5-1.4,3.1-4.7,3.2-7.6,0-.4,0-.8-.1-1.1-.3-.7-1.3-.9-2-.7s-1.3.8-1.8,1.4c-.3.3-.6.7-.6,1.1s.4.9.8.8c.5-1.1-1-2-2.1-2.2-2.4-.6-4.8-1-7.3-1.2.1,3.5,1.3,6.9,3.3,9.7,0-.8-.7-1.6-1.5-1.9s-1.6-.4-2.4-.4c-.5,0-1.1.2-1.1.6.8-1,.9-2.5.4-3.7s-1.8-2-3.1-2c1.2-.5,1.4-2.3.7-3.5s-2.1-1.7-3.3-2.1c-.4-.2-1-.3-1.3,0-.2.2-.2.4-.3.7-.2,1-.4,2-.6,2.9,0-1.1-.2-2.5-1.2-2.9-1-.3-2,.7-2.1,1.7s.4,2,.9,3c-2.5-1.5-5.6-1.9-8.4-1-.6.2-1.2.6-1.1,1.1,0,.3.3.5.6.7,1.6,1.2,3.6,2,5.6,2.4-.7,0-1.3.1-1.9.5s-1,1-.9,1.6c.2,0,.5-.2.5-.4-.6-3.1-5.8-3.5-8.8-2.7,1.7-.1,3.1-2,2.7-3.6s-2.4-2.8-4-2.2c.4-1.2.8-2.5.4-3.8s-2-2.1-3-1.3c-.3,1.4-.6,2.8-1,4.2.4-1.9.8-3.9.1-5.7s-2.6-3.3-4.4-2.7c-.2,1.1-.4,2.3-.5,3.4,0-1.4,0-2.7-.2-4-1.1-.6-2.6,0-3,1.2.5-.7.3-1.7-.4-2.3s-1.5-.8-2.4-1c-.9-.1-1.8-.2-2.6.2s-1.3,1.4-1,2.2c.5-3-2.5-5.5-5.5-6.1-1.7-.4-3.6-.3-5.1.6s-2.6,2.7-2.2,4.4c0-2-2.4-3.2-4.4-3.2-4.4.1-8.3,3.8-8.8,8.2-.5-1.4-2.1-2.3-3.6-2.4s-3.1.3-4.5.8c-1.9.6-3.8,1.3-5.6,2.1-1.1.5-2.4,1-3.1,2s-.8,2.6.3,3.3c-.8-2-3.2-2.9-5.3-3.5-1.3-.4-2.7-.8-4-.3s-2.2,2.2-1.3,3.3c-1.4,0-3.6,2.8-3.7,4.2,0,.2,0,.4.1.5.2.1.4.1.6.1.9,0,1.7.6,2,1.4-1.2-.8-3.1-.4-3.8.9s0,3.1,1.3,3.7c-1,0-2-.2-3-.3-.5.9-.6,2.1-.3,3.1-.4-.6-.8-1.3-1.4-1.7s-1.5-.6-2.1-.2c-1.2.8-.6,2.6-1.1,3.9.6-1.5-1.4-3.1-3-3.5s-3.4.9-3.6,2.5c.1-.7.2-1.4.3-2.1,0-.2,0-.4,0-.5s-.3-.2-.4-.2c-1.7-.3-3.9,0-4.5,1.6.2-1.6.4-3.1.6-4.7-1.7-.5-3.6-.2-5,.8l1.2-4.5c-.6.2-1.2-.5-1.5-1s-1.1-1.2-1.6-.8c-.1.1-.2.3-.3.4-.5.9-.9,1.8-1.4,2.7-.9-.7-2.9-1-4-1.2-.5,0-1,0-1.3.3-.2.2-.3.5-.3.8-.2,1.2-.4,2.3-.6,3.5-.6-2.1-2.9-3.6-5.1-3.3-.2,0-.5,0-.7.2-.6.5-.4,1.7-1.1,2-1.8-1.2-4-2.3-6.2-2.1s-4.4,2.1-4.2,4.3c-1.7,1.6-3.9,3.9-4.4,6.1-.9-.6-1.9-1.3-3-1.4s-2.4.5-2.6,1.6c-.1.7,0,1.5-.5,1.8-.3.2-.7,0-1,0-2-.5-4.1-.8-6,0s-3.4,2.7-3,4.7c-1.3-.7-2.8-1.2-4.3-1-2.2.3-3.9,2.1-4.7,4.1s-.8,4.3-.9,6.4c-1.1-.1-1.8-1.6-3-1.5-.9,0-1.5,1.2-1,2-.8-1.2-2.4-1.9-3.8-1.7-.6-1.2-3.3-3.7-4.6-3.4s-2.3,1.4-2.4,2.7c-1.4-.9-3-1.6-4.7-1.3s-3.1,2-2.5,3.6c-3.1-1.3-7,1.6-6.8,4.9-3.3-1.4-7.7.8-8.5,4.4-3.7-.2-7.1,3-7.4,6.7-3.1-1.1-6.8,1.1-7.4,4.3-3.5-.5-7,3.2-6.2,6.7-2.1-.3-4.3-.6-6.3-.1s-4,2-4.5,4c-2.2-.9-5-.4-6.7,1.3-.4.4-.8.9-1.4.8-.5,0-.8-.4-1.1-.7-1.2-1-3.1-.9-4.3.1-1.9-2.1-7.6.9-8,3.8-.3-1.1-2-1.3-2.9-.5s-1.2,2-1.3,3.1-.2,2.4-.9,3.3c-5.3-1.2-11.1-.6-16,1.7-1.4-1-3.5-.2-4.5,1.2-1,1.4-1.2,3.2-1.4,4.9-3.4-.4-6.9-.3-10.3.4-.7.1-1.4.3-1.8.9-.6.9,0,2.2-.2,3.2-.3,1.3-1.8,1.9-3.1,1.9s-2.6-.5-3.9-.6c-1.9-.2-3.8.3-5.3,1.5-.7-2.7-2.5-5.5-5.2-6.3s-6.2,1.2-6,4c-4.8-.7-9.8,1.6-12.4,5.7-.3.5-.7,1.1-1.3,1.2-.3,0-.7,0-1,0-1.3,0-2.3,1-2.9,2.2s-.7,2.5-1.1,3.7c-1.1,2.9-3.7,4.9-6,7s-4.5,4.8-4.3,7.9c-2.2-1.4-5.3,0-6.6,2.4s-1.1,5.1-1,7.7c.2,2.8-3.5,5.5-5.9,6.9-1.5.9-3.1,1.6-4.1,2.9s-1.5,3.4-.4,4.7c.2.2.4.4.4.7,0,.4-.4.6-.7.8-3.4,1.9-5.8,5.2-7.3,8.7s-2.3,7.3-3.1,11.1c-.1.7-.3,1.4-.4,2.1-.2,1.1-.4,2.1-.6,3.2-.7,3.4-1.4,6.8-1.1,10.3.4,4.4,2.4,8.6,5.6,11.7-1.4,0-2.7.9-3.4,2.2s-.8,2.7-.8,4.2c0,2.7.7,5.5,2.3,7.8s4.2,3.9,6.9,3.8c1.6-1,4.2-1.8,5.8-2.9.1,2.2,1.7,4.2,3.8,4.9s4.6,0,5.9-1.7c0,.6.6,1,1.2,1.3,3,1.2,6.5.6,9.7,0,1.9-.3,3.7-.7,5.6-1.1,2.6-.5,5.2-1,7.3-2.6s3.5-4.5,2.4-6.9c1.7-2.2,3.2-4.4,4.7-6.7,0,1.6,2,2.4,3.6,2.6,3.5.4,7,.3,10.4-.4,1.7-.3,3.8-1.2,3.9-3-.3,1.1-.6,2.3-.9,3.4.8.2,1.6.3,2.4.2,0-.4-.7,0-.6.3s.5.5.8.6c4,.9,8-.5,11.8-1.9,2.6-.9,5.5-2.2,6.6-4.8,7-4.4,13.9-9.6,20.2-14.9,7.9-6.5,15.2-13.7,23.2-20,8.9-7,18.5-12.9,28.2-18.8,14.2-8.6,28.4-17.2,43.8-23.5,14.6-6,30-10,43.9-17.4,16.2.8,32.4,6.5,47.9,11.5,33.2,10.6,66.8,20.7,101.4,24.6,2.6.3,5.3.5,7.7-.5,2.9-1.2,4.7-4.1,6.7-6.5,7.7-9.5,20.1-16.2,22.5-28.2.8-4.3.2-8.7-.4-13.1-1.5-10.1-4.8-20.3-5-30.5h0Z"/>
          <g>
            <g>
              <rect class="st10" x="460.9" y="143.3" width="3.5" height="36.2"/>
              <rect class="st10" x="407" y="170.6" width="3.5" height="36.2"/>
              <rect class="st10" x="355.5" y="194.1" width="3.5" height="36.2"/>
              <g>
                <path class="st10" d="M505.3,129.9h-3.2v-.4h-12.5l-1.2.4,1.2,2.4h12.5v.4h3.2c.8,0,1.4-.6,1.4-1.4s-.6-1.4-1.4-1.4h0Z"/>
                <path class="st10" d="M353.6,198.3l136-66-1.2-2.4-136,66c-.7.3-1,1.1-.6,1.8h0c.3.7,1.1,1,1.8.6Z"/>
              </g>
            </g>
            <g>
              <rect class="st10" x="622.9" y="143.3" width="3.5" height="36.2"/>
              <rect class="st10" x="676.8" y="170.6" width="3.5" height="36.2"/>
              <rect class="st10" x="728.3" y="194.1" width="3.5" height="36.2"/>
              <g>
                <path class="st10" d="M582.1,129.9h3.2v-.4h12.5l1.2.4-1.2,2.4h-12.5v.4h-3.2c-.8,0-1.4-.6-1.4-1.4s.7-1.4,1.4-1.4h0Z"/>
                <path class="st10" d="M733.7,198.3l-136-66,1.2-2.4,136,66c.7.3,1,1.1.6,1.8h0c-.3.7-1.1,1-1.8.6h0Z"/>
              </g>
            </g>
            <g>
              <g>
                <g>
                  <rect class="st41" x="499.1" y="161.5" width="89.3" height="142.2"/>
                  <path class="st47" d="M719.8,202.7c-1.7-1.4-3.6-2.6-5.6-3.5-15-6.9-94.7-43.5-105.1-49.1-11.5-6.2-9.9-14.4-9.9-14.4h-5.6v161.9h132v-87.3c0-2.4-3.2-5.5-5.8-7.6h0Z"/>
                  <path class="st50" d="M366.4,202.7c1.7-1.4,3.6-2.6,5.6-3.5,15-6.9,94.6-43.5,105.1-49.1,11.5-6.2,9.9-14.4,9.9-14.4h5.6v161.9h-132v-87.3c0-2.4,3.2-5.5,5.8-7.6h0Z"/>
                  <rect class="st40" x="499.7" y="292.9" width="88.3" height="4.7"/>
                  <path class="st49" d="M565.9,202.2c0-1.5-.2-3-.6-4.4-1.5-5.9-6.8-19.8-21.7-19.8h-1c-15,0-20.2,13.9-21.7,19.8-.4,1.4-.6,2.9-.6,4.4v93h1v-89.8c0-1.5.2-3,.6-4.4,1.5-5.9,5.8-17.8,20.7-17.8h1c15,0,20.2,11.9,21.7,17.8.3,1.1.5,2.2.5,3.3v-2h0Z"/>
                  <path class="st39" d="M593.5,125.8h-11v30.2h-79v-30.2h-10.9v169.5h27.6v-94.1c0-1.4.2-2.7.6-4.1,1.5-5.5,6.8-18.3,21.7-18.3h1c15,0,20.2,12.8,21.7,18.3.4,1.3.6,2.7.6,4.1v94.1h27.7V125.8h0Z"/>
                  <g>
                    <path class="st43" d="M346.3,197.4c-.8,0-1.4.6-1.4,1.4s.6,1.4,1.5,1.4h11c0,0,1.1-2.5,1.1-2.5l-1.2-.4h-11Z"/>
                    <path class="st43" d="M499.1,264.5h-7.4s0-2.9,0-2.9h0c0-.5-.2-1.1-.8-1.3l-132.5-62.5-1.1,2.4,131.5,62v2.3h-.2c-.8,0-1.5.7-1.5,1.5s.7,1.5,1.5,1.5h10.5c.8,0,1.5-.7,1.5-1.5s-.7-1.5-1.5-1.5h0Z"/>
                  </g>
                  <g>
                    <path class="st43" d="M741.5,197.4c.8,0,1.4.6,1.4,1.4s-.7,1.4-1.5,1.4h-11c0,0-1.2-2.5-1.2-2.5l1.2-.4h11q0,0,0,0Z"/>
                    <path class="st43" d="M588.7,264.5h7.4s0-2.9,0-2.9h0c0-.5.2-1.1.8-1.3l132.5-62.5,1.2,2.4-131.5,62v2.3h.2c.8,0,1.5.7,1.5,1.5s-.7,1.5-1.5,1.5h-10.5c-.8,0-1.5-.7-1.5-1.5s.7-1.5,1.5-1.5h0Z"/>
                  </g>
                  <g>
                    <rect class="st54" x="330.9" y="185.7" width="3.5" height="31.2"/>
                    <rect class="st54" x="370.8" y="199.6" width="3.5" height="36.2"/>
                    <rect class="st54" x="412.1" y="219.4" width="3.5" height="36.2"/>
                    <rect class="st54" x="453" y="239.5" width="3.5" height="36.2"/>
                    <rect class="st54" x="493.4" y="258.8" width="3.5" height="19"/>
                    <g>
                      <path class="st54" d="M330,186.2h3.2v-.4h12.5l1.2.4-1.2,2.4h-12.5v.4h-3.2c-.8,0-1.4-.6-1.4-1.4s.6-1.4,1.4-1.4h0Z"/>
                      <path class="st54" d="M501.4,262.8l-155.7-74.1,1.2-2.4,155.7,74.1c.7.3,1,1.1.6,1.8h0c-.3.7-1.1,1-1.8.6Z"/>
                    </g>
                  </g>
                  <g>
                    <rect class="st54" x="752.7" y="185.7" width="3.5" height="31.2"/>
                    <rect class="st54" x="712.8" y="199.6" width="3.5" height="36.2"/>
                    <rect class="st54" x="671.5" y="219.4" width="3.5" height="36.2"/>
                    <rect class="st54" x="630.6" y="239.5" width="3.5" height="36.2"/>
                    <rect class="st54" x="590.2" y="258.8" width="3.5" height="19"/>
                    <g>
                      <path class="st54" d="M757.1,186.2h-3.2v-.4h-12.5l-1.2.4,1.2,2.4h12.5v.4h3.2c.8,0,1.4-.6,1.4-1.4s-.7-1.4-1.4-1.4h0Z"/>
                      <path class="st54" d="M585.7,262.8l155.7-74.1-1.2-2.4-155.7,74.1c-.7.3-1,1.1-.6,1.8h0c.3.7,1.1,1,1.8.6Z"/>
                    </g>
                  </g>
                  <g>
                    <g>
                      <path class="st21" d="M795.6,197.5h-11.4c-1.6,0-3.2.2-4.7.7l-4.2,1.2c-1,.3-2,.7-3,1.2l-170.8,86.1v-12.6h-17.8v57.4h230.8v-130.5c0-1.9-1.5-3.4-3.4-3.4h-15.5Z"/>
                      <path class="st22" d="M291.9,197.5h12c1.2,0,2.4.2,3.6.5l5,1.4c.8.2,1.5.5,2.3.9l171.2,86.3v-12.6h16.8v57.1h-229.8v-130.1c0-1.9,1.5-3.4,3.4-3.4h15.5Z"/>
                    </g>
                    <polygon class="st45" points="589.7 280.2 597.4 280.2 597.4 278.3 588 278.3 588 305.4 589.7 305.4 589.7 280.2"/>
                    <polygon class="st44" points="491.4 280.2 499.1 280.2 499.1 278.3 489.7 278.3 489.7 305.4 491.4 305.4 491.4 280.2"/>
                  </g>
                  <g>
                    <g>
                      <rect class="st12" x="490.7" y="297.1" width="106.3" height="11.7"/>
                      <rect class="st17" x="489.7" y="295.5" width="108.6" height="1.7"/>
                    </g>
                    <g>
                      <rect class="st14" x="474.7" y="306.6" width="136.7" height="11.7"/>
                      <rect class="st16" x="473.3" y="306.6" width="139.8" height="1.7"/>
                    </g>
                    <g>
                      <rect class="st18" x="460.5" y="317.1" width="165.2" height="14.4"/>
                      <rect class="st15" x="458.8" y="317.1" width="168.6" height="1.7"/>
                    </g>
                  </g>
                  <rect class="st53" x="501.7" y="153.7" width="82.9" height="6.5"/>
                  <rect class="st54" x="501.6" y="160.2" width="82.9" height="1.5"/>
                </g>
                <g>
                  <rect class="st46" x="480" y="268" width="3.5" height="38"/>
                  <rect class="st46" x="417.2" y="277" width="3.5" height="27"/>
                  <path class="st46" d="M412.8,276.4h25.5v.3l55.2-13.8v.3h12.8v3.1h-13.8v-.3l-54.3,13.5h0c0,0-25.5,0-25.5,0-.9,0-1.6-.7-1.6-1.6s.7-1.6,1.6-1.6h0Z"/>
                </g>
              </g>
              <path class="st9" d="M985.6,361.3c1.3.2,2.7.5,3.9-.2s1.7-2.5.6-3.3c.9.3,1.8-.5,2-1.4s-.1-1.8-.5-2.7c4.3.1,8.7.2,13-.5,2.3-.4,4.8-1.1,6.4-2.9.4-.5.8-1.1.6-1.7-.3-.6-1.2-.8-1.9-.8-1.4,0-2.7,0-4.1-.1-.6-5.8-3.4-11.3-7.6-15.2,2.8,0,6.2-2.1,6.4-4.9-2.1-1-4.3-2-6.4-3.1,1.5.5,3.3-.2,4-1.6-.8-.4-1.6-.8-2.5-1.2.9-1.9.3-4.3-1.3-5.6,1.9-.8,4-1.8,4.6-3.7s-1.8-4.4-3.3-3c2.5-.7,5-2.6,5.2-5.2s-3.3-5-5.2-3.2c.4-1.2.9-2.6.3-3.8s-2.8-1.3-3,0c-.4-3-2.8-5.7-5.8-6.5.9-.8.8-2.4,0-3.4s-1.8-1.6-2.9-2.1c-9.1-4.6-18.3-9.2-27.4-13.8-13.2-6.6-26.6-13.4-41.2-15.6-20.1-3.1-40.8,2.7-61-.4-1.3-.2-3.3.6-2.6,1.7-8.2-.9-16.3-.9-24.2,1.2-10.3,2.8-21,8.1-31.1,4.6-7-2.5-12.3-9-19.7-10.3-3-.5-6.2-.1-9.2-.8-4.5-1.1-8.3-4.6-12.9-5.4,0,.8,0,1.5,0,2.3-.1,7.2-7.8,12.7-14.1,16.2-2.8,1.5-5.9,2.4-9,3.2-14.8,4-29.9,8.1-45.2,7.7-4.5-.1-10,0-12.1,3.9-2.8-.2-5.2.9-7.9,1.8-4.1,1.5-8.2,2.9-12.3,4.4-1.4.5-2.7,1-4.2,1.2-1.6.3-3.2.3-4.8.5-5.8.8-11.1,4.1-16.9,5.2.2,3.2.9,6.1,2.7,8.8,38.9-2.7,78,2.5,116.7,7.7,17.8,2.4,35.5,4.8,53.3,7.1,62,8.3,118.9,33.8,180.4,45h0Z"/>
              <g>
                <rect class="st46" x="605.7" y="268.1" width="3.5" height="38"/>
                <rect class="st46" x="668.5" y="277.1" width="3.5" height="16"/>
                <path class="st46" d="M676.4,276.5h-25.5v.3l-55.2-13.8v.3h-12.8v3.1h13.8v-.3l54.3,13.5h0c0,0,25.5,0,25.5,0,.9,0,1.6-.7,1.6-1.6s-.7-1.6-1.6-1.6h0Z"/>
              </g>
              <g>
                <g>
                  <path class="st52" d="M456.5,299.5c0-1.3-1.1-2.4-2.5-2.4-261.4,2.3-458.8,39.4-458.8,52.1l-.3.2v53.7l.3-1.4c0-12.6,195.9-64.1,455.9-67.1,3,0,5.4-1.9,5.4-4.3v-30.9h0Z"/>
                  <path class="st51" d="M628.9,299.5c0-1.3,1.1-2.4,2.5-2.4,261.7,2.3,459.2,39.4,459.2,52.1l.3.2v53.7l-.3-1.4c0-12.6-196.1-64.1-456.3-67.1-3,0-5.4-1.9-5.4-4.3v-30.9h0Z"/>
                  <path class="st48" d="M995,362.6l.2-1.4c0-.3,0-.5-.2-.8v2.1Z"/>
                </g>
                <g>
                  <g>
                    <path class="st11" d="M676,299.5c2,3,5.5,3.8,8,2-2,4.2-2.5,9.8-1.2,14.7.4,1.6,1.1,3.2,2.3,4,2.4,1.6,4.8-1.2,7.3-2.5,2.8-1.5,6-.7,9-1.7s5.6-5.4,3.9-8.8c.2,1.3.4,2.6.7,3.8,4.8.3,9.6.6,14.4,1,2.5.2,5.3.3,7.3-1.6s2.6-6.6.4-8.5c3.2.2,6.5-1.4,8.8-4.4,6,3.1,13.2.9,17.3-5.3,1,3.1.7,6.9-.9,9.5,2.1.8,4.4,0,6-1.9-2.4,1.9-3.3,6.6-1.8,10s5,4.8,7.5,3.1c-1.2,3-.4,7.2,1.8,9.1s5.3,1.5,7-1.1c2.2,3.7,6,5.5,9.3,4.6,0-1.5,0-3,.2-4.4,5,3.1,11.5,0,13.6-6.4,2.8,4,8.5,3.2,10.3-1.6,4.2,3,9.1,3.9,13.6,2.5,0-1.3,0-2.6-.1-3.9,6.9.2,13.9.4,20.8.6,2.7,0,6.4-1.6,5.6-5,.1,2,.2,4,.3,6,4.1,1.1,8.3,2.2,12.4,3.4-2.7.2-5.2,3.3-4.9,6.9.4,3.6,4.5,5.7,6,2.9.6,4.6,5,6.5,8.5,6.5s7.4-.9,10.3,1.9c.1-3.8.2-7.6.4-11.4-.4,1.8,1,4,2.4,3.7-.2-2.8-.3-5.5-.5-8.3,3.5,2.7,10.2,10.8,12.1,6.3-1.3,4-2.6,8-4,12,5.2-.8,10.3-3.3,14.6-7.2-1.2,2.2-2.3,4.4-3.5,6.6,4.3,5.1,11.9,4.1,15-2.1-3.4,4.2-3.1,12.4.5,16.6s9.8,3.3,12.4-1.8c-.5,1.6-.3,3.6.6,5,1.9.8,4,1.7,5.8.8s2.8-4.5,1.3-6.2c3.1,6.5,11.8,5.2,13.4-2,0,1.8.2,3.5.3,5.3,4.4,3.4,10.3,3.1,14.3-.7-1.4,3-2.7,5.9-4.1,8.9,4,2.6,10,4.4,11.5-1,.4-1.3.3-2.7.3-4-.2-8.2-.4-16.4-.6-24.5-16.1-8.7-33.4-24.1-42.2-40.9-9.9-18.8-95.8-18.3-117.3-20-16.5-1.3-28.8-12.9-45.3-14.7-17.4-2-3.5,11.3-20.9,12.3-32.7,2-48.2,6.9-76.1,28.4,1.7-.4,5,1.9,6.2,3.6h0Z"/>
                    <path class="st13" d="M1036.4,337c2.2.5,4.4.6,6.6.3-.3-2.7-1-5.5-2-8-.7-1.7-1.5-3.4-2.9-4.5-.6-.5-1.2-.8-1.9-1,.9-.2,1.8-.4,2.6-.8.1-1.4,0-3.5-.4-5,.2.2.6.2.8,0,.4-.3.4-.8.3-1.3-.6-6.9-4.7-13.5-10.7-17.1-.6-.3-1.2-.7-1.9-.6,0,0,0,0,0,0,.4-1.1.3-2.4-.3-3.5-.8-1.6-2.3-2.7-3.8-3.6-2.1-1.2-4.3-2.2-6.6-2.9-.7-.2-1.6-.2-2.3,0,1.1-2.1.4-5.1-1.5-6.8-1.9-1.7-4.4-2.3-6.9-2.7-.8-5.7-3.1-11.2-6.5-12.1.4-2.1.2-4.8-1.2-5.9-2-2.5-5.7-2.8-8-.6-.2-1.9-1.1-3.6-2.5-4.6-.4.7-.8,1.4-1.2,2.1.2-1.6-2.3-2.4-2.8-.9,1.3-4.6,1.6-11.9-3.4-13.4-1.1-.3-2.5-.3-2.8-1.5-.7.6-1.2,1.5-1.4,2.4-.4-3.4-4.8-7.6-6.5-3.3-.4-1.5-2.3-2.2-3.4-1.2-.5-7.5-4.3-14.3-10.2-17.6-.3-.3-.9-.4-1.3-.2.4-3.2-4.6-3.8-4.1.4,0-4.3-11.4-9.4-11.1-2.9-6.3-7.2-7.6-.9-8.7,6-1.1-1.2-.7-3.2-1.2-4.9-1-3.7-5.9-3.5-6.7.3-3.2,1-7.1-.9-10.4-.7s-7.2,3.4-6.1,7c-1.6-1.9-.5-6.9-3.5-7.3-2.7,0-2,6-4.6,7-5.3-3.5-12.1-6.4-18.2-4.6-1.9,1.3-2,4.6-3.8,5.9-1.9-6.3-11.3-8.4-12.1-.5-3.2-5-10.5-2.5-13.2,1.7.6-7.1-6.6-8.2-4.9-2.9-.8-3.9-11.3-5-11,0-.5-2-2.5-3.4-4.3-2.8,0-2.1-2-5.2-3.6-3-1,6-.1,12.6-1.4,18.5-3,.3-6.5,2.1-6.4,6.3-1.7-1.9-3.6-3.5-5.6-4.8-.6,2.2-.8,4.6-.6,6.9-.6-.5-1.3-.9-2.1-1,0,2,0,4-.1,6.1-.7-.3-1.4-.6-2.2-.9.9,5-3.2,1.7-5.7,1.8,5.2-7-3.4-12-4.9-9.3-.2-3.2-7.1-3.6-6.6.1-.5-1.7-2.9-2.4-4-1-.9-2-1.4-4.2-3-5.5-2.5-2.1-8.1-5.3-6.5,1-3.6-2.5-8.5-2-11.7,1.1-.2-1.4-.5-2.7-.8-4.1-1.7-.8-3.9,1-3.8,3.1-4.5-2.3-12.8-2.4-12.8,5-2.8-4.3-9-.6-7.5,4.4-4.6.3-9.1,3.4-11.3,8-.7-2.2-1.7-4.6-3.6-5.4-1.8-.8-4.1,1.3-3.6,3.1-1.4-3.1-6-1.4-5.3,2.2-3.6-2.4-11.1-2.4-10.4,4-3.7-5-10.9-6.1-15.6-2.4-3.1-4.1-5.7,2-4.3,5.8-1.7-3.6-7-2.3-8.7,1.3s-1,8-.3,11.9c-1.8-6.3-13.8-12.6-14.4-2.8-1.2-2.7-4-.2-5.4,1.1-2.6,1.6-8.8,3.6-6.3,8.1-3-3.2-6.9-1.5-9.9.5-1.7.3-5.7-.4-5.1,2.8-3.2-1.5-8.7-2.2-9.8,2.7-2.5-.6-8.4,1.3-6.5,5-2.9,1.6-7.1,2.2-8.7,5.7-.7,2,.8,4.9,2.6,4.1-4.4,7.9,8.7,6.3,6.9-.4,2.3-1.2,3.8-4.1,3.6-7,.4,3,3.7,1,3.9-1.3,2.8,2.3,7.5.7,8.7-3,2,.9,4.3.5,6-.9,0,.8-.3,1.7-.7,2.4,2.1,0,4.2-1.1,5.5-3-.2.8-.5,1.6-.7,2.4,2.9,1.3,6.3.9,8.9-1,2.5,4.1,8.9,5.4,12.2,2.2,1.4,1.3,3.9-1.1,4-2.9,0,1,0,1.9,0,2.9,2.3-.8,4.8.4,7.2.2,2.4-.2,5.1-3.1,3.7-5.4,1.6.3,3.3-.8,3.9-2.5-1.5,8.3,16.7,6.8,13.3.9,1.2,1.1,3.3,1,4.1-.7l-.4,2.8c2.6-.8,10.7,2.4,9-2.8,2,1.4,4.7-1.7,3.9-4,2,3.6,5.5-.3,4-3.4,1.5,1.1,3.5,1.2,5,.2-.4,2.2-1.4,4.2-2.7,5.9h6.9c-1.7,4.7,4,7,5.1,3.6,1.1,3.3,6.3,3.6,6.9-.8.5,5.7,8.2,4.5,7.4-1.2,2.6,1.4,8.1-2.3,6.5-5.1,4.2,2.7,8.8-3.6,3.8-6.5,3.5,1.2,9.7-4.8,5.6-7.4,3.1-.8,3.4-9.1.4-9.6,1-1.1.6-3.4-.5-4.9,1.9-.8,4.2-2.3,5.3-2.7-1.9,1-3.3,3.1-3.6,5.4,3.4.3,6.9.2,10.3-.3-2.1.7-1.9,4.5-.2,5.9,1.6,1.3,3.7,1.3,5.7,1-.4.3-.6,1.1-.2,1.6,2.5,1.6,6.1.2,8.9.6-3.8,3.8-2.6,6.1,2.2,5.9-2.7.8-6,5.3-2.7,7.5-2.1-.6-4.4,1.5-4.4,3.9,2.1,0,4.2.1,6.2.2-2.4,4.1,3.9,3.9,6.2,3.1-.5,1-.9,2-1.4,3,3.5.2,23,11,19.9,1.4.6,2.7,4.1,1.7,6.5.9,3.6-.6,10.6-3.5,7.2-8.6,1.6-1.9,1.6-4.9.5-7.1.2,0,.3,0,.5-.1,3.4-1.4,3.5-6.7,6.2-9.1-.1,3,4.3,4.3,5.4,1.6,2.4,2.2,6.2,1.9,8.5-.5.2,2.7-.8,5.5-2.7,7.2.6.5,1.5.7,2.2.6-2,1-2.9,5.5,0,5.2-1.7,1.4-2.9,3.5-3.6,5.7l3.5.5c-.9,4.9,4.8,8,7.6,4.2,1.4,3.9,8.8,3.9,10-.2-.4,1.5,1.6,2.5,2.8,1.6.9-.7,1.3-2,1.6-3.3-.5,6.2,15.1,11.8,13.2,3.1.3.2.8.2,1-.2.4-.6.5-1.4.5-2.1,1.9,3.6,5.4,6,9,7,4.9.4,14.3,3.5,14.5-4.4,1.9,3.5,5.1-.8,8.1-6,1.2,3.5,2.5,7,3.9,10.4.4,1,.9,2.1,1.9,2.6,1.2.5,2.6-.2,3.4-1.2.8-1.1,1-2.4,1.2-3.7-.2,2.8,1.4,5.6,3.9,6.8s5.8.7,7.8-1.3c-.8,7.5,1,15.3,5.1,21.8,1.3,2.1,3.1,4.2,5.5,4.5,2.2.3,4.7-1.8,4.2-3.9,1.7,5.2,3.9,10.3,6.5,15.2.7,1.4,2.2,3,3.6,2.2.8-.5,1-1.6,1.3-2.5s1.2-1.9,2.1-1.6c-1.5,2.7-1.3,6.2,0,9,1.2,2.9,3.3,5.3,5.5,7.5,1.5,1.5,4.2,2.8,5.3,1.1-.8,2.3-1.6,4.6-2.5,7-.2.6-.4,1.3-.4,1.9,0,.6.5,1.2.8,1.8,1.2,1.8,2.6,3.8,4.7,4.5,1.9.7,4.6-.4,4.9-2.4-.5,4.6,1.3,9.5,4.8,12.6,1.5,1.4,4,2.3,5.3.8.5-.5.6-1.3.8-2,.5-2.4.9-4.9,1.2-7.4,2.1,3.8.2,9,2.8,12.4,2.2,2.8,6.2,2.9,9.8,2.7.6,0,1.2,0,1.7-.4,2.2-1.4-.8-5.1.5-7.4.7,4.7,5.6,8.3,10.2,7.6.6-6.1,1.2-12.8-.2-18.7.2.5.4.9.7,1.4,1.6,1.4,4.3.2,5.2-1.8s.3-4.2-.2-6.3c-.6-2.4-1.3-5-3.1-6.6-.2-.2-.4-.3-.6-.5,1.1.4,2.3.5,3.5.5,3.2,0,6.3-1.2,9.3-2.5.3-3,.6-6.1-.3-9-.6-2.1-2.1-4.1-4-5.2h0ZM1023.2,349.6c.1.2.3.5.5.7-.2-.2-.4-.4-.5-.7Z"/>
                  </g>
                  <path class="st19" d="M430.4,308.5c1.9,1.5,4.7,1.6,6.7.5-1.7,1.8,1.7,5.1,3.4,3.3,0,2.3,2,4.5,4.3,4.5s4.4-2.2,4.4-4.5c-1.6,1.1-.4,4,1.5,4.3s3.7-1.3,4.3-3.2.3-3.9,0-5.8c1.8,1.8,5.6-.2,5-2.7,2.6,1.2,6.1-1.2,6-4.1-2.6.1-4.8-1.7-7.4-2.3s-6,1.8-4.6,4c-2.1-1.1-4.3-2.2-6.4-3.4-.8,1.6,0,3.9,1.8,4.4-2.7,0-5.4,0-8-.1.6-3.1,0-6.5-1.4-9.3-1.1.7.1,2.8,1.2,2.2-1.1-3.8-7.9-3.3-8.4.5-2.5-1.4-6.1-.2-7.3,2.4-.8-2.5-5.5-1.5-5.2,1.1-1.4-5.2-8.5-7.7-12.9-4.6-.3-3.8-4.5-6.6-8.2-5.6-1.1.3-2.3,1.4-1.9,2.5-.3-1.5-3.1-.5-2.5.9-.6-1.8-2.1-3.3-3.9-3.8,1.6-1.4,1.4-4.3-.3-5.5s-4.5-.4-5.3,1.5c2-3.1-1.6-6.7-4.8-8.6-3.2-1.9-6.4-3.8-9.6-5.6-2.3-1.4-6.4-2-6.7.7-.5-1.9-1-3.7-1.4-5.5-3,.3-5,4.2-3.6,6.8-2-.5-.7-4.3,1.2-3.6-.4-6.9-8.3-12.2-14.8-9.9-3.4-5.5-10-8.9-16.4-8.4l-.8,2.8c1.4-5.1-5.4-10.2-9.9-7.4-1.7-1.3-3.8-2-5.9-2-.4,1.2-.5,2.6-.3,3.9-1.9-1.8.6-5.6,3-4.6,1.6-1.7-.5-5-2.8-4.3-1-2.9-4.4-4.7-7.4-3.9-1.6-7.2-6.8-13.4-13.5-16.4-.2,1.2-.5,2.4-.7,3.6-1.3-.4-2.7-.4-4,0-.1,3-.3,6.1-.4,9.1-1.3-2.7-3.4-5-6-6.5-.2,1.9-.4,3.9-.6,5.9-1.6-2.9-2.6-6.2-3.1-9.5,1.5-.2,2.9-1,3.8-2.2-2.4-1.3-5.2-1.8-7.9-1.3.8-3-3-6.1-5.8-4.7.6-2.1-1.2-4.3-3.3-5s-4.4-.3-6.5.2c-1.5.3-3.5,1.5-2.8,2.9-.9-.8-2.3-1.1-3.4-.8-.1,1.1-.3,2.3-.4,3.4-2.3-3.4-5.2-6.8-9.2-7.8s-9,2-8.7,6.1c-5.5-4.6-12.4-7.4-19.6-7.7-1.7,0-3.4,0-4.8.9s-2,3.1-.9,4.3c-2.3,0-4.6.1-7,.1-.4,2-.4,4.1-.1,6.1-3.3-.8-6.5-1.9-9.7-3-.8,5.4,0,11.1,2.4,16-3.1-1.4-6.3-1.4-8.2,1.4-1-1.2-2.7-1.9-4.3-1.9-.5,1.4-1,2.8-1.6,4.1-2.5-.6-5.1-1.2-7.6-.9s-5.2,1.6-6.2,4c-4.2-.6-8.6,2.6-9.2,6.8-4.6,1.3-8,6-7.8,10.8-1.5.7-2.2,2.6-1.5,4.1,2.1-.3,4.2,0,6.1.8-3.3,1.2-7.4,3.6-6.6,7,.4,1.8,2.1,3.1,3.9,3.5s3.7.2,5.5-.1c-1.8.8-3.6,1.9-4.5,3.6s-.4,4.3,1.5,5c.6.2,1.2.2,1.6.6s.5,1.3,0,1.4c-2.5-.5-3.7,1.7-6,2.8s-3.8,4.3-2.1,6.2c-3.7-4.4-11.1-5-15.6-1.4.7-3.8-4.1-7.4-7.6-5.6-1.9,1-3.1,3.1-3.9,5.1-2.7,6.3-4.1,13.2-4,20.1-4.5,2.2-7.8,6.9-8.3,11.9-3.9.5-6.5,5.2-5,8.8-3.7,3.8-5.1,9.6-3.7,14.6.7,2.5,3.2,5.2,5.6,4.2-3.5-.3-7.6-.5-9.9,2.2-1.2,1.3-1.7,3-2,4.7-1.2,5.4-1.3,11-.4,16.4-1.6-1.3-4.4.2-4.2,2.3,3.2,2,7.6,1.7,10.4-.7-1.2.7-2,2-2.2,3.4,2.2,1.4,5.3,1.2,7.4-.4s3.1-4.5,2.4-7c2.8,2.7,8.9.1,10.5-3.4-.4,1.2-.8,2.4-1.2,3.6,3.3,1,7.2-1.8,7.4-5.3,1,2.1,4,2.9,5.9,1.7,2-1.2,2.5-4.2,1.1-6.1,4.9-.9,6.9-8.2,3.2-11.5,3.6,1.9,8.7-.7,9.4-4.8.6,2,2.9,3,4.9,2.8s3.9-1.3,5.6-2.4c-.4,2.2,2.6,3.3,4.9,3.2,4.7-.2,9.2-1.6,13.3-4-.9,1.6,1.7,2.8,3.5,2.8,3.7,0,8-.2,10.4-3.1,3.2,2,7.8,1.4,10.4-1.3,6,.5,12.1-.8,17.4-3.7.7-.4,1.5-.9,1.7-1.7s-.6-1.8-1.4-1.4c2.9,1.3,6.2,1.6,9.4,1,.6-2.7-.3-5.8-2.4-7.6.2,1.1,1.9.8,2.5-.1s.4-2.1.9-3.1c2-4.2,10.4,0,12.3-4.3-.2,3.9,1.7,8.7,1.5,12.6,4.3,0,8.5-2,11.3-5.2-1.7.2-2.3,2.7-1.2,4s3,1.6,4.7,1.5c2.5-.1,5-.9,7.1-2.2-1.2.2-1.3,2-.4,2.8s2.2.8,3.4.8c2.8,0,6.4-.8,6.8-3.6-.8.4-.6,1.6,0,2.2s1.5.7,2.4.8c2.5.3,5.1.6,7.5-.3s4.4-3.3,3.9-5.8c.3,1.6,2.4,1.9,4,1.8,2.1-.1,4.2-.3,6-1.3s3.1-3.2,2.5-5.2c-.6-2-2.9-3-4.9-3.7,5.2.4,10.8-1,15.9-2.2s10.1-4,12.5-8.7v3.5c6.1,2.4,14-1.5,15.9-7.9-.6,1.6,1.2,3.2,2.9,3.2s3.2-1.1,4.5-2.2c.4,2.3-.4,4.8-1.9,6.5,3,.8,6.5-.4,8.4-2.9-1.8-.5-3,2.4-1.9,3.9s3.2,1.9,5,2.2c2.9.4,6.6.4,7.8-2.3-1.9.5-2,3.5-.5,4.8s3.7,1.3,5.7,1.1c1.5-.1,3.6-1.3,2.8-2.6-1.8,4.2,2.5,9.7,7,8.9,4.5-.8,6.8-7.2,3.8-10.7,0,.9.8,1.7,1.6,2.1,2.8,1.7,6.7,2,9.2,0s2.8-6.7,0-8.4c-.3,1.1.8.8,1.8,1.3s2.2.6,3.3.7c2.9.2,6.1.2,8.2-1.7-.7,1.2-1.5,2.5-2.2,3.7-.2.4-.4.8-.2,1.2.2.3.5.4.8.4,2,.4,4.1.7,6.1.2s3.8-2.2,3.8-4.2c-.2,1.5-.3,3-.5,4.5,0,.4,0,.8.1,1.1.3.4.8.5,1.3.6,2.1.3,4.2.5,6.2-.2s3.4-3.1,2.5-5c-1,.8-.6,2.6.4,3.3s2.4.9,3.7.9c1.7,0,3.5,0,5.2-.3,1.7-.2,3.5-.5,4.8-1.6s2-3.1,1-4.5c-1.6-.5-2.2.6-3.4,1.7h0Z"/>
                </g>
              </g>
            </g>
            <path class="st20" d="M458,297.3c-.6-1.3-2.1-2.1-3.5-1.8,1.2-1.1.5-3.3-.9-4.2s-3.2-.8-4.8-.6c-1.8.1-3.5.3-5.3.4,0-.6-.2-1.2-.3-1.8-4.2-.6-8.6.7-11.8,3.3,0-.3-.1-.6-.2-.8-3.7-.1-7.4,1.3-10.2,3.8-1.7-2.4-5.5-3-7.8-1.1-.3-1.5-1.5-2.7-3-3s-3.1.3-4,1.5c-.1-1.1-.2-2.2-.8-3.1-.5-.9-1.7-1.6-2.7-1.3-.1-1.9-2.6-2.8-4.1-1.9.8-1,1.1-2.4.6-3.6-.5-1.3-3.8-2.5-5.6-2.3,0,0,0-.1,0-.1,0-1.1,0-2.2,0-3.2,0-.4,0-.8-.3-1-.2-.2-.6-.3-.9-.4-3.4-.5-6.9-.3-10.3.5,0-.9,0-1.8,0-2.7,0-.3,0-.6-.2-.8-.2-.2-.5-.3-.9-.4-1.3-.1-2.7-.2-4,0-.6,0-1.2.2-1.7.5.3-1.3.2-2.7-.8-3.5-.4-.3-.8-.5-1.2-.6-2-.7-4.2-1-6.4-.8,0-1-.2-2-.6-3-1.2-3-4.4-4.7-7.6-5.1s-6.4.2-9.5.9c1.3-3.1-.6-6.9-3.7-8.5-3-1.6-6.7-1.3-9.9-.2,1-1.7,0-4.1-1.9-4.9-1.8-.9-3.9-.7-5.8-.3-.3,0-.6,0-1,0,0,0,0,.2,0,.2-.2,0-.5.1-.7.2-.8-4.2-6.2-7.4-10-5.1-1.7-1.3-3.8-2-5.9-2-.4,1.2-.5,2.6-.3,3.9-1.9-1.8.6-5.6,3-4.6,1.6-1.7-.5-5-2.8-4.3-1-2.9-4.4-4.7-7.4-3.9-1.6-7.2-6.8-13.4-13.5-16.4-.2,1.2-.5,2.4-.7,3.6-1.3-.4-2.7-.4-4,0-.1,3-.3,6.1-.4,9.1-1.3-2.7-3.4-5-6-6.5l-.6,5.9c-1.6-2.9-2.6-6.2-3.1-9.5,1.5-.2,2.9-1,3.8-2.2-2.4-1.3-5.2-1.8-7.9-1.3.8-3-3-6.1-5.8-4.7.6-2.1-1.2-4.3-3.3-5-2.1-.7-4.4-.3-6.5.2-1.5.3-3.5,1.5-2.8,2.9-.9-.8-2.3-1.1-3.4-.8-.1,1.1-.3,2.3-.4,3.4-2.3-3.4-5.2-6.8-9.2-7.8-4-.9-9,2-8.7,6.1-5.5-4.6-12.4-7.4-19.6-7.7-1.7,0-3.4,0-4.8.9-1.4,1-2,3.1-.9,4.3-2.3,0-4.6.1-7,.1-.4,2-.4,4.1-.1,6.1-3.3-.8-6.5-1.9-9.7-3-.8,5.4,0,11.1,2.4,16-3.1-1.4-6.3-1.4-8.2,1.4-1-1.2-2.7-1.9-4.3-1.9l-1.6,4.1c-2.5-.6-5.1-1.2-7.6-.9-2.6.3-5.2,1.6-6.2,4-4.2-.6-8.6,2.6-9.2,6.8-4.6,1.3-8,6-7.8,10.8-1.5.7-2.2,2.6-1.5,4.1,2.1-.3,4.2,0,6.1.8-3.3,1.2-7.4,3.6-6.6,7,.4,1.8,2.1,3.1,3.9,3.5s3.7.2,5.5-.1c-1.8.8-3.6,1.9-4.5,3.6s-.4,4.3,1.5,5c.6.2,1.2.2,1.6.6s.5,1.3,0,1.4c-2.5-.5-3.7,1.7-6,2.8s-3.8,4.3-2.1,6.2c-3.7-4.4-11.1-5-15.6-1.4.5-3-2.3-5.8-5.2-6-.3-1.5-.7-3.1-2-4-1.2-.8-3.2.1-3.2,1.4-.4-1.1-2.5-1.3-3.3-.2-1,1.2-.8,2.9-.5,4.4,0-1.1-1.5-1.4-2.6-1.5-1.8,0-3.5-.1-5.3-.2-1,0-2.2,0-3.1.5-.9.5-1.5,1.8-.9,2.6-1.3-1-3.1-.9-4.7-.8-1,0-2,.2-2.9.7s-1.6,1.5-1.4,2.5c-5.3-1.1-11.1,3.4-11.3,8.8-1.1-2.1-4.2-2.4-6.2-1.1s-2.9,3.8-3.1,6.1c-.3,3.2,1.1,7,4.3,7.7-5.4,1.9-9.6,6.9-10.6,12.5-.2,1.2-.3,2.5.2,3.7s1.7,2,2.9,1.9c-2.4.9-5.7-1-7.2,1.1-.5.7-.5,1.5-.5,2.4,0,2.1.6,4.8,2.6,5.1-3.4,0-5.8,3.9-5.2,7.3s3.1,6,5.7,8.2c-2.1-.6-3.2.9-4.9,2.2-1,.7-2,1.6-2.3,2.8s.7,2.7,1.9,2.4c-.6.2-1.2.4-1.8.5v4.8c1.1.5,2.4.6,3.5.4-1.1.8-1.9,2.3-2,3.7-.3,2.1.5,4.3,2.2,5.5,1.7,1.2,4.3,1.1,5.6-.5-1.3,1.7-.8,4.5,1.1,5.6s4.6,0,5.3-2c1,.5-.6,1.9-.3,3,.1.4.5.7.8.9,1.8,1.1,3.7,2,5.8,2.6,1.9.6,4.1.9,5.9,0s3.1-3.2,2.1-4.9c.6.6,1.7.6,2.5.2.8-.5,1.3-1.2,1.7-2,1.1-2.2,1.5-4.8,1.1-7.3,3.4,2.5,8.2,1.8,11.9,0,1.7-.9,3.3-2,4.2-3.6.9-1.7.9-3.9-.4-5.3,1.8-.2,3.5-1.8,3.8-3.6.3-1.8-.7-3.8-2.3-4.6,4,1.5,9.1-1,10.2-5.1,0,0-.1,0-.2-.1,1.2.2,2.4.1,3.5-.4,2.1-.9,3.5-2.9,4.7-4.8.9-1.5,1.7-3.1,1.8-4.8,0-1.7-.9-3.6-2.5-4.1,1.1.2,1.9-1.1,2.3-2.2.9-2.4,1.7-4.8,2.6-7.1.1-.3.2-.7.1-1-.1-.3-.4-.5-.7-.6l-2.2-1.1c1.3.4,3-.5,3.6-1.9.4-.8.4-1.7.4-2.6,1.1-.2,2.2-.4,3.3-.9,4.4-1.9,7.4-6.4,7.8-11.1,0,0,.1,0,.2,0,.2,1.7.5,3.4.7,5.1,5.7-2.2,10.8-4.2,15-8.6-1.7,1.5-1.1,4.6.8,5.9s4.4,1.1,6.6.4c1.2-.4,2.4-1,3.3-1.9,2.1-2.2,1.9-5.5,1.7-8.5.6,1.5,1.3,3.1,2.5,4.2,1.2,1.1,3.1,1.7,4.5,1,2.5-1.2,2.1-4.8,1.4-7.5,2.3,3.1,6.9,4.6,10.1,2.5,2.2-1.4,2.9-4.5,2-6.8.5-.1,1-.2,1.4-.3.4,0,.9-.2,1.4-.2,1.4,2.4,3.2,4.7,5.8,5.7,1.4.5,3.1.3,4.4-.4-.2,1.5.1,3.1,1,4.3,1.7,2.3,4.6,3.2,7.3,4.1,1.5.5,3.1,1,4.7.7,1.6-.3,4.6-.5,4.6-2.1,1.3,1.5,3.9,1.6,5.3.2.3-2.1-.3-4.4-1.6-6.2,3,.7,6.3-2.2,5.9-5.3,2,.7,4.2,1.4,6.2.8s3.7-3,2.7-4.9c1.6,1.4,3.8,2.3,5.9,2s4.1-2,4.2-4.1c.1-1.6-.5-3.7.9-4.3,1.1-.5,2.3.6,3,1.7,2.1,3.1,3.8,6.6,6.3,9.4s7.5,5.9,11.2,5.2c.7,1,2.1,1.3,3.3,1.5,2.1.4,4.5.7,6.4-.4,1.9-1,2.8-4.1,1.1-5.4,4,1.6,9.1-1.9,9-6.2,2.9,1,4,5.5,7.1,5.7,1.7.1,3.2-1.2,3.8-2.8.1-.4.2-.7.3-1.1.7,2.7,3,5.1,5.6,6.2,2.5,1.1,6.4.7,6.7-2,.8,3.2,1.5,6.4,3.3,9.1,1.8,2.7,4.8,4.9,8,4.8,4.1-.2,7.5-4.6,6.6-8.6,2.6,3.5,3.4,8.1,6.1,11.5s10.2,7.9,12.5,4.1c1,1.5,3.5,1,4.5-.4.5-.6.8-1.4.9-2.2.5.3,1,.5,1.5.7,2.1.7,4.9,0,5.8-2-1.2,1.7-.1,4.3,1.8,5.1s4.2-.1,5.5-1.8c1-1.2,1.3-2.8,1.3-4.4.4,1.7,1.7,3.1,3.3,3.8,2,.9,4.5.7,6.5-.1.4-.1.8-.3,1-.6.3-.4.3-.9.3-1.3.1-2.7-.1-5.4-.8-8,1.8,1.1,3.6,2.3,5.7,2.5,1.1.1,2.1,0,3-.5,0,.5,0,1,0,1.4.4,2.5,1.3,5,3.4,6.3s5.5.6,6.1-1.8c3.5.7,4.9,4.8,7.6,7.1.3.3.6.5,1,.5.8,0,1-1.1.9-1.9l-.5-6.4c2.4,3.3,6,5.7,10,6.5.4,0,.8.1,1.1,0,.7-.3.8-1.2.8-2,0-1.4,0-2.8,0-4.2.8.5.7,1.7,1.1,2.6.7,1.8,3.4,2.1,5.1,1.1s2.6-3,3.4-4.8c-.3,1.7,0,4,1.6,4.3,1.8.2,4.6-2.7,5.6-1.2.4.6,1.2.8,1.9,1,1.9.4,4.1.2,5.5-1.2.8-.7,1.2-1.9,1.1-3,.3.5.7,1,1.1,1.3,1,.9,2.6,1.3,3.8.6,1.7-1.1,1.4-3.7.5-5.5.7-.3,1.4-.6,2-1h0ZM319.6,249.7c0-.1,0-.3.1-.4.3,0,.7,0,1-.1-.4.2-.8.4-1.1.5h0Z"/>
          </g>
        </g>
      </g>
    </g>
    <g>
      <rect class="st54" x="502.6" y="137.6" width="81.1" height="3.3"/>
      <rect class="st54" x="502.6" y="129.7" width="81.1" height="3.3"/>
    </g>
  </g>
  <path d="M572.5,102.3c.8,0,1.4-.8,1.3-1.5-1.7.8-4-.9-3.7-2.7,1.1.4,2.4,0,3.2-.8s1-2.2.5-3.2l1.2.9c0-1.4.6-2.6,1.3-3.8.3-.6.7-1.2,1.3-1.4s1.4.6,1,1.1c.7-.5,1.6-1,2.5-1.2,0,1.2,0,2.3,0,3.5,1.3-.9,2.8-1.6,4.3-1.9-.2,1-.8,1.9-1.5,2.6.3-.9,1.7-.7,2.4,0s1.3,1.6,2.2,1.7c-.9.4-2,.4-2.9.2,1.5,1.2,2.5,3,2.8,4.9-.5,0-1,0-1.4.3,1.2.7,2.1,1.9,2.5,3.2-.7.2-1.4.5-2.1.7.2-.3.7-.1.9.2s.2.7.2,1c0,.7,0,1.4,0,2.1,0,.4,0,.9-.4,1.2-.4.3-1,.1-1.5.2-2,.2-1.9,2.9-3.2,3.9s-3.2,0-4.8-.9-7.1-4.8-2.7-4.8c-1-.4-1.8-1.2-2.1-2.3.7-.2,1-.6,1.6-.9-1.2,0-2.5-.7-2.7-2Z"/>
  <path d="M500.9,92.2c1-.4,2-.6,3-.6l-1.9,3c.6-.6,1.7.5,1.3,1.3s-1.3,1.1-2.1,1.3c.3.4.4.9.3,1.3-2,0-4,1.1-5.1,2.8.9-.3,2,.3,2.2,1.2-1,.2-2,.9-2.5,1.8,1-1,2.8-.9,3.7.1-.9.4-1.9.6-3,.7,2.2,5.1,8,8.5,13.5,7.9.5,0,.9-.1,1.3-.4.5-.4.7-1.1,1.3-1.3.5-.2,1.2,0,1.7-.2.7-.4.5-1.5,0-2.2s-1.1-1.4-.8-2.2c.8-.2,1.6-.7,2.2-1.3-.7.2-1.4.4-2,.2s-1.2-.9-1-1.5c.1-.3.4-.6.6-.8.8-.7,1.7-1.5,2.5-2.2-.6.2-1.2-.2-1.3-.8,1.2-.6,2.4-1.2,3.6-1.8-.8-.8-1.7-1.5-2.8-2.1,1.1-.6,2-1.6,2.4-2.9-1.2-.2-2.4-.4-3.6-.6.9-1,1.4-2.4,1.3-3.8-1.1.1-2.1.3-3.2.4.7-2,3.4-6.3,0-6.4s-6.1,2.3-7.4,3.9c.6.1.7.5,1.1.7-2.1,1.2-4,2.6-5.5,4.6Z"/>
  <path d="M581.4,85.8c.9.4,1.4,1.5,1.2,2.4.7-1,2.4-.6,3.1.5s.7,2.4,1,3.6c.2.8.5,1.9,0,2.5-.2.2-.5.4-.8.5-1.5.6-3,1.2-4.5,1.8-1,.3-1.9.7-2.9.8-1.5.2-2.9-.1-4.4-.4-.3,0-.7-.1-1-.4-.2-.2-.3-.5-.3-.8-.2-.9-.2-1.9-.1-2.9-.3.3-.7.5-1.1.4-.7-.1-1.2-1.1-.8-1.7s1.3-.9,1.9-.5c-.6-.3-1.2-.7-1.7-1.2-.5-.5-.9-1.1-.8-1.7,0-.7.6-1.1,1.2-1.1-3.3,0-.1-3.5,1.5-3.9s6.3-.5,5.8,2.5c.7-.6,1.7-.9,2.6-.5Z"/>
  <path d="M509,76.1h3.6c.3,0,.7,0,1,.2.7.5.3,1.6-.5,2,.5-.5,1.4-.7,2.1-.5s1.3.9,1.4,1.7c0,.7-.5,1.5-1.1,1.2,1.1-.4,2.5,0,3.2,1s.6,2.4-.2,3.3c.6-.3,1.5.3,1.6,1s-.5,1.4-1.2,1.7-1.4.2-2.2,0c.4.1.7.6.5,1.1-2.6.7-5.3.8-8,.9-1.7,0-3.5.1-5-.8-.7-.5-1.3-1.2-1.3-2s.6-1.7,1.5-1.7c-.6.4-1.5,0-1.6-.7s.4-1.4,1-1.7,1.4-.3,2.1-.2c-.7-.4-1.5-.8-1.8-1.6-.3-.7,0-1.6.6-2s1.4-.5,2.1-.3c-1-.4-1.1-3.1-.5-3.7s2.6-.4,3.5-.3c0,.6-.3,1.2-.9,1.5Z"/>
  <path d="M581.5,76.1c.6.7.6,2.1-.3,2.6.5-.4,1.4-.4,1.9,0s.9,1.1,1,1.8c.1.7-.3,1.6-.9,1.4.6.6,1.2,1.3,1.1,2.1s-1.1,1.6-1.7,1c.8-.2,1.7.6,1.6,1.5s-.8,1.6-1.6,1.9-1.7.3-2.6.3c-1,0-2,0-3.1,0-2,0-4.2-.1-5.7-1.5-.6-.5-1-1.2-1-2s.6-1.5,1.3-1.6c-.9.2-1.9.5-2.8.2s-1.7-1.2-1.4-2.1c.3-.9,1.3-1.2,2.2-1.4-.6.2-1.2-.2-1.5-.7-1.3-2.5,1.1-2.9,2.9-2.1-2.2-3,7.6-4.2,5.6-1.8,1.4-.6,3.4-.9,4.6.4Z"/>
</svg>